<?xml version="1.0" encoding="UTF-8" standalone="no"?>
<!-- Generator: Adobe Illustrator 16.0.4, SVG Export Plug-In . SVG Version: 6.00 Build 0)  -->

<svg
   xmlns:dc="http://purl.org/dc/elements/1.1/"
   xmlns:cc="http://creativecommons.org/ns#"
   xmlns:rdf="http://www.w3.org/1999/02/22-rdf-syntax-ns#"
   xmlns:svg="http://www.w3.org/2000/svg"
   xmlns="http://www.w3.org/2000/svg"
   xmlns:sodipodi="http://sodipodi.sourceforge.net/DTD/sodipodi-0.dtd"
   xmlns:inkscape="http://www.inkscape.org/namespaces/inkscape"
   version="1.1"
   id="Calque_1"
   x="0px"
   y="0px"
   width="42px"
   height="37px"
   viewBox="0 0 42 37"
   enable-background="new 0 0 42 37"
   xml:space="preserve"
   inkscape:version="0.91 r13725"
   sodipodi:docname="export.svg"><metadata
     id="metadata13"><rdf:RDF><cc:Work
         rdf:about=""><dc:format>image/svg+xml</dc:format><dc:type
           rdf:resource="http://purl.org/dc/dcmitype/StillImage" /></cc:Work></rdf:RDF></metadata><defs
     id="defs11" /><sodipodi:namedview
     pagecolor="#ffffff"
     bordercolor="#666666"
     borderopacity="1"
     objecttolerance="10"
     gridtolerance="10"
     guidetolerance="10"
     inkscape:pageopacity="0"
     inkscape:pageshadow="2"
     inkscape:window-width="640"
     inkscape:window-height="480"
     id="namedview9"
     showgrid="false"
     inkscape:zoom="6.3783784"
     inkscape:cx="21"
     inkscape:cy="18.5"
     inkscape:current-layer="Calque_1" /><path
     style="color:#000000;font-style:normal;font-variant:normal;font-weight:normal;font-stretch:normal;font-size:medium;line-height:normal;font-family:sans-serif;text-indent:0;text-align:start;text-decoration:none;text-decoration-line:none;text-decoration-style:solid;text-decoration-color:#000000;letter-spacing:normal;word-spacing:normal;text-transform:none;direction:ltr;block-progression:tb;writing-mode:lr-tb;baseline-shift:baseline;text-anchor:start;white-space:normal;clip-rule:nonzero;display:inline;overflow:visible;visibility:visible;opacity:1;isolation:auto;mix-blend-mode:normal;color-interpolation:sRGB;color-interpolation-filters:linearRGB;solid-color:#000000;solid-opacity:1;fill:#000000;fill-opacity:1;fill-rule:nonzero;stroke:none;stroke-width:2;stroke-linecap:round;stroke-linejoin:round;stroke-miterlimit:10;stroke-dasharray:none;stroke-dashoffset:0;stroke-opacity:1;color-rendering:auto;image-rendering:auto;shape-rendering:auto;text-rendering:auto;enable-background:accumulate"
     d="m 30.994141,0 a 1.0001,1.0001 0 0 0 -0.59375,1.8046875 l 2.791015,2.0644531 C 30.892785,5.5991408 25.827753,10.189581 25.099609,17.675781 a 1.0001,1.0001 0 0 0 1.798829,0.691407 c 0,0 2.060155,-2.78318 4.621093,-5.447266 1.28047,-1.332043 2.685715,-2.628634 3.96875,-3.5078126 1.111185,-0.7614203 2.043568,-1.0667781 2.666016,-1.0820313 l 2.007812,3.0781249 A 1.0001,1.0001 0 0 0 42,10.861328 L 42,1 A 1.0001,1.0001 0 0 0 41,0 L 30.994141,0 Z M 34.029297,2 40,2 40,7.4960938 39.511719,6.7480469 A 1.0001,1.0001 0 0 0 38.863281,6.3125 c -1.538893,-0.2972282 -3.031629,0.4403658 -4.503906,1.4492188 -1.472277,1.0088529 -2.947422,2.3838552 -4.283203,3.7734372 -1.129155,1.174634 -1.210717,1.402311 -2.023438,2.384766 2.224756,-6.0027592 7.361328,-9.1738282 7.361328,-9.1738282 a 1.0001,1.0001 0 0 0 0.08008,-1.6621094 L 34.029297,2 Z"
     id="path5"
     inkscape:connector-curvature="0" /><path
     style="color:#000000;font-style:normal;font-variant:normal;font-weight:normal;font-stretch:normal;font-size:medium;line-height:normal;font-family:sans-serif;text-indent:0;text-align:start;text-decoration:none;text-decoration-line:none;text-decoration-style:solid;text-decoration-color:#000000;letter-spacing:normal;word-spacing:normal;text-transform:none;direction:ltr;block-progression:tb;writing-mode:lr-tb;baseline-shift:baseline;text-anchor:start;white-space:normal;clip-rule:nonzero;display:inline;overflow:visible;visibility:visible;opacity:1;isolation:auto;mix-blend-mode:normal;color-interpolation:sRGB;color-interpolation-filters:linearRGB;solid-color:#000000;solid-opacity:1;fill:#000000;fill-opacity:1;fill-rule:nonzero;stroke:none;stroke-width:2;stroke-linecap:round;stroke-linejoin:round;stroke-miterlimit:10;stroke-dasharray:none;stroke-dashoffset:0;stroke-opacity:1;color-rendering:auto;image-rendering:auto;shape-rendering:auto;text-rendering:auto;enable-background:accumulate"
     d="M 6,0 C 2.6975704,0 0,2.6986161 0,6 l 0,25 c 0,3.301384 2.6975704,6 6,6 l 30,0 c 3.30243,0 6,-2.698616 6,-6 l 0,-16 a 1.0001,1.0001 0 1 0 -2,0 l 0,16 c 0,2.220616 -1.77843,4 -4,4 L 6,35 C 3.7784296,35 2,33.220616 2,31 L 2,6 C 2,3.7793839 3.7784296,2 6,2 L 26,2 A 1.0001,1.0001 0 1 0 26,0 L 6,0 Z"
     id="path7"
     inkscape:connector-curvature="0" /></svg>