<?xml version="1.0" encoding="UTF-8" standalone="no"?>
<!-- Generator: Adobe Illustrator 16.0.4, SVG Export Plug-In . SVG Version: 6.00 Build 0)  -->

<svg
   xmlns:dc="http://purl.org/dc/elements/1.1/"
   xmlns:cc="http://creativecommons.org/ns#"
   xmlns:rdf="http://www.w3.org/1999/02/22-rdf-syntax-ns#"
   xmlns:svg="http://www.w3.org/2000/svg"
   xmlns="http://www.w3.org/2000/svg"
   xmlns:sodipodi="http://sodipodi.sourceforge.net/DTD/sodipodi-0.dtd"
   xmlns:inkscape="http://www.inkscape.org/namespaces/inkscape"
   version="1.1"
   id="Calque_1"
   x="0px"
   y="0px"
   width="37px"
   height="37px"
   viewBox="0 0 37 37"
   enable-background="new 0 0 37 37"
   xml:space="preserve"
   inkscape:version="0.91 r13725"
   sodipodi:docname="faq.svg"><metadata
     id="metadata3391"><rdf:RDF><cc:Work
         rdf:about=""><dc:format>image/svg+xml</dc:format><dc:type
           rdf:resource="http://purl.org/dc/dcmitype/StillImage" /></cc:Work></rdf:RDF></metadata><defs
     id="defs3389" /><sodipodi:namedview
     pagecolor="#ffffff"
     bordercolor="#666666"
     borderopacity="1"
     objecttolerance="10"
     gridtolerance="10"
     guidetolerance="10"
     inkscape:pageopacity="0"
     inkscape:pageshadow="2"
     inkscape:window-width="640"
     inkscape:window-height="480"
     id="namedview3387"
     showgrid="false"
     inkscape:zoom="12.689189"
     inkscape:cx="18.5"
     inkscape:cy="18.5"
     inkscape:current-layer="Calque_1" /><path
     style="color:#000000;font-style:normal;font-variant:normal;font-weight:normal;font-stretch:normal;font-size:medium;line-height:normal;font-family:sans-serif;text-indent:0;text-align:start;text-decoration:none;text-decoration-line:none;text-decoration-style:solid;text-decoration-color:#000000;letter-spacing:normal;word-spacing:normal;text-transform:none;direction:ltr;block-progression:tb;writing-mode:lr-tb;baseline-shift:baseline;text-anchor:start;white-space:normal;clip-rule:nonzero;display:inline;overflow:visible;visibility:visible;opacity:1;isolation:auto;mix-blend-mode:normal;color-interpolation:sRGB;color-interpolation-filters:linearRGB;solid-color:#000000;solid-opacity:1;fill:#000000;fill-opacity:1;fill-rule:nonzero;stroke:none;stroke-width:2;stroke-linecap:round;stroke-linejoin:round;stroke-miterlimit:10;stroke-dasharray:none;stroke-dashoffset:0;stroke-opacity:1;color-rendering:auto;image-rendering:auto;shape-rendering:auto;text-rendering:auto;enable-background:accumulate"
     d="m 20.554688,17.919922 a 1.0001,1.0001 0 0 0 -0.251954,0.03906 l -6,1.761719 a 1.0001,1.0001 0 0 0 -0.71875,0.960938 l 0,2.421875 a 1.0001,1.0001 0 0 0 1,1 l 6,0 a 1.0001,1.0001 0 0 0 1,-1 l 0,-4.183594 a 1.0001,1.0001 0 0 0 -1.029296,-1 z m -0.970704,2.335937 0,1.847657 -4,0 0,-0.673828 4,-1.173829 z"
     id="polygon3377"
     inkscape:connector-curvature="0" /><path
     style="color:#000000;font-style:normal;font-variant:normal;font-weight:normal;font-stretch:normal;font-size:medium;line-height:normal;font-family:sans-serif;text-indent:0;text-align:start;text-decoration:none;text-decoration-line:none;text-decoration-style:solid;text-decoration-color:#000000;letter-spacing:normal;word-spacing:normal;text-transform:none;direction:ltr;block-progression:tb;writing-mode:lr-tb;baseline-shift:baseline;text-anchor:start;white-space:normal;clip-rule:nonzero;display:inline;overflow:visible;visibility:visible;opacity:1;isolation:auto;mix-blend-mode:normal;color-interpolation:sRGB;color-interpolation-filters:linearRGB;solid-color:#000000;solid-opacity:1;fill:#000000;fill-opacity:1;fill-rule:nonzero;stroke:none;stroke-width:2;stroke-linecap:round;stroke-linejoin:round;stroke-miterlimit:10;stroke-dasharray:none;stroke-dashoffset:0;stroke-opacity:1;color-rendering:auto;image-rendering:auto;shape-rendering:auto;text-rendering:auto;enable-background:accumulate"
     d="M 18.5,0 C 8.2945768,0 0,8.2945768 0,18.5 0,28.705423 8.2945768,37 18.5,37 28.705423,37 37,28.705423 37,18.5 37,8.2945768 28.705423,0 18.5,0 Z m 0,2 C 27.624543,2 35,9.375457 35,18.5 35,27.624543 27.624543,35 18.5,35 9.375457,35 2,27.624543 2,18.5 2,9.375457 9.375457,2 18.5,2 Z"
     id="circle3379"
     inkscape:connector-curvature="0" /><path
     style="color:#000000;font-style:normal;font-variant:normal;font-weight:normal;font-stretch:normal;font-size:medium;line-height:normal;font-family:sans-serif;text-indent:0;text-align:start;text-decoration:none;text-decoration-line:none;text-decoration-style:solid;text-decoration-color:#000000;letter-spacing:normal;word-spacing:normal;text-transform:none;direction:ltr;block-progression:tb;writing-mode:lr-tb;baseline-shift:baseline;text-anchor:start;white-space:normal;clip-rule:nonzero;display:inline;overflow:visible;visibility:visible;opacity:1;isolation:auto;mix-blend-mode:normal;color-interpolation:sRGB;color-interpolation-filters:linearRGB;solid-color:#000000;solid-opacity:1;fill:#000000;fill-opacity:1;fill-rule:nonzero;stroke:none;stroke-width:2;stroke-linecap:round;stroke-linejoin:round;stroke-miterlimit:10;stroke-dasharray:none;stroke-dashoffset:0;stroke-opacity:1;color-rendering:auto;image-rendering:auto;shape-rendering:auto;text-rendering:auto;enable-background:accumulate"
     d="m 18.5,25.548828 c -1.768169,0 -3.222656,1.454487 -3.222656,3.222656 0,1.76817 1.454487,3.222657 3.222656,3.222657 1.768169,0 3.222656,-1.454487 3.222656,-3.222657 0,-1.768169 -1.454487,-3.222656 -3.222656,-3.222656 z m 0,2 c 0.687289,0 1.222656,0.535367 1.222656,1.222656 0,0.687289 -0.535367,1.222657 -1.222656,1.222657 -0.687289,0 -1.222656,-0.535368 -1.222656,-1.222657 0,-0.687289 0.535367,-1.222656 1.222656,-1.222656 z"
     id="circle3381"
     inkscape:connector-curvature="0" /><path
     style="color:#000000;font-style:normal;font-variant:normal;font-weight:normal;font-stretch:normal;font-size:medium;line-height:normal;font-family:sans-serif;text-indent:0;text-align:start;text-decoration:none;text-decoration-line:none;text-decoration-style:solid;text-decoration-color:#000000;letter-spacing:normal;word-spacing:normal;text-transform:none;direction:ltr;block-progression:tb;writing-mode:lr-tb;baseline-shift:baseline;text-anchor:start;white-space:normal;clip-rule:nonzero;display:inline;overflow:visible;visibility:visible;opacity:1;isolation:auto;mix-blend-mode:normal;color-interpolation:sRGB;color-interpolation-filters:linearRGB;solid-color:#000000;solid-opacity:1;fill:#000000;fill-opacity:1;fill-rule:nonzero;stroke:none;stroke-width:2;stroke-linecap:round;stroke-linejoin:round;stroke-miterlimit:10;stroke-dasharray:none;stroke-dashoffset:0;stroke-opacity:1;color-rendering:auto;image-rendering:auto;shape-rendering:auto;text-rendering:auto;enable-background:accumulate"
     d="m 18.332031,7.1484375 c -3.66788,0 -6.658203,2.9975635 -6.658203,6.6621095 a 1.0001,1.0001 0 1 0 2,0 c 0,-2.583454 2.072084,-4.6621095 4.658203,-4.6621095 2.587293,0 4.66211,2.0786555 4.66211,4.6621095 0,1.860655 -1.088587,3.457744 -2.65625,4.207031 a 1.0001,1.0001 0 1 0 0.863281,1.802734 c 2.244337,-1.072713 3.792969,-3.36842 3.792969,-6.009765 0,-3.664546 -2.993402,-6.6621095 -6.66211,-6.6621095 z"
     id="path3383"
     inkscape:connector-curvature="0" /><path
     style="fill:none;stroke:#000000;stroke-width:2;stroke-linecap:round;stroke-linejoin:round;stroke-miterlimit:10"
     inkscape:connector-curvature="0"
     id="path3385"
     d="M 18.332,24.212"
     stroke-miterlimit="10" /></svg>