<?xml version="1.0" encoding="UTF-8" standalone="no"?>
<!-- Generator: Adobe Illustrator 16.0.4, SVG Export Plug-In . SVG Version: 6.00 Build 0)  -->

<svg
   xmlns:dc="http://purl.org/dc/elements/1.1/"
   xmlns:cc="http://creativecommons.org/ns#"
   xmlns:rdf="http://www.w3.org/1999/02/22-rdf-syntax-ns#"
   xmlns:svg="http://www.w3.org/2000/svg"
   xmlns="http://www.w3.org/2000/svg"
   xmlns:sodipodi="http://sodipodi.sourceforge.net/DTD/sodipodi-0.dtd"
   xmlns:inkscape="http://www.inkscape.org/namespaces/inkscape"
   version="1.1"
   id="Calque_1"
   x="0px"
   y="0px"
   width="37px"
   height="37px"
   viewBox="0 0 37 37"
   enable-background="new 0 0 37 37"
   xml:space="preserve"
   inkscape:version="0.91 r13725"
   sodipodi:docname="heatmap.svg"><metadata
     id="metadata3446"><rdf:RDF><cc:Work
         rdf:about=""><dc:format>image/svg+xml</dc:format><dc:type
           rdf:resource="http://purl.org/dc/dcmitype/StillImage" /></cc:Work></rdf:RDF></metadata><defs
     id="defs3444" /><sodipodi:namedview
     pagecolor="#ffffff"
     bordercolor="#666666"
     borderopacity="1"
     objecttolerance="10"
     gridtolerance="10"
     guidetolerance="10"
     inkscape:pageopacity="0"
     inkscape:pageshadow="2"
     inkscape:window-width="640"
     inkscape:window-height="480"
     id="namedview3442"
     showgrid="false"
     inkscape:zoom="25.378378"
     inkscape:cx="18.5"
     inkscape:cy="18.5"
     inkscape:current-layer="Calque_1" /><path
     style="color:#000000;font-style:normal;font-variant:normal;font-weight:normal;font-stretch:normal;font-size:medium;line-height:normal;font-family:sans-serif;text-indent:0;text-align:start;text-decoration:none;text-decoration-line:none;text-decoration-style:solid;text-decoration-color:#000000;letter-spacing:normal;word-spacing:normal;text-transform:none;direction:ltr;block-progression:tb;writing-mode:lr-tb;baseline-shift:baseline;text-anchor:start;white-space:normal;clip-rule:nonzero;display:inline;overflow:visible;visibility:visible;opacity:1;isolation:auto;mix-blend-mode:normal;color-interpolation:sRGB;color-interpolation-filters:linearRGB;solid-color:#000000;solid-opacity:1;fill:#000000;fill-opacity:1;fill-rule:nonzero;stroke:none;stroke-width:2;stroke-linecap:round;stroke-linejoin:round;stroke-miterlimit:10;stroke-dasharray:none;stroke-dashoffset:0;stroke-opacity:1;color-rendering:auto;image-rendering:auto;shape-rendering:auto;text-rendering:auto;enable-background:accumulate"
     d="m 18.5,12.679688 c -3.203005,0 -5.820313,2.617307 -5.820312,5.820312 0,3.203005 2.617307,5.820312 5.820312,5.820312 3.203005,0 5.820312,-2.617307 5.820312,-5.820312 0,-3.203005 -2.617307,-5.820313 -5.820312,-5.820312 z m 0,2 c 2.122125,0 3.820312,1.698187 3.820312,3.820312 0,2.122125 -1.698187,3.820312 -3.820312,3.820312 -2.122125,0 -3.820313,-1.698187 -3.820312,-3.820312 0,-2.122125 1.698187,-3.820313 3.820312,-3.820312 z"
     id="circle3436"
     inkscape:connector-curvature="0" /><path
     style="color:#000000;font-style:normal;font-variant:normal;font-weight:normal;font-stretch:normal;font-size:medium;line-height:normal;font-family:sans-serif;text-indent:0;text-align:start;text-decoration:none;text-decoration-line:none;text-decoration-style:solid;text-decoration-color:#000000;letter-spacing:normal;word-spacing:normal;text-transform:none;direction:ltr;block-progression:tb;writing-mode:lr-tb;baseline-shift:baseline;text-anchor:start;white-space:normal;clip-rule:nonzero;display:inline;overflow:visible;visibility:visible;opacity:1;isolation:auto;mix-blend-mode:normal;color-interpolation:sRGB;color-interpolation-filters:linearRGB;solid-color:#000000;solid-opacity:1;fill:#000000;fill-opacity:1;fill-rule:nonzero;stroke:none;stroke-width:2;stroke-linecap:round;stroke-linejoin:round;stroke-miterlimit:10;stroke-dasharray:none;stroke-dashoffset:0;stroke-opacity:1;color-rendering:auto;image-rendering:auto;shape-rendering:auto;text-rendering:auto;enable-background:accumulate"
     d="M 18.5,0 C 8.2952991,0 0,8.2973252 0,18.5 0,28.702675 8.2952991,37 18.5,37 28.704701,37 37,28.702675 37,18.5 37,8.2973252 28.704701,0 18.5,0 Z m 0,2 C 27.623299,2 35,9.3786748 35,18.5 35,27.621325 27.623299,35 18.5,35 9.3767009,35 2,27.621325 2,18.5 2,9.3786748 9.3767009,2 18.5,2 Z"
     id="path3438"
     inkscape:connector-curvature="0" /><path
     style="color:#000000;font-style:normal;font-variant:normal;font-weight:normal;font-stretch:normal;font-size:medium;line-height:normal;font-family:sans-serif;text-indent:0;text-align:start;text-decoration:none;text-decoration-line:none;text-decoration-style:solid;text-decoration-color:#000000;letter-spacing:normal;word-spacing:normal;text-transform:none;direction:ltr;block-progression:tb;writing-mode:lr-tb;baseline-shift:baseline;text-anchor:start;white-space:normal;clip-rule:nonzero;display:inline;overflow:visible;visibility:visible;opacity:1;isolation:auto;mix-blend-mode:normal;color-interpolation:sRGB;color-interpolation-filters:linearRGB;solid-color:#000000;solid-opacity:1;fill:#000000;fill-opacity:1;fill-rule:nonzero;stroke:none;stroke-width:2;stroke-linecap:round;stroke-linejoin:round;stroke-miterlimit:10;stroke-dasharray:none;stroke-dashoffset:0;stroke-opacity:1;color-rendering:auto;image-rendering:auto;shape-rendering:auto;text-rendering:auto;enable-background:accumulate"
     d="m 18.5,6.0566406 c -6.860234,0 -12.4433594,5.5831254 -12.4433594,12.4433594 0,6.860234 5.5831254,12.443359 12.4433594,12.443359 6.860234,0 12.443359,-5.583125 12.443359,-12.443359 0,-6.860234 -5.583125,-12.4433594 -12.443359,-12.4433594 z m 0,2 c 5.779354,0 10.443359,4.6640054 10.443359,10.4433594 0,5.779354 -4.664005,10.443359 -10.443359,10.443359 C 12.720646,28.943359 8.0566406,24.279354 8.0566406,18.5 8.0566406,12.720646 12.720646,8.0566406 18.5,8.0566406 Z"
     id="circle3440"
     inkscape:connector-curvature="0" /></svg>