<?xml version="1.0" encoding="UTF-8" standalone="no"?>
<!-- Generator: Adobe Illustrator 16.0.4, SVG Export Plug-In . SVG Version: 6.00 Build 0)  -->

<svg
   xmlns:dc="http://purl.org/dc/elements/1.1/"
   xmlns:cc="http://creativecommons.org/ns#"
   xmlns:rdf="http://www.w3.org/1999/02/22-rdf-syntax-ns#"
   xmlns:svg="http://www.w3.org/2000/svg"
   xmlns="http://www.w3.org/2000/svg"
   xmlns:sodipodi="http://sodipodi.sourceforge.net/DTD/sodipodi-0.dtd"
   xmlns:inkscape="http://www.inkscape.org/namespaces/inkscape"
   version="1.1"
   id="Calque_1"
   x="0px"
   y="0px"
   width="37px"
   height="37px"
   viewBox="0 0 37 37"
   enable-background="new 0 0 37 37"
   xml:space="preserve"
   inkscape:version="0.91 r13725"
   sodipodi:docname="profile.svg"><metadata
     id="metadata3503"><rdf:RDF><cc:Work
         rdf:about=""><dc:format>image/svg+xml</dc:format><dc:type
           rdf:resource="http://purl.org/dc/dcmitype/StillImage" /></cc:Work></rdf:RDF></metadata><defs
     id="defs3501" /><sodipodi:namedview
     pagecolor="#ffffff"
     bordercolor="#666666"
     borderopacity="1"
     objecttolerance="10"
     gridtolerance="10"
     guidetolerance="10"
     inkscape:pageopacity="0"
     inkscape:pageshadow="2"
     inkscape:window-width="640"
     inkscape:window-height="480"
     id="namedview3499"
     showgrid="false"
     inkscape:zoom="25.378378"
     inkscape:cx="18.5"
     inkscape:cy="18.5"
     inkscape:current-layer="Calque_1" /><path
     style="color:#000000;font-style:normal;font-variant:normal;font-weight:normal;font-stretch:normal;font-size:medium;line-height:normal;font-family:sans-serif;text-indent:0;text-align:start;text-decoration:none;text-decoration-line:none;text-decoration-style:solid;text-decoration-color:#000000;letter-spacing:normal;word-spacing:normal;text-transform:none;direction:ltr;block-progression:tb;writing-mode:lr-tb;baseline-shift:baseline;text-anchor:start;white-space:normal;clip-rule:nonzero;display:inline;overflow:visible;visibility:visible;opacity:1;isolation:auto;mix-blend-mode:normal;color-interpolation:sRGB;color-interpolation-filters:linearRGB;solid-color:#000000;solid-opacity:1;fill:#000000;fill-opacity:1;fill-rule:nonzero;stroke:none;stroke-width:2;stroke-linecap:butt;stroke-linejoin:miter;stroke-miterlimit:10;stroke-dasharray:none;stroke-dashoffset:0;stroke-opacity:1;color-rendering:auto;image-rendering:auto;shape-rendering:auto;text-rendering:auto;enable-background:accumulate"
     d="M 18.5,0 C 8.2945768,0 0,8.2945768 0,18.5 0,28.705423 8.2945768,37 18.5,37 28.705423,37 37,28.705423 37,18.5 37,8.2945768 28.705423,0 18.5,0 Z m 0,2 C 27.624543,2 35,9.375457 35,18.5 35,27.624543 27.624543,35 18.5,35 9.375457,35 2,27.624543 2,18.5 2,9.375457 9.375457,2 18.5,2 Z"
     id="circle3487"
     inkscape:connector-curvature="0" /><path
     style="color:#000000;font-style:normal;font-variant:normal;font-weight:normal;font-stretch:normal;font-size:medium;line-height:normal;font-family:sans-serif;text-indent:0;text-align:start;text-decoration:none;text-decoration-line:none;text-decoration-style:solid;text-decoration-color:#000000;letter-spacing:normal;word-spacing:normal;text-transform:none;direction:ltr;block-progression:tb;writing-mode:lr-tb;baseline-shift:baseline;text-anchor:start;white-space:normal;clip-rule:nonzero;display:inline;overflow:visible;visibility:visible;opacity:1;isolation:auto;mix-blend-mode:normal;color-interpolation:sRGB;color-interpolation-filters:linearRGB;solid-color:#000000;solid-opacity:1;fill:#000000;fill-opacity:1;fill-rule:nonzero;stroke:none;stroke-width:2;stroke-linecap:butt;stroke-linejoin:miter;stroke-miterlimit:10;stroke-dasharray:none;stroke-dashoffset:0;stroke-opacity:1;color-rendering:auto;image-rendering:auto;shape-rendering:auto;text-rendering:auto;enable-background:accumulate"
     d="m 18.498047,4.8183594 c -3.34836,0 -6.029297,2.8690529 -6.029297,6.3164066 0,2.350984 1.152565,4.704465 3,6.074218 0.861584,0.637239 1.902431,1.052735 3.029297,1.052735 1.126835,0 2.169268,-0.414009 3.03125,-1.052735 1.847269,-1.36963 3,-3.722901 3,-6.074218 0,-3.4471266 -2.679712,-6.3164066 -6.03125,-6.3164066 z m 0,2 c 2.210462,0 4.03125,1.8915325 4.03125,4.3164066 0,1.652682 -0.944676,3.542427 -2.191406,4.466796 -0.582019,0.431274 -1.19868,0.660157 -1.839844,0.660157 -0.638533,0 -1.255954,-0.230177 -1.837891,-0.660157 -1.246565,-0.924246 -2.191406,-2.813781 -2.191406,-4.466796 0,-2.4246471 1.823657,-4.3164066 4.029297,-4.3164066 z"
     id="path3489"
     inkscape:connector-curvature="0" /><path
     style="color:#000000;font-style:normal;font-variant:normal;font-weight:normal;font-stretch:normal;font-size:medium;line-height:normal;font-family:sans-serif;text-indent:0;text-align:start;text-decoration:none;text-decoration-line:none;text-decoration-style:solid;text-decoration-color:#000000;letter-spacing:normal;word-spacing:normal;text-transform:none;direction:ltr;block-progression:tb;writing-mode:lr-tb;baseline-shift:baseline;text-anchor:start;white-space:normal;clip-rule:nonzero;display:inline;overflow:visible;visibility:visible;opacity:1;isolation:auto;mix-blend-mode:normal;color-interpolation:sRGB;color-interpolation-filters:linearRGB;solid-color:#000000;solid-opacity:1;fill:#000000;fill-opacity:1;fill-rule:nonzero;stroke:none;stroke-width:2;stroke-linecap:round;stroke-linejoin:round;stroke-miterlimit:10;stroke-dasharray:none;stroke-dashoffset:0;stroke-opacity:1;color-rendering:auto;image-rendering:auto;shape-rendering:auto;text-rendering:auto;enable-background:accumulate"
     d="m 16.076172,15.378906 a 1.0001,1.0001 0 0 0 -0.996094,1.185547 c 0.19592,1.121137 -0.194095,2.038148 -0.908203,2.796875 -0.714108,0.758727 -1.77182,1.279508 -2.640625,1.398438 -2.1044451,0.287085 -3.2267991,1.971908 -3.703125,3.363281 -0.4763259,1.391373 -0.46875,2.681641 -0.46875,2.681641 l 1,-1 c 0,0 -0.3264917,1.943849 -0.3222656,1.945312 0.00423,0.0015 0.00789,0.0039 0.013672,0.0059 0.011565,0.004 0.027484,0.0084 0.048828,0.01563 0.042689,0.0144 0.106133,0.03631 0.1914062,0.06445 0.1705464,0.05628 0.4288612,0.140926 0.7851563,0.253906 0.5270104,0.167112 1.5194821,0.467103 2.5058591,0.763672 -0.09952,0.476395 -0.243608,1.172457 -0.271484,1.302734 a 1.0001,1.0001 0 0 0 0.550781,1.113281 c 1.670147,0.785889 3.808336,1.40625 6.88086,1.40625 a 1.0001,1.0001 0 1 0 0,-2 c -2.400667,0 -3.964644,-0.423683 -5.296876,-0.96289 0.07223,-0.345164 0.102119,-0.479302 0.283204,-1.345703 a 1.0001,1.0001 0 0 0 -0.695313,-1.164063 c -1.561288,-0.461312 -2.652902,-0.799943 -3.3515624,-1.021484 -0.091973,-0.02916 -0.1226302,-0.03929 -0.2011718,-0.06445 0.029175,-0.376835 0.00639,-0.670293 0.2382812,-1.347657 0.350174,-1.022877 0.880476,-1.865382 2.082031,-2.029297 1.381195,-0.18907 2.777733,-0.891789 3.828125,-2.007812 1.050392,-1.116023 1.733956,-2.725856 1.421875,-4.511719 a 1.0001,1.0001 0 0 0 -0.974609,-0.841797 z"
     id="path3491"
     inkscape:connector-curvature="0" /><path
     style="color:#000000;font-style:normal;font-variant:normal;font-weight:normal;font-stretch:normal;font-size:medium;line-height:normal;font-family:sans-serif;text-indent:0;text-align:start;text-decoration:none;text-decoration-line:none;text-decoration-style:solid;text-decoration-color:#000000;letter-spacing:normal;word-spacing:normal;text-transform:none;direction:ltr;block-progression:tb;writing-mode:lr-tb;baseline-shift:baseline;text-anchor:start;white-space:normal;clip-rule:nonzero;display:inline;overflow:visible;visibility:visible;opacity:1;isolation:auto;mix-blend-mode:normal;color-interpolation:sRGB;color-interpolation-filters:linearRGB;solid-color:#000000;solid-opacity:1;fill:#000000;fill-opacity:1;fill-rule:nonzero;stroke:none;stroke-width:2;stroke-linecap:round;stroke-linejoin:round;stroke-miterlimit:10;stroke-dasharray:none;stroke-dashoffset:0;stroke-opacity:1;color-rendering:auto;image-rendering:auto;shape-rendering:auto;text-rendering:auto;enable-background:accumulate"
     d="m 20.896484,15.378906 a 1.0001,1.0001 0 0 0 -0.947265,0.841797 c -0.312718,1.785995 0.373118,3.395675 1.423828,4.511719 1.050709,1.116044 2.446534,1.818772 3.828125,2.007812 1.201457,0.163901 1.731836,1.006146 2.082031,2.029297 0.229891,0.671664 0.206482,0.957206 0.236328,1.335938 -0.385193,0.128442 -1.001414,0.34406 -3.552734,1.097656 a 1.0001,1.0001 0 0 0 -0.695313,1.166016 c 0.182228,0.866038 0.210851,1.000846 0.283204,1.345703 -1.33271,0.538957 -2.897141,0.96289 -5.296876,0.96289 a 1.0001,1.0001 0 1 0 0,2 c 3.072524,0 5.20993,-0.620496 6.88086,-1.40625 a 1.0001,1.0001 0 0 0 0.552734,-1.115234 c -0.028,-0.130855 -0.172557,-0.827705 -0.273437,-1.308594 C 27.362339,28.257492 28.966797,27.75 28.966797,27.75 a 1.0001,1.0001 0 0 0 0.675781,-0.945312 c 0,0 0.0095,-1.290042 -0.466797,-2.681641 -0.476304,-1.391599 -1.600535,-3.076182 -3.705078,-3.363281 -0.869409,-0.11896 -1.928287,-0.639732 -2.642578,-1.398438 -0.714291,-0.758706 -1.104485,-1.673917 -0.908203,-2.794922 a 1.0001,1.0001 0 0 0 -1.023438,-1.1875 z"
     id="path3493"
     inkscape:connector-curvature="0" /><path
     style="color:#000000;font-style:normal;font-variant:normal;font-weight:normal;font-stretch:normal;font-size:medium;line-height:normal;font-family:sans-serif;text-indent:0;text-align:start;text-decoration:none;text-decoration-line:none;text-decoration-style:solid;text-decoration-color:#000000;letter-spacing:normal;word-spacing:normal;text-transform:none;direction:ltr;block-progression:tb;writing-mode:lr-tb;baseline-shift:baseline;text-anchor:start;white-space:normal;clip-rule:nonzero;display:inline;overflow:visible;visibility:visible;opacity:1;isolation:auto;mix-blend-mode:normal;color-interpolation:sRGB;color-interpolation-filters:linearRGB;solid-color:#000000;solid-opacity:1;fill:#000000;fill-opacity:1;fill-rule:nonzero;stroke:none;stroke-width:2;stroke-linecap:round;stroke-linejoin:round;stroke-miterlimit:10;stroke-dasharray:none;stroke-dashoffset:0;stroke-opacity:1;color-rendering:auto;image-rendering:auto;shape-rendering:auto;text-rendering:auto;enable-background:accumulate"
     d="m 13.349609,24.310547 a 1.0001,1.0001 0 0 0 -0.972656,0.808594 l -1.056641,5.041015 a 1.000731,1.000731 0 0 0 1.958985,0.410156 l 1.054687,-5.041015 a 1.0001,1.0001 0 0 0 -0.984375,-1.21875 z"
     id="line3495"
     inkscape:connector-curvature="0" /><path
     style="color:#000000;font-style:normal;font-variant:normal;font-weight:normal;font-stretch:normal;font-size:medium;line-height:normal;font-family:sans-serif;text-indent:0;text-align:start;text-decoration:none;text-decoration-line:none;text-decoration-style:solid;text-decoration-color:#000000;letter-spacing:normal;word-spacing:normal;text-transform:none;direction:ltr;block-progression:tb;writing-mode:lr-tb;baseline-shift:baseline;text-anchor:start;white-space:normal;clip-rule:nonzero;display:inline;overflow:visible;visibility:visible;opacity:1;isolation:auto;mix-blend-mode:normal;color-interpolation:sRGB;color-interpolation-filters:linearRGB;solid-color:#000000;solid-opacity:1;fill:#000000;fill-opacity:1;fill-rule:nonzero;stroke:none;stroke-width:2;stroke-linecap:round;stroke-linejoin:round;stroke-miterlimit:10;stroke-dasharray:none;stroke-dashoffset:0;stroke-opacity:1;color-rendering:auto;image-rendering:auto;shape-rendering:auto;text-rendering:auto;enable-background:accumulate"
     d="m 23.619141,24.310547 a 1.0001,1.0001 0 0 0 -0.953125,1.21875 l 1.054687,5.041015 a 1.000731,1.000731 0 1 0 1.958985,-0.410156 l -1.056641,-5.041015 a 1.0001,1.0001 0 0 0 -1.003906,-0.808594 z"
     id="line3497"
     inkscape:connector-curvature="0" /></svg>