<?xml version="1.0" encoding="utf-8"?>
<!-- Generator: Adobe Illustrator 19.1.0, SVG Export Plug-In . SVG Version: 6.00 Build 0)  -->
<svg version="1.1" id="Calque_1" xmlns="http://www.w3.org/2000/svg" xmlns:xlink="http://www.w3.org/1999/xlink" x="0px" y="0px"
	 viewBox="-260 170.9 612 792" style="enable-background:new -260 170.9 612 792;" xml:space="preserve">
<style type="text/css">
	.st0{fill:none;stroke:#000000;stroke-width:20;stroke-linecap:round;stroke-linejoin:round;stroke-miterlimit:10;}
</style>
<g>
	<path class="st0" d="M324.9,573.1C324.9,419,200,294.2,46,294.2s-278.9,124.9-278.9,278.9c0,139.5,102.4,255.1,236.1,275.7l0,0l0,0
		c2,0.3,3.9,0.6,5.9,0.8C30,855.4,46,891.2,46,934.5c0-43.4,16-79.1,36.9-84.9c2-0.3,4-0.5,5.9-0.8l0,0l0,0
		C222.6,828.2,324.9,712.6,324.9,573.1z"/>
	<polyline class="st0" points="-71.7,435.6 148.3,388.9 148.3,433.8 	"/>
	<path d="M154.7,425.8H-70.4c-6.6,0-12,5.4-12,12v330.3c0,6.6,5.4,12,12,12h225.1c6.6,0,12-5.4,12-12V437.8
		C166.7,431.2,161.3,425.8,154.7,425.8z M123.9,510.9c0,6.6-5.4,12-12,12H-27.3c-6.6,0-12-5.4-12-12v-17.5c0-6.6,5.4-12,12-12h139.2
		c6.6,0,12,5.4,12,12V510.9z"/>
</g>
</svg>
