<?xml version="1.0" encoding="utf-8"?>
<!-- Generator: Adobe Illustrator 19.1.0, SVG Export Plug-In . SVG Version: 6.00 Build 0)  -->
<svg version="1.1" id="Calque_1" xmlns="http://www.w3.org/2000/svg" xmlns:xlink="http://www.w3.org/1999/xlink" x="0px" y="0px"
	 viewBox="-260 170.9 612 792" style="enable-background:new -260 170.9 612 792;" xml:space="preserve">
<style type="text/css">
	.st0{fill:none;stroke:#000000;stroke-width:20;stroke-linecap:round;stroke-linejoin:round;stroke-miterlimit:10;}
</style>
<path class="st0" d="M324.9,573.1C324.9,419,200,294.2,46,294.2s-278.9,124.9-278.9,278.9c0,139.5,102.4,255.1,236.1,275.7l0,0l0,0
	c2,0.3,3.9,0.6,5.9,0.8C30,855.4,46,891.2,46,934.5c0-43.4,16-79.1,36.9-84.9c2-0.3,4-0.5,5.9-0.8l0,0l0,0
	C222.6,828.2,324.9,712.6,324.9,573.1z"/>
<path d="M72.4,467.1h-248.2c-11.8,0-21.4,9.6-21.4,21.4v115.8c0,11.8,9.6,21.4,21.4,21.4h12.4c3.8,0,7.3,2.3,8.7,5.9l0,0
	c3.1,7.9,14.3,7.9,17.4,0h0c1.4-3.6,4.9-5.9,8.7-5.9H81.8c6.6,0,12-5.4,12-12.1V488.4C93.8,476.7,84.2,467.1,72.4,467.1z"/>
<path d="M274.1,512.1H107.9c-4.9,0-8.8,4-8.8,8.8v89.2c0,11.5-9.4,20.8-20.8,20.8H12.7c-4.9,0-8.8,4-8.8,8.8v17
	c0,11.5,9.4,20.8,20.8,20.8H237c3.6,0,6.9,2.2,8.2,5.6l0.8,1.9c3,7.4,13.5,7.4,16.4,0l0.8-1.9c1.3-3.4,4.6-5.6,8.2-5.6h2.7
	c11.5,0,20.8-9.4,20.8-20.8V532.9C294.9,521.4,285.5,512.1,274.1,512.1z"/>
</svg>
