<?xml version="1.0" encoding="UTF-8" standalone="no"?>
<!-- Generator: Adobe Illustrator 16.0.4, SVG Export Plug-In . SVG Version: 6.00 Build 0)  -->

<svg
   xmlns:dc="http://purl.org/dc/elements/1.1/"
   xmlns:cc="http://creativecommons.org/ns#"
   xmlns:rdf="http://www.w3.org/1999/02/22-rdf-syntax-ns#"
   xmlns:svg="http://www.w3.org/2000/svg"
   xmlns="http://www.w3.org/2000/svg"
   xmlns:sodipodi="http://sodipodi.sourceforge.net/DTD/sodipodi-0.dtd"
   xmlns:inkscape="http://www.inkscape.org/namespaces/inkscape"
   version="1.1"
   id="Calque_1"
   x="0px"
   y="0px"
   width="37px"
   height="37px"
   viewBox="0 0 37 37"
   enable-background="new 0 0 37 37"
   xml:space="preserve"
   inkscape:version="0.91 r13725"
   sodipodi:docname="about.svg"><metadata
     id="metadata19"><rdf:RDF><cc:Work
         rdf:about=""><dc:format>image/svg+xml</dc:format><dc:type
           rdf:resource="http://purl.org/dc/dcmitype/StillImage" /></cc:Work></rdf:RDF></metadata><defs
     id="defs17" /><sodipodi:namedview
     pagecolor="#ffffff"
     bordercolor="#666666"
     borderopacity="1"
     objecttolerance="10"
     gridtolerance="10"
     guidetolerance="10"
     inkscape:pageopacity="0"
     inkscape:pageshadow="2"
     inkscape:window-width="640"
     inkscape:window-height="480"
     id="namedview15"
     showgrid="false"
     inkscape:zoom="6.3783784"
     inkscape:cx="18.5"
     inkscape:cy="18.5"
     inkscape:current-layer="Calque_1" /><g
     id="g3"><path
       style="fill:none;stroke:#000000;stroke-width:2;stroke-linecap:round;stroke-linejoin:round;stroke-miterlimit:10"
       d="M 36,18.5 A 17.5,17.5 0 0 1 18.5,36 17.5,17.5 0 0 1 1,18.5 17.5,17.5 0 0 1 18.5,1 17.5,17.5 0 0 1 36,18.5 Z"
       id="circle5" /><path
       style="fill:none;stroke:#000000;stroke-width:2;stroke-linecap:round;stroke-linejoin:round;stroke-miterlimit:10"
       d="m 15.334,16.104 5,0 0,14 -5,0 z"
       id="rect7" /><path
       style="fill:none;stroke:#000000;stroke-width:2;stroke-linecap:round;stroke-linejoin:round;stroke-miterlimit:10"
       d="M 20.723,9.9879999 A 2.223,2.223 0 0 1 18.5,12.211 2.223,2.223 0 0 1 16.277,9.9879999 a 2.223,2.223 0 0 1 2.223,-2.223 2.223,2.223 0 0 1 2.223,2.223 z"
       id="circle9" /><path
       style="fill:none;stroke:#000000;stroke-width:2;stroke-linecap:round;stroke-linejoin:round;stroke-miterlimit:10"
       d="m 13.334,30.104 10,0"
       id="line11" /><path
       style="fill:none;stroke:#000000;stroke-width:2;stroke-linecap:round;stroke-linejoin:round;stroke-miterlimit:10"
       d="m 13.334,16.104 6,0"
       id="line13" /></g></svg>