<?xml version="1.0" encoding="utf-8"?>
<!-- Generator: Adobe Illustrator 16.0.4, SVG Export Plug-In . SVG Version: 6.00 Build 0)  -->
<!DOCTYPE svg PUBLIC "-//W3C//DTD SVG 1.1//EN" "http://www.w3.org/Graphics/SVG/1.1/DTD/svg11.dtd">
<svg version="1.1" id="Calque_1" xmlns="http://www.w3.org/2000/svg" xmlns:xlink="http://www.w3.org/1999/xlink" x="0px" y="0px"
	 width="37px" height="37px" viewBox="0 0 37 37" enable-background="new 0 0 37 37" xml:space="preserve">
<g>
	<circle fill="none" stroke="#000000" stroke-width="2" stroke-miterlimit="10" cx="18.5" cy="18.5" r="17.5"/>
	<path fill="none" stroke="#000000" stroke-width="2" stroke-miterlimit="10" d="M23.53,11.134c0,2.002-1.049,4.124-2.596,5.271
		c-0.722,0.535-1.551,0.857-2.435,0.857c-0.883,0-1.713-0.323-2.435-0.857c-1.547-1.147-2.595-3.269-2.595-5.271
		c0-2.936,2.252-5.316,5.029-5.316C21.279,5.818,23.53,8.198,23.53,11.134z"/>
	<path fill="none" stroke="#000000" stroke-width="2" stroke-linecap="round" stroke-linejoin="round" stroke-miterlimit="10" d="
		M16.066,16.393c0.508,2.907-2.15,5.049-4.4,5.357C8.36,22.201,8.36,26.804,8.36,26.804c-0.001,0,1.255,0.432,4.389,1.358
		c-0.297,1.421-0.412,1.974-0.461,2.203c1.562,0.735,3.513,1.311,6.455,1.311"/>
	<path fill="none" stroke="#000000" stroke-width="2" stroke-linecap="round" stroke-linejoin="round" stroke-miterlimit="10" d="
		M20.935,16.393c-0.509,2.907,2.15,5.049,4.401,5.357c3.306,0.451,3.306,5.055,3.306,5.055s-1.256,0.432-4.391,1.358
		c0.299,1.421,0.414,1.974,0.463,2.203c-1.563,0.735-3.514,1.311-6.456,1.311"/>
	
		<line fill="none" stroke="#000000" stroke-width="2" stroke-linecap="round" stroke-linejoin="round" stroke-miterlimit="10" x1="12.3" y1="30.366" x2="13.356" y2="25.324"/>
	
		<line fill="none" stroke="#000000" stroke-width="2" stroke-linecap="round" stroke-linejoin="round" stroke-miterlimit="10" x1="24.7" y1="30.366" x2="23.644" y2="25.324"/>
</g>
</svg>
