<?xml version="1.0" encoding="utf-8"?>
<!-- Generator: Adobe Illustrator 16.0.4, SVG Export Plug-In . SVG Version: 6.00 Build 0)  -->
<!DOCTYPE svg PUBLIC "-//W3C//DTD SVG 1.1//EN" "http://www.w3.org/Graphics/SVG/1.1/DTD/svg11.dtd">
<svg version="1.1" id="Calque_1" xmlns="http://www.w3.org/2000/svg" xmlns:xlink="http://www.w3.org/1999/xlink" x="0px" y="0px"
	 width="484.75px" height="66px" viewBox="0 0 484.75 66" enable-background="new 0 0 484.75 66" xml:space="preserve">
<radialGradient id="SVGID_1_" cx="193.7832" cy="-0.8335" r="73.228" gradientUnits="userSpaceOnUse">
	<stop  offset="0" style="stop-color:#FFFFFF"/>
	<stop  offset="0.1712" style="stop-color:#54D1FF"/>
	<stop  offset="0.8529" style="stop-color:#45A5BF"/>
</radialGradient>
<circle fill="url(#SVGID_1_)" cx="210.282" cy="31.93" r="27.5"/>
<path fill="#FFFFFF" d="M206.51,13.369l-7.792,1.125l-2.434,3.273l-3.072,3.136l-0.715,6.778l4.923,5.565l6.182-1.356L207,33.531
	v3.461l1.936,4.664c0,0-0.976,2.224-0.905,2.725c0.072,0.498,3.223,11.632,3.223,11.632l1.756,0.285l5.979-3.89l0.919-4.675
	l3.781-3.845l-1.358-5.076l2.711-3.987l3.711-6.433l-3.855,1.07l-3.926-6.065l-1.915-6.923L211,15.832v1.677l-4.801-1.749
	L206.51,13.369z"/>
<g>
	<path fill="#777777" d="M8.053,36.054L4.301,45.8H2.67l10.848-28.302h1.673L26.038,45.8h-1.632l-3.751-9.746H8.053z M14.333,19.578
		L8.624,34.545h11.46L14.333,19.578z"/>
	<path fill="#777777" d="M31.174,30.222h13.063v1.468H31.174V45.8h-1.509V17.498H47.69v1.508H31.174V30.222z"/>
	<path fill="#777777" d="M72.728,45.8h-1.549c-0.367-0.773-0.571-1.752-0.571-3.059v-4.119c0-4.485-3.263-5.464-5.995-5.464h-10.48
		V45.8h-1.51V17.498h11.909c5.22,0,8.441,3.018,8.441,7.83c0,3.385-1.835,5.953-4.73,7.096c2.487,0.938,3.874,3.059,3.874,6.198
		v3.753C72.116,43.436,72.401,44.985,72.728,45.8z M71.423,25.328c0-3.997-2.487-6.322-6.892-6.322H54.132v12.684h10.562
		C68.038,31.689,71.423,29.691,71.423,25.328z"/>
	<path fill="#777777" d="M79.903,45.8h-1.508V17.498h1.508V45.8z"/>
	<path fill="#777777" d="M111.264,45.8h-2.202l-2.283-2.242c-2.285,1.713-5.099,2.733-8.116,2.733
		c-7.708,0-13.988-6.607-13.988-14.765c0-8.115,6.28-14.722,13.988-14.722c7.871,0,13.987,6.443,13.987,14.722
		c0,4.364-1.834,8.36-4.73,11.053L111.264,45.8z M98.662,18.314c-6.893,0-12.479,5.953-12.479,13.212
		c0,7.341,5.587,13.255,12.479,13.255c2.61,0,5.017-0.856,7.015-2.284l1.142-0.979c2.651-2.447,4.323-6.036,4.323-9.992
		C111.142,24.104,105.677,18.314,98.662,18.314z"/>
	<path fill="#777777" d="M138.341,35.687c0,6.239-4.445,10.645-10.849,10.645c-6.362,0-10.849-4.405-10.849-10.645V17.498h1.51
		v18.188c0,5.424,3.793,9.095,9.339,9.095c5.587,0,9.339-3.671,9.339-9.095V17.498h1.51V35.687z"/>
	<path fill="#777777" d="M146.168,30.222h8.66v1.468h-8.66v12.602h17.251V45.8h-18.76V17.498h18.76v1.508h-17.251V30.222z"/>
</g>
<path fill="#777777" d="M279.568,45.819h-1.713l-18.923-26.019v26.019h-1.509V17.518h1.714l18.922,26.019V17.518h1.509V45.819z"/>
<path fill="#777777" d="M307.542,35.707c0,6.239-4.445,10.644-10.848,10.644c-6.362,0-10.849-4.404-10.849-10.644V17.518h1.509
	v18.189c0,5.424,3.793,9.094,9.34,9.094c5.586,0,9.339-3.67,9.339-9.094V17.518h1.509V35.707z"/>
<path fill="#777777" d="M340.329,45.819h-1.551V21.066l-10.848,24.753h-1.672L315.37,21.066v24.753h-1.51V17.518h1.591
	l11.623,26.467l11.622-26.467h1.633V45.819z"/>
<path fill="#777777" d="M348.563,30.242h8.659v1.468h-8.659v12.602h17.25v1.508h-18.76V17.518h18.76v1.509h-17.25V30.242z"/>
<path fill="#777777" d="M391.544,45.819h-1.549c-0.367-0.772-0.57-1.752-0.57-3.058v-4.119c0-4.486-3.263-5.465-5.996-5.465h-10.48
	v12.642h-1.509V17.518h11.908c5.22,0,8.442,3.018,8.442,7.83c0,3.386-1.836,5.954-4.731,7.097c2.488,0.938,3.874,3.058,3.874,6.198
	v3.752C390.933,43.455,391.219,45.005,391.544,45.819z M390.239,25.348c0-3.996-2.486-6.321-6.892-6.321h-10.399V31.71h10.562
	C386.854,31.71,390.239,29.711,390.239,25.348z"/>
<path fill="#777777" d="M398.72,45.819h-1.509V17.518h1.509V45.819z"/>
<path fill="#777777" d="M430.081,45.819h-2.203l-2.283-2.242c-2.284,1.713-5.098,2.733-8.115,2.733
	c-7.709,0-13.988-6.607-13.988-14.764c0-8.115,6.279-14.723,13.988-14.723c7.871,0,13.987,6.444,13.987,14.723
	c0,4.363-1.835,8.36-4.73,11.052L430.081,45.819z M417.479,18.334c-6.893,0-12.48,5.954-12.48,13.213
	c0,7.34,5.588,13.254,12.48,13.254c2.609,0,5.016-0.856,7.014-2.284l1.143-0.978c2.65-2.448,4.322-6.037,4.322-9.992
	C429.958,24.125,424.493,18.334,417.479,18.334z"/>
<path fill="#777777" d="M457.157,35.707c0,6.239-4.445,10.644-10.848,10.644c-6.362,0-10.849-4.404-10.849-10.644V17.518h1.509
	v18.189c0,5.424,3.793,9.094,9.34,9.094c5.586,0,9.339-3.67,9.339-9.094V17.518h1.509V35.707z"/>
<path fill="#777777" d="M464.984,30.242h8.659v1.468h-8.659v12.602h17.251v1.508h-18.76V17.518h18.76v1.509h-17.251V30.242z"/>
<rect x="357.058" y="13.25" fill="#777777" width="8.66" height="1.469"/>
<g>
	<path fill="#A1D34A" d="M169.441,31.93c0-8.401,2.542-16.477,7.353-23.354c2.291-3.276,5.025-6.146,8.077-8.576H183.3
		c-2.744,2.318-5.22,4.991-7.326,8.002c-4.928,7.046-7.532,15.32-7.532,23.927c0,14.04,6.958,26.477,17.6,34.07h1.756
		C176.747,58.683,169.441,46.146,169.441,31.93z"/>
	<path fill="#A1D34A" d="M247.964,31.93c0-7.752-2.347-15.205-6.787-21.552C238.223,6.155,234.478,2.657,230.23,0h-4.086
		c5.277,2.628,9.913,6.549,13.394,11.524c4.204,6.009,6.426,13.065,6.426,20.405c0,15.98-10.561,29.542-25.069,34.07h5.466
		C239.117,59.955,247.964,46.958,247.964,31.93z"/>
	<path fill="#A1D34A" d="M243.769,8.574c4.812,6.878,7.354,14.954,7.354,23.356c0,14.217-7.306,26.753-18.355,34.07h1.756
		c10.642-7.594,17.6-20.03,17.6-34.07c0-8.608-2.605-16.882-7.534-23.929c-2.106-3.011-4.581-5.683-7.324-8h-1.572
		C238.744,2.429,241.478,5.299,243.769,8.574z"/>
	<path fill="#A1D34A" d="M179.386,10.38c-4.438,6.346-6.785,13.798-6.785,21.55c0,15.028,8.847,28.025,21.604,34.07h5.466
		c-14.509-4.528-25.069-18.09-25.069-34.07c0-7.339,2.222-14.395,6.424-20.403C184.505,6.55,189.141,2.629,194.42,0h-4.087
		C186.085,2.657,182.34,6.156,179.386,10.38z"/>
	<path fill="#A1D34A" d="M183.344,13.141c-3.861,5.526-5.902,12.023-5.902,18.789c0,18.108,14.732,32.841,32.841,32.841
		s32.841-14.732,32.841-32.841c0-6.764-2.04-13.259-5.9-18.785C232.568,6.481,225.663,1.856,217.931,0h-15.296
		C194.904,1.856,187.999,6.479,183.344,13.141z M234.764,14.863c3.506,5.019,5.359,10.921,5.359,17.067
		c0,16.454-13.387,29.841-29.841,29.841s-29.841-13.387-29.841-29.841c0-6.148,1.854-12.051,5.361-17.07
		c5.589-7.997,14.739-12.771,24.479-12.771C220.024,2.089,229.177,6.864,234.764,14.863z"/>
</g>
</svg>
