<?xml version="1.0" encoding="utf-8"?>
<!-- Generator: Adobe Illustrator 19.1.0, SVG Export Plug-In . SVG Version: 6.00 Build 0)  -->
<svg version="1.1" id="Calque_1" xmlns="http://www.w3.org/2000/svg" xmlns:xlink="http://www.w3.org/1999/xlink" x="0px" y="0px"
	 viewBox="0 0 792 612" style="enable-background:new 0 0 792 612;" xml:space="preserve">
<style type="text/css">
	.st0{fill:#1F497C;}
	.st1{fill:#FFFFFF;}
</style>
<rect x="4.7" y="70.3" class="st0" width="783" height="467.7"/>
<g>
	<path class="st1" d="M520.2,449.5H488l-4.5,15.2h-29l34.6-92h31l34.6,92h-29.8L520.2,449.5z M514.3,429.6l-10.2-33.1l-10,33.1
		H514.3z"/>
	<path class="st1" d="M564,464.7v-92h47.4c8.8,0,15.5,0.8,20.1,2.3c4.6,1.5,8.4,4.3,11.2,8.4c2.8,4.1,4.3,9,4.3,14.9
		c0,5.1-1.1,9.5-3.3,13.2c-2.2,3.7-5.2,6.7-9,9c-2.4,1.5-5.7,2.7-10,3.6c3.4,1.1,5.8,2.3,7.4,3.4c1,0.8,2.6,2.4,4.5,4.8
		c2,2.5,3.3,4.4,4,5.7l13.8,26.6h-32.1l-15.2-28.1c-1.9-3.6-3.6-6-5.1-7.1c-2-1.4-4.4-2.1-7-2.1h-2.5v37.3H564z M592.5,410h12
		c1.3,0,3.8-0.4,7.5-1.3c1.9-0.4,3.4-1.3,4.6-2.9c1.2-1.5,1.8-3.3,1.8-5.3c0-3-0.9-5.2-2.8-6.8c-1.9-1.6-5.4-2.4-10.6-2.4h-12.5V410
		z"/>
	<path class="st1" d="M664.7,372.7h28.5v92h-28.5V372.7z"/>
	<path class="st1" d="M714.7,372.7h28.5v92h-28.5V372.7z"/>
</g>
</svg>
