<?xml version="1.0" encoding="utf-8"?>
<!-- Generator: Adobe Illustrator 16.0.4, SVG Export Plug-In . SVG Version: 6.00 Build 0)  -->
<!DOCTYPE svg PUBLIC "-//W3C//DTD SVG 1.1//EN" "http://www.w3.org/Graphics/SVG/1.1/DTD/svg11.dtd">
<svg version="1.1" id="Calque_1" xmlns="http://www.w3.org/2000/svg" xmlns:xlink="http://www.w3.org/1999/xlink" x="0px" y="0px"
	 width="40px" height="40px" viewBox="0 0 40 40" enable-background="new 0 0 40 40" xml:space="preserve">
<rect fill="#ED7D66" width="40" height="40"/>
<path fill="#EAC9A9" d="M23.479,13.792c0,0-4.479-1.02-11.479,1.143l-0.579,8.25l1.304,1.019c0.532,1.753,2.656,2.816,2.717,2.816
	c0.094,0,3.559,1.189,3.559,1.189s1.436,0.369,1.881-0.999c0,0,1.661,0.599,2.286-0.626c0,0,1.583,0.708,2.583-0.949
	c0,0,1.545,0.443,1.617-1.221L23.479,13.792z"/>
<path fill="#7C6959" d="M20.798,24.612c-0.143-0.127-0.32-0.188-0.502-0.194l0.078-0.087c0.398-0.449,0.358-1.136-0.091-1.535
	l-0.405-0.361c-0.387-0.343-0.947-0.358-1.352-0.071c0.182-0.428,0.104-0.918-0.233-1.219l-0.394-0.35
	c-0.372-0.33-0.934-0.321-1.354-0.015c0.244-0.411,0.172-0.95-0.199-1.279l-0.38-0.338c-0.42-0.373-1.152-0.336-1.525,0.084
	L12,21.893v0.675l2.072,0.322c0.532,1.753,1.309,4.208,1.369,4.208c0.094,0,2.714,1.109,3.199,1.302l2.485-2.227
	c0.324-0.364,0.314-0.944-0.026-1.247L20.798,24.612z"/>
<path fill="#7C6959" d="M16.757,16.652c0,0,1.699,2.926,6.66,0.933l2.365,4.219L29,23.782l-4.287-8.042L16.757,16.652z"/>
<path fill="#7C6959" d="M27.039,25.355c0,0-2.055-1.092-2.68-3.074c-0.509-1.614-0.631-3.857-0.229-4.377l1.061,0.564L27.039,25.355
	z"/>
<polygon fill="#7C6959" points="27.367,24.598 27.279,25.136 27.039,25.355 26.729,24.203 "/>
<path fill="#F7D5AD" d="M16.757,16.652c1.358-0.573,7.061-3.117,7.061-3.117l5.088,1.559l-0.381,8.873l-5.025-6.934
	C23.499,17.033,18.665,19.769,16.757,16.652z"/>
<ellipse transform="matrix(0.9833 -0.1819 0.1819 0.9833 -3.2047 5.3903)" fill="#F7D5AD" cx="27.785" cy="20.167" rx="3.484" ry="5.237"/>
<path fill="#F7D5AD" d="M20.597,24.887c0.341,0.303,0.354,0.844,0.031,1.208l-2.637,2.967c-0.323,0.364-0.862,0.414-1.203,0.11
	l-0.31-0.274c-0.341-0.303-0.354-0.844-0.03-1.208l2.637-2.966c0.324-0.364,0.862-0.414,1.204-0.111L20.597,24.887z"/>
<path fill="#F7D5AD" d="M17.784,21.145c0.435,0.387,0.443,1.088,0.019,1.565l-3.462,3.894c-0.424,0.478-1.12,0.552-1.556,0.165
	l-0.394-0.35c-0.436-0.388-0.443-1.088-0.02-1.565l3.462-3.894c0.425-0.478,1.121-0.552,1.557-0.165L17.784,21.145z"/>
<path fill="#F7D5AD" d="M19.774,22.796c0.449,0.399,0.489,1.086,0.091,1.535l-3.249,3.654c-0.398,0.448-1.086,0.488-1.534,0.09
	l-0.406-0.36c-0.449-0.399-0.488-1.086-0.09-1.535l3.249-3.654c0.398-0.448,1.085-0.489,1.534-0.091L19.774,22.796z"/>
<rect x="28" y="14" fill="#FFFFFF" width="4" height="12"/>
<circle fill="#605E5D" cx="30.496" cy="24.984" r="0.509"/>
<rect x="32" y="13" fill="#2D333D" width="8" height="14"/>
<path fill="#F9F8ED" d="M17.6,17.102c0,0,1.903,0.106,2.751-0.608c0,0,0.239-1.002-0.557-1.171l-2.568,1.129
	C17.226,16.451,17.474,16.963,17.6,17.102z"/>
<path fill="#F9F8ED" d="M17.026,21.236c-0.324-0.288-0.89-0.182-1.263,0.238l-0.406,0.457c0.178,0.655,0.777,1.14,1.497,1.14
	c0.045,0,0.087-0.009,0.13-0.013l0.247-0.277c0.374-0.421,0.413-0.995,0.089-1.283L17.026,21.236z"/>
<path fill="#F9F8ED" d="M19.062,22.763c-0.323-0.287-0.889-0.182-1.263,0.238l-0.406,0.457c0.178,0.655,0.778,1.14,1.497,1.14
	c0.045,0,0.087-0.009,0.131-0.013l0.247-0.277c0.373-0.421,0.412-0.995,0.089-1.283L19.062,22.763z"/>
<path fill="#F9F8ED" d="M19.946,24.992c-0.249-0.222-0.685-0.14-0.971,0.184l-0.312,0.351c0.137,0.503,0.598,0.876,1.151,0.876
	c0.033,0,0.065-0.008,0.1-0.01l0.189-0.214c0.287-0.323,0.317-0.765,0.068-0.986L19.946,24.992z"/>
<polygon fill="#7C6959" points="13.45,14.52 11.5,22.417 12,14.935 "/>
<polygon fill="#7C6959" points="27.367,14.623 28,14.816 28,20.547 "/>
<rect x="4.333" y="17.407" transform="matrix(0.0824 -0.9966 0.9966 0.0824 -9.575 27.5718)" fill="#FFFFFF" width="11.704" height="3.156"/>
<circle fill="#605E5D" cx="9.999" cy="23.694" r="0.509"/>
<polygon fill="#161616" points="0,11.563 0,24.476 8.088,25.194 9.136,12.517 "/>
<path fill="#F7D5AD" d="M15.837,19.501c0.421,0.373,0.458,1.017,0.085,1.437l-3.043,3.423c-0.373,0.42-1.017,0.458-1.437,0.085
	l-0.38-0.338c-0.42-0.374-0.458-1.018-0.085-1.438l3.043-3.423c0.373-0.42,1.017-0.457,1.437-0.084L15.837,19.501z"/>
<path fill="#F9F8ED" d="M14.991,19.71c-0.324-0.288-0.89-0.182-1.263,0.238l-0.406,0.457c0.178,0.654,0.777,1.14,1.497,1.14
	c0.045,0,0.087-0.01,0.13-0.013l0.247-0.278c0.373-0.42,0.413-0.994,0.089-1.282L14.991,19.71z"/>
</svg>
