<?xml version="1.0" encoding="UTF-8" standalone="no"?>
<!-- Generator: Adobe Illustrator 16.0.4, SVG Export Plug-In . SVG Version: 6.00 Build 0)  -->

<svg
   xmlns:dc="http://purl.org/dc/elements/1.1/"
   xmlns:cc="http://creativecommons.org/ns#"
   xmlns:rdf="http://www.w3.org/1999/02/22-rdf-syntax-ns#"
   xmlns:svg="http://www.w3.org/2000/svg"
   xmlns="http://www.w3.org/2000/svg"
   xmlns:sodipodi="http://sodipodi.sourceforge.net/DTD/sodipodi-0.dtd"
   xmlns:inkscape="http://www.inkscape.org/namespaces/inkscape"
   version="1.1"
   id="Calque_1"
   x="0px"
   y="0px"
   width="25px"
   height="25px"
   viewBox="0 0 25 25"
   enable-background="new 0 0 25 25"
   xml:space="preserve"
   inkscape:version="0.91 r13725"
   sodipodi:docname="cluster.svg"><metadata
     id="metadata4210"><rdf:RDF><cc:Work
         rdf:about=""><dc:format>image/svg+xml</dc:format><dc:type
           rdf:resource="http://purl.org/dc/dcmitype/StillImage" /></cc:Work></rdf:RDF></metadata><defs
     id="defs4208" /><sodipodi:namedview
     pagecolor="#ffffff"
     bordercolor="#666666"
     borderopacity="1"
     objecttolerance="10"
     gridtolerance="10"
     guidetolerance="10"
     inkscape:pageopacity="0"
     inkscape:pageshadow="2"
     inkscape:window-width="640"
     inkscape:window-height="480"
     id="namedview4206"
     showgrid="false"
     inkscape:zoom="37.56"
     inkscape:cx="12.5"
     inkscape:cy="12.5"
     inkscape:current-layer="Calque_1" /><path
     fill="#A4CFEE"
     d="M12.5,0C9.048,0,5.923,1.399,3.661,3.661L12.5,12.5V0z"
     id="path4188"
     style="fill:#db3f7e;fill-opacity:1" /><path
     fill="#EE6565"
     d="M3.661,3.661C1.398,5.923,0,9.048,0,12.5h12.5L3.661,3.661z"
     id="path4190"
     style="fill:#13b7e6;fill-opacity:1" /><path
     fill="#8F5FAF"
     d="M21.339,3.661C19.077,1.399,15.952,0,12.5,0v12.5L21.339,3.661z"
     id="path4192"
     style="fill:#c3d467;fill-opacity:1" /><path
     fill="#E0CD6C"
     d="M25,12.5c0-3.452-1.398-6.577-3.661-8.839L12.5,12.5H25z"
     id="path4194"
     style="fill:#7069ae;fill-opacity:1" /><path
     fill="#396099"
     d="M12.5,25c3.452,0,6.577-1.398,8.839-3.661L12.5,12.5V25z"
     id="path4196"
     style="fill:#cac7b3;fill-opacity:1" /><path
     fill="#ED7D66"
     d="M12.5,12.5l8.839,8.839C23.602,19.077,25,15.952,25,12.5H12.5z"
     id="path4198"
     style="fill:#ee7035;fill-opacity:1" /><path
     fill="#54C692"
     d="M3.661,21.339C5.923,23.602,9.048,25,12.5,25V12.5L3.661,21.339z"
     id="path4200"
     style="fill:#fdc400;fill-opacity:1" /><path
     fill="#B5D378"
     d="M0,12.5c0,3.452,1.398,6.577,3.661,8.839L12.5,12.5H0z"
     id="path4202" /><circle
     fill="#FFFFFF"
     cx="12.5"
     cy="12.5"
     r="10.576"
     id="circle4204" /></svg>