<?xml version="1.0" encoding="utf-8"?>
<!-- Generator: Adobe Illustrator 16.0.4, SVG Export Plug-In . SVG Version: 6.00 Build 0)  -->
<!DOCTYPE svg PUBLIC "-//W3C//DTD SVG 1.1//EN" "http://www.w3.org/Graphics/SVG/1.1/DTD/svg11.dtd">
<svg version="1.1" id="Calque_1" xmlns="http://www.w3.org/2000/svg" xmlns:xlink="http://www.w3.org/1999/xlink" x="0px" y="0px"
	 width="40px" height="40px" viewBox="0 0 40 40" enable-background="new 0 0 40 40" xml:space="preserve">
<rect fill="#54C692" width="40" height="40"/>
<path fill="#FFFFFF" d="M35.304,14.771c0-4.495-4.178-8.139-9.331-8.139c-5.154,0-9.331,3.645-9.331,8.139
	c0,4.496,4.177,8.14,9.331,8.14c0,0,2.481,1.95,6.555,1.904l-1.873-4.429l1.187,0.709C33.952,19.603,35.304,17.326,35.304,14.771z"
	/>
<path fill="#FFFFFF" d="M14.925,14.771c0-1.387,0.329-2.706,0.917-3.903c-0.338-0.032-0.68-0.052-1.027-0.052
	c-5.154,0-9.331,3.644-9.331,8.14c0,2.555,1.352,4.831,3.462,6.324l1.187-0.709L8.26,29c4.073,0.046,6.555-1.904,6.555-1.904
	c2.98,0,5.629-1.224,7.336-3.121C17.938,22.589,14.925,18.989,14.925,14.771z"/>
<line fill="none" stroke="#A4CFEE" stroke-linecap="round" stroke-linejoin="round" stroke-miterlimit="10" x1="21" y1="12.5" x2="27" y2="12.5"/>
<line fill="none" stroke="#A4CFEE" stroke-linecap="round" stroke-linejoin="round" stroke-miterlimit="10" x1="10" y1="17.5" x2="14" y2="17.5"/>
<line fill="none" stroke="#A4CFEE" stroke-linecap="round" stroke-linejoin="round" stroke-miterlimit="10" x1="10" y1="21.5" x2="14" y2="21.5"/>
<line fill="none" stroke="#A4CFEE" stroke-linecap="round" stroke-linejoin="round" stroke-miterlimit="10" x1="21" y1="14.5" x2="32" y2="14.5"/>
<line fill="none" stroke="#A4CFEE" stroke-linecap="round" stroke-linejoin="round" stroke-miterlimit="10" x1="8" y1="19.5" x2="14" y2="19.5"/>
<line fill="none" stroke="#A4CFEE" stroke-linecap="round" stroke-linejoin="round" stroke-miterlimit="10" x1="21" y1="16.5" x2="32" y2="16.5"/>
<ellipse fill="#41966D" cx="13.817" cy="32" rx="8.333" ry="0.5"/>
<ellipse fill="#41966D" cx="27.15" cy="34" rx="8.333" ry="0.5"/>
</svg>
