<?xml version="1.0" encoding="utf-8"?>
<!-- Generator: Adobe Illustrator 16.0.4, SVG Export Plug-In . SVG Version: 6.00 Build 0)  -->
<!DOCTYPE svg PUBLIC "-//W3C//DTD SVG 1.1//EN" "http://www.w3.org/Graphics/SVG/1.1/DTD/svg11.dtd">
<svg version="1.1" id="Calque_1" xmlns="http://www.w3.org/2000/svg" xmlns:xlink="http://www.w3.org/1999/xlink" x="0px" y="0px"
	 width="40px" height="40px" viewBox="0 0 40 40" enable-background="new 0 0 40 40" xml:space="preserve">
<rect fill="#B5D378" width="40" height="40"/>
<polygon fill="#A4CFEE" points="34,36 21,36 21,3 34,8 "/>
<polygon fill="#4C5060" points="29,36 26,36 26,29.692 29,30.417 "/>
<polygon fill="#7CA9BF" points="21,36 12,36 12,8 21,3 "/>
<polygon fill="#D4EDFC" points="21,20.235 21,27.809 34,15 34,8 "/>
<polygon fill="#D4EDFC" points="21,18.824 32.551,7.442 31.027,6.856 21,16.294 "/>
<rect y="36" fill="#ADA1A1" width="40" height="4"/>
<line fill="none" stroke="#844E39" stroke-linecap="round" stroke-miterlimit="10" x1="7.5" y1="30" x2="7.5" y2="37"/>
<path fill="#398762" d="M10.834,29.524c0,1.966-1.567,3.56-3.5,3.56c-1.934,0-3.5-1.594-3.5-3.56c0-1.965,3.5-8.44,3.5-8.44
	S10.834,27.56,10.834,29.524z"/>
<path fill="#54AF6C" d="M10.834,29.524c0,1.966-1.567,3.56-3.5,3.56c-1.934,0-3.5-1.594-3.5-3.56c0-1.965,3.5-8.44,3.5-8.44
	S10.834,27.56,10.834,29.524z"/>
<path fill="#398762" d="M3.5,29.524c0,1.966,1.5,3.56,3.5,3.56v-12C7,21.084,3.5,27.56,3.5,29.524z"/>
<polygon fill="#89B9CC" points="12,17.127 20.979,8.354 21,6 12,15 "/>
<polygon fill="#89B9CC" points="12,23.127 20.979,14.354 21,10 12,19 "/>
</svg>
