<?xml version="1.0" encoding="utf-8"?>
<!-- Generator: Adobe Illustrator 16.0.4, SVG Export Plug-In . SVG Version: 6.00 Build 0)  -->
<!DOCTYPE svg PUBLIC "-//W3C//DTD SVG 1.1//EN" "http://www.w3.org/Graphics/SVG/1.1/DTD/svg11.dtd">
<svg version="1.1" id="Calque_1" xmlns="http://www.w3.org/2000/svg" xmlns:xlink="http://www.w3.org/1999/xlink" x="0px" y="0px"
	 width="40px" height="40px" viewBox="0 0 40 40" enable-background="new 0 0 40 40" xml:space="preserve">
<rect fill="#EFDB8B" width="40" height="40"/>
<rect y="37" fill="#6D563A" width="40" height="3"/>
<g>
	<defs>
		<rect id="SVGID_3_" width="40" height="40"/>
	</defs>
	<clipPath id="SVGID_2_">
		<use xlink:href="#SVGID_3_"  overflow="visible"/>
	</clipPath>
	<g clip-path="url(#SVGID_2_)">
		<rect x="10" y="13" fill="#30302E" width="28" height="21"/>
		<path fill="#A0A0A0" d="M41,35.489C41,36.336,40.146,37,39.298,37H8.702C7.854,37,7,36.336,7,35.489V34h34V35.489z"/>
		<rect x="11" y="14" fill="#3887BE" width="26" height="17"/>
		<polygon fill="#A4CFEE" points="23.775,31 37,17.691 37,14 35.958,14 17.984,31 		"/>
		<polygon fill="#A4CFEE" points="33.415,14 32.106,14 14.133,31 15.56,31 		"/>
		<rect x="19" y="34" fill="#BEBEBF" width="10" height="1"/>
	</g>
</g>
<g>
	<defs>
		<rect id="SVGID_5_" width="40" height="40"/>
	</defs>
	<clipPath id="SVGID_4_">
		<use xlink:href="#SVGID_5_"  overflow="visible"/>
	</clipPath>
	<g clip-path="url(#SVGID_4_)">
		<polygon fill="#FFFFFF" points="6,37 -1,37 -2,23 7,23 		"/>
		<rect x="-3" y="22" fill="#FFFFFF" width="11" height="1"/>
		<polygon fill="#FFFFFF" points="7,22 -2,22 -1,20 6,20 		"/>
		<polygon fill="#EBF2EE" points="2,20 2,22 3,22 3,37 -1,37 -2,23 -3,23 -3,22 -2,22 -1,20 		"/>
		<circle fill="#54C692" cx="2.5" cy="29.25" r="2.917"/>
		<polygon fill="#EBF2EE" points="7,23 -1.835,25.31 -2,23 		"/>
	</g>
</g>
</svg>
