<?xml version="1.0" encoding="utf-8"?>
<!-- Generator: Adobe Illustrator 16.0.4, SVG Export Plug-In . SVG Version: 6.00 Build 0)  -->
<!DOCTYPE svg PUBLIC "-//W3C//DTD SVG 1.1//EN" "http://www.w3.org/Graphics/SVG/1.1/DTD/svg11.dtd">
<svg version="1.1" id="Calque_1" xmlns="http://www.w3.org/2000/svg" xmlns:xlink="http://www.w3.org/1999/xlink" x="0px" y="0px"
	 width="32.376px" height="27.5px" viewBox="0 0 32.376 27.5" enable-background="new 0 0 32.376 27.5" xml:space="preserve">
<g>
	<g>
		<path d="M15.981,19.973c-3.703,0-6.346-1.857-6.457-1.937c-0.153-0.11-0.232-0.297-0.203-0.483l0.788-5.094
			c0.022-0.146,0.108-0.274,0.234-0.351c0.126-0.079,0.278-0.095,0.419-0.047l5.426,1.824l5.426-1.824
			c0.14-0.047,0.293-0.03,0.419,0.046c0.126,0.077,0.212,0.205,0.234,0.351l0.788,5.046c0.03,0.194-0.057,0.389-0.221,0.496
			C22.712,18.081,19.771,19.973,15.981,19.973z M10.359,17.385c0.714,0.434,2.872,1.588,5.622,1.588c2.864,0,5.25-1.203,6.034-1.647
			l-0.645-4.127l-5.023,1.688c-0.104,0.035-0.215,0.035-0.318,0l-5.022-1.688L10.359,17.385z"/>
	</g>
	<g>
		<path d="M16.188,14.914c-0.055,0-0.107-0.009-0.16-0.026l-9.5-3.194c-0.203-0.068-0.34-0.259-0.34-0.474s0.137-0.405,0.34-0.474
			l9.5-3.192c0.104-0.035,0.215-0.035,0.318,0l9.5,3.192c0.205,0.068,0.342,0.259,0.342,0.474s-0.137,0.405-0.342,0.474l-9.5,3.194
			C16.296,14.905,16.241,14.914,16.188,14.914z M8.257,11.219l7.932,2.667l7.93-2.667l-7.93-2.665L8.257,11.219z"/>
	</g>
	<g>
		<path d="M17.953,16.536c-0.258,0-0.478-0.215-0.498-0.478L17.253,13.4l-3.007-1.502c-0.258-0.098-0.389-0.388-0.293-0.646
			c0.098-0.259,0.386-0.391,0.645-0.295l3.305,1.609c0.182,0.068,0.309,0.236,0.323,0.431l0.228,2.985
			c0.021,0.275-0.186,0.553-0.461,0.553C17.979,16.536,17.967,16.536,17.953,16.536z"/>
	</g>
</g>
</svg>
