<?xml version="1.0" encoding="utf-8"?>
<!-- Generator: Adobe Illustrator 16.0.4, SVG Export Plug-In . SVG Version: 6.00 Build 0)  -->
<!DOCTYPE svg PUBLIC "-//W3C//DTD SVG 1.1//EN" "http://www.w3.org/Graphics/SVG/1.1/DTD/svg11.dtd">
<svg version="1.1" id="Calque_1" xmlns="http://www.w3.org/2000/svg" xmlns:xlink="http://www.w3.org/1999/xlink" x="0px" y="0px"
	 width="40px" height="40px" viewBox="0 0 40 40" enable-background="new 0 0 40 40" xml:space="preserve">
<g>
	<rect fill="#396099" width="40" height="40"/>
</g>
<rect x="18" y="25" fill="#FFFFFF" width="4" height="6"/>
<path fill="#C7D3CD" d="M25.353,18.298c0,6.467-2.397,8.121-5.353,8.121s-5.353-1.654-5.353-8.121C14.647,7.188,20,3,20,3
	S25.353,7.188,25.353,18.298z"/>
<path fill="#EE6565" d="M20,8.11c1.182,0,2.274-0.196,3.235-0.513C21.738,4.369,20,3,20,3s-1.738,1.369-3.235,4.598
	C17.726,7.914,18.818,8.11,20,8.11z"/>
<path fill="#EBF2EE" d="M25.353,18.298C25.353,7.188,20,3,20,3v23.419C22.956,26.419,25.353,24.765,25.353,18.298z"/>
<circle fill="#949B97" cx="20" cy="13.477" r="2.465"/>
<circle fill="#FFFFFF" cx="20" cy="13.477" r="1.849"/>
<path fill="#EE8A65" d="M20,3v5.11c1.182,0,2.274-0.196,3.235-0.513C21.738,4.369,20,3,20,3z"/>
<path fill="#949B97" d="M22.295,25.959c1.137-0.529,2.052-1.584,2.575-3.455l0.219-0.945c0.032-0.173,0.058-0.358,0.084-0.543
	C22.379,22.527,22.294,25.575,22.295,25.959z"/>
<path fill="#C7D3CD" d="M22.911,25.616c0,0,2.985,1.384,4.139,4.384c0.439,0,0.808,0,0.808,0s2.239-5.958-2.636-8.924
	C25.222,21.076,22.911,22.08,22.911,25.616z"/>
<path fill="#EBF2EE" d="M25.222,20.951C30.097,23.917,27.858,30,27.858,30s-0.103,0-0.262,0l0.076-0.549c0,0,1.25-6.172-2.993-8.059
	C24.987,21.104,25.222,20.951,25.222,20.951z"/>
<path fill="#949B97" d="M17.705,25.959c-1.137-0.529-2.052-1.584-2.575-3.455l-0.219-0.945c-0.032-0.173-0.058-0.358-0.084-0.543
	C17.621,22.527,17.706,25.575,17.705,25.959z"/>
<path fill="#C7D3CD" d="M17.089,25.616c0,0-2.985,1.384-4.139,4.384c-0.439,0-0.808,0-0.808,0s-2.239-5.958,2.636-8.924
	C14.778,21.076,17.089,22.08,17.089,25.616z"/>
<path fill="#EBF2EE" d="M14.778,20.951C9.903,23.917,12.142,30,12.142,30s0.103,0,0.262,0l-0.076-0.549c0,0-1.25-6.172,2.993-8.059
	C15.013,21.104,14.778,20.951,14.778,20.951z"/>
<g>
	<defs>
		<rect id="SVGID_1_" width="40" height="40"/>
	</defs>
	<clipPath id="SVGID_2_">
		<use xlink:href="#SVGID_1_"  overflow="visible"/>
	</clipPath>
	<polygon clip-path="url(#SVGID_2_)" fill="#FFFFFF" points="14.498,40 26.758,40 19.947,29.91 	"/>
	<path clip-path="url(#SVGID_2_)" fill="#FFFFFF" d="M22.712,32.073c0,1.607-1.301,2.91-2.907,2.91c-1.607,0-2.909-1.303-2.909-2.91
		c0-1.604,1.302-2.906,2.909-2.906C21.411,29.167,22.712,30.47,22.712,32.073z"/>
	<circle clip-path="url(#SVGID_2_)" fill="#FFFFFF" cx="16.741" cy="35.139" r="2.569"/>
	<circle clip-path="url(#SVGID_2_)" fill="#FFFFFF" cx="14.016" cy="39.226" r="2.57"/>
	<circle clip-path="url(#SVGID_2_)" fill="#FFFFFF" cx="9.93" cy="39.226" r="2.57"/>
	<circle clip-path="url(#SVGID_2_)" fill="#FFFFFF" cx="23.552" cy="36.5" r="2.569"/>
	<circle clip-path="url(#SVGID_2_)" fill="#FFFFFF" cx="26.278" cy="40.588" r="2.57"/>
	<circle clip-path="url(#SVGID_2_)" fill="#FFFFFF" cx="30.364" cy="40.588" r="2.57"/>
	<circle clip-path="url(#SVGID_2_)" fill="#FFFFFF" cx="22.358" cy="33.607" r="1.374"/>
	<circle clip-path="url(#SVGID_2_)" fill="#FFFFFF" cx="26.277" cy="37.861" r="1.208"/>
	<circle clip-path="url(#SVGID_2_)" fill="#FFFFFF" cx="27.639" cy="39.226" r="1.958"/>
	<path clip-path="url(#SVGID_2_)" fill="#396099" d="M20,37.5c0,0.276-0.224,0.5-0.5,0.5l0,0c-0.276,0-0.5-0.224-0.5-0.5v-10
		c0-0.276,0.224-0.5,0.5-0.5l0,0c0.276,0,0.5,0.224,0.5,0.5V37.5z"/>
	<path clip-path="url(#SVGID_2_)" fill="#396099" d="M22,46.5c0,0.276-0.224,0.5-0.5,0.5l0,0c-0.276,0-0.5-0.224-0.5-0.5v-12
		c0-0.276,0.224-0.5,0.5-0.5l0,0c0.276,0,0.5,0.224,0.5,0.5V46.5z"/>
	<path clip-path="url(#SVGID_2_)" fill="#396099" d="M18,48.5c0,0.276-0.224,0.5-0.5,0.5l0,0c-0.276,0-0.5-0.224-0.5-0.5v-12
		c0-0.276,0.224-0.5,0.5-0.5l0,0c0.276,0,0.5,0.224,0.5,0.5V48.5z"/>
</g>
</svg>
