<?xml version="1.0" encoding="utf-8"?>
<!-- Generator: Adobe Illustrator 16.0.4, SVG Export Plug-In . SVG Version: 6.00 Build 0)  -->
<!DOCTYPE svg PUBLIC "-//W3C//DTD SVG 1.1//EN" "http://www.w3.org/Graphics/SVG/1.1/DTD/svg11.dtd">
<svg version="1.1" id="Calque_1" xmlns="http://www.w3.org/2000/svg" xmlns:xlink="http://www.w3.org/1999/xlink" x="0px" y="0px"
	 width="40px" height="40px" viewBox="0 0 40 40" enable-background="new 0 0 40 40" xml:space="preserve">
<rect fill="#8F5FAF" width="40" height="40"/>
<ellipse fill="#67477F" cx="20.04" cy="32.187" rx="11.324" ry="1.397"/>
<path fill="#DBBD79" d="M23.433,12.803c0.163-1.125,1.168-2.123,2.601-3.412C27.467,8.102,26.804,7,26.804,7h-6.81h-6.626
	c0,0-0.663,1.102,0.77,2.391c1.433,1.29,2.532,1.788,2.418,3.726c0,0-7.84,4.703-7.84,10.366c0,8.883,7.837,9.564,11.278,9.549
	c3.438-0.016,11.37-0.734,11.37-9.618C31.364,17.751,23.433,12.803,23.433,12.803z"/>
<path fill="#998358" d="M17.224,13.352l-1.001,1.552l1.873-1.331l0.394,1.791l0.466-1.827l0.49,0.107l0.979,1.719l-0.179-1.647
	l1.002-0.365c0,0-0.43,1.726,0.716,3.051c1.146,1.325,0.924-0.111,0.872-0.345s-0.377-1.826,0.271-2.413
	c0,0,2.015,1.146,2.012,2.901c0,0,0.392,0.967,1.215,0.071c0,0-0.188-2.471-2.297-3.008c-2.108-0.538-3.254-0.531-3.254-0.531
	L17.224,13.352z"/>
<polygon fill="#998358" points="17.797,12.803 16.223,10.279 19.326,12.803 19.66,10.279 20.472,13.078 22.668,10.279 
	22.096,12.939 "/>
<path fill="none" stroke="#4C3D1E" stroke-linecap="round" stroke-miterlimit="10" d="M24.037,12.803c0,0-3.165,1.236-7.902,0"/>
<path fill="none" stroke="#4C3D1E" stroke-linecap="round" stroke-linejoin="round" stroke-miterlimit="10" d="M16.135,11.566
	c0,0,3.273,1.383,7.47,1.373c0,0-1.977,1.875,0,4.79"/>
<path fill="none" stroke="#4C3D1E" stroke-linecap="round" stroke-linejoin="round" stroke-miterlimit="10" d="M26.632,16.868
	c0,0-0.311-3.749-3.027-3.929"/>
<path fill="#4C3D1E" d="M23.456,29.202c-0.467,0.261-1.265,0.522-2.145,0.522c-1.348,0-2.585-0.55-3.354-1.567
	c-0.372-0.468-0.646-1.059-0.77-1.787h-0.894v-0.977h0.756c0-0.068,0-0.151,0-0.233c0-0.138,0.014-0.275,0.014-0.412h-0.77v-0.977
	h0.921c0.179-0.742,0.509-1.375,0.949-1.884c0.784-0.88,1.883-1.402,3.176-1.402c0.839,0,1.567,0.192,2.062,0.413l-0.385,1.567
	c-0.357-0.151-0.921-0.33-1.526-0.33c-0.66,0-1.265,0.22-1.691,0.742c-0.193,0.22-0.344,0.536-0.44,0.894h3.423v0.977h-3.63
	c-0.014,0.137-0.014,0.288-0.014,0.426c0,0.082,0,0.138,0,0.22h3.644v0.977h-3.451c0.096,0.412,0.248,0.729,0.454,0.962
	c0.44,0.495,1.086,0.701,1.774,0.701c0.632,0,1.278-0.206,1.567-0.357L23.456,29.202z"/>
<polygon fill="#998358" points="16.126,7 18.323,10.249 16.985,7 "/>
<polygon fill="#998358" points="20.71,7 20.615,10.249 21.57,7 "/>
<polygon fill="#998358" points="24.483,7 23.605,10.773 25.487,7 "/>
<path fill="#998358" d="M13.06,25.68c0-0.319,0.204-0.587,0.487-0.688c-0.078-0.029-0.161-0.047-0.249-0.047
	c-0.405,0-0.734,0.33-0.734,0.735s0.329,0.734,0.734,0.734c0.088,0,0.17-0.018,0.249-0.046C13.264,26.266,13.06,25.998,13.06,25.68z
	"/>
<path fill="#998358" d="M10.768,24.533c0-0.318,0.204-0.586,0.487-0.688c-0.077-0.028-0.16-0.046-0.248-0.046
	c-0.406,0-0.734,0.329-0.734,0.734s0.329,0.735,0.734,0.735c0.087,0,0.17-0.018,0.248-0.047
	C10.972,25.12,10.768,24.853,10.768,24.533z"/>
<path fill="#998358" d="M11.914,27.972c0-0.318,0.204-0.587,0.487-0.688c-0.078-0.028-0.161-0.047-0.248-0.047
	c-0.406,0-0.734,0.331-0.734,0.735c0,0.405,0.329,0.736,0.734,0.736c0.087,0,0.17-0.02,0.248-0.048
	C12.118,28.559,11.914,28.291,11.914,27.972z"/>
</svg>
