<?xml version="1.0" encoding="utf-8"?>
<!-- Generator: Adobe Illustrator 16.0.4, SVG Export Plug-In . SVG Version: 6.00 Build 0)  -->
<!DOCTYPE svg PUBLIC "-//W3C//DTD SVG 1.1//EN" "http://www.w3.org/Graphics/SVG/1.1/DTD/svg11.dtd">
<svg version="1.1" id="Calque_1" xmlns="http://www.w3.org/2000/svg" xmlns:xlink="http://www.w3.org/1999/xlink" x="0px" y="0px"
	 width="110px" height="90px" viewBox="0 0 110 90" enable-background="new 0 0 110 90" xml:space="preserve">
<g>
	<g>
		<rect x="4.747" y="5.25" fill="#FFFFFF" width="100.506" height="47.029"/>
		<path fill="#9B9C9E" d="M105.003,5.5v46.529H4.997V5.5H105.003 M105.503,5H4.497v47.529h101.006V5L105.503,5z"/>
	</g>
	<g>
		<rect x="13.914" y="14.414" fill="#E0221B" width="19.156" height="19.154"/>
		<path fill="#FFFFFF" d="M15.812,29.349c0-0.297,0.039-0.612,0.119-0.948l2.293-9.902h-1.622l0.477-1.819h3.755l-2.71,11.701
			c-0.077,0.356-0.136,0.634-0.136,0.85c0,0.435,0.136,0.613,0.456,0.613c0.355,0,0.731-0.218,1.165-1.425l0.871,0.338
			c-0.595,2.036-1.584,2.553-2.709,2.553C16.426,31.309,15.812,30.534,15.812,29.349"/>
		<path fill="#FFFFFF" d="M27.416,26.087c0-1.127-0.554-1.838-1.699-1.838c-1.443,0-2.609,1.622-2.609,3.38
			c0,1.027,0.512,1.839,1.56,1.839C26.111,29.468,27.416,27.946,27.416,26.087 M20.855,27.946c0-2.986,1.996-5.613,4.505-5.613
			c1.146,0,2.076,0.948,2.43,1.936l0.593-1.778h2.018l-1.482,5.89c-0.099,0.376-0.161,0.713-0.161,0.93
			c0,0.354,0.141,0.533,0.438,0.533c0.255,0,0.67-0.218,1.106-1.425l0.869,0.338c-0.593,2.036-1.698,2.553-2.647,2.553
			c-1.128,0-1.78-0.774-1.78-1.96c-0.711,1.068-1.759,1.96-3.104,1.96C22.021,31.309,20.855,29.962,20.855,27.946"/>
		<path d="M39.955,22.139h-1.699v-0.426c0-0.673,0.215-0.914,0.826-0.914c0.307,0,0.598,0.017,0.889,0.05l0.127,0.017v-2.072
			L39.99,18.79c-0.162-0.009-0.326-0.021-0.497-0.033c-0.266-0.018-0.543-0.037-0.81-0.037c-1.951,0-3.115,1.06-3.115,2.837v0.582
			h-1.476v1.872h1.476v7.326h2.688v-7.326h1.699V22.139z"/>
		<path d="M44.432,29.301c-1.701,0-1.955-1.641-1.955-2.618c0-0.984,0.253-2.635,1.955-2.635c1.717,0,1.972,1.65,1.972,2.635
			C46.404,27.66,46.149,29.301,44.432,29.301 M44.432,22.058c-2.75,0-4.525,1.815-4.525,4.625c0,2.8,1.775,4.609,4.525,4.609
			c2.761,0,4.543-1.81,4.543-4.609C48.976,23.873,47.193,22.058,44.432,22.058"/>
		<path d="M54.787,22.058c-1.026,0-1.959,0.462-2.549,1.249v-1.021h-2.455v8.774h2.568V26.47c0-1.662,0.497-2.34,1.71-2.34
			c0.976,0,1.395,0.596,1.395,1.99v4.94h2.57v-5.371C58.026,23.893,57.642,22.058,54.787,22.058"/>
		<path d="M63.26,24.048c1.659,0,1.905,1.631,1.905,2.603c0,1.206-0.328,2.65-1.905,2.65c-1.351,0-1.955-1.324-1.955-2.634
			C61.305,25.881,61.493,24.048,63.26,24.048 M65.086,23.142c-0.55-0.686-1.442-1.084-2.453-1.084c-2.682,0-3.9,2.354-3.9,4.544
			c0,2.333,1.225,4.692,3.95,4.692c1.104,0,1.97-0.387,2.517-1.12v0.887h2.457V19.031h-2.57V23.142z"/>
		<path d="M72.707,24.048c0.979,0,1.502,0.48,1.734,1.598h-3.563C70.928,25.242,71.205,24.048,72.707,24.048 M72.772,22.058
			c-2.591,0-4.475,1.944-4.475,4.625c0,2.758,1.797,4.609,4.475,4.609c2.083,0,3.467-0.993,4.107-2.955l0.048-0.145h-2.306
			l-0.021,0.08c-0.139,0.497-0.875,1.028-1.745,1.028c-1.241,0-1.892-0.637-1.984-1.945h6.155l0.009-0.102
			c0.101-1.572-0.357-3.017-1.248-3.967C75.028,22.482,73.99,22.058,72.772,22.058"/>
		<path d="M82.813,22.058c-1.062,0-2.117,0.62-2.646,1.521v-1.292H77.71v8.774h2.569v-3.964c0-1.204,0.382-2.635,2.205-2.635
			c0.278,0,0.616,0.033,0.82,0.08l0.136,0.03V22.17l-0.074-0.024C83.199,22.092,82.988,22.058,82.813,22.058"/>
		<rect x="84.053" y="19.001" width="2.579" height="2.159"/>
		<rect x="84.053" y="22.269" width="2.579" height="8.791"/>
		<path d="M90.034,25.646c0.051-0.403,0.331-1.598,1.833-1.598c0.976,0,1.499,0.48,1.731,1.598H90.034z M94.822,23.275
			c-0.755-0.804-1.795-1.231-3.012-1.231c-2.594,0-4.476,1.947-4.476,4.626c0,2.757,1.797,4.611,4.476,4.611
			c2.083,0,3.465-0.994,4.111-2.956l0.046-0.144h-2.307l-0.022,0.079c-0.141,0.497-0.873,1.028-1.746,1.028
			c-1.238,0-1.889-0.636-1.983-1.944h6.156l0.007-0.104C96.171,25.669,95.719,24.227,94.822,23.275"/>
	</g>
	<g>
		<path fill="#1A171B" d="M14.356,40.08h0.41l2.146-3.602h-0.534l0.103-0.444h2.064l-0.103,0.444h-0.513l0.479,3.602h0.479
			l-0.109,0.451h-1.47l0.103-0.443h0.499l-0.137-1.108h-1.832l-0.656,1.108h0.595l-0.109,0.443h-1.524L14.356,40.08z M17.712,38.542
			l-0.267-2.098l-1.244,2.098H17.712z"/>
		<path fill="#1A171B" d="M19.338,41.57c-0.116-0.123-0.157-0.219-0.157-0.342c0-0.212,0.137-0.362,0.335-0.362
			c0.205,0,0.328,0.164,0.328,0.335c0,0.062-0.021,0.13-0.055,0.178c0.116,0.075,0.301,0.13,0.547,0.13
			c0.294,0,0.506-0.075,0.69-0.26c0.157-0.157,0.267-0.403,0.349-0.738l0.137-0.587c-0.246,0.375-0.615,0.587-1.019,0.587
			c-0.649,0-1.101-0.458-1.101-1.183c0-0.97,0.69-1.763,1.559-1.763c0.519,0,0.834,0.335,0.929,0.703l0.178-0.669h0.458l-0.697,3
			c-0.096,0.403-0.219,0.704-0.444,0.923c-0.253,0.26-0.588,0.376-1.039,0.376C19.939,41.898,19.509,41.734,19.338,41.57z
			 M21.751,38.769c0-0.479-0.294-0.779-0.766-0.779c-0.629,0-1.087,0.607-1.087,1.312c0,0.486,0.301,0.793,0.752,0.793
			C21.306,40.094,21.751,39.424,21.751,38.769z"/>
		<path fill="#1A171B" d="M23.411,39.219c-0.007,0.049-0.007,0.096-0.007,0.144c0,0.513,0.424,0.813,0.93,0.813
			c0.328,0,0.588-0.068,0.964-0.267l-0.103,0.465c-0.308,0.15-0.561,0.212-0.957,0.212c-0.684,0-1.306-0.438-1.306-1.23
			c0-0.983,0.745-1.79,1.613-1.79c0.677,0,1.114,0.41,1.114,1.066c0,0.178-0.034,0.375-0.109,0.587H23.411z M23.486,38.851h1.675
			c0.034-0.09,0.047-0.191,0.047-0.287c0-0.314-0.211-0.581-0.683-0.581C24.067,37.982,23.657,38.345,23.486,38.851z"/>
		<path fill="#1A171B" d="M28.161,40.039c0-0.088,0.021-0.225,0.055-0.328l0.273-0.95c0.034-0.129,0.047-0.231,0.047-0.341
			c0-0.261-0.191-0.438-0.472-0.438c-0.389,0-0.827,0.368-0.998,1.066l-0.376,1.482h-0.479l0.629-2.494h-0.547l0.103-0.417h0.971
			l-0.164,0.69c0.253-0.425,0.615-0.738,1.025-0.738c0.465,0,0.8,0.321,0.8,0.793c0,0.144-0.027,0.301-0.075,0.458l-0.267,0.942
			c-0.027,0.089-0.048,0.198-0.048,0.253c0,0.137,0.082,0.219,0.198,0.219c0.137,0,0.253-0.116,0.39-0.458l0.239,0.082
			c-0.15,0.472-0.39,0.718-0.731,0.718C28.379,40.579,28.161,40.354,28.161,40.039z"/>
		<path fill="#1A171B" d="M29.909,39.328c0-0.923,0.752-1.763,1.668-1.763c0.684,0,1.053,0.417,1.053,0.779
			c0,0.225-0.15,0.41-0.362,0.41c-0.144,0-0.293-0.104-0.293-0.308c0-0.075,0.047-0.191,0.136-0.246
			c-0.103-0.137-0.28-0.219-0.546-0.219c-0.602,0-1.169,0.574-1.169,1.318c0,0.52,0.342,0.869,0.881,0.869
			c0.335,0,0.684-0.137,0.971-0.383l-0.014,0.465c-0.287,0.211-0.629,0.334-1.012,0.334C30.483,40.586,29.909,40.115,29.909,39.328z
			"/>
		<path fill="#1A171B" d="M33.551,39.219c-0.007,0.049-0.007,0.096-0.007,0.144c0,0.513,0.424,0.813,0.929,0.813
			c0.328,0,0.588-0.068,0.964-0.267l-0.103,0.465c-0.308,0.15-0.561,0.212-0.957,0.212c-0.684,0-1.306-0.438-1.306-1.23
			c0-0.983,0.745-1.79,1.613-1.79c0.677,0,1.114,0.41,1.114,1.066c0,0.178-0.035,0.375-0.109,0.587H33.551z M33.626,38.851h1.675
			c0.034-0.09,0.047-0.191,0.047-0.287c0-0.314-0.211-0.581-0.684-0.581C34.208,37.982,33.797,38.345,33.626,38.851z"/>
		<path fill="#1A171B" d="M37.138,41.461h0.438l0.82-3.424h-0.554l0.103-0.417h0.978l-0.137,0.608
			c0.239-0.355,0.595-0.663,1.053-0.663c0.643,0,1.08,0.479,1.08,1.203c0,1.011-0.725,1.824-1.552,1.824
			c-0.458,0-0.813-0.294-0.95-0.677l-0.355,1.545h0.595l-0.103,0.41h-1.517L37.138,41.461z M40.413,38.83
			c0-0.507-0.26-0.841-0.718-0.841c-0.636,0-1.148,0.725-1.148,1.388c0,0.465,0.287,0.785,0.779,0.785
			C39.955,40.162,40.413,39.506,40.413,38.83z"/>
		<path fill="#1A171B" d="M42.701,37.62l-0.472,1.824c-0.027,0.097-0.041,0.206-0.041,0.315c0,0.246,0.171,0.416,0.444,0.416
			c0.403,0,0.841-0.383,1.012-1.066l0.369-1.489h0.478l-0.526,2.118c-0.034,0.116-0.055,0.226-0.055,0.287
			c0,0.137,0.082,0.212,0.198,0.212c0.13,0,0.252-0.116,0.389-0.458l0.239,0.082c-0.157,0.492-0.417,0.718-0.738,0.718
			c-0.322,0-0.533-0.212-0.533-0.554c0-0.041,0.007-0.082,0.014-0.137c-0.246,0.396-0.602,0.69-1.012,0.69
			c-0.438,0-0.772-0.287-0.772-0.737c0-0.151,0.027-0.301,0.062-0.438l0.355-1.367h-0.547l0.109-0.417H42.701z"/>
		<path fill="#1A171B" d="M46.193,35.938h-0.554l0.102-0.41h1.019l-0.622,2.652c0.232-0.335,0.587-0.615,1.012-0.615
			c0.656,0,1.093,0.479,1.093,1.203c0,1.011-0.725,1.824-1.545,1.824c-0.478,0-0.848-0.287-0.943-0.711l-0.171,0.649h-0.458
			L46.193,35.938z M47.737,38.83c0-0.507-0.259-0.841-0.718-0.841c-0.635,0-1.142,0.725-1.142,1.388
			c0,0.465,0.281,0.785,0.772,0.785C47.279,40.162,47.737,39.506,47.737,38.83z"/>
		<path fill="#1A171B" d="M48.892,40.033c0-0.082,0.021-0.191,0.048-0.301l0.882-3.794h-0.547l0.103-0.41h1.019l-0.978,4.204
			c-0.021,0.109-0.048,0.225-0.048,0.286c0,0.144,0.075,0.219,0.191,0.219c0.144,0,0.267-0.116,0.403-0.458l0.239,0.082
			c-0.157,0.492-0.41,0.718-0.745,0.718C49.11,40.579,48.892,40.36,48.892,40.033z"/>
		<path fill="#1A171B" d="M50.88,40.033c0-0.082,0.027-0.213,0.055-0.315l0.458-1.681h-0.568l0.109-0.417h1.046l-0.574,2.118
			c-0.027,0.109-0.048,0.226-0.048,0.287c0,0.137,0.082,0.212,0.198,0.212c0.144,0,0.267-0.116,0.396-0.458l0.239,0.082
			c-0.157,0.492-0.403,0.718-0.738,0.718C51.099,40.579,50.88,40.36,50.88,40.033z M51.481,36.711c0-0.191,0.157-0.349,0.349-0.349
			c0.185,0,0.342,0.157,0.342,0.349s-0.157,0.349-0.342,0.349C51.639,37.06,51.481,36.902,51.481,36.711z"/>
		<path fill="#1A171B" d="M52.739,39.39c0-0.99,0.718-1.824,1.565-1.824c0.472,0,0.82,0.308,0.922,0.69l0.171-0.636h0.458
			l-0.888,3.841h0.608l-0.103,0.41h-1.08l0.438-1.865c-0.24,0.327-0.602,0.58-1.025,0.58C53.163,40.586,52.739,40.115,52.739,39.39z
			 M55.097,38.788c0-0.471-0.253-0.799-0.738-0.799c-0.636,0-1.114,0.662-1.114,1.366c0,0.479,0.26,0.814,0.717,0.814
			C54.632,40.17,55.097,39.438,55.097,38.788z"/>
		<path fill="#1A171B" d="M57.55,37.62l-0.472,1.824c-0.027,0.097-0.041,0.206-0.041,0.315c0,0.246,0.171,0.416,0.444,0.416
			c0.402,0,0.84-0.383,1.011-1.066l0.37-1.489h0.479l-0.527,2.118c-0.033,0.116-0.055,0.226-0.055,0.287
			c0,0.137,0.083,0.212,0.199,0.212c0.129,0,0.252-0.116,0.39-0.458l0.238,0.082c-0.157,0.492-0.416,0.718-0.737,0.718
			s-0.533-0.212-0.533-0.554c0-0.041,0.006-0.082,0.013-0.137c-0.245,0.396-0.602,0.69-1.011,0.69c-0.438,0-0.772-0.287-0.772-0.737
			c0-0.151,0.026-0.301,0.062-0.438l0.355-1.367h-0.547l0.109-0.417H57.55z"/>
		<path fill="#1A171B" d="M60.528,39.219c-0.007,0.049-0.007,0.096-0.007,0.144c0,0.513,0.424,0.813,0.93,0.813
			c0.328,0,0.588-0.068,0.964-0.267l-0.103,0.465c-0.308,0.15-0.56,0.212-0.957,0.212c-0.684,0-1.305-0.438-1.305-1.23
			c0-0.983,0.744-1.79,1.612-1.79c0.677,0,1.114,0.41,1.114,1.066c0,0.178-0.034,0.375-0.109,0.587H60.528z M60.604,38.851h1.674
			c0.034-0.09,0.048-0.191,0.048-0.287c0-0.314-0.212-0.581-0.683-0.581C61.185,37.982,60.774,38.345,60.604,38.851z"/>
		<path fill="#1A171B" d="M66.707,40.039c0-0.088,0.02-0.225,0.055-0.328l0.273-0.95c0.033-0.129,0.048-0.231,0.048-0.341
			c0-0.261-0.192-0.438-0.473-0.438c-0.39,0-0.827,0.368-0.997,1.066l-0.377,1.482h-0.479l0.63-2.494h-0.547l0.103-0.417h0.97
			l-0.164,0.69c0.253-0.425,0.616-0.738,1.025-0.738c0.466,0,0.801,0.321,0.801,0.793c0,0.144-0.028,0.301-0.076,0.458l-0.267,0.942
			c-0.027,0.089-0.047,0.198-0.047,0.253c0,0.137,0.081,0.219,0.197,0.219c0.138,0,0.254-0.116,0.39-0.458l0.24,0.082
			c-0.151,0.472-0.391,0.718-0.732,0.718C66.926,40.579,66.707,40.354,66.707,40.039z"/>
		<path fill="#1A171B" d="M69.665,37.62l-0.472,1.824c-0.027,0.097-0.042,0.206-0.042,0.315c0,0.246,0.171,0.416,0.444,0.416
			c0.404,0,0.842-0.383,1.013-1.066l0.369-1.489h0.478l-0.525,2.118c-0.035,0.116-0.055,0.226-0.055,0.287
			c0,0.137,0.081,0.212,0.197,0.212c0.131,0,0.254-0.116,0.39-0.458l0.24,0.082c-0.157,0.492-0.418,0.718-0.739,0.718
			s-0.532-0.212-0.532-0.554c0-0.041,0.007-0.082,0.014-0.137c-0.247,0.396-0.602,0.69-1.013,0.69c-0.438,0-0.772-0.287-0.772-0.737
			c0-0.151,0.028-0.301,0.062-0.438l0.356-1.367H68.53l0.109-0.417H69.665z"/>
		<path fill="#1A171B" d="M72.821,38.037h-0.547l0.103-0.417h0.972l-0.171,0.69c0.259-0.425,0.614-0.738,0.997-0.738
			c0.438,0,0.731,0.28,0.752,0.731c0.273-0.451,0.643-0.731,1.012-0.731c0.438,0,0.759,0.321,0.759,0.793
			c0,0.144-0.027,0.301-0.075,0.458l-0.273,0.942c-0.021,0.089-0.042,0.198-0.042,0.253c0,0.137,0.083,0.219,0.199,0.219
			c0.129,0,0.253-0.116,0.39-0.458l0.239,0.082c-0.15,0.472-0.391,0.718-0.731,0.718c-0.355,0-0.574-0.226-0.574-0.54
			c0-0.088,0.021-0.225,0.055-0.328l0.267-0.936c0.034-0.137,0.055-0.246,0.055-0.355c0-0.267-0.172-0.438-0.424-0.438
			c-0.376,0-0.793,0.376-0.978,1.086l-0.376,1.463H73.95l0.45-1.749c0.034-0.144,0.055-0.26,0.055-0.369
			c0-0.246-0.171-0.431-0.431-0.431c-0.369,0-0.813,0.376-0.984,1.079l-0.369,1.47h-0.478L72.821,38.037z"/>
		<path fill="#1A171B" d="M78.049,39.219c-0.007,0.049-0.007,0.096-0.007,0.144c0,0.513,0.424,0.813,0.93,0.813
			c0.328,0,0.588-0.068,0.963-0.267l-0.102,0.465c-0.308,0.15-0.561,0.212-0.957,0.212c-0.684,0-1.306-0.438-1.306-1.23
			c0-0.983,0.745-1.79,1.613-1.79c0.677,0,1.114,0.41,1.114,1.066c0,0.178-0.035,0.375-0.109,0.587H78.049z M78.125,38.851h1.674
			c0.034-0.09,0.048-0.191,0.048-0.287c0-0.314-0.212-0.581-0.684-0.581C78.705,37.982,78.295,38.345,78.125,38.851z M79.074,36.93
			l1.039-0.861c0.103-0.089,0.185-0.13,0.294-0.13c0.144,0,0.267,0.123,0.267,0.267c0,0.15-0.109,0.26-0.253,0.328l-1.23,0.561
			L79.074,36.93z"/>
		<path fill="#1A171B" d="M81.479,38.037h-0.547l0.102-0.417h0.972l-0.191,0.807c0.375-0.554,0.703-0.854,0.998-0.854
			c0.232,0,0.396,0.149,0.396,0.362c0,0.205-0.171,0.376-0.37,0.376c-0.184,0-0.313-0.124-0.348-0.273
			c-0.219,0.109-0.677,0.547-0.834,1.203l-0.328,1.291h-0.479L81.479,38.037z"/>
		<path fill="#1A171B" d="M83.604,40.033c0-0.082,0.027-0.213,0.055-0.315l0.458-1.681H83.55l0.109-0.417h1.045l-0.573,2.118
			c-0.028,0.109-0.048,0.226-0.048,0.287c0,0.137,0.081,0.212,0.198,0.212c0.144,0,0.266-0.116,0.396-0.458l0.239,0.082
			c-0.158,0.492-0.403,0.718-0.738,0.718C83.823,40.579,83.604,40.36,83.604,40.033z M84.206,36.711
			c0-0.191,0.157-0.349,0.348-0.349c0.186,0,0.343,0.157,0.343,0.349s-0.157,0.349-0.343,0.349
			C84.363,37.06,84.206,36.902,84.206,36.711z"/>
		<path fill="#1A171B" d="M85.463,39.39c0-0.99,0.718-1.824,1.564-1.824c0.473,0,0.82,0.308,0.923,0.69l0.171-0.636h0.459
			l-0.889,3.841H88.3l-0.103,0.41h-1.08l0.438-1.865c-0.239,0.327-0.602,0.58-1.026,0.58C85.887,40.586,85.463,40.115,85.463,39.39z
			 M87.821,38.788c0-0.471-0.254-0.799-0.739-0.799c-0.635,0-1.113,0.662-1.113,1.366c0,0.479,0.26,0.814,0.718,0.814
			C87.355,40.17,87.821,39.438,87.821,38.788z"/>
		<path fill="#1A171B" d="M90.274,37.62l-0.472,1.824c-0.028,0.097-0.042,0.206-0.042,0.315c0,0.246,0.171,0.416,0.444,0.416
			c0.404,0,0.842-0.383,1.013-1.066l0.368-1.489h0.479l-0.525,2.118c-0.035,0.116-0.055,0.226-0.055,0.287
			c0,0.137,0.081,0.212,0.197,0.212c0.131,0,0.254-0.116,0.39-0.458l0.24,0.082c-0.157,0.492-0.418,0.718-0.739,0.718
			s-0.533-0.212-0.533-0.554c0-0.041,0.008-0.082,0.015-0.137c-0.247,0.396-0.602,0.69-1.013,0.69c-0.438,0-0.772-0.287-0.772-0.737
			c0-0.151,0.028-0.301,0.062-0.438l0.356-1.367H89.14l0.109-0.417H90.274z"/>
		<path fill="#1A171B" d="M93.253,39.219c-0.007,0.049-0.007,0.096-0.007,0.144c0,0.513,0.423,0.813,0.93,0.813
			c0.327,0,0.587-0.068,0.963-0.267l-0.103,0.465c-0.307,0.15-0.56,0.212-0.956,0.212c-0.685,0-1.306-0.438-1.306-1.23
			c0-0.983,0.745-1.79,1.612-1.79c0.678,0,1.115,0.41,1.115,1.066c0,0.178-0.035,0.375-0.109,0.587H93.253z M93.328,38.851h1.675
			c0.033-0.09,0.047-0.191,0.047-0.287c0-0.314-0.211-0.581-0.683-0.581C93.909,37.982,93.498,38.345,93.328,38.851z"/>
	</g>
	<g>
		<rect x="4.747" y="57.486" fill="#FFFFFF" width="100.506" height="27.264"/>
		<path fill="#9B9C9E" d="M105.003,57.736V84.5H4.997V57.736H105.003 M105.503,57.236H4.497V85h101.006V57.236L105.503,57.236z"/>
	</g>
	<g>
		<path fill="#E22019" d="M23.259,68.143c-0.038,0.018-0.191,0.061-0.175,0.067c-0.016-0.007-0.02-0.007-0.02-0.021
			c0.013-0.056-0.248,0.188-0.261,0.096c-0.004-0.021,0.013,0.004-0.026-0.006c0.099,0.014-0.584,0.227-0.584,0.213
			c-0.028-0.068-0.022-0.139,0.021-0.203c0.056-0.136-0.115-0.327-0.051-0.27c-0.046-0.047-0.046-0.089-0.005-0.138
			c0.033,0.022,0.005-0.007,0.018-0.065c0.017-0.014-0.033-0.087,0.015-0.061c0.041-0.014,0.114-0.254,0.062-0.424
			c-0.11-0.261-0.062-2.135-0.01-2.062c0.022-0.129-0.1-0.223-0.039-0.32c0.005-0.098-0.091-0.1-0.077-0.17
			c-0.052-0.199-0.328-0.194-0.302-0.236c-0.146,0.033-0.687,0.906-0.691,0.932c0.035-0.033-0.366,0.568-0.362,0.568
			c-0.041-0.012-0.088,0.066-0.099,0.158c-0.004,0.01-0.229,0.287-0.208,0.231c-0.074,0.129-0.164,0.252-0.231,0.383
			c0.052-0.034-0.101,0.104-0.077,0.103c0.002-0.017-0.174,0.421-0.175,0.383c0.015-0.059-0.217,0.219-0.241,0.22
			c-0.048,0.197-0.791-0.292-0.806-0.513c0-0.01-0.016-0.207-0.114-0.232c0.044,0.04-0.525-0.479-0.484-0.441
			c-0.297-0.396-0.532-0.383-0.975-0.771c0.005-0.004-0.102-0.249-0.177-0.334c-0.166,0.041-0.394,0.298-0.346,0.36
			c-0.071,0.032-0.083-0.059-0.111-0.089c-0.021,0.096,0.074,0.658,0.074,0.658c-0.011,0.082,0.037,0.5,0.055,0.438l0.032,0.039
			c0,0-0.051,0.061,0.014,0.104c0.066,0.118,0.203,0.201,0.156,0.37c-0.059,0.027,0.007,0.247-0.005,0.176
			c-0.067,0.346,0.742,0.998,0.633,1.454c-0.053,0.042,0.151,0.288,0.109,0.274c-0.068,0.083-0.278,0.135-0.424,0.176
			c-0.044,0.025-0.088,0.002-0.137-0.012c-0.042-0.008-0.41-0.158-0.512-0.089c-0.002,0.01-0.305-0.069-0.307-0.056
			c0.056-0.062-0.343,0.084-0.284-0.049c0.026-0.098-0.348,0.11-0.252,0.055c-0.008,0.008-0.167,0.093-0.162,0.067
			c0.014-0.036-0.142-0.005-0.107,0.003c-0.021-0.008-0.182-0.051-0.158-0.037c-0.09-0.059-0.104,0.022-0.208-0.025
			c-0.007,0.011-0.125,0.023-0.146,0.02c-0.007-0.002-0.234,0.006-0.234,0c0.019-0.008-0.198,0.063-0.21,0.006
			c0.006-0.008-0.173,0.126-0.221,0.045c0.021-0.068-0.202,0.057-0.237,0.061c-0.029-0.004-0.14-0.055-0.12-0.02
			c-0.017,0.012-0.156,0.182-0.156,0.182c0.024,0.01,0.767,0.564,0.65,0.478c0,0,0.079,0.066,0.272,0.185
			c-0.029,0.08,0.289,0,0.236,0.181c0.295-0.173,0.899,0.64,1.11,0.51c0.028,0,0.118,0.142,0.148,0.133
			c-0.048-0.042,0.153,0.065,0.091,0.062c0.029,0.034,0.018,0.021,0.113,0.119c0.243-0.011,0.346,0.187,0.427,0.254
			c0.262,0.514-0.837,1.005-0.932,1.264c-0.007,0.016-0.007,0.024-0.019,0.021c0.01,0.013-0.156,0.068-0.176,0.152l-0.162,0.216
			c-0.149-0.043-0.522,0.553-0.67,0.627l-0.363,0.168c0,0-0.051,0.047-0.083,0.096c-0.031,0.052-0.083,0.113-0.117,0.127
			c-0.033,0.01-0.256,0.23-0.256,0.23l-0.057,0.102l0.092,0.041c0,0-0.06,0.07-0.066,0.098c-0.013,0.023-0.048,0.1,0.024,0.113
			c0.071,0.018,0.114,0.018,0.132,0.052c0.016,0.036,0.302,0.06,0.326,0.054c0.02-0.01,0.164-0.07,0.164-0.07
			c0.141-0.047,0.594-0.037,0.646,0.006c-0.006,0,0.661-0.164,0.679-0.219c0.021,0.005,0.414-0.136,0.414-0.136
			c0.105-0.05,0.351-0.091,0.427-0.179c-0.074,0.016,0.315-0.119,0.425-0.066c0.034,0.018,0.974-0.175,1.005-0.298
			c0.076,0.01,0.083,0.079,0.09,0.081c-0.023,0.126-0.006,0.474-0.051,0.533c0.002-0.051-0.131,0.086-0.087,0.161
			c0.096,0.03,0.092-0.005,0.151,0.133c-0.026-0.063,0.005,0.276-0.001,0.403c0.005,0.064,0.107,0.283-0.066,0.367
			c0,0-0.099,0.204-0.103,0.201c0.013-0.1,0.013,0.052-0.007,0.023c0.087-0.041,0.061,0.228,0.044,0.258
			c0.015-0.041-0.048,0.053-0.052,0.021c-0.143,0.275,0.155,0.307-0.016,0.34c0.074,0.022,0.111,0.393,0.107,0.338
			c0.015,0.125,0.004,0.247-0.033,0.363c-0.025-0.079-0.065,0.141-0.055,0.201c0.029,0.138-0.039,0.396,0.092,0.46
			c-0.019-0.058,0.101,0.126,0.101,0.126c0.311,0.13,0.385-0.271,0.523-0.338c0.046-0.009,0.098-0.196,0.144-0.183
			c0.005-0.014,0.19-0.902,0.335-0.856c-0.006,0,0.238-0.365,0.29-0.52c-0.002,0.008-0.116-0.131,0.127-0.238
			c0.119,0.043,0.175-0.28,0.208-0.461c0.008-0.104,0.081-0.055,0.091-0.166c-0.001,0.033,0.216-0.326,0.25-0.474
			c0.033,0.003,0.041-0.161,0.066-0.143c-0.071-0.055,0.057-0.124,0.04-0.175c0.024-0.088,0.018-0.166,0.052-0.16
			c0.041-0.17,0.145-0.096,0.168-0.078c0.053,0.025,0.123-0.018,0.132,0.109c-0.051,0.063,0.16,0.123,0.144,0.164
			c-0.008-0.031,0.999,1.156,1.277,1.383c0.014,0.014,0.792,0.789,0.76,0.781c0.086,0.043,0.158,0.197,0.165,0.188
			c-0.033,0.05,0.146,0.133,0.182,0.133c0.118,0.206,0.123,0.163,0.188,0.132c0.017,0.091,0.173,0.048,0.231,0.074
			c-0.019-0.043,0.123-0.081,0.09-0.132c0.045,0.016-0.024-0.168,0.015-0.146c-0.052-0.088-0.346-0.479-0.326-0.551
			c0.006-0.025,0.042-0.016,0.063-0.009c-0.005-0.024-0.04-0.049-0.057-0.066c0.052,0,0.066-0.028,0.035-0.087
			c-0.052,0.032-0.125-0.31-0.078-0.353c0.017-0.086-0.241-1.14-0.366-1.239c0.008-0.037-0.042-0.271-0.053-0.287
			c-0.202-0.131-0.033-0.385-0.175-0.427c-0.033,0.062-0.18-0.177-0.197-0.379c-0.071-0.124,0-0.421-0.049-0.376
			c-0.039-0.045,0.211-0.152,0.274-0.014c0.528,0.199,1.542-0.135,1.909,0.15c0.083-0.164,0.28-0.036,0.177-0.068
			c-0.017,0.022,0.018,0.032,0.04,0.035c-0.05-0.008,0.357-0.035,0.419-0.002c-0.156-0.037,0.229-0.011,0.213-0.019
			c-0.135-0.03,0.273,0.052,0.711-0.222c0.157-0.048,0.127-0.129,0.195-0.279c-0.028,0.129,0.038-0.127-0.094-0.211
			c-0.773-0.191-1.39-0.767-2.161-0.968c-0.296-0.062-0.784-0.795-1.038-0.749c0.468-0.531,0.919-1.062,1.401-1.516
			c0.092-0.092,1.057-1.131,1.057-1.118c0.039-0.054,0.091-0.228,0.085-0.153c0.006-0.024-0.008-0.057-0.034-0.096
			c0,0.014-0.362-0.268-0.458-0.092c0.129,0.078-0.256,0.105-0.353,0.129c-0.026,0.015-0.051,0.01-0.074,0.002
			c-0.095-0.025-0.224,0.087-0.287,0.105c-0.141-0.131-0.493,0.104-0.653,0.16c0.013-0.01-0.072,0.008-0.195-0.016
			c-0.055,0.084-0.052,0.061-0.04,0.051c-0.047,0.027-0.086,0.064-0.274,0.131c0.021,0.012-0.123,0.067-0.175,0.053
			c0.006,0.026-0.02,0.092-0.105,0.076C23.274,68.143,23.282,68.121,23.259,68.143"/>
		<path fill="#E22019" d="M29.954,68.447h2.24v6.842h-2.24V68.447z M30.285,67.707h-1.686l1.475-1.963h2.003l1.476,1.963h-1.686
			l-0.791-1.057L30.285,67.707z"/>
		<rect x="33.286" y="65.876" fill="#E22019" width="2.245" height="9.413"/>
		<path fill="#E22019" d="M41.148,71.164c-0.042-0.769-0.583-1.401-1.333-1.401c-0.793,0-1.318,0.567-1.451,1.401H41.148z
			 M38.364,72.414c0.039,0.937,0.579,1.557,1.53,1.557c0.537,0,1.065-0.251,1.277-0.758h2.096c-0.407,1.588-1.873,2.273-3.402,2.273
			c-2.229,0-3.742-1.346-3.742-3.641c0-2.096,1.673-3.599,3.691-3.599c2.452,0,3.676,1.847,3.572,4.167H38.364z"/>
		<path fill="#E22019" d="M46.333,74.631c1.182,0,1.642-1.018,1.642-2.021c0-1.067-0.479-2.039-1.691-2.039
			c-1.206,0-1.612,1.029-1.612,2.078C44.671,73.652,45.189,74.631,46.333,74.631 M48.829,75.289h-0.885v-0.727h-0.02
			c-0.289,0.59-0.979,0.852-1.714,0.852c-1.655,0-2.477-1.312-2.477-2.83c0-1.517,0.81-2.793,2.457-2.793
			c0.549,0,1.343,0.206,1.734,0.839h0.02v-2.763h0.885V75.289z"/>
		<path fill="#E22019" d="M53.401,72.088c-0.043-0.846-0.675-1.518-1.549-1.518c-0.927,0-1.476,0.693-1.539,1.518H53.401z
			 M54.254,73.58c-0.237,1.186-1.096,1.834-2.299,1.834c-1.714,0-2.524-1.186-2.577-2.83c0-1.611,1.062-2.793,2.529-2.793
			c1.9,0,2.482,1.775,2.43,3.078h-4.023c-0.031,0.936,0.503,1.762,1.675,1.762c0.727,0,1.237-0.354,1.392-1.051H54.254z"/>
		<polygon fill="#E22019" points="54.908,65.876 61.844,65.876 61.844,67.838 57.357,67.838 57.357,69.763 61.239,69.763 
			61.239,71.661 57.357,71.661 57.357,75.289 54.908,75.289 		"/>
		<path fill="#E22019" d="M62.291,68.447h2.176v1.199h0.028c0.326-0.871,1.093-1.334,2.058-1.334c0.169,0,0.352,0.017,0.528,0.057
			v2.041c-0.295-0.08-0.555-0.133-0.863-0.133c-1.104,0-1.687,0.766-1.687,1.623v3.389h-2.24V68.447z"/>
		<path fill="#E22019" d="M69.979,74.102c1.065,0,1.421-0.606,1.371-2.014c-0.316,0.192-0.898,0.232-1.389,0.362
			c-0.497,0.12-0.92,0.332-0.92,0.872C69.042,73.877,69.473,74.102,69.979,74.102 M67.081,70.555
			c0.036-0.895,0.459-1.479,1.065-1.834c0.604-0.342,1.395-0.474,2.176-0.474c1.621,0,3.193,0.359,3.193,2.294v2.994
			c0,0.58,0,1.211,0.258,1.754h-2.255c-0.076-0.213-0.105-0.422-0.132-0.646c-0.578,0.604-1.437,0.844-2.255,0.844
			c-1.305,0-2.331-0.66-2.331-2.074c0-2.227,2.425-2.051,3.979-2.369c0.386-0.083,0.594-0.211,0.594-0.633
			c0-0.514-0.616-0.711-1.081-0.711c-0.62,0-1.012,0.277-1.119,0.855H67.081z"/>
		<path fill="#E22019" d="M74.327,68.447h2.177v0.935h0.029c0.405-0.698,1.329-1.135,2.146-1.135c2.282,0,2.47,1.659,2.47,2.651
			v4.391h-2.246v-3.311c0-0.936,0.107-1.883-1.119-1.883c-0.846,0-1.215,0.707-1.215,1.459v3.734h-2.242V68.447z"/>
		<path fill="#E22019" d="M86.435,70.951c-0.014-0.58-0.526-0.988-1.097-0.988c-1.249,0-1.449,1.065-1.449,2.016
			c0,0.883,0.386,1.793,1.333,1.793c0.775,0,1.174-0.449,1.276-1.172h2.176c-0.196,1.828-1.617,2.887-3.441,2.887
			c-2.055,0-3.586-1.413-3.586-3.508c0-2.175,1.387-3.731,3.586-3.731c1.701,0,3.219,0.896,3.381,2.704H86.435z"/>
		<path fill="#E22019" d="M93.828,71.164c-0.036-0.769-0.579-1.401-1.331-1.401c-0.79,0-1.317,0.567-1.446,1.401H93.828z
			 M91.051,72.414c0.039,0.937,0.579,1.557,1.528,1.557c0.54,0,1.065-0.251,1.277-0.758h2.1c-0.413,1.588-1.876,2.273-3.406,2.273
			c-2.227,0-3.744-1.346-3.744-3.641c0-2.096,1.677-3.599,3.691-3.599c2.459,0,3.68,1.847,3.575,4.167H91.051z"/>
	</g>
</g>
</svg>
