<?xml version="1.0" encoding="utf-8"?>
<!-- Generator: Adobe Illustrator 16.0.4, SVG Export Plug-In . SVG Version: 6.00 Build 0)  -->
<!DOCTYPE svg PUBLIC "-//W3C//DTD SVG 1.1//EN" "http://www.w3.org/Graphics/SVG/1.1/DTD/svg11.dtd">
<svg version="1.1" id="Calque_1" xmlns="http://www.w3.org/2000/svg" xmlns:xlink="http://www.w3.org/1999/xlink" x="0px" y="0px"
	 width="55px" height="55px" viewBox="0 0 55 55" enable-background="new 0 0 55 55" xml:space="preserve">
<rect fill="#014A66" width="55" height="55"/>
<g>
	<path fill-rule="evenodd" clip-rule="evenodd" fill="#FFFFFF" d="M17.129,45.663V21.15H8.982v24.513H17.129L17.129,45.663z
		 M13.051,17.805c2.843,0,4.61-1.882,4.61-4.231c-0.05-2.406-1.768-4.236-4.551-4.236c-2.79,0-4.61,1.83-4.61,4.236
		c0,2.35,1.766,4.231,4.503,4.231H13.051L13.051,17.805z"/>
	<path fill-rule="evenodd" clip-rule="evenodd" fill="#FFFFFF" d="M21.634,45.663h8.148V31.972c0-0.731,0.048-1.461,0.264-1.986
		c0.591-1.464,1.932-2.979,4.185-2.979c2.944,0,4.125,2.247,4.125,5.543v13.113H46.5V31.608c0-7.53-4.021-11.032-9.375-11.032
		c-4.396,0-6.326,2.457-7.399,4.131h0.057V21.15h-8.148C21.738,23.451,21.634,45.663,21.634,45.663L21.634,45.663z"/>
</g>
</svg>
