<?xml version="1.0" encoding="UTF-8" standalone="no"?>
<!-- Created with Inkscape (http://www.inkscape.org/) -->

<svg
   xmlns:dc="http://purl.org/dc/elements/1.1/"
   xmlns:cc="http://creativecommons.org/ns#"
   xmlns:rdf="http://www.w3.org/1999/02/22-rdf-syntax-ns#"
   xmlns:svg="http://www.w3.org/2000/svg"
   xmlns="http://www.w3.org/2000/svg"
   xmlns:sodipodi="http://sodipodi.sourceforge.net/DTD/sodipodi-0.dtd"
   xmlns:inkscape="http://www.inkscape.org/namespaces/inkscape"
   width="210mm"
   height="297mm"
   viewBox="0 0 744.09448819 1052.3622047"
   id="svg3687"
   version="1.1"
   inkscape:version="0.91 r13725"
   sodipodi:docname="logo.svg">
  <defs
     id="defs3689" />
  <sodipodi:namedview
     id="base"
     pagecolor="#ffffff"
     bordercolor="#666666"
     borderopacity="1.0"
     inkscape:pageopacity="0.0"
     inkscape:pageshadow="2"
     inkscape:zoom="2.8"
     inkscape:cx="362.33672"
     inkscape:cy="764.05388"
     inkscape:document-units="px"
     inkscape:current-layer="layer1"
     showgrid="false" />
  <metadata
     id="metadata3692">
    <rdf:RDF>
      <cc:Work
         rdf:about="">
        <dc:format>image/svg+xml</dc:format>
        <dc:type
           rdf:resource="http://purl.org/dc/dcmitype/StillImage" />
        <dc:title></dc:title>
      </cc:Work>
    </rdf:RDF>
  </metadata>
  <g
     inkscape:label="Layer 1"
     inkscape:groupmode="layer"
     id="layer1">
    <g
       transform="translate(242.14286,207.3622)"
       id="g3502">
      <g
         id="g3504">
        <rect
           style="fill:#ffffff"
           x="4.7470002"
           y="5.25"
           width="100.506"
           height="47.028999"
           id="rect3506" />
        <path
           style="fill:#9b9c9e"
           inkscape:connector-curvature="0"
           d="m 105.003,5.5 0,46.529 -100.006,0 0,-46.529 100.006,0 m 0.5,-0.5 -101.006,0 0,47.529 101.006,0 0,-47.529 0,0 z"
           id="path3508" />
      </g>
      <g
         id="g3510">
        <rect
           style="fill:#e0221b"
           x="13.914"
           y="14.414"
           width="19.156"
           height="19.153999"
           id="rect3512" />
        <path
           style="fill:#ffffff"
           inkscape:connector-curvature="0"
           d="m 15.812,29.349 c 0,-0.297 0.039,-0.612 0.119,-0.948 l 2.293,-9.902 -1.622,0 0.477,-1.819 3.755,0 -2.71,11.701 c -0.077,0.356 -0.136,0.634 -0.136,0.85 0,0.435 0.136,0.613 0.456,0.613 0.355,0 0.731,-0.218 1.165,-1.425 l 0.871,0.338 c -0.595,2.036 -1.584,2.553 -2.709,2.553 -1.345,-10e-4 -1.959,-0.776 -1.959,-1.961"
           id="path3514" />
        <path
           style="fill:#ffffff"
           inkscape:connector-curvature="0"
           d="m 27.416,26.087 c 0,-1.127 -0.554,-1.838 -1.699,-1.838 -1.443,0 -2.609,1.622 -2.609,3.38 0,1.027 0.512,1.839 1.56,1.839 1.443,0 2.748,-1.522 2.748,-3.381 m -6.561,1.859 c 0,-2.986 1.996,-5.613 4.505,-5.613 1.146,0 2.076,0.948 2.43,1.936 l 0.593,-1.778 2.018,0 -1.482,5.89 c -0.099,0.376 -0.161,0.713 -0.161,0.93 0,0.354 0.141,0.533 0.438,0.533 0.255,0 0.67,-0.218 1.106,-1.425 l 0.869,0.338 c -0.593,2.036 -1.698,2.553 -2.647,2.553 -1.128,0 -1.78,-0.774 -1.78,-1.96 -0.711,1.068 -1.759,1.96 -3.104,1.96 -1.619,-10e-4 -2.785,-1.348 -2.785,-3.364"
           id="path3516" />
        <path
           inkscape:connector-curvature="0"
           d="m 39.955,22.139 -1.699,0 0,-0.426 c 0,-0.673 0.215,-0.914 0.826,-0.914 0.307,0 0.598,0.017 0.889,0.05 l 0.127,0.017 0,-2.072 -0.108,-0.004 c -0.162,-0.009 -0.326,-0.021 -0.497,-0.033 -0.266,-0.018 -0.543,-0.037 -0.81,-0.037 -1.951,0 -3.115,1.06 -3.115,2.837 l 0,0.582 -1.476,0 0,1.872 1.476,0 0,7.326 2.688,0 0,-7.326 1.699,0 0,-1.872 z"
           id="path3518" />
        <path
           inkscape:connector-curvature="0"
           d="m 44.432,29.301 c -1.701,0 -1.955,-1.641 -1.955,-2.618 0,-0.984 0.253,-2.635 1.955,-2.635 1.717,0 1.972,1.65 1.972,2.635 0,0.977 -0.255,2.618 -1.972,2.618 m 0,-7.243 c -2.75,0 -4.525,1.815 -4.525,4.625 0,2.8 1.775,4.609 4.525,4.609 2.761,0 4.543,-1.81 4.543,-4.609 10e-4,-2.81 -1.782,-4.625 -4.543,-4.625"
           id="path3520" />
        <path
           inkscape:connector-curvature="0"
           d="m 54.787,22.058 c -1.026,0 -1.959,0.462 -2.549,1.249 l 0,-1.021 -2.455,0 0,8.774 2.568,0 0,-4.59 c 0,-1.662 0.497,-2.34 1.71,-2.34 0.976,0 1.395,0.596 1.395,1.99 l 0,4.94 2.57,0 0,-5.371 c 0,-1.796 -0.384,-3.631 -3.239,-3.631"
           id="path3522" />
        <path
           inkscape:connector-curvature="0"
           d="m 63.26,24.048 c 1.659,0 1.905,1.631 1.905,2.603 0,1.206 -0.328,2.65 -1.905,2.65 -1.351,0 -1.955,-1.324 -1.955,-2.634 0,-0.786 0.188,-2.619 1.955,-2.619 m 1.826,-0.906 c -0.55,-0.686 -1.442,-1.084 -2.453,-1.084 -2.682,0 -3.9,2.354 -3.9,4.544 0,2.333 1.225,4.692 3.95,4.692 1.104,0 1.97,-0.387 2.517,-1.12 l 0,0.887 2.457,0 0,-12.03 -2.57,0 0,4.111 z"
           id="path3524" />
        <path
           inkscape:connector-curvature="0"
           d="m 72.707,24.048 c 0.979,0 1.502,0.48 1.734,1.598 l -3.563,0 c 0.05,-0.404 0.327,-1.598 1.829,-1.598 m 0.065,-1.99 c -2.591,0 -4.475,1.944 -4.475,4.625 0,2.758 1.797,4.609 4.475,4.609 2.083,0 3.467,-0.993 4.107,-2.955 l 0.048,-0.145 -2.306,0 -0.021,0.08 c -0.139,0.497 -0.875,1.028 -1.745,1.028 -1.241,0 -1.892,-0.637 -1.984,-1.945 l 6.155,0 0.009,-0.102 c 0.101,-1.572 -0.357,-3.017 -1.248,-3.967 -0.759,-0.804 -1.797,-1.228 -3.015,-1.228"
           id="path3526" />
        <path
           inkscape:connector-curvature="0"
           d="m 82.813,22.058 c -1.062,0 -2.117,0.62 -2.646,1.521 l 0,-1.292 -2.457,0 0,8.774 2.569,0 0,-3.964 c 0,-1.204 0.382,-2.635 2.205,-2.635 0.278,0 0.616,0.033 0.82,0.08 l 0.136,0.03 0,-2.402 -0.074,-0.024 c -0.167,-0.054 -0.378,-0.088 -0.553,-0.088"
           id="path3528" />
        <rect
           x="84.053001"
           y="19.000999"
           width="2.579"
           height="2.1589999"
           id="rect3530" />
        <rect
           x="84.053001"
           y="22.268999"
           width="2.579"
           height="8.7910004"
           id="rect3532" />
        <path
           inkscape:connector-curvature="0"
           d="m 90.034,25.646 c 0.051,-0.403 0.331,-1.598 1.833,-1.598 0.976,0 1.499,0.48 1.731,1.598 l -3.564,0 z m 4.788,-2.371 c -0.755,-0.804 -1.795,-1.231 -3.012,-1.231 -2.594,0 -4.476,1.947 -4.476,4.626 0,2.757 1.797,4.611 4.476,4.611 2.083,0 3.465,-0.994 4.111,-2.956 l 0.046,-0.144 -2.307,0 -0.022,0.079 c -0.141,0.497 -0.873,1.028 -1.746,1.028 -1.238,0 -1.889,-0.636 -1.983,-1.944 l 6.156,0 0.007,-0.104 c 0.099,-1.571 -0.353,-3.013 -1.25,-3.965"
           id="path3534" />
      </g>
      <g
         id="g3536">
        <path
           style="fill:#1a171b"
           inkscape:connector-curvature="0"
           d="m 14.356,40.08 0.41,0 2.146,-3.602 -0.534,0 0.103,-0.444 2.064,0 -0.103,0.444 -0.513,0 0.479,3.602 0.479,0 -0.109,0.451 -1.47,0 0.103,-0.443 0.499,0 -0.137,-1.108 -1.832,0 -0.656,1.108 0.595,0 -0.109,0.443 -1.524,0 0.109,-0.451 z m 3.356,-1.538 -0.267,-2.098 -1.244,2.098 1.511,0 z"
           id="path3538" />
        <path
           style="fill:#1a171b"
           inkscape:connector-curvature="0"
           d="m 19.338,41.57 c -0.116,-0.123 -0.157,-0.219 -0.157,-0.342 0,-0.212 0.137,-0.362 0.335,-0.362 0.205,0 0.328,0.164 0.328,0.335 0,0.062 -0.021,0.13 -0.055,0.178 0.116,0.075 0.301,0.13 0.547,0.13 0.294,0 0.506,-0.075 0.69,-0.26 0.157,-0.157 0.267,-0.403 0.349,-0.738 l 0.137,-0.587 c -0.246,0.375 -0.615,0.587 -1.019,0.587 -0.649,0 -1.101,-0.458 -1.101,-1.183 0,-0.97 0.69,-1.763 1.559,-1.763 0.519,0 0.834,0.335 0.929,0.703 l 0.178,-0.669 0.458,0 -0.697,3 c -0.096,0.403 -0.219,0.704 -0.444,0.923 -0.253,0.26 -0.588,0.376 -1.039,0.376 -0.397,0 -0.827,-0.164 -0.998,-0.328 z m 2.413,-2.801 c 0,-0.479 -0.294,-0.779 -0.766,-0.779 -0.629,0 -1.087,0.607 -1.087,1.312 0,0.486 0.301,0.793 0.752,0.793 0.656,-10e-4 1.101,-0.671 1.101,-1.326 z"
           id="path3540" />
        <path
           style="fill:#1a171b"
           inkscape:connector-curvature="0"
           d="m 23.411,39.219 c -0.007,0.049 -0.007,0.096 -0.007,0.144 0,0.513 0.424,0.813 0.93,0.813 0.328,0 0.588,-0.068 0.964,-0.267 l -0.103,0.465 c -0.308,0.15 -0.561,0.212 -0.957,0.212 -0.684,0 -1.306,-0.438 -1.306,-1.23 0,-0.983 0.745,-1.79 1.613,-1.79 0.677,0 1.114,0.41 1.114,1.066 0,0.178 -0.034,0.375 -0.109,0.587 l -2.139,0 z m 0.075,-0.368 1.675,0 c 0.034,-0.09 0.047,-0.191 0.047,-0.287 0,-0.314 -0.211,-0.581 -0.683,-0.581 -0.458,-10e-4 -0.868,0.362 -1.039,0.868 z"
           id="path3542" />
        <path
           style="fill:#1a171b"
           inkscape:connector-curvature="0"
           d="m 28.161,40.039 c 0,-0.088 0.021,-0.225 0.055,-0.328 l 0.273,-0.95 c 0.034,-0.129 0.047,-0.231 0.047,-0.341 0,-0.261 -0.191,-0.438 -0.472,-0.438 -0.389,0 -0.827,0.368 -0.998,1.066 l -0.376,1.482 -0.479,0 0.629,-2.494 -0.547,0 0.103,-0.417 0.971,0 -0.164,0.69 c 0.253,-0.425 0.615,-0.738 1.025,-0.738 0.465,0 0.8,0.321 0.8,0.793 0,0.144 -0.027,0.301 -0.075,0.458 l -0.267,0.942 c -0.027,0.089 -0.048,0.198 -0.048,0.253 0,0.137 0.082,0.219 0.198,0.219 0.137,0 0.253,-0.116 0.39,-0.458 l 0.239,0.082 c -0.15,0.472 -0.39,0.718 -0.731,0.718 -0.355,10e-4 -0.573,-0.224 -0.573,-0.539 z"
           id="path3544" />
        <path
           style="fill:#1a171b"
           inkscape:connector-curvature="0"
           d="m 29.909,39.328 c 0,-0.923 0.752,-1.763 1.668,-1.763 0.684,0 1.053,0.417 1.053,0.779 0,0.225 -0.15,0.41 -0.362,0.41 -0.144,0 -0.293,-0.104 -0.293,-0.308 0,-0.075 0.047,-0.191 0.136,-0.246 -0.103,-0.137 -0.28,-0.219 -0.546,-0.219 -0.602,0 -1.169,0.574 -1.169,1.318 0,0.52 0.342,0.869 0.881,0.869 0.335,0 0.684,-0.137 0.971,-0.383 l -0.014,0.465 c -0.287,0.211 -0.629,0.334 -1.012,0.334 -0.739,0.002 -1.313,-0.469 -1.313,-1.256 z"
           id="path3546" />
        <path
           style="fill:#1a171b"
           inkscape:connector-curvature="0"
           d="m 33.551,39.219 c -0.007,0.049 -0.007,0.096 -0.007,0.144 0,0.513 0.424,0.813 0.929,0.813 0.328,0 0.588,-0.068 0.964,-0.267 l -0.103,0.465 c -0.308,0.15 -0.561,0.212 -0.957,0.212 -0.684,0 -1.306,-0.438 -1.306,-1.23 0,-0.983 0.745,-1.79 1.613,-1.79 0.677,0 1.114,0.41 1.114,1.066 0,0.178 -0.035,0.375 -0.109,0.587 l -2.138,0 z m 0.075,-0.368 1.675,0 c 0.034,-0.09 0.047,-0.191 0.047,-0.287 0,-0.314 -0.211,-0.581 -0.684,-0.581 -0.456,-10e-4 -0.867,0.362 -1.038,0.868 z"
           id="path3548" />
        <path
           style="fill:#1a171b"
           inkscape:connector-curvature="0"
           d="m 37.138,41.461 0.438,0 0.82,-3.424 -0.554,0 0.103,-0.417 0.978,0 -0.137,0.608 c 0.239,-0.355 0.595,-0.663 1.053,-0.663 0.643,0 1.08,0.479 1.08,1.203 0,1.011 -0.725,1.824 -1.552,1.824 -0.458,0 -0.813,-0.294 -0.95,-0.677 l -0.355,1.545 0.595,0 -0.103,0.41 -1.517,0 0.101,-0.409 z m 3.275,-2.631 c 0,-0.507 -0.26,-0.841 -0.718,-0.841 -0.636,0 -1.148,0.725 -1.148,1.388 0,0.465 0.287,0.785 0.779,0.785 0.629,0 1.087,-0.656 1.087,-1.332 z"
           id="path3550" />
        <path
           style="fill:#1a171b"
           inkscape:connector-curvature="0"
           d="m 42.701,37.62 -0.472,1.824 c -0.027,0.097 -0.041,0.206 -0.041,0.315 0,0.246 0.171,0.416 0.444,0.416 0.403,0 0.841,-0.383 1.012,-1.066 l 0.369,-1.489 0.478,0 -0.526,2.118 c -0.034,0.116 -0.055,0.226 -0.055,0.287 0,0.137 0.082,0.212 0.198,0.212 0.13,0 0.252,-0.116 0.389,-0.458 l 0.239,0.082 c -0.157,0.492 -0.417,0.718 -0.738,0.718 -0.322,0 -0.533,-0.212 -0.533,-0.554 0,-0.041 0.007,-0.082 0.014,-0.137 -0.246,0.396 -0.602,0.69 -1.012,0.69 -0.438,0 -0.772,-0.287 -0.772,-0.737 0,-0.151 0.027,-0.301 0.062,-0.438 l 0.355,-1.367 -0.547,0 0.109,-0.417 1.027,0 z"
           id="path3552" />
        <path
           style="fill:#1a171b"
           inkscape:connector-curvature="0"
           d="m 46.193,35.938 -0.554,0 0.102,-0.41 1.019,0 -0.622,2.652 c 0.232,-0.335 0.587,-0.615 1.012,-0.615 0.656,0 1.093,0.479 1.093,1.203 0,1.011 -0.725,1.824 -1.545,1.824 -0.478,0 -0.848,-0.287 -0.943,-0.711 l -0.171,0.649 -0.458,0 1.067,-4.592 z m 1.544,2.892 c 0,-0.507 -0.259,-0.841 -0.718,-0.841 -0.635,0 -1.142,0.725 -1.142,1.388 0,0.465 0.281,0.785 0.772,0.785 0.63,0 1.088,-0.656 1.088,-1.332 z"
           id="path3554" />
        <path
           style="fill:#1a171b"
           inkscape:connector-curvature="0"
           d="m 48.892,40.033 c 0,-0.082 0.021,-0.191 0.048,-0.301 l 0.882,-3.794 -0.547,0 0.103,-0.41 1.019,0 -0.978,4.204 c -0.021,0.109 -0.048,0.225 -0.048,0.286 0,0.144 0.075,0.219 0.191,0.219 0.144,0 0.267,-0.116 0.403,-0.458 l 0.239,0.082 c -0.157,0.492 -0.41,0.718 -0.745,0.718 -0.349,0 -0.567,-0.219 -0.567,-0.546 z"
           id="path3556" />
        <path
           style="fill:#1a171b"
           inkscape:connector-curvature="0"
           d="m 50.88,40.033 c 0,-0.082 0.027,-0.213 0.055,-0.315 l 0.458,-1.681 -0.568,0 0.109,-0.417 1.046,0 -0.574,2.118 c -0.027,0.109 -0.048,0.226 -0.048,0.287 0,0.137 0.082,0.212 0.198,0.212 0.144,0 0.267,-0.116 0.396,-0.458 l 0.239,0.082 c -0.157,0.492 -0.403,0.718 -0.738,0.718 -0.354,0 -0.573,-0.219 -0.573,-0.546 z m 0.601,-3.322 c 0,-0.191 0.157,-0.349 0.349,-0.349 0.185,0 0.342,0.157 0.342,0.349 0,0.192 -0.157,0.349 -0.342,0.349 -0.191,0 -0.349,-0.158 -0.349,-0.349 z"
           id="path3558" />
        <path
           style="fill:#1a171b"
           inkscape:connector-curvature="0"
           d="m 52.739,39.39 c 0,-0.99 0.718,-1.824 1.565,-1.824 0.472,0 0.82,0.308 0.922,0.69 l 0.171,-0.636 0.458,0 -0.888,3.841 0.608,0 -0.103,0.41 -1.08,0 0.438,-1.865 c -0.24,0.327 -0.602,0.58 -1.025,0.58 -0.642,0 -1.066,-0.471 -1.066,-1.196 z m 2.358,-0.602 c 0,-0.471 -0.253,-0.799 -0.738,-0.799 -0.636,0 -1.114,0.662 -1.114,1.366 0,0.479 0.26,0.814 0.717,0.814 0.67,0.001 1.135,-0.731 1.135,-1.381 z"
           id="path3560" />
        <path
           style="fill:#1a171b"
           inkscape:connector-curvature="0"
           d="m 57.55,37.62 -0.472,1.824 c -0.027,0.097 -0.041,0.206 -0.041,0.315 0,0.246 0.171,0.416 0.444,0.416 0.402,0 0.84,-0.383 1.011,-1.066 l 0.37,-1.489 0.479,0 -0.527,2.118 c -0.033,0.116 -0.055,0.226 -0.055,0.287 0,0.137 0.083,0.212 0.199,0.212 0.129,0 0.252,-0.116 0.39,-0.458 l 0.238,0.082 c -0.157,0.492 -0.416,0.718 -0.737,0.718 -0.321,0 -0.533,-0.212 -0.533,-0.554 0,-0.041 0.006,-0.082 0.013,-0.137 -0.245,0.396 -0.602,0.69 -1.011,0.69 -0.438,0 -0.772,-0.287 -0.772,-0.737 0,-0.151 0.026,-0.301 0.062,-0.438 l 0.355,-1.367 -0.547,0 0.109,-0.417 1.025,0 z"
           id="path3562" />
        <path
           style="fill:#1a171b"
           inkscape:connector-curvature="0"
           d="m 60.528,39.219 c -0.007,0.049 -0.007,0.096 -0.007,0.144 0,0.513 0.424,0.813 0.93,0.813 0.328,0 0.588,-0.068 0.964,-0.267 l -0.103,0.465 c -0.308,0.15 -0.56,0.212 -0.957,0.212 -0.684,0 -1.305,-0.438 -1.305,-1.23 0,-0.983 0.744,-1.79 1.612,-1.79 0.677,0 1.114,0.41 1.114,1.066 0,0.178 -0.034,0.375 -0.109,0.587 l -2.139,0 z m 0.076,-0.368 1.674,0 c 0.034,-0.09 0.048,-0.191 0.048,-0.287 0,-0.314 -0.212,-0.581 -0.683,-0.581 -0.458,-10e-4 -0.869,0.362 -1.039,0.868 z"
           id="path3564" />
        <path
           style="fill:#1a171b"
           inkscape:connector-curvature="0"
           d="m 66.707,40.039 c 0,-0.088 0.02,-0.225 0.055,-0.328 l 0.273,-0.95 c 0.033,-0.129 0.048,-0.231 0.048,-0.341 0,-0.261 -0.192,-0.438 -0.473,-0.438 -0.39,0 -0.827,0.368 -0.997,1.066 l -0.377,1.482 -0.479,0 0.63,-2.494 -0.547,0 0.103,-0.417 0.97,0 -0.164,0.69 c 0.253,-0.425 0.616,-0.738 1.025,-0.738 0.466,0 0.801,0.321 0.801,0.793 0,0.144 -0.028,0.301 -0.076,0.458 l -0.267,0.942 c -0.027,0.089 -0.047,0.198 -0.047,0.253 0,0.137 0.081,0.219 0.197,0.219 0.138,0 0.254,-0.116 0.39,-0.458 l 0.24,0.082 c -0.151,0.472 -0.391,0.718 -0.732,0.718 -0.354,10e-4 -0.573,-0.224 -0.573,-0.539 z"
           id="path3566" />
        <path
           style="fill:#1a171b"
           inkscape:connector-curvature="0"
           d="m 69.665,37.62 -0.472,1.824 c -0.027,0.097 -0.042,0.206 -0.042,0.315 0,0.246 0.171,0.416 0.444,0.416 0.404,0 0.842,-0.383 1.013,-1.066 l 0.369,-1.489 0.478,0 -0.525,2.118 c -0.035,0.116 -0.055,0.226 -0.055,0.287 0,0.137 0.081,0.212 0.197,0.212 0.131,0 0.254,-0.116 0.39,-0.458 l 0.24,0.082 c -0.157,0.492 -0.418,0.718 -0.739,0.718 -0.321,0 -0.532,-0.212 -0.532,-0.554 0,-0.041 0.007,-0.082 0.014,-0.137 -0.247,0.396 -0.602,0.69 -1.013,0.69 -0.438,0 -0.772,-0.287 -0.772,-0.737 0,-0.151 0.028,-0.301 0.062,-0.438 l 0.356,-1.367 -0.548,0 0.109,-0.417 1.026,0 z"
           id="path3568" />
        <path
           style="fill:#1a171b"
           inkscape:connector-curvature="0"
           d="m 72.821,38.037 -0.547,0 0.103,-0.417 0.972,0 -0.171,0.69 c 0.259,-0.425 0.614,-0.738 0.997,-0.738 0.438,0 0.731,0.28 0.752,0.731 0.273,-0.451 0.643,-0.731 1.012,-0.731 0.438,0 0.759,0.321 0.759,0.793 0,0.144 -0.027,0.301 -0.075,0.458 l -0.273,0.942 c -0.021,0.089 -0.042,0.198 -0.042,0.253 0,0.137 0.083,0.219 0.199,0.219 0.129,0 0.253,-0.116 0.39,-0.458 l 0.239,0.082 c -0.15,0.472 -0.391,0.718 -0.731,0.718 -0.355,0 -0.574,-0.226 -0.574,-0.54 0,-0.088 0.021,-0.225 0.055,-0.328 l 0.267,-0.936 c 0.034,-0.137 0.055,-0.246 0.055,-0.355 0,-0.267 -0.172,-0.438 -0.424,-0.438 -0.376,0 -0.793,0.376 -0.978,1.086 l -0.376,1.463 -0.48,0 0.45,-1.749 c 0.034,-0.144 0.055,-0.26 0.055,-0.369 0,-0.246 -0.171,-0.431 -0.431,-0.431 -0.369,0 -0.813,0.376 -0.984,1.079 l -0.369,1.47 -0.478,0 0.628,-2.494 z"
           id="path3570" />
        <path
           style="fill:#1a171b"
           inkscape:connector-curvature="0"
           d="m 78.049,39.219 c -0.007,0.049 -0.007,0.096 -0.007,0.144 0,0.513 0.424,0.813 0.93,0.813 0.328,0 0.588,-0.068 0.963,-0.267 l -0.102,0.465 c -0.308,0.15 -0.561,0.212 -0.957,0.212 -0.684,0 -1.306,-0.438 -1.306,-1.23 0,-0.983 0.745,-1.79 1.613,-1.79 0.677,0 1.114,0.41 1.114,1.066 0,0.178 -0.035,0.375 -0.109,0.587 l -2.139,0 z m 0.076,-0.368 1.674,0 c 0.034,-0.09 0.048,-0.191 0.048,-0.287 0,-0.314 -0.212,-0.581 -0.684,-0.581 -0.458,-10e-4 -0.868,0.362 -1.038,0.868 z m 0.949,-1.921 1.039,-0.861 c 0.103,-0.089 0.185,-0.13 0.294,-0.13 0.144,0 0.267,0.123 0.267,0.267 0,0.15 -0.109,0.26 -0.253,0.328 l -1.23,0.561 -0.117,-0.165 z"
           id="path3572" />
        <path
           style="fill:#1a171b"
           inkscape:connector-curvature="0"
           d="m 81.479,38.037 -0.547,0 0.102,-0.417 0.972,0 -0.191,0.807 c 0.375,-0.554 0.703,-0.854 0.998,-0.854 0.232,0 0.396,0.149 0.396,0.362 0,0.205 -0.171,0.376 -0.37,0.376 -0.184,0 -0.313,-0.124 -0.348,-0.273 -0.219,0.109 -0.677,0.547 -0.834,1.203 l -0.328,1.291 -0.479,0 0.629,-2.495 z"
           id="path3574" />
        <path
           style="fill:#1a171b"
           inkscape:connector-curvature="0"
           d="m 83.604,40.033 c 0,-0.082 0.027,-0.213 0.055,-0.315 l 0.458,-1.681 -0.567,0 0.109,-0.417 1.045,0 -0.573,2.118 c -0.028,0.109 -0.048,0.226 -0.048,0.287 0,0.137 0.081,0.212 0.198,0.212 0.144,0 0.266,-0.116 0.396,-0.458 l 0.239,0.082 c -0.158,0.492 -0.403,0.718 -0.738,0.718 -0.355,0 -0.574,-0.219 -0.574,-0.546 z m 0.602,-3.322 c 0,-0.191 0.157,-0.349 0.348,-0.349 0.186,0 0.343,0.157 0.343,0.349 0,0.192 -0.157,0.349 -0.343,0.349 -0.191,0 -0.348,-0.158 -0.348,-0.349 z"
           id="path3576" />
        <path
           style="fill:#1a171b"
           inkscape:connector-curvature="0"
           d="m 85.463,39.39 c 0,-0.99 0.718,-1.824 1.564,-1.824 0.473,0 0.82,0.308 0.923,0.69 l 0.171,-0.636 0.459,0 -0.889,3.841 0.609,0 -0.103,0.41 -1.08,0 0.438,-1.865 c -0.239,0.327 -0.602,0.58 -1.026,0.58 -0.642,0 -1.066,-0.471 -1.066,-1.196 z m 2.358,-0.602 c 0,-0.471 -0.254,-0.799 -0.739,-0.799 -0.635,0 -1.113,0.662 -1.113,1.366 0,0.479 0.26,0.814 0.718,0.814 0.668,0.001 1.134,-0.731 1.134,-1.381 z"
           id="path3578" />
        <path
           style="fill:#1a171b"
           inkscape:connector-curvature="0"
           d="m 90.274,37.62 -0.472,1.824 c -0.028,0.097 -0.042,0.206 -0.042,0.315 0,0.246 0.171,0.416 0.444,0.416 0.404,0 0.842,-0.383 1.013,-1.066 l 0.368,-1.489 0.479,0 -0.525,2.118 c -0.035,0.116 -0.055,0.226 -0.055,0.287 0,0.137 0.081,0.212 0.197,0.212 0.131,0 0.254,-0.116 0.39,-0.458 l 0.24,0.082 c -0.157,0.492 -0.418,0.718 -0.739,0.718 -0.321,0 -0.533,-0.212 -0.533,-0.554 0,-0.041 0.008,-0.082 0.015,-0.137 -0.247,0.396 -0.602,0.69 -1.013,0.69 -0.438,0 -0.772,-0.287 -0.772,-0.737 0,-0.151 0.028,-0.301 0.062,-0.438 l 0.356,-1.367 -0.547,0 0.109,-0.417 1.025,0 z"
           id="path3580" />
        <path
           style="fill:#1a171b"
           inkscape:connector-curvature="0"
           d="m 93.253,39.219 c -0.007,0.049 -0.007,0.096 -0.007,0.144 0,0.513 0.423,0.813 0.93,0.813 0.327,0 0.587,-0.068 0.963,-0.267 l -0.103,0.465 c -0.307,0.15 -0.56,0.212 -0.956,0.212 -0.685,0 -1.306,-0.438 -1.306,-1.23 0,-0.983 0.745,-1.79 1.612,-1.79 0.678,0 1.115,0.41 1.115,1.066 0,0.178 -0.035,0.375 -0.109,0.587 l -2.139,0 z m 0.075,-0.368 1.675,0 c 0.033,-0.09 0.047,-0.191 0.047,-0.287 0,-0.314 -0.211,-0.581 -0.683,-0.581 -0.458,-10e-4 -0.869,0.362 -1.039,0.868 z"
           id="path3582" />
      </g>
      <g
         id="g3584">
        <rect
           style="fill:#ffffff"
           x="4.7470002"
           y="57.486"
           width="100.506"
           height="27.264"
           id="rect3586" />
        <path
           style="fill:#9b9c9e"
           inkscape:connector-curvature="0"
           d="m 105.003,57.736 0,26.764 -100.006,0 0,-26.764 100.006,0 m 0.5,-0.5 -101.006,0 0,27.764 101.006,0 0,-27.764 0,0 z"
           id="path3588" />
      </g>
      <g
         id="g3590">
        <path
           style="fill:#e22019"
           inkscape:connector-curvature="0"
           d="m 23.259,68.143 c -0.038,0.018 -0.191,0.061 -0.175,0.067 -0.016,-0.007 -0.02,-0.007 -0.02,-0.021 0.013,-0.056 -0.248,0.188 -0.261,0.096 -0.004,-0.021 0.013,0.004 -0.026,-0.006 0.099,0.014 -0.584,0.227 -0.584,0.213 -0.028,-0.068 -0.022,-0.139 0.021,-0.203 0.056,-0.136 -0.115,-0.327 -0.051,-0.27 -0.046,-0.047 -0.046,-0.089 -0.005,-0.138 0.033,0.022 0.005,-0.007 0.018,-0.065 0.017,-0.014 -0.033,-0.087 0.015,-0.061 0.041,-0.014 0.114,-0.254 0.062,-0.424 -0.11,-0.261 -0.062,-2.135 -0.01,-2.062 0.022,-0.129 -0.1,-0.223 -0.039,-0.32 0.005,-0.098 -0.091,-0.1 -0.077,-0.17 -0.052,-0.199 -0.328,-0.194 -0.302,-0.236 -0.146,0.033 -0.687,0.906 -0.691,0.932 0.035,-0.033 -0.366,0.568 -0.362,0.568 -0.041,-0.012 -0.088,0.066 -0.099,0.158 -0.004,0.01 -0.229,0.287 -0.208,0.231 -0.074,0.129 -0.164,0.252 -0.231,0.383 0.052,-0.034 -0.101,0.104 -0.077,0.103 0.002,-0.017 -0.174,0.421 -0.175,0.383 0.015,-0.059 -0.217,0.219 -0.241,0.22 -0.048,0.197 -0.791,-0.292 -0.806,-0.513 0,-0.01 -0.016,-0.207 -0.114,-0.232 0.044,0.04 -0.525,-0.479 -0.484,-0.441 -0.297,-0.396 -0.532,-0.383 -0.975,-0.771 0.005,-0.004 -0.102,-0.249 -0.177,-0.334 -0.166,0.041 -0.394,0.298 -0.346,0.36 -0.071,0.032 -0.083,-0.059 -0.111,-0.089 -0.021,0.096 0.074,0.658 0.074,0.658 -0.011,0.082 0.037,0.5 0.055,0.438 l 0.032,0.039 c 0,0 -0.051,0.061 0.014,0.104 0.066,0.118 0.203,0.201 0.156,0.37 -0.059,0.027 0.007,0.247 -0.005,0.176 -0.067,0.346 0.742,0.998 0.633,1.454 -0.053,0.042 0.151,0.288 0.109,0.274 -0.068,0.083 -0.278,0.135 -0.424,0.176 -0.044,0.025 -0.088,0.002 -0.137,-0.012 -0.042,-0.008 -0.41,-0.158 -0.512,-0.089 -0.002,0.01 -0.305,-0.069 -0.307,-0.056 0.056,-0.062 -0.343,0.084 -0.284,-0.049 0.026,-0.098 -0.348,0.11 -0.252,0.055 -0.008,0.008 -0.167,0.093 -0.162,0.067 0.014,-0.036 -0.142,-0.005 -0.107,0.003 -0.021,-0.008 -0.182,-0.051 -0.158,-0.037 -0.09,-0.059 -0.104,0.022 -0.208,-0.025 -0.007,0.011 -0.125,0.023 -0.146,0.02 -0.007,-0.002 -0.234,0.006 -0.234,0 0.019,-0.008 -0.198,0.063 -0.21,0.006 0.006,-0.008 -0.173,0.126 -0.221,0.045 0.021,-0.068 -0.202,0.057 -0.237,0.061 -0.029,-0.004 -0.14,-0.055 -0.12,-0.02 -0.017,0.012 -0.156,0.182 -0.156,0.182 0.024,0.01 0.767,0.564 0.65,0.478 0,0 0.079,0.066 0.272,0.185 -0.029,0.08 0.289,0 0.236,0.181 0.295,-0.173 0.899,0.64 1.11,0.51 0.028,0 0.118,0.142 0.148,0.133 -0.048,-0.042 0.153,0.065 0.091,0.062 0.029,0.034 0.018,0.021 0.113,0.119 0.243,-0.011 0.346,0.187 0.427,0.254 0.262,0.514 -0.837,1.005 -0.932,1.264 -0.007,0.016 -0.007,0.024 -0.019,0.021 0.01,0.013 -0.156,0.068 -0.176,0.152 l -0.162,0.216 c -0.149,-0.043 -0.522,0.553 -0.67,0.627 l -0.363,0.168 c 0,0 -0.051,0.047 -0.083,0.096 -0.031,0.052 -0.083,0.113 -0.117,0.127 -0.033,0.01 -0.256,0.23 -0.256,0.23 l -0.057,0.102 0.092,0.041 c 0,0 -0.06,0.07 -0.066,0.098 -0.013,0.023 -0.048,0.1 0.024,0.113 0.071,0.018 0.114,0.018 0.132,0.052 0.016,0.036 0.302,0.06 0.326,0.054 0.02,-0.01 0.164,-0.07 0.164,-0.07 0.141,-0.047 0.594,-0.037 0.646,0.006 -0.006,0 0.661,-0.164 0.679,-0.219 0.021,0.005 0.414,-0.136 0.414,-0.136 0.105,-0.05 0.351,-0.091 0.427,-0.179 -0.074,0.016 0.315,-0.119 0.425,-0.066 0.034,0.018 0.974,-0.175 1.005,-0.298 0.076,0.01 0.083,0.079 0.09,0.081 -0.023,0.126 -0.006,0.474 -0.051,0.533 0.002,-0.051 -0.131,0.086 -0.087,0.161 0.096,0.03 0.092,-0.005 0.151,0.133 -0.026,-0.063 0.005,0.276 -0.001,0.403 0.005,0.064 0.107,0.283 -0.066,0.367 0,0 -0.099,0.204 -0.103,0.201 0.013,-0.1 0.013,0.052 -0.007,0.023 0.087,-0.041 0.061,0.228 0.044,0.258 0.015,-0.041 -0.048,0.053 -0.052,0.021 -0.143,0.275 0.155,0.307 -0.016,0.34 0.074,0.022 0.111,0.393 0.107,0.338 0.015,0.125 0.004,0.247 -0.033,0.363 -0.025,-0.079 -0.065,0.141 -0.055,0.201 0.029,0.138 -0.039,0.396 0.092,0.46 -0.019,-0.058 0.101,0.126 0.101,0.126 0.311,0.13 0.385,-0.271 0.523,-0.338 0.046,-0.009 0.098,-0.196 0.144,-0.183 0.005,-0.014 0.19,-0.902 0.335,-0.856 -0.006,0 0.238,-0.365 0.29,-0.52 -0.002,0.008 -0.116,-0.131 0.127,-0.238 0.119,0.043 0.175,-0.28 0.208,-0.461 0.008,-0.104 0.081,-0.055 0.091,-0.166 -0.001,0.033 0.216,-0.326 0.25,-0.474 0.033,0.003 0.041,-0.161 0.066,-0.143 -0.071,-0.055 0.057,-0.124 0.04,-0.175 0.024,-0.088 0.018,-0.166 0.052,-0.16 0.041,-0.17 0.145,-0.096 0.168,-0.078 0.053,0.025 0.123,-0.018 0.132,0.109 -0.051,0.063 0.16,0.123 0.144,0.164 -0.008,-0.031 0.999,1.156 1.277,1.383 0.014,0.014 0.792,0.789 0.76,0.781 0.086,0.043 0.158,0.197 0.165,0.188 -0.033,0.05 0.146,0.133 0.182,0.133 0.118,0.206 0.123,0.163 0.188,0.132 0.017,0.091 0.173,0.048 0.231,0.074 -0.019,-0.043 0.123,-0.081 0.09,-0.132 0.045,0.016 -0.024,-0.168 0.015,-0.146 -0.052,-0.088 -0.346,-0.479 -0.326,-0.551 0.006,-0.025 0.042,-0.016 0.063,-0.009 -0.005,-0.024 -0.04,-0.049 -0.057,-0.066 0.052,0 0.066,-0.028 0.035,-0.087 -0.052,0.032 -0.125,-0.31 -0.078,-0.353 0.017,-0.086 -0.241,-1.14 -0.366,-1.239 0.008,-0.037 -0.042,-0.271 -0.053,-0.287 -0.202,-0.131 -0.033,-0.385 -0.175,-0.427 -0.033,0.062 -0.18,-0.177 -0.197,-0.379 -0.071,-0.124 0,-0.421 -0.049,-0.376 -0.039,-0.045 0.211,-0.152 0.274,-0.014 0.528,0.199 1.542,-0.135 1.909,0.15 0.083,-0.164 0.28,-0.036 0.177,-0.068 -0.017,0.022 0.018,0.032 0.04,0.035 -0.05,-0.008 0.357,-0.035 0.419,-0.002 -0.156,-0.037 0.229,-0.011 0.213,-0.019 -0.135,-0.03 0.273,0.052 0.711,-0.222 0.157,-0.048 0.127,-0.129 0.195,-0.279 -0.028,0.129 0.038,-0.127 -0.094,-0.211 -0.773,-0.191 -1.39,-0.767 -2.161,-0.968 -0.296,-0.062 -0.784,-0.795 -1.038,-0.749 0.468,-0.531 0.919,-1.062 1.401,-1.516 0.092,-0.092 1.057,-1.131 1.057,-1.118 0.039,-0.054 0.091,-0.228 0.085,-0.153 0.006,-0.024 -0.008,-0.057 -0.034,-0.096 0,0.014 -0.362,-0.268 -0.458,-0.092 0.129,0.078 -0.256,0.105 -0.353,0.129 -0.026,0.015 -0.051,0.01 -0.074,0.002 -0.095,-0.025 -0.224,0.087 -0.287,0.105 -0.141,-0.131 -0.493,0.104 -0.653,0.16 0.013,-0.01 -0.072,0.008 -0.195,-0.016 -0.055,0.084 -0.052,0.061 -0.04,0.051 -0.047,0.027 -0.086,0.064 -0.274,0.131 0.021,0.012 -0.123,0.067 -0.175,0.053 0.006,0.026 -0.02,0.092 -0.105,0.076 -0.056,-0.017 -0.048,-0.039 -0.071,-0.017"
           id="path3592" />
        <path
           style="fill:#e22019"
           inkscape:connector-curvature="0"
           d="m 29.954,68.447 2.24,0 0,6.842 -2.24,0 0,-6.842 z m 0.331,-0.74 -1.686,0 1.475,-1.963 2.003,0 1.476,1.963 -1.686,0 -0.791,-1.057 -0.791,1.057 z"
           id="path3594" />
        <rect
           style="fill:#e22019"
           x="33.285999"
           y="65.875999"
           width="2.2449999"
           height="9.4130001"
           id="rect3596" />
        <path
           style="fill:#e22019"
           inkscape:connector-curvature="0"
           d="m 41.148,71.164 c -0.042,-0.769 -0.583,-1.401 -1.333,-1.401 -0.793,0 -1.318,0.567 -1.451,1.401 l 2.784,0 z m -2.784,1.25 c 0.039,0.937 0.579,1.557 1.53,1.557 0.537,0 1.065,-0.251 1.277,-0.758 l 2.096,0 c -0.407,1.588 -1.873,2.273 -3.402,2.273 -2.229,0 -3.742,-1.346 -3.742,-3.641 0,-2.096 1.673,-3.599 3.691,-3.599 2.452,0 3.676,1.847 3.572,4.167 l -5.022,0 z"
           id="path3598" />
        <path
           style="fill:#e22019"
           inkscape:connector-curvature="0"
           d="m 46.333,74.631 c 1.182,0 1.642,-1.018 1.642,-2.021 0,-1.067 -0.479,-2.039 -1.691,-2.039 -1.206,0 -1.612,1.029 -1.612,2.078 -10e-4,1.003 0.517,1.982 1.661,1.982 m 2.496,0.658 -0.885,0 0,-0.727 -0.02,0 c -0.289,0.59 -0.979,0.852 -1.714,0.852 -1.655,0 -2.477,-1.312 -2.477,-2.83 0,-1.517 0.81,-2.793 2.457,-2.793 0.549,0 1.343,0.206 1.734,0.839 l 0.02,0 0,-2.763 0.885,0 0,7.422 z"
           id="path3600" />
        <path
           style="fill:#e22019"
           inkscape:connector-curvature="0"
           d="m 53.401,72.088 c -0.043,-0.846 -0.675,-1.518 -1.549,-1.518 -0.927,0 -1.476,0.693 -1.539,1.518 l 3.088,0 z m 0.853,1.492 c -0.237,1.186 -1.096,1.834 -2.299,1.834 -1.714,0 -2.524,-1.186 -2.577,-2.83 0,-1.611 1.062,-2.793 2.529,-2.793 1.9,0 2.482,1.775 2.43,3.078 l -4.023,0 c -0.031,0.936 0.503,1.762 1.675,1.762 0.727,0 1.237,-0.354 1.392,-1.051 l 0.873,0 z"
           id="path3602" />
        <polygon
           style="fill:#e22019"
           points="61.239,69.763 61.239,71.661 57.357,71.661 57.357,75.289 54.908,75.289 54.908,65.876 61.844,65.876 61.844,67.838 57.357,67.838 57.357,69.763 "
           id="polygon3604" />
        <path
           style="fill:#e22019"
           inkscape:connector-curvature="0"
           d="m 62.291,68.447 2.176,0 0,1.199 0.028,0 c 0.326,-0.871 1.093,-1.334 2.058,-1.334 0.169,0 0.352,0.017 0.528,0.057 l 0,2.041 c -0.295,-0.08 -0.555,-0.133 -0.863,-0.133 -1.104,0 -1.687,0.766 -1.687,1.623 l 0,3.389 -2.24,0 0,-6.842 z"
           id="path3606" />
        <path
           style="fill:#e22019"
           inkscape:connector-curvature="0"
           d="m 69.979,74.102 c 1.065,0 1.421,-0.606 1.371,-2.014 -0.316,0.192 -0.898,0.232 -1.389,0.362 -0.497,0.12 -0.92,0.332 -0.92,0.872 0.001,0.555 0.432,0.78 0.938,0.78 m -2.898,-3.547 c 0.036,-0.895 0.459,-1.479 1.065,-1.834 0.604,-0.342 1.395,-0.474 2.176,-0.474 1.621,0 3.193,0.359 3.193,2.294 l 0,2.994 c 0,0.58 0,1.211 0.258,1.754 l -2.255,0 c -0.076,-0.213 -0.105,-0.422 -0.132,-0.646 -0.578,0.604 -1.437,0.844 -2.255,0.844 -1.305,0 -2.331,-0.66 -2.331,-2.074 0,-2.227 2.425,-2.051 3.979,-2.369 0.386,-0.083 0.594,-0.211 0.594,-0.633 0,-0.514 -0.616,-0.711 -1.081,-0.711 -0.62,0 -1.012,0.277 -1.119,0.855 l -2.092,0 z"
           id="path3608" />
        <path
           style="fill:#e22019"
           inkscape:connector-curvature="0"
           d="m 74.327,68.447 2.177,0 0,0.935 0.029,0 c 0.405,-0.698 1.329,-1.135 2.146,-1.135 2.282,0 2.47,1.659 2.47,2.651 l 0,4.391 -2.246,0 0,-3.311 c 0,-0.936 0.107,-1.883 -1.119,-1.883 -0.846,0 -1.215,0.707 -1.215,1.459 l 0,3.734 -2.242,0 0,-6.841 z"
           id="path3610" />
        <path
           style="fill:#e22019"
           inkscape:connector-curvature="0"
           d="m 86.435,70.951 c -0.014,-0.58 -0.526,-0.988 -1.097,-0.988 -1.249,0 -1.449,1.065 -1.449,2.016 0,0.883 0.386,1.793 1.333,1.793 0.775,0 1.174,-0.449 1.276,-1.172 l 2.176,0 c -0.196,1.828 -1.617,2.887 -3.441,2.887 -2.055,0 -3.586,-1.413 -3.586,-3.508 0,-2.175 1.387,-3.731 3.586,-3.731 1.701,0 3.219,0.896 3.381,2.704 l -2.179,0 z"
           id="path3612" />
        <path
           style="fill:#e22019"
           inkscape:connector-curvature="0"
           d="m 93.828,71.164 c -0.036,-0.769 -0.579,-1.401 -1.331,-1.401 -0.79,0 -1.317,0.567 -1.446,1.401 l 2.777,0 z m -2.777,1.25 c 0.039,0.937 0.579,1.557 1.528,1.557 0.54,0 1.065,-0.251 1.277,-0.758 l 2.1,0 c -0.413,1.588 -1.876,2.273 -3.406,2.273 -2.227,0 -3.744,-1.346 -3.744,-3.641 0,-2.096 1.677,-3.599 3.691,-3.599 2.459,0 3.68,1.847 3.575,4.167 l -5.021,0 z"
           id="path3614" />
      </g>
    </g>
    <g
       transform="translate(363.69106,215.17853)"
       id="g3356">
      <g
         id="g3358">
        <g
           id="g3360">
          <path
             style="fill:#514f50"
             inkscape:connector-curvature="0"
             d="m 59.913,35.935 c 0,1.596 -1.001,2.925 -2.675,2.925 -1.672,0 -2.673,-1.329 -2.673,-2.925 0,-1.595 1.001,-2.924 2.673,-2.924 1.674,0 2.675,1.329 2.675,2.924 z m -4.37,0 c 0,1.073 0.501,2.128 1.695,2.128 1.197,0 1.698,-1.055 1.698,-2.128 0,-1.07 -0.501,-2.126 -1.698,-2.126 -1.194,-10e-4 -1.695,1.055 -1.695,2.126 z"
             id="path3362" />
          <path
             style="fill:#514f50"
             inkscape:connector-curvature="0"
             d="m 61.587,33.143 2.665,0 c 1.22,0 1.846,0.563 1.846,1.509 0,1.073 -0.742,1.346 -0.923,1.409 l 0,0.015 c 0.337,0.048 0.83,0.298 0.83,1.18 0,0.651 0.093,1.245 0.304,1.472 l -1.048,0 c -0.147,-0.242 -0.147,-0.549 -0.147,-0.821 0,-1.024 -0.212,-1.479 -1.11,-1.479 l -1.439,0 0,2.299 -0.977,0 0,-5.584 z m 0.976,2.541 1.603,0 c 0.619,0 0.954,-0.303 0.954,-0.892 0,-0.711 -0.461,-0.851 -0.969,-0.851 l -1.588,0 0,1.743 z"
             id="path3364" />
          <path
             style="fill:#514f50"
             inkscape:connector-curvature="0"
             d="m 72.743,38.727 -0.625,0 -0.148,-0.657 c -0.524,0.594 -1.001,0.79 -1.682,0.79 -1.673,0 -2.674,-1.329 -2.674,-2.925 0,-1.595 1.001,-2.924 2.674,-2.924 1.22,0 2.244,0.647 2.393,1.909 l -0.953,0 c -0.095,-0.737 -0.735,-1.112 -1.439,-1.112 -1.196,0 -1.697,1.056 -1.697,2.126 0,1.073 0.501,2.128 1.697,2.128 1.001,0.015 1.549,-0.586 1.563,-1.533 l -1.485,0 0,-0.742 2.377,0 0,2.94 z"
             id="path3366" />
          <path
             style="fill:#514f50"
             inkscape:connector-curvature="0"
             d="m 76.082,33.143 1.039,0 2.15,5.584 -1.049,0 -0.523,-1.478 -2.228,0 -0.523,1.478 -1.009,0 2.143,-5.584 z m -0.344,3.362 1.704,0 -0.837,-2.399 -0.007,0 -0.017,0 -0.843,2.399 z"
             id="path3368" />
          <path
             style="fill:#514f50"
             inkscape:connector-curvature="0"
             d="m 80.546,33.143 1.032,0 2.549,4.112 0.016,0 0,-4.112 0.93,0 0,5.584 -1.031,0 -2.542,-4.105 -0.022,0 0,4.105 -0.931,0 0,-5.584 z"
             id="path3370" />
          <path
             style="fill:#514f50"
             inkscape:connector-curvature="0"
             d="m 87.012,33.143 0.978,0 0,5.584 -0.978,0 0,-5.584 z"
             id="path3372" />
          <path
             style="fill:#514f50"
             inkscape:connector-curvature="0"
             d="m 90.608,36.865 c 0,0.859 0.632,1.197 1.414,1.197 0.861,0 1.182,-0.423 1.182,-0.845 0,-0.429 -0.234,-0.603 -0.461,-0.688 -0.391,-0.15 -0.899,-0.249 -1.666,-0.461 -0.954,-0.257 -1.235,-0.837 -1.235,-1.417 0,-1.116 1.032,-1.641 2.042,-1.641 1.164,0 2.141,0.618 2.141,1.782 l -0.977,0 c -0.047,-0.72 -0.533,-0.984 -1.204,-0.984 -0.453,0 -1.024,0.164 -1.024,0.726 0,0.394 0.266,0.609 0.664,0.722 0.087,0.024 1.321,0.342 1.611,0.429 0.735,0.22 1.087,0.845 1.087,1.424 0,1.251 -1.11,1.751 -2.221,1.751 -1.274,0 -2.306,-0.611 -2.33,-1.994 l 0.977,0 z"
             id="path3374" />
          <path
             style="fill:#514f50"
             inkscape:connector-curvature="0"
             d="m 97.309,33.143 1.039,0 2.15,5.584 -1.048,0 -0.524,-1.478 -2.228,0 -0.523,1.478 -1.009,0 2.143,-5.584 z m -0.345,3.362 1.705,0 -0.837,-2.399 -0.008,0 -0.016,0 -0.844,2.399 z"
             id="path3376" />
          <path
             style="fill:#514f50"
             inkscape:connector-curvature="0"
             d="m 100.562,33.143 4.519,0 0,0.845 -1.774,0 0,4.739 -0.977,0 0,-4.739 -1.768,0 0,-0.845 z"
             id="path3378" />
          <path
             style="fill:#514f50"
             inkscape:connector-curvature="0"
             d="m 106.512,33.143 0.978,0 0,5.584 -0.978,0 0,-5.584 z"
             id="path3380" />
          <path
             style="fill:#514f50"
             inkscape:connector-curvature="0"
             d="m 114.519,35.935 c 0,1.596 -1.001,2.925 -2.675,2.925 -1.672,0 -2.673,-1.329 -2.673,-2.925 0,-1.595 1.001,-2.924 2.673,-2.924 1.674,0 2.675,1.329 2.675,2.924 z m -4.372,0 c 0,1.073 0.5,2.128 1.696,2.128 1.196,0 1.696,-1.055 1.696,-2.128 0,-1.07 -0.5,-2.126 -1.696,-2.126 -1.196,0 -1.696,1.055 -1.696,2.126 z"
             id="path3382" />
          <path
             style="fill:#514f50"
             inkscape:connector-curvature="0"
             d="m 116.152,33.143 1.031,0 2.55,4.112 0.016,0 0,-4.112 0.931,0 0,5.584 -1.033,0 -2.541,-4.105 -0.022,0 0,4.105 -0.931,0 0,-5.584 z"
             id="path3384" />
          <path
             style="fill:#514f50"
             inkscape:connector-curvature="0"
             d="m 30.532,42.75 0.978,0 0,5.583 -0.978,0 0,-5.583 z"
             id="path3386" />
          <path
             style="fill:#514f50"
             inkscape:connector-curvature="0"
             d="m 33.447,42.75 1.032,0 2.549,4.114 0.017,0 0,-4.114 0.93,0 0,5.583 -1.031,0 -2.541,-4.104 -0.023,0 0,4.104 -0.932,0 0,-5.583 z"
             id="path3388" />
          <path
             style="fill:#514f50"
             inkscape:connector-curvature="0"
             d="m 39.383,42.75 4.519,0 0,0.845 -1.775,0 0,4.738 -0.977,0 0,-4.738 -1.767,0 0,-0.845 z"
             id="path3390" />
          <path
             style="fill:#514f50"
             inkscape:connector-curvature="0"
             d="m 45.332,42.75 4.02,0 0,0.845 -3.042,0 0,1.461 2.814,0 0,0.801 -2.814,0 0,1.632 3.095,0 0,0.845 -4.072,0 0,-5.584 z"
             id="path3392" />
          <path
             style="fill:#514f50"
             inkscape:connector-curvature="0"
             d="m 51.039,42.75 2.666,0 c 1.22,0 1.846,0.563 1.846,1.509 0,1.071 -0.742,1.346 -0.923,1.409 l 0,0.015 c 0.337,0.047 0.829,0.297 0.829,1.182 0,0.649 0.094,1.243 0.304,1.469 l -1.047,0 c -0.148,-0.243 -0.148,-0.548 -0.148,-0.819 0,-1.025 -0.211,-1.479 -1.11,-1.479 l -1.438,0 0,2.299 -0.978,0 0,-5.585 z m 0.978,2.541 1.603,0 c 0.618,0 0.955,-0.304 0.955,-0.89 0,-0.713 -0.462,-0.854 -0.971,-0.854 l -1.587,0 0,1.744 z"
             id="path3394" />
          <path
             style="fill:#514f50"
             inkscape:connector-curvature="0"
             d="m 57.286,42.75 1.032,0 2.55,4.114 0.015,0 0,-4.114 0.931,0 0,5.583 -1.032,0 -2.542,-4.104 -0.022,0 0,4.104 -0.931,0 0,-5.583 z"
             id="path3396" />
          <path
             style="fill:#514f50"
             inkscape:connector-curvature="0"
             d="m 65.245,42.75 1.04,0 2.15,5.583 -1.048,0 -0.524,-1.476 -2.227,0 -0.524,1.476 -1.01,0 2.143,-5.583 z m -0.344,3.362 1.705,0 -0.838,-2.4 -0.007,0 -0.016,0 -0.844,2.4 z"
             id="path3398" />
          <path
             style="fill:#514f50"
             inkscape:connector-curvature="0"
             d="m 68.5,42.75 4.52,0 0,0.845 -1.775,0 0,4.738 -0.978,0 0,-4.738 -1.767,0 0,-0.845 z"
             id="path3400" />
          <path
             style="fill:#514f50"
             inkscape:connector-curvature="0"
             d="m 74.45,42.75 0.976,0 0,5.583 -0.976,0 0,-5.583 z"
             id="path3402" />
          <path
             style="fill:#514f50"
             inkscape:connector-curvature="0"
             d="m 82.456,45.542 c 0,1.594 -1.002,2.925 -2.675,2.925 -1.672,0 -2.673,-1.331 -2.673,-2.925 0,-1.595 1.001,-2.923 2.673,-2.923 1.673,0 2.675,1.328 2.675,2.923 z m -4.371,0 c 0,1.071 0.501,2.127 1.696,2.127 1.195,0 1.696,-1.056 1.696,-2.127 0,-1.07 -0.501,-2.127 -1.696,-2.127 -1.195,0 -1.696,1.057 -1.696,2.127 z"
             id="path3404" />
          <path
             style="fill:#514f50"
             inkscape:connector-curvature="0"
             d="m 84.09,42.75 1.032,0 2.549,4.114 0.015,0 0,-4.114 0.931,0 0,5.583 -1.032,0 -2.541,-4.104 -0.024,0 0,4.104 -0.93,0 0,-5.583 z"
             id="path3406" />
          <path
             style="fill:#514f50"
             inkscape:connector-curvature="0"
             d="m 92.048,42.75 1.04,0 2.15,5.583 -1.048,0 -0.522,-1.476 -2.229,0 -0.524,1.476 -1.009,0 2.142,-5.583 z m -0.344,3.362 1.704,0 -0.836,-2.4 -0.009,0 -0.015,0 -0.844,2.4 z"
             id="path3408" />
          <path
             style="fill:#514f50"
             inkscape:connector-curvature="0"
             d="m 96.552,42.75 0.976,0 0,4.738 2.84,0 0,0.845 -3.815,0 0,-5.583 z"
             id="path3410" />
          <path
             style="fill:#514f50"
             inkscape:connector-curvature="0"
             d="m 101.821,42.75 4.018,0 0,0.845 -3.041,0 0,1.461 2.815,0 0,0.801 -2.815,0 0,1.632 3.097,0 0,0.845 -4.073,0 0,-5.584 z"
             id="path3412" />
          <path
             style="fill:#514f50"
             inkscape:connector-curvature="0"
             d="m 110.209,42.75 2.314,0 c 1.721,0 2.463,1.251 2.463,2.792 0,1.54 -0.742,2.791 -2.463,2.791 l -2.314,0 0,-5.583 z m 0.979,4.786 0.961,0 c 1.533,0 1.861,-0.875 1.861,-1.994 0,-1.117 -0.328,-1.995 -1.861,-1.995 l -0.961,0 0,3.989 z"
             id="path3414" />
          <path
             style="fill:#514f50"
             inkscape:connector-curvature="0"
             d="m 116.636,42.75 4.02,0 0,0.845 -3.042,0 0,1.461 2.814,0 0,0.801 -2.814,0 0,1.632 3.097,0 0,0.845 -4.074,0 0,-5.584 z"
             id="path3416" />
        </g>
        <g
           id="g3418">
          <g
             id="g3420">
            <g
               id="g3422">
              <path
                 style="fill:#514f50"
                 inkscape:connector-curvature="0"
                 d="m 3.52,63.729 0,-9.885 C 3.52,53.2 3.006,52.687 2.365,52.687 l 0,-0.767 3.851,0 0,13.349 c 0,1.694 1.361,3.084 3.083,3.084 l 0,1.152 c -3.213,0 -5.779,-2.593 -5.779,-5.776 z"
                 id="path3424" />
              <path
                 style="fill:#514f50"
                 inkscape:connector-curvature="0"
                 d="m 16.33,69.225 c -3.184,0 -5.775,-2.67 -5.775,-5.933 0,-3.285 2.619,-5.958 5.803,-5.958 1.002,0 2.028,0.208 2.695,1.002 l 0,-0.667 2.722,0 0,9.654 c 0,0.642 0.515,1.13 1.13,1.13 l 0,0.771 -6.575,0 z m 2.902,-7.808 c 0,-1.592 -1.282,-2.873 -2.875,-2.873 -1.565,0 -2.901,1.281 -2.901,2.873 l 0,3.751 c 0,1.617 1.336,2.901 2.901,2.901 l 2.875,0 0,-6.652 z"
                 id="path3426" />
              <path
                 style="fill:#514f50"
                 inkscape:connector-curvature="0"
                 d="m 36.9,54.615 c 0,-1.003 -0.848,-1.826 -1.823,-1.826 -1.026,0 -1.849,0.823 -1.849,1.826 l 0,3.054 3.158,0 0,1.156 -3.158,0 0,10.399 -2.696,0 0,-9.631 c 0,-0.64 -0.514,-1.181 -1.155,-1.181 l 0,-0.744 1.155,0 0,-1.874 c 0,-2.259 1.875,-4.158 4.186,-4.158 1.155,0 2.183,0.485 2.953,1.203 l 0,1.775 -0.771,0 z"
                 id="path3428" />
              <path
                 style="fill:#514f50"
                 inkscape:connector-curvature="0"
                 d="m 47.352,60.007 c -0.591,-0.694 -1.285,-1.053 -2.234,-1.053 -1.053,0 -1.9,1.002 -1.9,2.055 l 0,8.216 -2.723,0 0,-9.602 c 0,-0.644 -0.513,-1.157 -1.154,-1.157 l 0,-0.797 3.851,0 0,0.771 c 0.822,-0.721 1.979,-1.054 3.107,-1.054 0.667,0 1.309,0.078 1.901,0.309 l -0.848,2.312 z"
                 id="path3430" />
              <path
                 style="fill:#514f50"
                 inkscape:connector-curvature="0"
                 d="m 54.036,69.225 c -3.184,0 -5.777,-2.67 -5.777,-5.933 0,-3.285 2.618,-5.958 5.804,-5.958 1.001,0 2.028,0.208 2.694,1.002 l 0,-0.667 2.722,0 0,9.654 c 0,0.642 0.514,1.13 1.132,1.13 l 0,0.771 -6.575,0 z m 2.901,-7.808 c 0,-1.592 -1.282,-2.873 -2.874,-2.873 -1.567,0 -2.903,1.281 -2.903,2.873 l 0,3.751 c 0,1.617 1.336,2.901 2.903,2.901 l 2.874,0 0,-6.652 z"
                 id="path3432" />
              <path
                 style="fill:#514f50"
                 inkscape:connector-curvature="0"
                 d="m 71.745,69.225 0,-8.037 c 0,-1.463 -1.232,-2.644 -2.696,-2.644 -1.515,0 -2.696,1.181 -2.696,2.644 l 0,8.037 -2.516,0 0,-9.631 c 0,-0.64 -0.515,-1.153 -1.156,-1.153 l 0,-0.771 3.853,0 0,0.565 c 0.719,-0.515 1.515,-0.848 2.516,-0.848 3.313,0 5.366,2.31 5.366,5.905 l 0,3.979 c 0,0.643 0.514,1.156 1.156,1.156 l 0,0.797 -3.827,0 z"
                 id="path3434" />
              <path
                 style="fill:#514f50"
                 inkscape:connector-curvature="0"
                 d="m 83.096,69.225 c -3.21,0 -5.779,-2.67 -5.779,-5.933 0,-3.285 2.569,-5.958 5.779,-5.958 1.333,0 2.644,0.566 3.646,1.387 l 0,2.696 -0.771,0 c 0,-1.592 -1.31,-2.873 -2.875,-2.873 -1.618,0 -2.902,1.281 -2.902,2.873 l 0,3.751 c 0,1.617 1.284,2.901 2.902,2.901 l 3.646,0 0,1.155 -3.646,0 z"
                 id="path3436" />
              <path
                 style="fill:#514f50"
                 inkscape:connector-curvature="0"
                 d="M 94.776,69.505 C 91.592,69.505 89,66.785 89,63.42 c 0,-3.337 2.593,-6.086 5.776,-6.086 3.183,0 5.776,2.749 5.776,6.086 10e-4,3.365 -2.592,6.085 -5.776,6.085 z m 2.903,-8.088 c 0,-1.592 -1.284,-2.873 -2.902,-2.873 -1.592,0 -2.874,1.281 -2.874,2.873 l 0,4.161 c 0,1.592 1.282,2.875 2.874,2.875 1.618,0 2.902,-1.283 2.902,-2.875 l 0,-4.161 z"
                 id="path3438" />
              <path
                 style="fill:#514f50"
                 inkscape:connector-curvature="0"
                 d="m 109.027,69.558 c -1.003,0 -2.028,-0.207 -2.697,-0.999 l 0,4.491 c 0,0.642 0.515,1.156 1.156,1.156 l 0,0.794 -3.853,0 0,-15.406 c 0,-0.64 -0.487,-1.128 -1.129,-1.128 l 0,-0.797 6.548,0 c 3.209,0 5.777,2.671 5.777,5.933 0.001,3.285 -2.594,5.956 -5.802,5.956 z m 2.875,-7.857 c 0,-1.568 -1.284,-2.876 -2.875,-2.876 l -2.902,0 0,6.779 c 0,1.565 1.285,2.874 2.902,2.874 1.591,0 2.875,-1.309 2.875,-2.874 l 0,-3.903 z"
                 id="path3440" />
              <path
                 style="fill:#514f50"
                 inkscape:connector-curvature="0"
                 d="m 125.896,69.225 0,-7.987 c 0,-1.489 -1.206,-2.693 -2.695,-2.693 -1.489,0 -2.696,1.204 -2.696,2.693 l 0,7.987 -2.49,0 0,-15.38 c 0,-0.644 -0.514,-1.157 -1.156,-1.157 l 0,-0.768 3.853,0 0,6.314 c 0.693,-0.515 1.515,-0.848 2.49,-0.848 3.313,0 5.366,2.31 5.366,5.931 l 0,3.954 c 0,0.643 0.514,1.156 1.155,1.156 l 0,0.797 -3.827,0 z"
                 id="path3442" />
              <path
                 style="fill:#514f50"
                 inkscape:connector-curvature="0"
                 d="m 137.271,69.505 c -3.184,0 -5.777,-2.72 -5.777,-6.085 0,-3.337 2.594,-6.086 5.777,-6.086 3.183,0 5.776,2.749 5.776,6.086 0.001,3.365 -2.592,6.085 -5.776,6.085 z m 2.901,-8.088 c 0,-1.592 -1.283,-2.873 -2.9,-2.873 -1.593,0 -2.877,1.281 -2.877,2.873 l 0,4.161 c 0,1.592 1.284,2.875 2.877,2.875 1.617,0 2.9,-1.283 2.9,-2.875 l 0,-4.161 z"
                 id="path3444" />
              <path
                 style="fill:#514f50"
                 inkscape:connector-curvature="0"
                 d="m 154.065,69.225 0,-8.037 c 0,-1.463 -1.235,-2.644 -2.699,-2.644 -1.514,0 -2.695,1.181 -2.695,2.644 l 0,8.037 -2.516,0 0,-9.631 c 0,-0.64 -0.515,-1.153 -1.156,-1.153 l 0,-0.771 3.852,0 0,0.565 c 0.719,-0.515 1.515,-0.848 2.516,-0.848 3.313,0 5.368,2.31 5.368,5.905 l 0,3.979 c 0,0.643 0.513,1.156 1.154,1.156 l 0,0.797 -3.824,0 z"
                 id="path3446" />
              <path
                 style="fill:#514f50"
                 inkscape:connector-curvature="0"
                 d="m 160.61,69.225 0,-9.631 c 0,-0.64 -0.487,-1.153 -1.129,-1.153 l 0,-0.771 3.825,0 0,11.556 -2.696,0 z"
                 id="path3448" />
              <path
                 style="fill:#514f50"
                 inkscape:connector-curvature="0"
                 d="m 168.956,63.292 0,1.876 c 0,1.592 1.282,2.901 2.849,2.901 l 5.086,0 0,1.155 -5.034,0 c -3.183,0 -5.776,-2.67 -5.776,-5.933 0,-3.285 2.594,-5.905 5.776,-5.905 3.16,0 5.779,2.62 5.779,5.905 l -8.68,0 z m 5.778,-1.875 c 0,-1.565 -1.284,-2.873 -2.878,-2.873 -1.618,0 -2.9,1.308 -2.9,2.873 l 0,0.721 5.778,0 0,-0.721 z"
                 id="path3450" />
            </g>
          </g>
          <rect
             style="fill:#514f50"
             x="160.605"
             y="53.387001"
             width="2.7"
             height="2.7"
             id="rect3452" />
        </g>
      </g>
      <g
         id="g3454">
        <g
           id="g3456">
          <path
             style="fill:#e3252a"
             inkscape:connector-curvature="0"
             d="m 166.923,44.561 -2.943,-4.046 c -6.628,4.159 -15.253,3.867 -21.598,-0.898 l -3.636,5.008 c 9.562,7.127 23.01,6.62 32.017,-1.503 l -0.795,-1.108 c -0.938,0.917 -1.951,1.772 -3.045,2.547 z"
             id="path3458" />
        </g>
        <g
           id="g3460">
          <path
             style="fill:#6c1f80"
             inkscape:connector-curvature="0"
             d="m 175.387,13.647 -1.299,0.413 c 0.582,1.176 1.083,2.403 1.481,3.685 l -4.758,1.548 c 1.908,7.59 -1.036,15.702 -7.527,20.265 l 3.639,5.004 c 9.733,-6.894 13.405,-19.839 8.464,-30.915 z"
             id="path3462" />
        </g>
        <g
           id="g3464">
          <path
             style="fill:#8ebb13"
             inkscape:connector-curvature="0"
             d="m 148.783,0.142 -0.008,1.362 c 1.298,-0.189 2.62,-0.285 3.961,-0.27 l 0.002,5.005 c 7.808,0.528 14.614,5.836 16.947,13.419 l 5.884,-1.914 C 172.021,6.356 160.847,-1.138 148.783,0.142 Z"
             id="path3466" />
        </g>
        <g
           id="g3468">
          <path
             style="fill:#ffd400"
             inkscape:connector-curvature="0"
             d="M 134.738,19.391 C 137.655,12.128 144.805,7.296 152.739,7.42 L 152.736,1.233 C 140.811,1.087 130.23,9.401 127.717,21.268 l 1.295,0.429 c 0.218,-1.294 0.536,-2.582 0.967,-3.851 l 4.759,1.545 z"
             id="path3470" />
        </g>
        <g
           id="g3472">
          <path
             style="fill:#009ddf"
             inkscape:connector-curvature="0"
             d="m 141.685,40.576 c -6.004,-5.021 -8.392,-13.313 -5.82,-20.82 l -5.885,-1.909 c -3.824,11.294 0.814,23.928 11.323,29.984 l 0.808,-1.099 c -1.162,-0.607 -2.289,-1.307 -3.364,-2.108 l 2.938,-4.048 z"
             id="path3474" />
        </g>
      </g>
    </g>
  </g>
</svg>
