<?xml version="1.0" encoding="utf-8"?>
<!-- Generator: Adobe Illustrator 16.0.4, SVG Export Plug-In . SVG Version: 6.00 Build 0)  -->
<!DOCTYPE svg PUBLIC "-//W3C//DTD SVG 1.1//EN" "http://www.w3.org/Graphics/SVG/1.1/DTD/svg11.dtd">
<svg version="1.1" id="Calque_1" xmlns="http://www.w3.org/2000/svg" xmlns:xlink="http://www.w3.org/1999/xlink" x="0px" y="0px"
	 width="32.375px" height="27.5px" viewBox="0 0 32.375 27.5" enable-background="new 0 0 32.375 27.5" xml:space="preserve">
<g>
	<g>
		<path d="M16.232,22.133c-0.604,0-1.303-0.244-2.01-0.95l-6.938-6.939c-0.109-0.107-0.171-0.257-0.171-0.411
			s0.062-0.299,0.171-0.407l6.065-6.067c0.227-0.228,0.598-0.228,0.823,0l2.121,2.121c0.228,0.228,0.228,0.597,0,0.822
			s-0.59,0.226-0.817,0l-1.715-1.712l-5.246,5.243l6.529,6.53c1.11,1.106,1.917,0.372,2.004,0.284l3.886-3.888
			c0.227-0.228,0.592-0.228,0.819,0s0.228,0.595,0,0.82l-3.886,3.888C17.551,21.783,16.961,22.133,16.232,22.133z"/>
	</g>
	<g>
		<path d="M21.042,18.053c-0.153,0-0.304-0.06-0.411-0.168l-3.837-3.835l-0.649,0.65c-0.626,0.623-1.717,0.623-2.34,0l-0.302-0.307
			c-0.647-0.642-0.647-1.688,0-2.338l4.699-4.698c0.226-0.228,0.597-0.228,0.823,0l6.065,6.067c0.228,0.225,0.228,0.591,0,0.818
			l-3.638,3.642C21.343,17.993,21.196,18.053,21.042,18.053z M16.794,12.645c0.154,0,0.303,0.062,0.413,0.174l3.835,3.836
			l2.817-2.822l-5.246-5.243l-4.29,4.29c-0.191,0.189-0.191,0.501,0,0.695l0.303,0.301c0.188,0.19,0.512,0.19,0.697-0.001
			l1.06-1.056C16.49,12.706,16.642,12.645,16.794,12.645z"/>
	</g>
	<g>
		<path d="M19.523,18.965c-0.147,0-0.295-0.059-0.408-0.172l-1.819-1.82c-0.228-0.226-0.228-0.593,0-0.82s0.59-0.228,0.817,0
			l1.821,1.821c0.228,0.228,0.228,0.593,0,0.819C19.82,18.906,19.674,18.965,19.523,18.965z"/>
	</g>
	<g>
		<path d="M17.702,20.784c-0.147,0-0.293-0.058-0.406-0.172l-1.819-1.819c-0.228-0.227-0.228-0.592,0-0.819s0.59-0.228,0.817,0
			l1.819,1.819c0.228,0.228,0.228,0.593,0,0.819C18,20.727,17.853,20.784,17.702,20.784z"/>
	</g>
	<g>
		<path d="M25.288,15.019c-0.153,0-0.304-0.06-0.41-0.167l-6.676-6.675c-0.108-0.107-0.168-0.256-0.168-0.411
			c0-0.153,0.06-0.3,0.168-0.408l1.82-1.82c0.228-0.227,0.598-0.227,0.824,0l6.67,6.674c0.228,0.225,0.228,0.592,0,0.819
			l-1.818,1.821C25.59,14.959,25.442,15.019,25.288,15.019z M19.434,7.766l5.854,5.854l0.998-1.003l-5.851-5.85L19.434,7.766z"/>
	</g>
	<g>
		<path d="M7.088,15.019L7.088,15.019c-0.154,0-0.303-0.06-0.412-0.167L4.856,13.03c-0.226-0.228-0.226-0.595,0-0.819l6.672-6.674
			c0.227-0.227,0.597-0.227,0.824,0l1.82,1.82c0.108,0.108,0.168,0.255,0.168,0.408c0,0.155-0.06,0.304-0.168,0.411l-6.676,6.675
			C7.39,14.959,7.241,15.019,7.088,15.019z M6.09,12.617l0.998,1.003l5.854-5.854l-1.002-0.998L6.09,12.617z"/>
	</g>
</g>
</svg>
