<?xml version="1.0" encoding="utf-8"?>
<!-- Generator: Adobe Illustrator 16.0.4, SVG Export Plug-In . SVG Version: 6.00 Build 0)  -->
<!DOCTYPE svg PUBLIC "-//W3C//DTD SVG 1.1//EN" "http://www.w3.org/Graphics/SVG/1.1/DTD/svg11.dtd">
<svg version="1.1" id="Calque_1" xmlns="http://www.w3.org/2000/svg" xmlns:xlink="http://www.w3.org/1999/xlink" x="0px" y="0px"
	 width="55px" height="55px" viewBox="0 0 55 55" enable-background="new 0 0 55 55" xml:space="preserve">
<rect fill="#317A93" width="55" height="55"/>
<path fill="#FFFFFF" d="M46.5,15.713c-1.398,0.621-2.9,1.039-4.478,1.228c1.608-0.965,2.846-2.493,3.428-4.312
	c-1.507,0.893-3.175,1.543-4.95,1.892c-1.422-1.517-3.448-2.462-5.691-2.462c-4.305,0-7.795,3.491-7.795,7.796
	c0,0.61,0.067,1.204,0.201,1.777c-6.48-0.326-12.225-3.431-16.069-8.148c-0.672,1.152-1.056,2.492-1.056,3.923
	c0,2.703,1.377,5.089,3.469,6.489c-1.277-0.041-2.48-0.393-3.531-0.974c-0.002,0.028-0.002,0.061-0.002,0.096
	c0,3.777,2.688,6.929,6.255,7.644c-0.653,0.18-1.343,0.275-2.054,0.275c-0.502,0-0.991-0.05-1.467-0.14
	c0.992,3.096,3.871,5.35,7.282,5.413c-2.668,2.09-6.03,3.338-9.683,3.338c-0.629,0-1.25-0.036-1.859-0.11
	c3.449,2.212,7.549,3.504,11.951,3.504c14.34,0,22.182-11.881,22.182-22.185c0-0.337-0.008-0.673-0.023-1.007
	C44.133,18.653,45.455,17.28,46.5,15.713z"/>
</svg>
