<?xml version="1.0" encoding="utf-8"?>
<!-- Generator: Adobe Illustrator 16.0.4, SVG Export Plug-In . SVG Version: 6.00 Build 0)  -->
<!DOCTYPE svg PUBLIC "-//W3C//DTD SVG 1.1//EN" "http://www.w3.org/Graphics/SVG/1.1/DTD/svg11.dtd">
<svg version="1.1" id="Calque_1" xmlns="http://www.w3.org/2000/svg" xmlns:xlink="http://www.w3.org/1999/xlink" x="0px" y="0px"
	 width="55px" height="55px" viewBox="0 0 55 55" enable-background="new 0 0 55 55" xml:space="preserve">
<rect fill="#AFAFAF" width="55" height="55"/>
<g>
	<g id="logo_1_">
		<g id="feuille_1_">
			<path fill="#F39C21" d="M25.704,7.5c0,0,4.728,3.135,5.542,11.751c0,0,1.598,20.7-9.113,24.761c0,0,0.959,0.179,2.039,0.129
				c0,0,13.244-8.354,7.169-24.57C31.341,19.57,29.523,13.91,25.704,7.5z"/>
			<linearGradient id="SVGID_2_" gradientUnits="userSpaceOnUse" x1="38.0391" y1="23.6826" x2="38.0391" y2="1.0399">
				<stop  offset="0" style="stop-color:#F29A2C"/>
				<stop  offset="0.6421" style="stop-color:#F29A2A"/>
				<stop  offset="0.8731" style="stop-color:#F29823"/>
				<stop  offset="1" style="stop-color:#F2961B"/>
			</linearGradient>
			<path fill="url(#SVGID_2_)" d="M32.618,21.639c0,0-2.469-3.818,0.664-6.966c0,0,1.096-1.208,4.228-2.004
				c0,0,3.131-0.667,4.821-4.261c0,0,3.509,4.896,1.352,11.344c0,0-1.069,2.901-3.296,4.227c-1.68,1-4.224,1.314-6.887-1.293
				c0,0,8.048-4.409,8.35-8.143C41.85,14.543,39.378,20.101,32.618,21.639z"/>
		</g>
		<path d="M34.669,33.223c0,1.984-0.475,3.833-1.421,5.549c-0.947,1.716-2.228,3.04-3.839,3.973c-1.613,0.934-3.383,1.4-5.312,1.4
			s-3.697-0.467-5.309-1.4c-1.614-0.933-2.893-2.257-3.841-3.973c-0.946-1.716-1.421-3.564-1.421-5.549
			c0-3.079,1.038-5.703,3.115-7.871c2.078-2.17,4.562-3.254,7.455-3.254c1.375,0,2.661,0.25,3.854,0.746
			c0.12-1.256,0.562-2.426,1.051-3.381c-1.505-0.546-3.134-0.822-4.893-0.822c-4.181,0-7.641,1.539-10.378,4.616
			C11.244,26.049,10,29.345,10,33.146c0,3.834,1.314,7.187,3.945,10.053c2.629,2.869,6.017,4.302,10.165,4.302
			c4.131,0,7.512-1.433,10.142-4.302c2.63-2.866,3.944-6.219,3.944-10.053c0-2.051-0.363-3.954-1.081-5.71
			c-1.208,0.743-2.355,1.133-3.305,1.33C34.382,30.127,34.669,31.611,34.669,33.223z"/>
	</g>
</g>
</svg>
