<?xml version="1.0" standalone="no"?>
<!DOCTYPE svg PUBLIC "-//W3C//DTD SVG 1.1//EN" "http://www.w3.org/Graphics/SVG/1.1/DTD/svg11.dtd" >
<svg xmlns="http://www.w3.org/2000/svg">
<metadata>Generated by IcoMoon</metadata>
<defs>
<font id="icomoon" horiz-adv-x="1024">
<font-face units-per-em="1024" ascent="960" descent="-64" />
<missing-glyph horiz-adv-x="1024" />
<glyph unicode="&#x20;" horiz-adv-x="512" d="" />
<glyph unicode="&#xe900;" glyph-name="community" d="M510.464 945.275c-274.392 0-497.275-222.883-497.275-497.275s222.883-497.275 497.275-497.275c274.392 0 497.275 222.883 497.275 497.275s-222.883 497.275-497.275 497.275zM510.464 903.904c252.033 0 455.904-203.871 455.904-455.904s-203.871-455.904-455.904-455.904c-252.033 0-455.904 203.871-455.904 455.904s203.871 455.904 455.904 455.904zM489.779 924.589v-953.179h41.371v953.179h-41.371zM33.875 468.685v-41.371h953.179v41.371h-953.179zM702.203 893.869l-41.342-1.447 12.823-366.764c1.843-51.633 1.843-103.478 0-155.111v-0.008l-12.823-366.756 41.342-1.447 12.827 366.748c1.879 52.611 1.879 105.425 0 158.036v0.016l-12.827 366.731zM318.346 894.551l-19.445-286.079c-7.303-106.844-7.304-213.903 0-320.747l19.445-286.067 41.274 2.804-19.441 286.083-0.004 0.004c-7.176 104.971-7.176 210.14 0 315.111l0.004 0.004 19.441 286.079-41.274 2.808zM510.307 814.465c-51.346-0.392-102.688-2.107-153.923-5.127-1.062-0.16-1.986-0.37-2.885-0.64l-189.104-10.947c-10.327-0.644-18.564-8.775-19.373-18.996l-13.651-171.285c-8.569-106.181-8.57-212.78 0-318.961l13.651-171.255c0.846-10.303 9.128-18.423 19.427-19.009l246.359-14.269c0.92-0.165 1.991-0.27 3.083-0.29 63.166-3.474 129.637-4.101 195.948-1.172l-0.024-0.004 240.983 10.343c10.689 0.474 19.242 8.992 19.772 19.622l10.755 216.8c3.964 79.082 3.964 158.373 0 237.658v0.008l-10.755 216.771c-0.545 10.667-9.093 19.17-19.729 19.642l-186.586 8.27c-51.251 2.292-102.602 3.231-153.948 2.84zM510.624 773.094c50.633 0.385 101.261-0.537 151.782-2.796 0.001 0 0.003 0 0.004 0s0.003 0 0.004 0l167.769-7.442 9.825-197.977c0-0.001 0-0.003 0-0.004s0-0.003 0-0.004c3.896-77.917 3.895-155.827 0-233.533 0-0.002 0-0.004 0-0.006s0-0.004 0-0.007l-9.822-197.948-222.144-9.535c-0.004 0-0.009 0-0.014 0s-0.010 0-0.014 0c-64.832-2.863-129.916-2.252-194.837 1.434l0.024-0.004-228.37 13.231-12.221 153.309c0 0.003 0 0.007 0 0.010s0 0.007 0 0.011c-8.392 103.974-8.392 208.356 0 312.331 0 0.003 0 0.007 0 0.010s0 0.007 0 0.011l12.226 153.353 173.983 10.496c50.536 2.979 101.174 4.673 151.806 5.058zM510.646 661.212c-36.224 0-72.473-0.674-108.723-2.028l-334.475-12.411 1.531-41.342 334.487 12.411c71.471 2.67 142.941 2.67 214.202 0h0.004l334.483-12.411 1.537 41.342-334.475 12.411c-36.148 1.354-72.345 2.028-108.569 2.028zM69.044 299.668l-1.665-41.334 344.187-13.857c65.931-2.712 131.863-2.712 197.795 0l-0.017-0.004 344.204 13.862-1.664 41.334-344.224-13.857c-64.8-2.666-129.594-2.666-194.393 0h-0.012l-344.212 13.857z" />
<glyph unicode="&#xe901;" glyph-name="contact" d="M508.416 274.005c-5.717 0-11.392 2.176-15.701 6.528l-464.299 464.341c-8.704 8.704-8.704 22.784 0 31.445s22.741 8.661 31.445 0l464.256-464.341c8.704-8.661 8.704-22.741 0-31.403-4.309-4.395-9.984-6.571-15.701-6.571zM508.416 274.005c-5.717 0-11.392 2.176-15.701 6.528-8.704 8.661-8.704 22.741 0 31.403l467.456 467.499c8.661 8.661 22.741 8.661 31.403 0 8.704-8.704 8.704-22.784 0-31.445l-467.456-467.456c-4.309-4.352-9.984-6.528-15.701-6.528zM35.115 94.421c-5.461 0-10.923 2.091-15.104 6.229-8.32 8.32-8.32 21.845 0 30.165l267.435 267.435c8.32 8.32 21.845 8.32 30.165 0s8.32-21.845 0-30.165l-267.435-267.435c-4.139-4.139-9.6-6.229-15.061-6.229zM981.675 94.421c-5.461 0-10.923 2.091-15.104 6.229l-267.392 267.435c-8.32 8.32-8.32 21.845 0 30.165s21.845 8.32 30.165 0l267.392-267.435c8.32-8.32 8.32-21.845 0-30.165-4.139-4.139-9.6-6.229-15.061-6.229zM874.667 21.333h-725.333c-82.347 0-149.333 66.987-149.333 149.333v554.667c0 82.347 66.987 149.333 149.333 149.333h725.333c82.347 0 149.333-66.987 149.333-149.333v-554.667c0-82.347-66.987-149.333-149.333-149.333zM149.333 832c-58.795 0-106.667-47.872-106.667-106.667v-554.667c0-58.837 47.872-106.667 106.667-106.667h725.333c58.837 0 106.667 47.829 106.667 106.667v554.667c0 58.795-47.829 106.667-106.667 106.667h-725.333z" />
<glyph unicode="&#xe902;" glyph-name="coworking" d="M512 313.716c-57.066 0-103.727-46.661-103.727-103.727s46.661-103.727 103.727-103.727c57.066 0 103.727 46.661 103.727 103.727s-46.661 103.727-103.727 103.727zM512 275.97c36.667 0 65.981-29.314 65.981-65.981s-29.314-65.981-65.981-65.981c-36.667 0-65.981 29.314-65.981 65.981s29.314 65.981 65.981 65.981zM512 460.791c-87.033 0-164.040-44.404-208.928-112.057l32.954-21.895c37.795 56.965 102.388 94.438 175.974 94.438 17.048 0 33.623-2.030 49.467-5.824 52.544-12.583 97.468-44.847 126.507-88.614l32.954 21.895c-34.488 51.98-87.791 90.245-150.245 105.201-18.833 4.51-38.519 6.856-58.683 6.856zM512 640.451c-156.194 0-293.149-83.598-368.609-208.19l33.838-20.495c68.543 113.171 192.673 189.097 334.771 189.097s266.228-75.926 334.771-189.097l33.838 20.495c-75.46 124.593-212.415 208.19-368.609 208.19zM512 789.738c-210.375 0-395.008-112.204-496.59-280.143l33.838-20.421c94.641 156.464 266.437 261.049 462.752 261.049s368.111-104.585 462.752-261.049l33.838 20.421c-101.583 167.939-286.216 280.143-496.59 280.143z" />
<glyph unicode="&#xe903;" glyph-name="edit" horiz-adv-x="1039" d="M847.5 768l-82.246 82.292-549.888-549.841-50.828-209.92 228.538 58.461 536.762 536.716-49.338 49.385-515.677-515.584-32.908 32.908zM874.93 959.953l164.641-164.548-76.796-76.839-164.641 164.548 76.796 76.839zM744.681 403.782v-374.691h-651.59v651.636h417.42l93.091 93.091h-603.601v-837.818h837.772v560.873z" />
<glyph unicode="&#xe904;" d="M204.523 821.395h609.316v-850.164h-609.316v850.164z" />
<glyph unicode="&#xe905;" d="M235.949 853.273c-26.481 0-48.288-21.806-48.288-48.288v-810.129c0-26.482 21.806-48.288 48.288-48.288h552.103c26.482 0 48.288 21.806 48.288 48.288v810.129c0 26.481-21.806 48.288-48.288 48.288h-552.103zM235.949 815.528h552.103c5.893 0 10.542-4.65 10.542-10.542v-810.129c0-5.893-4.649-10.542-10.542-10.542h-552.103c-5.893 0-10.542 4.65-10.542 10.542v810.129c0 5.892 4.65 10.542 10.542 10.542z" />
<glyph unicode="&#xe906;" d="M771.616 949.421c-1.799-0.055-3.514-0.296-5.163-0.703l-538.785-114.359c-11.321-2.326-19.713-12.209-19.713-24.051 0-13.547 10.982-24.529 24.529-24.529 1.905 0 3.759 0.217 5.539 0.628l509.791 108.218v-79.844c-0.002-0.103-0.002-0.225-0.002-0.347 0-13.547 10.982-24.529 24.529-24.529s24.529 10.982 24.529 24.529c0 0.122-0.001 0.244-0.003 0.365v110.105c-0.001 13.546-10.982 24.527-24.529 24.527-0.253 0-0.506-0.004-0.758-0.011z" />
<glyph unicode="&#xe907;" d="M341.666 720.785c-26.481 0-48.288-18.077-48.288-40.030v-35.569c0-21.953 21.806-40.092 48.288-40.092h341.406c26.482 0 48.288 18.139 48.288 40.092v35.569c0 21.953-21.806 40.030-48.288 40.030h-341.406zM341.666 689.494h341.406c5.893 0 10.542-3.854 10.542-8.739v-35.569c0-4.885-4.649-8.801-10.542-8.801h-341.406c-5.892 0-10.542 3.916-10.542 8.801v35.569c0 4.885 4.65 8.739 10.542 8.739z" />
<glyph unicode="&#xe908;" d="M325.8 696.578h370.983v-80.271h-370.983v80.271z" />
<glyph unicode="&#xe909;" glyph-name="export" d="M589.586 355.854c-2.062 0-4.187 0.412-6.185 1.269-6.375 2.696-10.244 9.229-9.61 16.143 17.888 182.716 152.301 317.446 194.198 355.379l-78.751 92.865c-3.996 4.694-4.884 11.291-2.315 16.905 2.601 5.614 8.246 9.198 14.399 9.198h284.081c8.754 0 15.858-7.104 15.858-15.858v-302.698c0-6.407-3.869-12.211-9.8-14.653-5.867-2.506-12.718-1.11-17.285 3.425l-77.356 77.419c-75.167 5.455-239.171-167.842-295.182-233.811-3.045-3.616-7.517-5.582-12.052-5.582zM735.575 815.896l66.731-78.688c2.759-3.235 4.091-7.453 3.711-11.703-0.412-4.25-2.474-8.151-5.772-10.847-1.586-1.3-144.911-120.267-185.856-291.059 69.046 75.231 213.322 217.668 292.866 202.222 3.14-0.603 5.963-2.093 8.214-4.345l54.076-54.139v248.559h-233.97zM895.52 22.93h-761.186c-66.287 0-116.271 43.388-116.271 100.984v597.658c0 63.622 57.596 126.040 116.271 126.040h454.619c8.754 0 15.858-7.104 15.858-15.858s-7.104-15.858-15.858-15.858h-454.619c-41.865 0-84.555-47.606-84.555-94.324v-597.658c0-44.973 43.578-69.268 84.555-69.268h761.186c44.973 0 74.025 27.181 74.025 69.268v311.389c0 8.754 7.104 15.858 15.858 15.858s15.858-7.104 15.858-15.858v-311.389c0-60.419-42.5-100.984-105.741-100.984z" />
<glyph unicode="&#xe90a;" glyph-name="facebook" horiz-adv-x="1021" d="M985.733-64h-274.009c-19.705 0-35.697 15.992-35.697 35.697v434.502c0 19.705 15.992 35.697 35.697 35.697h114.516l12.779 97.952h-127.224c-19.705 0-35.697 15.992-35.697 35.697v108.161c0 29.2 0 118.085 119.799 118.085h53.974v83.388c-24.060 1.785-58.043 3.427-94.954 3.427-115.729 0-182.125-68.538-182.125-188.194v-124.868c0-19.705-15.992-35.697-35.697-35.697h-110.589v-97.952h110.589c9.495 0 18.562-3.784 25.273-10.423s10.423-15.778 10.423-25.273l-0.143-434.502c0-19.705-15.992-35.697-35.697-35.697h-501.184c-19.705 0-35.697 15.992-35.697 35.697s15.992 35.697 35.697 35.697h465.487l0.143 363.108h-110.589c-19.705 0-35.697 15.992-35.697 35.697v169.346c0 19.705 15.992 35.697 35.697 35.697h110.589v89.171c0 157.637 99.523 259.588 253.519 259.588 67.467 0 121.655-5.212 135.362-6.997 17.777-2.356 31.056-17.491 31.056-35.411v-151.426c0-19.705-15.992-35.697-35.697-35.697l-89.813-0.071c-46.049 0-48.405-11.994-48.405-46.691v-72.465h132.221c10.281 0 19.99-4.426 26.844-12.137 6.782-7.711 9.924-17.991 8.567-28.201l-22.061-169.346c-2.285-17.777-17.491-31.128-35.411-31.128h-110.16v-363.108h238.312c19.705 0 35.697-15.992 35.697-35.697s-15.921-35.625-35.697-35.625z" />
<glyph unicode="&#xe90b;" glyph-name="faq" d="M576.488 311.984h-150.982c-10.418 0-18.873 8.455-18.873 18.873v55.826c0 8.153 5.247 15.362 12.984 17.929l150.982 49.598c5.737 1.887 12.079 0.906 16.948-2.642 4.907-3.586 7.813-9.248 7.813-15.287v-105.386c0-10.456-8.455-18.911-18.873-18.911zM444.379 349.729h113.237v60.468l-113.237-37.179v-23.289zM511.981-64c-282.299 0-511.981 229.682-511.981 511.981s229.682 512.019 511.981 512.019 511.981-229.682 511.981-512.019-229.682-511.981-511.981-511.981zM511.981 920.631c-260.596 0-472.612-212.017-472.612-472.65 0-260.596 212.017-472.612 472.612-472.612s472.612 212.017 472.612 472.612c0 260.633-212.017 472.65-472.612 472.65zM511.981 76.867c-45.332 0-82.21 36.877-82.21 82.21 0 45.295 36.877 82.172 82.21 82.172s82.21-36.877 82.21-82.172c0-45.37-36.877-82.21-82.21-82.21zM511.981 201.842c-23.629 0-42.841-19.213-42.841-42.803 0-23.629 19.213-42.841 42.841-42.841s42.841 19.213 42.841 42.841c0 23.591-19.213 42.803-42.841 42.803zM575.771 416.577c-7.323 0-14.381 4.114-17.74 11.173-4.718 9.814-0.566 21.553 9.21 26.271 48.277 23.138 79.454 72.585 79.454 126.033 0 76.963-62.582 139.545-139.545 139.545s-139.583-62.62-139.583-139.545c0-10.871-8.795-19.665-19.665-19.665s-19.665 8.795-19.665 19.665c0 98.667 80.247 178.914 178.952 178.914 98.629 0 178.914-80.247 178.914-178.914 0-68.47-39.973-131.921-101.8-161.513-2.755-1.359-5.624-1.963-8.531-1.963z" />
<glyph unicode="&#xe90c;" glyph-name="google-plus" d="M525.359 367.751c-28.195 19.928-82.008 68.397-82.008 96.907 0 33.381 9.524 49.852 59.785 89.111 51.487 40.265 87.98 106.242 87.98 172.125 0 78.33-34.953 126.39-100.458 189.255h98.824l69.717 31.433c0 0-233.67 0-311.591 0-139.718 0-271.137-105.676-271.137-228.232 0-125.29 95.209-226.346 237.347-226.346 9.87 0 19.457 0.251 28.887 0.88-9.241-17.602-15.811-37.468-15.811-58.119 0-34.827 18.734-63.054 42.371-86.125-17.822 0-35.142-0.503-53.97-0.503-173.099 0.031-306.216-110.14-306.216-224.428 0-112.497 146.004-182.969 318.978-182.969 197.271 0 306.185 111.963 306.185 224.491 0.031 90.243-26.623 144.244-108.882 202.52zM358.892 523.877c-80.31 2.389-156.566 89.803-170.427 195.165-13.83 105.456 39.982 186.144 120.198 183.755 80.279-2.452 156.566-87.005 170.459-192.43 13.862-105.456-40.014-188.878-120.23-186.489zM327.428-9.439c-119.601 0-205.978 75.658-205.978 166.624 0 89.080 107.122 163.292 226.754 162.003 27.912-0.314 53.907-4.778 77.481-12.416 64.94-45.2 111.523-70.723 124.724-122.115 2.389-10.436 3.803-21.217 3.803-32.156 0-90.903-58.622-161.941-226.786-161.941zM1014.921 506.526h-157.163v157.163h-62.865v-157.163h-157.163v-62.865h157.163v-157.163h62.865v157.163h157.163z" />
<glyph unicode="&#xe90d;" glyph-name="heatmap" d="M511.737 290.126c-85.192 0-154.543 69.351-154.543 154.543 0 85.231 69.351 154.543 154.543 154.543s154.543-69.351 154.543-154.543c0-85.231-69.351-154.543-154.543-154.543zM511.737 559.808c-63.48 0-115.139-51.659-115.139-115.139s51.659-115.139 115.139-115.139c63.48 0 115.139 51.659 115.139 115.139s-51.659 115.139-115.139 115.139zM511.737-64.512c-280.754 0-509.18 228.426-509.18 509.18s228.426 509.18 509.18 509.18c280.754 0 509.18-228.426 509.18-509.18s-228.426-509.18-509.18-509.18zM511.737 914.445c-259.043 0-469.776-210.733-469.776-469.776s210.733-469.776 469.776-469.776c259.043 0 469.776 210.733 469.776 469.776s-210.733 469.776-469.776 469.776zM511.737 104.847c-187.367 0-339.782 152.415-339.782 339.782s152.415 339.821 339.782 339.821c187.367 0 339.782-152.455 339.782-339.821s-152.415-339.782-339.782-339.782zM511.737 745.046c-165.616 0-300.378-134.762-300.378-300.417 0-165.616 134.762-300.378 300.378-300.378s300.378 134.762 300.378 300.378c0 165.655-134.762 300.417-300.378 300.417z" />
<glyph unicode="&#xe90e;" d="M448.175 625.891c-23.512 0-42.906-19.394-42.906-42.906v-283.534c0-23.512 19.394-42.906 42.906-42.906h534.705c23.512 0 42.906 19.394 42.906 42.906v283.534c0 23.512-19.394 42.906-42.906 42.906h-534.705zM448.175 588.146h534.705c2.924 0 5.161-2.237 5.161-5.161v-283.534c0-2.924-2.237-5.161-5.161-5.161h-534.705c-2.924 0-5.161 2.237-5.161 5.161v283.534c0 2.924 2.237 5.161 5.161 5.161z" />
<glyph unicode="&#xe90f;" d="M55.975 705.216c-23.512 0-42.906-19.394-42.906-42.906v-269.38c0-23.512 19.394-42.906 42.906-42.906h534.778c23.512 0 42.906 19.394 42.906 42.906v269.38c0 23.512-19.394 42.906-42.906 42.906h-534.778zM55.975 667.471h534.778c2.924 0 5.161-2.237 5.161-5.161v-269.38c0-2.924-2.237-5.161-5.161-5.161h-534.778c-2.924 0-5.161 2.237-5.161 5.161v269.38c0 2.924 2.237 5.161 5.161 5.161z" />
<glyph unicode="&#xe910;" d="M875.192 343.536c-0.041 0-0.089 0-0.138 0-12.002 0-21.731-9.729-21.731-21.731 0-2.981 0.6-5.821 1.686-8.407l44.978-112.876c3.285-8.094 11.086-13.699 20.196-13.699 12.005 0 21.737 9.732 21.737 21.737 0 2.895-0.566 5.658-1.593 8.184l-44.979 112.793c-3.192 8.218-11.016 13.947-20.185 13.998z" />
<glyph unicode="&#xe911;" d="M964.456 343.536c-8.969-0.34-16.518-6.065-19.531-14.021l-44.937-112.916c-0.975-2.381-1.541-5.143-1.541-8.038 0-12.005 9.732-21.737 21.737-21.737 9.11 0 16.911 5.604 20.144 13.553l45.004 113.164c1.036 2.447 1.638 5.292 1.638 8.278 0 12.002-9.729 21.731-21.731 21.731-0.275 0-0.55-0.005-0.823-0.015z" />
<glyph unicode="&#xe912;" d="M494.974 612.521h438.263c36.987 0 66.971-29.984 66.971-66.971v-208.154c0-36.987-29.984-66.971-66.971-66.971h-438.263c-36.987 0-66.971 29.984-66.971 66.971v208.154c0 36.987 29.984 66.971 66.971 66.971z" />
<glyph unicode="&#xe913;" d="M46.53 719.906h579.382c26.545 0 48.064-26.416 48.064-59.001v-295.815c0-32.585-21.519-59.001-48.064-59.001h-579.382c-26.545 0-48.064 26.416-48.064 59.001v295.815c0 32.585 21.519 59.001 48.064 59.001z" />
<glyph unicode="&#xe914;" d="M85.971 448.514c-0.030 0-0.064 0-0.099 0-13.125 0-23.765-10.64-23.765-23.765 0-3.293 0.67-6.429 1.88-9.28l49.362-123.702c3.601-8.845 12.131-14.967 22.092-14.967 13.138 0 23.788 10.65 23.788 23.788 0 3.188-0.627 6.229-1.764 9.007l-49.363 123.612c-3.499 9.007-12.088 15.281-22.145 15.307z" />
<glyph unicode="&#xe915;" d="M46.893 714.519c-23.512 0-42.906-19.394-42.906-42.906v-269.601c0-23.512 19.394-42.906 42.906-42.906h534.778c23.512 0 42.906 19.568 42.906 43.127v269.38c0 23.512-19.394 42.906-42.906 42.906h-534.778zM46.893 676.774h534.778c2.924 0 5.161-2.237 5.161-5.161v-269.38c0-3.278-2.237-5.382-5.161-5.382h-534.778c-2.924 0-5.161 2.237-5.161 5.161v269.601c0 2.924 2.237 5.161 5.161 5.161z" />
<glyph unicode="&#xe916;" d="M27.613 684.622h563.001v-294.54h-563.001v294.54z" />
<glyph unicode="&#xe917;" d="M183.85 448.514c-9.808-0.371-18.064-6.632-21.359-15.333l-49.142-123.832c-1.216-2.762-1.924-5.982-1.924-9.367 0-13.125 10.64-23.765 23.765-23.765 10.208 0 18.913 6.437 22.278 15.473l49.212 123.935c1.156 2.7 1.828 5.842 1.828 9.141 0 13.125-10.64 23.765-23.765 23.765-0.314 0-0.627-0.006-0.938-0.018z" />
<glyph unicode="&#xe918;" glyph-name="info" d="M511.981-64c-282.299 0-511.981 229.682-511.981 511.981s229.644 512.019 511.981 512.019 511.981-229.682 511.981-512.019-229.682-511.981-511.981-511.981zM511.981 920.631c-260.596 0-472.612-212.017-472.612-472.65 0-260.596 212.017-472.612 472.612-472.612s472.612 212.017 472.612 472.612c0 260.633-212.017 472.65-472.612 472.65zM557.616 123.256h-150.982c-10.418 0-18.873 8.455-18.873 18.873v377.456c0 10.418 8.455 18.873 18.873 18.873h150.982c10.418 0 18.873-8.455 18.873-18.873v-377.456c0-10.418-8.455-18.873-18.873-18.873zM425.506 161.001h113.237v339.71h-113.237v-339.71zM511.981 605.305c-45.332 0-82.21 36.877-82.21 82.21 0 45.295 36.877 82.172 82.21 82.172s82.21-36.877 82.21-82.172c0-45.332-36.877-82.21-82.21-82.21zM511.981 730.318c-23.629 0-42.841-19.213-42.841-42.803 0-23.629 19.213-42.841 42.841-42.841s42.841 19.213 42.841 42.841c0 23.591-19.213 42.803-42.841 42.803zM614.234 123.256h-264.219c-10.418 0-18.873 8.455-18.873 18.873s8.455 18.873 18.873 18.873h264.219c10.418 0 18.873-8.455 18.873-18.873s-8.455-18.873-18.873-18.873zM500.997 500.712h-150.982c-10.418 0-18.873 8.455-18.873 18.873s8.455 18.873 18.873 18.873h150.982c10.418 0 18.873-8.455 18.873-18.873s-8.455-18.873-18.873-18.873z" />
<glyph unicode="&#xe919;" d="M33.852 536.509c0-120.822 0-241.644 0-362.467 317.509 0 635.019 0 952.529 0 0 120.822 0 241.644 0 362.467-317.509 0-635.019 0-952.529 0z" />
<glyph unicode="&#xe91a;" d="M50.455 747.691c299.831 0 599.662 0 899.494 0 31.128 3.736 72.125-6.547 71.404-45.401 0-160.859 0-321.717 0-482.576 3.736-31.128-6.547-72.125-45.401-71.404-299.831 0-599.662 0-899.494 0-31.128-3.736-72.125 6.547-71.404 45.401 0 160.859 0 321.717 0 482.576-3.736 31.128 6.547 72.125 45.401 71.404z" />
<glyph unicode="&#xe91b;" d="M50.455 711.026c-4.699 0.151-8.886-4.038-8.736-8.737 0-157.707 0-315.414 0-473.12 3.061-14.179-7.605-37.742 8.736-44.195 296.679 0 593.359 0 890.038 0 14.179 3.061 37.742-7.605 44.195 8.736 0 157.707 0 315.414 0 473.12-3.061 14.179 7.605 37.742-8.736 44.195-308.499 0-616.998 0-925.497 0z" />
<glyph unicode="&#xe91c;" d="M35.959 715.635c0-33.718 0-67.436 0-101.153 317.509 0 635.019 0 952.529 0 0 33.718 0 67.436 0 101.153-317.509 0-635.019 0-952.529 0z" />
<glyph unicode="&#xe91d;" d="M72.599 366.249c127.519 0 255.038 0 382.557 0 0-19.75 0-39.5 0-59.25-127.519 0-255.038 0-382.557 0 0 19.75 0 39.5 0 59.25z" />
<glyph unicode="&#xe91e;" d="M73.313 468.792c98.075 0 196.15 0 294.225 0 0-20.486 0-40.972 0-61.458-98.075 0-196.15 0-294.225 0 0 20.486 0 40.972 0 61.458z" />
<glyph unicode="&#xe91f;" d="M2.648 617.852c339.403 0 678.806 0 1018.209 0 0-29.319 0-58.639 0-87.958-339.403 0-678.806 0-1018.209 0 0 29.319 0 58.639 0 87.958z" />
<glyph unicode="&#xe920;" glyph-name="linkedin" d="M988.040-61.965h-195.934c-20.807 0-37.694 16.887-37.694 37.694v306.831c0 101.699-13.796 129.442-64.231 129.442-51.867 0-79.912-19.827-79.912-124.315v-312.032c0-20.807-16.887-37.694-37.694-37.694h-195.784c-20.807 0-37.694 16.887-37.694 37.694v630.925c0 20.807 16.887 37.694 37.694 37.694h187.943c18.319 0 33.623-13.118 37.016-30.457 37.92 26.989 88.431 46.062 151.003 46.062 241.921 0 272.906-180.706 272.906-338.192v-345.957c0.075-20.807-16.812-37.694-37.619-37.694zM829.8 13.424h120.546v308.263c0 194.050-51.716 262.804-197.517 262.804-80.213 0-132.080-44.102-152.058-81.872-6.559-12.364-19.375-20.053-33.322-20.053-20.807 0-40.333 16.887-40.333 37.694v48.625h-112.555v-555.461h120.395v274.338c0 49.379 0 199.704 155.3 199.704 139.619 0 139.619-138.338 139.619-204.83v-269.212zM253.983-61.965h-196.236c-20.807 0-37.694 16.887-37.694 37.694v630.85c0 20.807 16.887 37.694 37.694 37.694h196.236c20.807 0 37.694-16.887 37.694-37.694v-630.85c0-20.807-16.812-37.694-37.694-37.694zM95.442 13.424h120.848v555.461h-120.848v-555.461zM155.828 654.979c-83.455 0-151.38 67.925-151.38 151.531 0 83.455 67.925 151.38 151.38 151.38 83.38 0 151.229-67.925 151.229-151.38 0-83.606-67.85-151.531-151.229-151.531zM155.828 882.501c-41.916 0-75.991-34.076-75.991-75.991 0-41.991 34.076-76.142 75.991-76.142 41.841 0 75.841 34.151 75.841 76.142 0 41.916-34 75.991-75.841 75.991z" />
<glyph unicode="&#xe921;" glyph-name="list" d="M1002.422 877.618h-476.344c-13.147 0-23.817 10.67-23.817 23.817s10.67 23.817 23.817 23.817h476.344c13.147 0 23.817-10.67 23.817-23.817s-10.67-23.817-23.817-23.817zM1002.422 734.715h-476.344c-13.147 0-23.817 10.67-23.817 23.817s10.67 23.817 23.817 23.817h476.344c13.147 0 23.817-10.67 23.817-23.817s-10.67-23.817-23.817-23.817zM716.616 544.177h-190.538c-13.147 0-23.817 10.67-23.817 23.817s10.67 23.817 23.817 23.817h190.538c13.147 0 23.817-10.67 23.817-23.817s-10.67-23.817-23.817-23.817zM406.992 544.177h-381.075c-13.147 0-23.817 10.67-23.817 23.817v333.441c0 13.147 10.67 23.817 23.817 23.817h381.075c13.147 0 23.817-10.67 23.817-23.817v-333.441c0-13.147-10.67-23.817-23.817-23.817zM49.734 591.811h333.441v285.807h-333.441v-285.807zM1002.422 306.005h-476.344c-13.147 0-23.817 10.67-23.817 23.817s10.67 23.817 23.817 23.817h476.344c13.147 0 23.817-10.67 23.817-23.817s-10.67-23.817-23.817-23.817zM1002.422 115.467h-476.344c-13.147 0-23.817 10.67-23.817 23.817s10.67 23.817 23.817 23.817h476.344c13.147 0 23.817-10.67 23.817-23.817s-10.67-23.817-23.817-23.817zM716.616-27.436h-190.538c-13.147 0-23.817 10.67-23.817 23.817s10.67 23.817 23.817 23.817h190.538c13.147 0 23.817-10.67 23.817-23.817s-10.67-23.817-23.817-23.817zM406.992-27.436h-381.075c-13.147 0-23.817 10.67-23.817 23.817v333.441c0 13.147 10.67 23.817 23.817 23.817h381.075c13.147 0 23.817-10.67 23.817-23.817v-333.441c0-13.147-10.67-23.817-23.817-23.817zM49.734 20.198h333.441v285.807h-333.441v-285.807z" />
<glyph unicode="&#xe922;" glyph-name="map" d="M27.087-60.872c-4.801 0-9.602 1.406-13.676 4.219-6.644 4.51-10.572 12.027-10.572 20.029v842.685c0 9.99 6.111 18.962 15.422 22.6l323.33 126.529c12.609 4.898 26.576-1.261 31.426-13.773 4.898-12.464-1.261-26.528-13.725-31.426l-307.956-120.515v-790.599l290.206 113.629c12.609 4.85 26.576-1.212 31.426-13.725s-1.261-26.576-13.725-31.426l-323.33-126.529c-2.813-1.115-5.82-1.697-8.826-1.697zM673.699-60.872c-3.007 0-5.965 0.582-8.875 1.649l-323.281 126.529c-9.263 3.637-15.374 12.609-15.374 22.6v842.685c0 8.002 3.977 15.519 10.572 20.029 6.644 4.51 14.986 5.48 22.551 2.57l323.281-126.529c9.263-3.637 15.374-12.609 15.374-22.6v-842.636c0-8.002-3.977-15.519-10.572-20.029-4.122-2.813-8.826-4.268-13.676-4.268zM374.666 106.491l274.784-107.566v790.599l-274.784 107.566v-790.599zM673.699-60.872c-9.651 0-18.865 5.82-22.6 15.374-4.898 12.512 1.261 26.576 13.725 31.426l307.956 120.467v790.696l-290.206-113.629c-12.658-4.947-26.576 1.261-31.426 13.773-4.898 12.464 1.261 26.528 13.725 31.426l323.33 126.529c7.517 2.958 15.859 1.94 22.551-2.57 6.596-4.51 10.572-12.027 10.572-20.029v-842.636c0-9.99-6.111-18.962-15.374-22.6l-323.33-126.529c-3.007-1.164-5.965-1.697-8.923-1.697z" />
<glyph unicode="&#xe923;" glyph-name="search" d="M357.642 251.015c-195.883 0-355.231 159.348-355.231 355.231s159.348 355.231 355.231 355.231c195.883 0 355.231-159.348 355.231-355.231s-159.348-355.231-355.231-355.231zM357.642 931.456c-179.315 0-325.21-145.895-325.21-325.21s145.895-325.21 325.21-325.21c179.315 0 325.245 145.895 325.245 325.21s-145.93 325.21-325.245 325.21zM156.519 591.235c-8.284 0-15.011 6.727-15.011 15.011 0 119.201 96.968 216.134 216.134 216.134 8.284 0 15.011-6.727 15.011-15.011s-6.691-15.011-15.011-15.011c-102.597 0-186.077-83.48-186.077-186.112 0-8.284-6.727-15.011-15.046-15.011zM637.429 243.439c-3.823 0-7.682 1.452-10.621 4.39l-75.762 75.726c-2.832 2.797-4.39 6.656-4.39 10.621s1.558 7.824 4.39 10.621l67.902 67.902c2.797 2.832 6.656 4.39 10.621 4.39v0c3.965 0 7.824-1.558 10.621-4.39l75.726-75.762c5.877-5.877 5.877-15.4 0-21.242l-67.867-67.867c-2.938-2.938-6.762-4.39-10.621-4.39zM582.909 334.176l54.52-54.485 46.625 46.625-54.485 54.52-46.661-46.661zM877.106-58.582c-3.823 0-7.682 1.452-10.621 4.39l-270.76 270.76c-5.877 5.841-5.877 15.4 0 21.242l130.211 130.211c5.877 5.877 15.365 5.877 21.242 0l270.76-270.76c5.877-5.841 5.877-15.4 0-21.242l-130.211-130.211c-2.938-2.938-6.797-4.39-10.621-4.39zM627.552 227.189l249.554-249.554 108.97 108.97-249.554 249.554-108.97-108.97z" />
<glyph unicode="&#xe924;" glyph-name="search-mobile" d="M363.353 243.65c-197.001 0-357.306 160.256-357.306 357.306s160.305 357.355 357.306 357.355c197.001 0 357.306-160.305 357.306-357.355s-160.305-357.306-357.306-357.306zM363.353 916.716c-174.121 0-315.76-141.639-315.76-315.76s141.639-315.76 315.76-315.76c174.121 0 315.76 141.688 315.76 315.76 0 174.121-141.639 315.76-315.76 315.76zM640.016 236.252c-5.291 0-10.631 2.009-14.698 6.075l-74.91 74.91c-3.919 3.87-6.075 9.211-6.075 14.698s2.205 10.827 6.075 14.698l67.169 67.071c8.133 8.133 21.263 8.133 29.396 0l74.861-74.91c3.919-3.87 6.075-9.211 6.075-14.698s-2.156-10.827-6.075-14.698l-67.12-67.071c-4.066-4.066-9.358-6.075-14.698-6.075zM594.502 331.936l45.563-45.563 37.774 37.725-45.514 45.563-37.823-37.725zM877.044-62.311c-5.291 0-10.631 2.009-14.698 6.075l-267.648 267.746c-8.133 8.133-8.133 21.312 0 29.396l128.704 128.704c8.133 8.133 21.263 8.133 29.396 0l267.746-267.746c3.919-3.87 6.075-9.211 6.075-14.698s-2.156-10.827-6.075-14.698l-128.802-128.704c-4.066-4.066-9.358-6.075-14.698-6.075zM638.791 226.209l238.253-238.351 99.407 99.309-238.351 238.351-99.309-99.309z" />
<glyph unicode="&#xe925;" glyph-name="share" d="M1007.786 20.997h-986.302c-9.074 0-16.438 7.364-16.438 16.438v718.159c0 63.452 51.616 115.069 115.069 115.069h789.042c63.452 0 115.069-51.616 115.069-115.069v-718.159c0-9.074-7.332-16.438-16.438-16.438zM37.922 53.874h953.425v701.721c0 45.304-36.888 82.192-82.192 82.192h-789.042c-45.304 0-82.192-36.888-82.192-82.192v-701.721zM1007.786 681.623h-986.302c-9.074 0-16.438 7.364-16.438 16.438s7.364 16.438 16.438 16.438h986.302c9.074 0 16.438-7.364 16.438-16.438s-7.332-16.438-16.438-16.438zM803.358 757.666h-688.373c-9.074 0-16.438 7.364-16.438 16.438s7.364 16.438 16.438 16.438h688.373c9.074 0 16.438-7.364 16.438-16.438s-7.364-16.438-16.438-16.438zM914.317 757.666h-43.134c-9.074 0-16.438 7.364-16.438 16.438s7.364 16.438 16.438 16.438h43.134c9.074 0 16.438-7.364 16.438-16.438s-7.364-16.438-16.438-16.438zM675.402 447.869c-48.822 0-88.537 39.715-88.537 88.537 0 48.789 39.715 88.504 88.537 88.504 48.855 0 88.57-39.715 88.57-88.504 0-48.822-39.715-88.537-88.57-88.537zM675.402 592.033c-30.707 0-55.66-24.953-55.66-55.627 0-30.707 24.986-55.66 55.66-55.66 30.707 0 55.693 24.986 55.693 55.66s-24.986 55.627-55.693 55.627zM334.174 288.844c-48.855 0-88.57 39.715-88.57 88.537 0 48.855 39.715 88.57 88.57 88.57 48.822 0 88.537-39.715 88.537-88.57 0-48.822-39.715-88.537-88.537-88.537zM334.174 433.107c-30.707 0-55.693-24.986-55.693-55.693s24.986-55.66 55.693-55.66c30.707 0 55.66 24.986 55.66 55.66s-24.953 55.693-55.66 55.693zM675.402 129.852c-48.822 0-88.537 39.715-88.537 88.537s39.715 88.537 88.537 88.537c48.855 0 88.57-39.715 88.57-88.537s-39.715-88.537-88.57-88.537zM675.402 274.082c-30.707 0-55.66-24.986-55.66-55.66s24.986-55.66 55.66-55.66c30.707 0 55.693 24.986 55.693 55.66s-24.986 55.66-55.693 55.66zM399.369 391.387c-6.181 0-12.132 3.518-14.926 9.501-3.847 8.219-0.263 17.984 7.956 21.83l210.871 98.203c8.219 3.814 18.016 0.263 21.83-7.956 3.847-8.219 0.263-17.984-7.956-21.83l-210.871-98.203c-2.236-1.052-4.603-1.545-6.904-1.545zM610.207 232.329c-2.301 0-4.701 0.493-6.904 1.545l-210.871 98.236c-8.219 3.847-11.803 13.611-7.956 21.83 3.814 8.219 13.611 11.803 21.83 7.956l210.871-98.236c8.219-3.847 11.803-13.611 7.956-21.83-2.795-5.984-8.712-9.501-14.926-9.501z" />
<glyph unicode="&#xe926;" glyph-name="sync" d="M18.042-56.951c-3.541 0-7.082 1.037-10.086 3.112-4.9 3.326-7.797 8.87-7.797 14.772v842.478c0 7.332 4.471 13.913 11.266 16.631l318.321 126.506c9.12 3.612 19.564-0.823 23.212-10.015 3.648-9.156-0.823-19.564-10.015-23.212l-307.019-122.035v-804.136l298.399 116.956c9.156 3.577 19.564-0.894 23.177-10.122 3.612-9.192-0.894-19.6-10.122-23.177l-322.828-126.506c-2.074-0.858-4.292-1.252-6.509-1.252zM409.22 55.856c-1.145 0-2.325 0.107-3.505 0.358l-69.28 13.699c-8.369 1.645-14.414 9.013-14.414 17.526v842.478c0 5.937 2.933 11.445 7.797 14.772 4.9 3.362 11.088 4.042 16.631 1.86l321.898-126.506c6.831-2.682 11.338-9.299 11.338-16.631v-272.325c0-9.872-8.012-17.883-17.883-17.883s-17.883 8.012-17.883 17.883v260.129l-286.131 112.45v-801.525l54.83-10.873c9.693-1.931 15.988-11.302 14.092-20.995-1.645-8.512-9.12-14.414-17.49-14.414zM947.969 513.201c-9.872 0-17.883 8.012-17.883 17.883v373.401l-289.851-104.116c-9.299-3.362-19.564 1.502-22.89 10.801s1.502 19.528 10.801 22.89l313.743 112.7c5.472 1.931 11.553 1.145 16.345-2.218 4.757-3.362 7.582-8.834 7.582-14.628v-398.831c0.036-9.872-7.976-17.883-17.847-17.883zM1001.619 423.785h-250.365c-9.872 0-17.883 8.012-17.883 17.883s8.012 17.883 17.883 17.883h250.365c9.872 0 17.883-8.012 17.883-17.883s-8.012-17.883-17.883-17.883zM1001.619 352.252h-250.365c-9.872 0-17.883 8.012-17.883 17.883s8.012 17.883 17.883 17.883h250.365c9.872 0 17.883-8.012 17.883-17.883s-8.012-17.883-17.883-17.883zM894.319 280.72h-143.066c-9.872 0-17.883 8.012-17.883 17.883s8.012 17.883 17.883 17.883h143.066c9.872 0 17.883-8.012 17.883-17.883s-8.012-17.883-17.883-17.883zM661.838 280.72h-143.066c-9.872 0-17.883 8.012-17.883 17.883v143.066c0 9.872 8.012 17.883 17.883 17.883h143.066c9.872 0 17.883-8.012 17.883-17.883v-143.066c0-9.872-8.012-17.883-17.883-17.883zM536.655 316.486h107.299v107.299h-107.299v-107.299zM1001.619 173.42h-250.365c-9.872 0-17.883 8.012-17.883 17.883s8.012 17.883 17.883 17.883h250.365c9.872 0 17.883-8.012 17.883-17.883s-8.012-17.883-17.883-17.883zM1001.619 101.888h-250.365c-9.872 0-17.883 8.012-17.883 17.883s8.012 17.883 17.883 17.883h250.365c9.872 0 17.883-8.012 17.883-17.883s-8.012-17.883-17.883-17.883zM894.319 30.355h-143.066c-9.872 0-17.883 8.012-17.883 17.883s8.012 17.883 17.883 17.883h143.066c9.872 0 17.883-8.012 17.883-17.883s-8.012-17.883-17.883-17.883zM661.838 30.355h-143.066c-9.872 0-17.883 8.012-17.883 17.883v143.066c0 9.872 8.012 17.883 17.883 17.883h143.066c9.872 0 17.883-8.012 17.883-17.883v-143.066c0-9.872-8.012-17.883-17.883-17.883zM536.655 66.121h107.299v107.299h-107.299v-107.299z" />
<glyph unicode="&#xe927;" glyph-name="twitter" horiz-adv-x="1021" d="M332.982 37.506c-107.519 0-212.468 29.914-303.352 86.386-14.136 8.853-20.347 26.273-14.85 42.051 5.497 15.707 21.347 25.559 37.696 23.774 57.329-6.283 118.157 1.214 171.559 22.989-54.188 22.489-94.311 63.255-111.874 116.657-3.927 12.066-1.214 25.273 7.211 34.769 1.999 2.285 4.355 4.355 6.782 5.997-47.477 40.052-76.962 99.095-76.962 163.492 0 12.565 6.64 25.273 17.42 31.699 5.283 3.141 11.209 5.069 17.134 5.497-10.923 30.271-16.635 65.682-16.635 105.306 0 38.196 10.352 75.82 29.985 108.733 5.926 9.995 16.278 16.421 27.772 17.349 11.923 0.785 22.775-3.784 30.2-12.637 88.671-105.52 188.908-167.347 298.354-184.196 0 0.357 0 0.785 0 1.142 0 118.942 99.309 215.68 221.321 215.68 52.046 0 101.022-17.206 140.36-48.833 15.492 9.067 29.486 17.991 43.122 26.701 14.921 9.495 29.486 18.705 44.835 27.629 13.85 7.996 31.413 5.783 42.908-5.497 11.423-11.28 13.922-28.772 6.14-42.836-12.851-23.060-26.416-44.764-40.052-66.61-1.499-2.356-2.927-4.641-4.426-6.997 19.062-1.642 37.839-3.712 55.544-5.64l16.135-1.713c15.992-1.642 28.843-13.85 31.413-29.7 2.642-15.921-5.711-31.485-20.347-38.267l-31.342-14.279c-21.989-9.995-39.409-17.848-62.255-29.057v-0.5c-0.071-270.368-210.968-549.089-563.796-549.089zM194.55 128.176c44.692-12.779 91.241-19.348 138.361-19.348 308.135 0 492.331 242.453 492.331 476.91l-0.571 22.418c-0.286 12.208 5.64 23.631 15.564 30.342-10.423 1.785-19.562 8.21-24.916 17.563-6.068 10.995-5.997 24.417 0.214 35.34 0.643 1.071 1.285 2.213 1.856 3.284-11.923-2.642-24.417 1.142-33.055 10.138-28.557 29.7-67.467 45.978-109.661 45.978-82.674 0-149.927-64.754-149.927-144.287 0-11.28 1.285-22.275 3.784-32.627 2.642-10.923 0-22.489-7.139-31.199s-17.563-13.636-29.271-12.922c-129.651 6.354-247.736 63.326-351.685 169.703-1.285-7.639-1.928-15.421-1.928-23.346 0-30.271 4.855-103.806 49.761-132.864 13.422-8.71 19.419-25.273 14.707-40.623-4.783-15.278-17.063-25.059-35.197-25.059-12.423 0.357-24.774 1.785-36.911 4.212 18.205-45.406 58.9-79.89 109.732-89.956 13.993-2.713 24.988-13.493 27.986-27.415s-2.57-28.272-14.136-36.625c-17.634-12.637-33.198-17.777-46.477-21.061 30.414-29.486 76.034-41.551 116.015-42.265 15.207-0.286 28.557-10.138 33.269-24.631 4.712-14.422-0.214-30.342-12.28-39.552-45.264-34.412-96.167-58.614-150.427-72.108z" />
<glyph unicode="&#xe928;" glyph-name="viadeo" d="M441.198-71.899c-223.086 0-404.626 181.541-404.626 404.699 0 223.086 181.467 404.553 404.626 404.553 27.502 0 54.93-2.779 81.554-8.192 19.822-4.023 32.549-23.333 28.526-43.154-4.096-19.822-23.333-32.402-43.154-28.526-21.723 4.535-44.325 6.802-66.926 6.802-182.784 0-331.483-148.699-331.483-331.41 0-182.857 148.699-331.557 331.483-331.557s331.483 148.699 331.483 331.557c0 19.895-1.682 39.643-5.12 58.734-3.584 19.822 9.655 38.839 29.55 42.423 19.383 3.511 38.839-9.655 42.423-29.55 4.169-23.259 6.29-47.323 6.29-71.607 0-223.159-181.541-404.773-404.626-404.773zM433.298 61.806c-10.386 0-20.699 4.389-27.867 12.873-13.093 15.433-11.191 38.473 4.169 51.566 133.339 113.371 205.824 240.274 215.406 377.198 15.36 220.16-136.777 394.021-138.313 395.776-13.458 15.067-12.069 38.181 3.072 51.639 15.067 13.458 38.181 12.215 51.639-3.072 7.168-7.973 174.080-198.875 156.599-449.39-10.898-157.257-92.087-301.275-240.933-427.886-6.949-5.851-15.36-8.704-23.771-8.704zM762.075 490.423c-27.941 0-58.149 2.633-90.624 8.046-15.36 2.487-27.429 14.482-30.062 29.769-2.706 15.287 4.608 30.647 18.213 38.254 36.425 20.334 135.826 86.309 157.842 146.871 6.875 18.944 27.794 28.745 46.885 21.87 19.017-6.875 28.818-27.867 21.87-46.885-17.262-47.543-59.758-91.063-100.498-124.050 51.273 3.657 88.869 20.114 112.201 49.152 46.007 57.271 34.597 159.525 16.384 232.155-22.821-23.552-53.833-48.201-92.672-62.098-158.793-46.226-133.925-139.264-132.754-143.214 5.559-19.383-5.632-39.643-25.015-45.275-19.749-5.486-39.643 5.632-45.275 25.015-0.512 1.609-45.349 167.278 180.517 232.96 59.246 21.358 96.402 87.186 96.768 87.918 6.802 12.434 20.114 19.749 34.304 19.017 14.117-0.805 26.551-9.728 31.817-22.894 3.95-9.874 95.232-242.176-7.022-369.445-41.399-51.346-105.984-77.166-192.878-77.166z" />
<glyph unicode="&#xe929;" glyph-name="web" d="M514.143 949.179c-277.528 0-503.333-225.821-503.333-503.333 0-277.559 225.805-503.365 503.333-503.365 277.497 0 503.349 225.821 503.349 503.365 0 277.512-225.852 503.333-503.349 503.333zM903.731 241.531c-0.094 0-0.187 0.094-0.281 0.094h-103.851c15.389 52.393 26.002 110.811 28.905 173.568h124.53c-4.432-62.491-21.507-120.925-49.303-173.662zM547.418 7.188v173.131h165.187c-32.213-77.084-69.983-133.426-91.38-161.863-23.879-6.040-48.507-9.349-73.807-11.268zM409.481 17.692c-21.288 28.077-59.448 84.779-92.020 162.627h168.683v-173.662c-26.236 1.686-51.878 4.979-76.663 11.034zM124.493 241.531c-27.75 52.737-44.918 111.17-49.334 173.662h126.325c2.903-62.757 13.516-121.175 28.905-173.568h-105.552c-0.14 0-0.219-0.094-0.343-0.094zM127.396 655.544c0.297-0.047 0.499-0.187 0.749-0.187h104.272c-19.353-62.242-28.421-121.971-30.762-178.89h-126.497c4.542 64.661 22.787 124.967 52.237 179.077zM486.16 885.080v-168.433h-164.875c23.239 51.972 54.095 105.271 94.658 159.365 22.724 5.213 46.307 7.523 70.217 9.068zM614.607 875.325c40.329-53.892 70.997-106.925 94.127-158.679h-161.316v167.856c22.896-1.686 45.448-4.089 67.189-9.177zM732.598 655.357c21.179-62.367 31.308-122.173 33.93-178.89h-219.11v178.89h185.18zM486.16 655.357v-178.89h-222.7c2.653 56.717 12.782 116.524 34.024 178.89h188.676zM263.382 415.193h222.778v-173.568h-191.251c-16.528 51.785-28.421 110.047-31.527 173.568zM547.418 241.625v173.568h219.204c-3.168-63.521-14.967-121.783-31.527-173.568h-187.677zM828.317 476.467c-2.279 56.92-11.378 116.648-30.762 178.89h102.508c0.219 0 0.484 0.14 0.765 0.187 29.388-54.11 47.68-114.417 52.191-179.077h-124.702zM860.874 716.646h-86.152c-16.31 39.923-36.146 80.44-61.508 121.674 57.856-29.529 107.94-70.935 147.66-121.674zM317.898 839.897c-25.768-41.796-46.119-82.828-62.616-123.25h-87.947c40.392 51.582 91.521 93.675 150.563 123.25zM162.981 180.319h88.040c18.76-48.96 40.204-90.772 60.15-124.889-58.215 30.434-108.751 72.823-148.191 124.889zM719.613 56.929c19.728 33.836 40.875 75.118 59.323 123.391h86.23c-38.8-51.301-88.368-93.066-145.553-123.391z" />
</font>
</defs>
</svg>
