<?xml version="1.0" encoding="UTF-8" standalone="no"?>
<!-- Generator: Adobe Illustrator 16.0.4, SVG Export Plug-In . SVG Version: 6.00 Build 0)  -->

<svg
   xmlns:dc="http://purl.org/dc/elements/1.1/"
   xmlns:cc="http://creativecommons.org/ns#"
   xmlns:rdf="http://www.w3.org/1999/02/22-rdf-syntax-ns#"
   xmlns:svg="http://www.w3.org/2000/svg"
   xmlns="http://www.w3.org/2000/svg"
   xmlns:sodipodi="http://sodipodi.sourceforge.net/DTD/sodipodi-0.dtd"
   xmlns:inkscape="http://www.inkscape.org/namespaces/inkscape"
   version="1.1"
   id="maquette_techonmap_oct_2014.fw-Sprite"
   x="0px"
   y="0px"
   width="32.743412"
   height="36.851929"
   viewBox="566.5 7.138 32.743412 36.851929"
   enable-background="new 566.5 7.138 33 40"
   xml:space="preserve"
   inkscape:version="0.91 r13725"
   sodipodi:docname="community.svg"
   inkscape:export-filename="/home/slauriere/git/techonmap-v2/app/images/markers/community-new.png"
   inkscape:export-xdpi="236"
   inkscape:export-ydpi="236"><metadata
     id="metadata25"><rdf:RDF><cc:Work
         rdf:about=""><dc:format>image/svg+xml</dc:format><dc:type
           rdf:resource="http://purl.org/dc/dcmitype/StillImage" /><dc:title /></cc:Work></rdf:RDF></metadata><defs
     id="defs23" /><sodipodi:namedview
     pagecolor="#ffffff"
     bordercolor="#666666"
     borderopacity="1"
     objecttolerance="10"
     gridtolerance="10"
     guidetolerance="10"
     inkscape:pageopacity="0"
     inkscape:pageshadow="2"
     inkscape:window-width="640"
     inkscape:window-height="480"
     id="namedview21"
     showgrid="false"
     inkscape:zoom="16.68772"
     inkscape:cx="-4.7298268"
     inkscape:cy="19.021895"
     inkscape:current-layer="maquette_techonmap_oct_2014.fw-Sprite"
     fit-margin-top="0"
     fit-margin-left="0"
     fit-margin-right="0"
     fit-margin-bottom="0" /><path
     style="fill:none;stroke:#000000;stroke-width:1.13338208;stroke-linecap:round;stroke-linejoin:round;stroke-miterlimit:10"
     inkscape:connector-curvature="0"
     id="path5"
     d="m 598.67672,23.509704 c 0,-8.732707 -7.07798,-15.8050129 -15.805,-15.8050129 -8.72705,0 -15.80503,7.0779739 -15.80503,15.8050129 0,7.90535 5.80291,14.456317 13.37957,15.623678 l 0,0 0,0 c 0.11332,0.01712 0.22101,0.03402 0.33434,0.04534 1.1844,0.328683 2.09111,2.357434 2.09111,4.811208 0,-2.459445 0.90669,-4.482525 2.09107,-4.811208 0.11331,-0.01691 0.22668,-0.02828 0.33435,-0.04534 l 0,0 0,0 c 7.58233,-1.167361 13.37958,-7.718328 13.37958,-15.623678 z"
     class="st0" /><path
     style="fill:#c3d467;fill-opacity:1;stroke:none;stroke-width:1.13338208;stroke-linecap:round;stroke-linejoin:round;stroke-miterlimit:10;stroke-opacity:1"
     inkscape:connector-curvature="0"
     id="path5-9"
     d="m 598.19732,23.410364 c 0,-8.500938 -6.89013,-15.3855432 -15.38553,-15.3855432 -8.49543,0 -15.38556,6.8901222 -15.38556,15.3855432 0,7.695539 5.6489,14.072641 13.02447,15.20902 l 0,0 0,0 c 0.11031,0.01667 0.21515,0.03312 0.32547,0.04414 1.15296,0.31996 2.03561,2.294867 2.03561,4.683517 0,-2.394171 0.88263,-4.363557 2.03557,-4.683517 0.1103,-0.01646 0.22067,-0.02753 0.32548,-0.04414 l 0,0 0,0 c 7.38109,-1.136379 13.02448,-7.513481 13.02448,-15.20902 z"
     class="st0" /><g
     id="g4206"
     transform="translate(561.01897,5.3939176)"><path
       inkscape:connector-curvature="0"
       id="circle4207"
       d="m 21.792819,4.8675973 c -7.269506,0 -13.1743792,5.9048757 -13.1743792,13.1743797 0,7.269505 5.9048732,13.174379 13.1743792,13.174379 7.269506,0 13.174375,-5.904874 13.174375,-13.174379 0,-7.269504 -5.904869,-13.1743797 -13.174375,-13.1743797 z m 0,1.0960369 c 6.677164,0 12.078345,5.4011798 12.078345,12.0783428 0,6.677164 -5.401181,12.078343 -12.078345,12.078343 -6.677164,0 -12.0783452,-5.401179 -12.0783452,-12.078343 0,-6.677163 5.4011812,-12.0783428 12.0783452,-12.0783428 z"
       style="color:#000000;font-style:normal;font-variant:normal;font-weight:normal;font-stretch:normal;font-size:medium;line-height:normal;font-family:sans-serif;text-indent:0;text-align:start;text-decoration:none;text-decoration-line:none;text-decoration-style:solid;text-decoration-color:#000000;letter-spacing:normal;word-spacing:normal;text-transform:none;direction:ltr;block-progression:tb;writing-mode:lr-tb;baseline-shift:baseline;text-anchor:start;white-space:normal;clip-rule:nonzero;display:inline;overflow:visible;visibility:visible;opacity:1;isolation:auto;mix-blend-mode:normal;color-interpolation:sRGB;color-interpolation-filters:linearRGB;solid-color:#000000;solid-opacity:1;fill:#000000;fill-opacity:1;fill-rule:nonzero;stroke:none;stroke-width:20;stroke-linecap:butt;stroke-linejoin:miter;stroke-miterlimit:10;stroke-dasharray:none;stroke-dashoffset:0;stroke-opacity:1;color-rendering:auto;image-rendering:auto;shape-rendering:auto;text-rendering:auto;enable-background:accumulate" /><path
       inkscape:connector-curvature="0"
       id="line4209"
       d="m 21.244798,5.415615 0,25.252722 1.096039,0 0,-25.252722 -1.096039,0 z"
       style="color:#000000;font-style:normal;font-variant:normal;font-weight:normal;font-stretch:normal;font-size:medium;line-height:normal;font-family:sans-serif;text-indent:0;text-align:start;text-decoration:none;text-decoration-line:none;text-decoration-style:solid;text-decoration-color:#000000;letter-spacing:normal;word-spacing:normal;text-transform:none;direction:ltr;block-progression:tb;writing-mode:lr-tb;baseline-shift:baseline;text-anchor:start;white-space:normal;clip-rule:nonzero;display:inline;overflow:visible;visibility:visible;opacity:1;isolation:auto;mix-blend-mode:normal;color-interpolation:sRGB;color-interpolation-filters:linearRGB;solid-color:#000000;solid-opacity:1;fill:#000000;fill-opacity:1;fill-rule:nonzero;stroke:none;stroke-width:20;stroke-linecap:butt;stroke-linejoin:miter;stroke-miterlimit:10;stroke-dasharray:none;stroke-dashoffset:0;stroke-opacity:1;color-rendering:auto;image-rendering:auto;shape-rendering:auto;text-rendering:auto;enable-background:accumulate" /><path
       inkscape:connector-curvature="0"
       id="line4211"
       d="m 9.1664582,17.493958 0,1.09604 25.2527188,0 0,-1.09604 -25.2527188,0 z"
       style="color:#000000;font-style:normal;font-variant:normal;font-weight:normal;font-stretch:normal;font-size:medium;line-height:normal;font-family:sans-serif;text-indent:0;text-align:start;text-decoration:none;text-decoration-line:none;text-decoration-style:solid;text-decoration-color:#000000;letter-spacing:normal;word-spacing:normal;text-transform:none;direction:ltr;block-progression:tb;writing-mode:lr-tb;baseline-shift:baseline;text-anchor:start;white-space:normal;clip-rule:nonzero;display:inline;overflow:visible;visibility:visible;opacity:1;isolation:auto;mix-blend-mode:normal;color-interpolation:sRGB;color-interpolation-filters:linearRGB;solid-color:#000000;solid-opacity:1;fill:#000000;fill-opacity:1;fill-rule:nonzero;stroke:none;stroke-width:20;stroke-linecap:butt;stroke-linejoin:miter;stroke-miterlimit:10;stroke-dasharray:none;stroke-dashoffset:0;stroke-opacity:1;color-rendering:auto;image-rendering:auto;shape-rendering:auto;text-rendering:auto;enable-background:accumulate" /><path
       inkscape:connector-curvature="0"
       id="path4213"
       d="m 26.872583,6.2295075 -1.095288,0.038323 0.339727,9.7165155 0,2.18e-4 c 0.04883,1.36793 0.04883,2.741455 0,4.109385 l 0,2.2e-4 -0.339727,9.716515 1.095288,0.03833 0.339838,-9.715977 0,-3.28e-4 c 0.04979,-1.393833 0.04979,-2.79305 0,-4.186882 l 0,-4.36e-4 -0.339838,-9.7158735 z"
       style="color:#000000;font-style:normal;font-variant:normal;font-weight:normal;font-stretch:normal;font-size:medium;line-height:normal;font-family:sans-serif;text-indent:0;text-align:start;text-decoration:none;text-decoration-line:none;text-decoration-style:solid;text-decoration-color:#000000;letter-spacing:normal;word-spacing:normal;text-transform:none;direction:ltr;block-progression:tb;writing-mode:lr-tb;baseline-shift:baseline;text-anchor:start;white-space:normal;clip-rule:nonzero;display:inline;overflow:visible;visibility:visible;opacity:1;isolation:auto;mix-blend-mode:normal;color-interpolation:sRGB;color-interpolation-filters:linearRGB;solid-color:#000000;solid-opacity:1;fill:#000000;fill-opacity:1;fill-rule:nonzero;stroke:none;stroke-width:20;stroke-linecap:butt;stroke-linejoin:miter;stroke-miterlimit:10;stroke-dasharray:none;stroke-dashoffset:0;stroke-opacity:1;color-rendering:auto;image-rendering:auto;shape-rendering:auto;text-rendering:auto;enable-background:accumulate" /><path
       inkscape:connector-curvature="0"
       id="path4215"
       d="m 16.702992,6.2114192 -0.515157,7.5791358 c -0.193492,2.830632 -0.193501,5.666969 0,8.497598 l 0.515157,7.578815 1.093469,-0.0743 -0.515054,-7.579243 -1.09e-4,-1.09e-4 c -0.190106,-2.781002 -0.190106,-5.567282 0,-8.348286 l 1.09e-4,-1.1e-4 0.515054,-7.579134 -1.093469,-0.074396 z"
       style="color:#000000;font-style:normal;font-variant:normal;font-weight:normal;font-stretch:normal;font-size:medium;line-height:normal;font-family:sans-serif;text-indent:0;text-align:start;text-decoration:none;text-decoration-line:none;text-decoration-style:solid;text-decoration-color:#000000;letter-spacing:normal;word-spacing:normal;text-transform:none;direction:ltr;block-progression:tb;writing-mode:lr-tb;baseline-shift:baseline;text-anchor:start;white-space:normal;clip-rule:nonzero;display:inline;overflow:visible;visibility:visible;opacity:1;isolation:auto;mix-blend-mode:normal;color-interpolation:sRGB;color-interpolation-filters:linearRGB;solid-color:#000000;solid-opacity:1;fill:#000000;fill-opacity:1;fill-rule:nonzero;stroke:none;stroke-width:20;stroke-linecap:butt;stroke-linejoin:miter;stroke-miterlimit:10;stroke-dasharray:none;stroke-dashoffset:0;stroke-opacity:1;color-rendering:auto;image-rendering:auto;shape-rendering:auto;text-rendering:auto;enable-background:accumulate" /><path
       inkscape:connector-curvature="0"
       id="path4217"
       d="m 21.788645,8.3331713 c -1.360315,0.010388 -2.720518,0.055821 -4.077919,0.1358303 a 0.54807299,0.54807299 0 0 0 -7.22e-4,1.085e-4 L 12.624322,8.7759797 A 0.54807299,0.54807299 0 0 0 12.11109,9.2794704 l -0.361669,4.5376336 c -0.227013,2.813073 -0.227041,5.637222 0,8.450293 l 0.361669,4.537099 a 0.54807299,0.54807299 0 0 0 0.514517,0.503595 l 6.526982,0.378049 a 0.54807299,0.54807299 0 0 0 6.42e-4,1.09e-4 c 1.754488,0.09963 3.515515,0.116219 5.272321,0.03863 l -6.41e-4,1.1e-4 6.384407,-0.274009 a 0.54807299,0.54807299 0 0 0 0.523833,-0.520403 l 0.284925,-5.742954 0,-2.18e-4 c 0.105029,-2.095142 0.105015,-4.195796 0,-6.296322 l 0,-2.2e-4 -0.284925,-5.7429521 a 0.54807299,0.54807299 0 0 0 -0.523083,-0.520399 l -4.943081,-0.2192062 2.22e-4,1.094e-4 C 24.509421,8.3476975 23.148962,8.322817 21.788648,8.3331689 Z m 0.0084,1.0960358 c 1.341418,-0.010201 2.682727,0.014225 4.021193,0.074063 a 0.54807299,0.54807299 0 0 0 2.19e-4,0 l 4.444728,0.1971588 0.260308,5.2450241 a 0.54807299,0.54807299 0 0 0 0,2.23e-4 c 0.103209,2.064267 0.103196,4.128345 0,6.187038 a 0.54807299,0.54807299 0 0 0 0,3.31e-4 l -0.260208,5.244274 -5.885302,0.252604 a 0.54807299,0.54807299 0 0 0 -7.2e-4,0 c -1.717633,0.07586 -3.441914,0.05966 -5.16186,-0.03798 l 6.39e-4,1.08e-4 -6.050251,-0.35054 -0.323779,-4.061647 a 0.54807299,0.54807299 0 0 0 0,-5.48e-4 c -0.222323,-2.754619 -0.222323,-5.52003 0,-8.274647 a 0.54807299,0.54807299 0 0 0 0,-5.48e-4 l 0.323906,-4.0628261 4.609348,-0.2780784 c 1.338846,-0.078912 2.680416,-0.1237894 4.021831,-0.1340073 z"
       style="color:#000000;font-style:normal;font-variant:normal;font-weight:normal;font-stretch:normal;font-size:medium;line-height:normal;font-family:sans-serif;text-indent:0;text-align:start;text-decoration:none;text-decoration-line:none;text-decoration-style:solid;text-decoration-color:#000000;letter-spacing:normal;word-spacing:normal;text-transform:none;direction:ltr;block-progression:tb;writing-mode:lr-tb;baseline-shift:baseline;text-anchor:start;white-space:normal;clip-rule:nonzero;display:inline;overflow:visible;visibility:visible;opacity:1;isolation:auto;mix-blend-mode:normal;color-interpolation:sRGB;color-interpolation-filters:linearRGB;solid-color:#000000;solid-opacity:1;fill:#000000;fill-opacity:1;fill-rule:nonzero;stroke:none;stroke-width:20;stroke-linecap:butt;stroke-linejoin:round;stroke-miterlimit:10;stroke-dasharray:none;stroke-dashoffset:0;stroke-opacity:1;color-rendering:auto;image-rendering:auto;shape-rendering:auto;text-rendering:auto;enable-background:accumulate" /><path
       inkscape:connector-curvature="0"
       id="path4219"
       d="m 21.797634,12.393323 c -0.959695,0 -1.920051,0.01785 -2.880413,0.05372 l -8.861304,0.328812 0.04055,1.095288 8.861519,-0.328812 1.07e-4,0 c 1.893486,-0.07074 3.786956,-0.07074 5.674879,0 l 1.08e-4,0 8.861517,0.328812 0.04071,-1.095288 -8.8613,-0.328812 c -0.957664,-0.03587 -1.916653,-0.05372 -2.876348,-0.05372 z"
       style="color:#000000;font-style:normal;font-variant:normal;font-weight:normal;font-stretch:normal;font-size:medium;line-height:normal;font-family:sans-serif;text-indent:0;text-align:start;text-decoration:none;text-decoration-line:none;text-decoration-style:solid;text-decoration-color:#000000;letter-spacing:normal;word-spacing:normal;text-transform:none;direction:ltr;block-progression:tb;writing-mode:lr-tb;baseline-shift:baseline;text-anchor:start;white-space:normal;clip-rule:nonzero;display:inline;overflow:visible;visibility:visible;opacity:1;isolation:auto;mix-blend-mode:normal;color-interpolation:sRGB;color-interpolation-filters:linearRGB;solid-color:#000000;solid-opacity:1;fill:#000000;fill-opacity:1;fill-rule:nonzero;stroke:none;stroke-width:20;stroke-linecap:butt;stroke-linejoin:miter;stroke-miterlimit:10;stroke-dasharray:none;stroke-dashoffset:0;stroke-opacity:1;color-rendering:auto;image-rendering:auto;shape-rendering:auto;text-rendering:auto;enable-background:accumulate" /><path
       inkscape:connector-curvature="0"
       id="path4221"
       d="m 10.098196,21.97176 -0.0441,1.095073 9.119042,0.367236 -4.39e-4,-1.09e-4 c 1.74673,0.07186 3.493481,0.07186 5.240212,0 l -4.38e-4,1.09e-4 9.119042,-0.367236 -0.04409,-1.095073 -9.119263,0.367129 -3.23e-4,0 c -1.716748,0.07064 -3.433343,0.07064 -5.150089,0 l -3.3e-4,0 -9.11926,-0.367129 z"
       style="color:#000000;font-style:normal;font-variant:normal;font-weight:normal;font-stretch:normal;font-size:medium;line-height:normal;font-family:sans-serif;text-indent:0;text-align:start;text-decoration:none;text-decoration-line:none;text-decoration-style:solid;text-decoration-color:#000000;letter-spacing:normal;word-spacing:normal;text-transform:none;direction:ltr;block-progression:tb;writing-mode:lr-tb;baseline-shift:baseline;text-anchor:start;white-space:normal;clip-rule:nonzero;display:inline;overflow:visible;visibility:visible;opacity:1;isolation:auto;mix-blend-mode:normal;color-interpolation:sRGB;color-interpolation-filters:linearRGB;solid-color:#000000;solid-opacity:1;fill:#000000;fill-opacity:1;fill-rule:nonzero;stroke:none;stroke-width:20;stroke-linecap:butt;stroke-linejoin:miter;stroke-miterlimit:10;stroke-dasharray:none;stroke-dashoffset:0;stroke-opacity:1;color-rendering:auto;image-rendering:auto;shape-rendering:auto;text-rendering:auto;enable-background:accumulate" /></g></svg>