<?xml version="1.0" encoding="utf-8"?>
<!-- Generator: Adobe Illustrator 16.0.4, SVG Export Plug-In . SVG Version: 6.00 Build 0)  -->
<!DOCTYPE svg PUBLIC "-//W3C//DTD SVG 1.1//EN" "http://www.w3.org/Graphics/SVG/1.1/DTD/svg11.dtd">
<svg version="1.1" id="maquette_techonmap_oct_2014.fw-Sprite"
	 xmlns="http://www.w3.org/2000/svg" xmlns:xlink="http://www.w3.org/1999/xlink" x="0px" y="0px" width="33px" height="40px"
	 viewBox="239.25 9.138 33 40" enable-background="new 239.25 9.138 33 40" xml:space="preserve">
<g>
	<g>
		<path fill="#DFCC6B" d="M251.275,40.517l-0.188-0.056c-6.781-2.033-11.337-8.089-11.337-15.07c0-8.686,7.178-15.752,16-15.752
			s16,7.066,16,15.752c0,6.981-4.556,13.037-11.337,15.07l-0.188,0.056l-4.475,7.634L251.275,40.517z"/>
		<path fill="#C0AE60" d="M255.75,10.138c8.547,0,15.5,6.842,15.5,15.252c0,6.759-4.413,12.622-10.98,14.591l-0.377,0.113
			l-0.198,0.339l-3.944,6.728l-3.944-6.728l-0.198-0.339l-0.377-0.113c-6.567-1.969-10.98-7.832-10.98-14.591
			C240.25,16.98,247.203,10.138,255.75,10.138 M255.75,9.138c-9.113,0-16.5,7.276-16.5,16.252c0,7.327,4.926,13.521,11.693,15.549
			l4.807,8.199l4.807-8.199c6.768-2.028,11.693-8.222,11.693-15.549C272.25,16.414,264.863,9.138,255.75,9.138L255.75,9.138z"/>
	</g>
	<g>
		<g>
			<path fill="#FFFFFF" d="M262.75,28.139h-14c-0.275,0-0.5-0.225-0.5-0.5v-7c0-1.379,1.122-2.5,2.5-2.5h10
				c1.378,0,2.5,1.121,2.5,2.5v7C263.25,27.914,263.025,28.139,262.75,28.139z M249.25,27.139h13v-6.5c0-0.827-0.673-1.5-1.5-1.5
				h-10c-0.827,0-1.5,0.673-1.5,1.5V27.139z"/>
		</g>
		<g>
			<path fill="#FFFFFF" d="M263.5,30.139H248c-0.999,0-1.75-1.113-1.75-1.834v-0.334c0-0.316,0.141-0.849,1.082-0.849
				c0.098,0,0.201,0.003,0.312,0.007c0.11,0.005,0.229,0.01,0.354,0.01h15.5c0.124,0,0.243-0.005,0.354-0.01
				c0.111-0.004,0.217-0.007,0.312-0.007c0.941,0,1.082,0.53,1.082,0.849v0.334C265.25,29.025,264.499,30.139,263.5,30.139z
				 M247.25,28.139v0.166c0,0.221,0.373,0.834,0.75,0.834h15.5c0.377,0,0.75-0.613,0.75-0.834v-0.166c-0.023,0-0.05,0-0.082,0
				l-0.275-0.002c-0.125,0.004-0.256,0.002-0.393,0.002H248c-0.137,0-0.268,0.002-0.393-0.002l-0.275,0.002
				C247.3,28.139,247.273,28.139,247.25,28.139z"/>
		</g>
		<g>
			<path fill="#FFFFFF" d="M260.75,28.139h-10c-0.275,0-0.5-0.225-0.5-0.5v-7c0-0.276,0.225-0.5,0.5-0.5h10
				c0.275,0,0.5,0.224,0.5,0.5v7C261.25,27.914,261.025,28.139,260.75,28.139z M251.25,27.139h9v-6h-9V27.139z"/>
		</g>
		<g>
			<path fill="#FFFFFF" d="M254.667,24.221c-0.128,0-0.256-0.049-0.354-0.146c-0.193-0.195-0.193-0.513,0-0.707l2.584-2.583
				c0.194-0.195,0.513-0.195,0.707,0c0.194,0.194,0.194,0.512,0,0.707l-2.584,2.583C254.923,24.172,254.795,24.221,254.667,24.221z"
				/>
		</g>
		<g>
			<path fill="#FFFFFF" d="M255.667,26.305c-0.128,0-0.256-0.049-0.354-0.146c-0.193-0.195-0.193-0.513,0-0.707l4.625-4.625
				c0.195-0.195,0.514-0.195,0.707,0c0.195,0.194,0.195,0.512,0,0.707l-4.625,4.625C255.923,26.256,255.795,26.305,255.667,26.305z"
				/>
		</g>
		<g>
			<path fill="#FFFFFF" d="M267.25,32.139h-23c-0.275,0-0.5-0.225-0.5-0.5c0-0.277,0.225-0.5,0.5-0.5h23c0.275,0,0.5,0.223,0.5,0.5
				C267.75,31.914,267.525,32.139,267.25,32.139z"/>
		</g>
	</g>
</g>
</svg>
