<?xml version="1.0" encoding="utf-8"?>
<!-- Generator: Adobe Illustrator 16.0.4, SVG Export Plug-In . SVG Version: 6.00 Build 0)  -->
<!DOCTYPE svg PUBLIC "-//W3C//DTD SVG 1.1//EN" "http://www.w3.org/Graphics/SVG/1.1/DTD/svg11.dtd">
<svg version="1.1" id="maquette_techonmap_oct_2014.fw-Sprite"
	 xmlns="http://www.w3.org/2000/svg" xmlns:xlink="http://www.w3.org/1999/xlink" x="0px" y="0px" width="33px" height="40px"
	 viewBox="293.75 9.138 33 40" enable-background="new 293.75 9.138 33 40" xml:space="preserve">
<g>
	<path fill="#C0AE60" d="M326.75,25.391c0-8.977-7.387-16.252-16.5-16.252s-16.5,7.276-16.5,16.252
		c0,7.327,4.926,13.521,11.693,15.549l4.807,8.199l4.807-8.199C321.824,38.911,326.75,32.718,326.75,25.391z"/>
	<g>
		<g>
			<path fill="#FFFFFF" d="M317.25,28.139h-14c-0.275,0-0.5-0.225-0.5-0.5v-7c0-1.379,1.122-2.5,2.5-2.5h10
				c1.378,0,2.5,1.121,2.5,2.5v7C317.75,27.914,317.525,28.139,317.25,28.139z M303.75,27.139h13v-6.5c0-0.827-0.673-1.5-1.5-1.5
				h-10c-0.827,0-1.5,0.673-1.5,1.5V27.139z"/>
		</g>
		<g>
			<path fill="#FFFFFF" d="M318,30.139h-15.5c-0.999,0-1.75-1.113-1.75-1.834v-0.334c0-0.316,0.141-0.849,1.082-0.849
				c0.098,0,0.201,0.003,0.312,0.007c0.111,0.005,0.23,0.01,0.354,0.01H318c0.124,0,0.243-0.005,0.355-0.01
				c0.109-0.004,0.215-0.007,0.312-0.007c0.94,0,1.082,0.53,1.082,0.849v0.334C319.75,29.025,318.999,30.139,318,30.139z
				 M301.75,28.139v0.166c0,0.221,0.373,0.834,0.75,0.834H318c0.377,0,0.75-0.613,0.75-0.834v-0.166c-0.023,0-0.05,0-0.082,0
				l-0.275-0.002c-0.125,0.004-0.256,0.002-0.393,0.002h-15.5c-0.136,0-0.268,0.002-0.393-0.002l-0.275,0.002
				C301.8,28.139,301.773,28.139,301.75,28.139z"/>
		</g>
		<g>
			<path fill="#FFFFFF" d="M315.25,28.139h-10c-0.275,0-0.5-0.225-0.5-0.5v-7c0-0.276,0.225-0.5,0.5-0.5h10
				c0.275,0,0.5,0.224,0.5,0.5v7C315.75,27.914,315.525,28.139,315.25,28.139z M305.75,27.139h9v-6h-9V27.139z"/>
		</g>
		<g>
			<path fill="#FFFFFF" d="M309.167,24.221c-0.128,0-0.256-0.049-0.354-0.146c-0.193-0.195-0.193-0.513,0-0.707l2.584-2.583
				c0.194-0.195,0.513-0.195,0.707,0c0.194,0.194,0.194,0.512,0,0.707l-2.584,2.583C309.423,24.172,309.295,24.221,309.167,24.221z"
				/>
		</g>
		<g>
			<path fill="#FFFFFF" d="M310.167,26.305c-0.128,0-0.256-0.049-0.354-0.146c-0.193-0.195-0.193-0.513,0-0.707l4.625-4.625
				c0.195-0.195,0.514-0.195,0.707,0c0.195,0.194,0.195,0.512,0,0.707l-4.625,4.625C310.423,26.256,310.295,26.305,310.167,26.305z"
				/>
		</g>
		<g>
			<path fill="#FFFFFF" d="M321.75,32.139h-23c-0.275,0-0.5-0.225-0.5-0.5c0-0.277,0.225-0.5,0.5-0.5h23c0.275,0,0.5,0.223,0.5,0.5
				C322.25,31.914,322.025,32.139,321.75,32.139z"/>
		</g>
	</g>
</g>
</svg>
