<?xml version="1.0" encoding="utf-8"?>
<!-- Generator: Adobe Illustrator 16.0.4, SVG Export Plug-In . SVG Version: 6.00 Build 0)  -->
<!DOCTYPE svg PUBLIC "-//W3C//DTD SVG 1.1//EN" "http://www.w3.org/Graphics/SVG/1.1/DTD/svg11.dtd">
<svg version="1.1" id="maquette_techonmap_oct_2014.fw-Sprite"
	 xmlns="http://www.w3.org/2000/svg" xmlns:xlink="http://www.w3.org/1999/xlink" x="0px" y="0px" width="33px" height="40px"
	 viewBox="0 0 33 40" enable-background="new 0 0 33 40" xml:space="preserve">
<g>
	<g>
		<path fill="#E2A223" d="M12.025,31.379l-0.188-0.057C5.057,29.289,0.5,23.233,0.5,16.252c0-8.686,7.178-15.751,16-15.751
			s16,7.065,16,15.751c0,6.981-4.557,13.037-11.337,15.07l-0.188,0.057L16.5,39.012L12.025,31.379z"/>
		<path fill="#C0AE60" d="M16.5,1C25.047,1,32,7.842,32,16.252c0,6.758-4.413,12.621-10.98,14.59l-0.377,0.113l-0.197,0.34
			l-3.944,6.728l-3.944-6.728l-0.197-0.34l-0.377-0.113c-6.567-1.969-10.98-7.832-10.98-14.59C1,7.842,7.953,1,16.5,1 M16.5,0
			C7.387,0,0,7.275,0,16.252c0,7.326,4.926,13.521,11.693,15.549L16.5,40l4.807-8.199C28.075,29.772,33,23.578,33,16.252
			C33,7.275,25.613,0,16.5,0L16.5,0z"/>
	</g>
</g>
<g>
	<g>
		<path fill="none" stroke="#FFFFFF" stroke-linecap="round" stroke-linejoin="round" stroke-miterlimit="10" d="M13.939,12.113
			c0.721-0.723,1.721-1.17,2.822-1.17c1.101,0,2.098,0.445,2.82,1.167"/>
		<path fill="none" stroke="#FFFFFF" stroke-linecap="round" stroke-linejoin="round" stroke-miterlimit="10" d="M12.279,10.453
			c1.147-1.146,2.73-1.856,4.482-1.856c1.748,0,3.33,0.708,4.477,1.854"/>
		<path fill="none" stroke="#FFFFFF" stroke-linecap="round" stroke-linejoin="round" stroke-miterlimit="10" d="M10.62,8.797
			c1.572-1.574,3.744-2.547,6.142-2.547c2.395,0,4.562,0.973,6.135,2.539"/>
	</g>
	
		<rect x="11.5" y="21" fill="none" stroke="#FFFFFF" stroke-linecap="round" stroke-linejoin="round" stroke-miterlimit="10" width="3" height="3"/>
	
		<line fill="none" stroke="#FFFFFF" stroke-linecap="round" stroke-linejoin="round" stroke-miterlimit="10" x1="8" y1="24" x2="24" y2="24"/>
	<polyline fill="none" stroke="#FFFFFF" stroke-linecap="round" stroke-linejoin="round" stroke-miterlimit="10" points="9.5,23.5 
		9.5,17.545 13.533,14.768 	"/>
	<polyline fill="none" stroke="#FFFFFF" stroke-linecap="round" stroke-linejoin="round" stroke-miterlimit="10" points="17.5,23.5 
		17.5,17.545 13.783,15 19.649,15 22.5,17.545 22.5,23.5 	"/>
</g>
</svg>
