<?xml version="1.0" encoding="UTF-8" standalone="no"?>
<!-- Generator: Adobe Illustrator 16.0.4, SVG Export Plug-In . SVG Version: 6.00 Build 0)  -->

<svg
   xmlns:dc="http://purl.org/dc/elements/1.1/"
   xmlns:cc="http://creativecommons.org/ns#"
   xmlns:rdf="http://www.w3.org/1999/02/22-rdf-syntax-ns#"
   xmlns:svg="http://www.w3.org/2000/svg"
   xmlns="http://www.w3.org/2000/svg"
   xmlns:sodipodi="http://sodipodi.sourceforge.net/DTD/sodipodi-0.dtd"
   xmlns:inkscape="http://www.inkscape.org/namespaces/inkscape"
   version="1.1"
   id="maquette_techonmap_oct_2014.fw-Sprite"
   x="0px"
   y="0px"
   width="32.743412"
   height="36.851929"
   viewBox="566.5 7.138 32.743412 36.851929"
   enable-background="new 566.5 7.138 33 40"
   xml:space="preserve"
   inkscape:version="0.91 r13725"
   sodipodi:docname="education.svg"
   inkscape:export-filename="/home/slauriere/git/techonmap-v2/app/images/markers/education.png"
   inkscape:export-xdpi="236"
   inkscape:export-ydpi="236"><metadata
     id="metadata25"><rdf:RDF><cc:Work
         rdf:about=""><dc:format>image/svg+xml</dc:format><dc:type
           rdf:resource="http://purl.org/dc/dcmitype/StillImage" /><dc:title></dc:title></cc:Work></rdf:RDF></metadata><defs
     id="defs23" /><sodipodi:namedview
     pagecolor="#ffffff"
     bordercolor="#666666"
     borderopacity="1"
     objecttolerance="10"
     gridtolerance="10"
     guidetolerance="10"
     inkscape:pageopacity="0"
     inkscape:pageshadow="2"
     inkscape:window-width="640"
     inkscape:window-height="480"
     id="namedview21"
     showgrid="false"
     inkscape:zoom="11.8"
     inkscape:cx="9.7827139"
     inkscape:cy="15.383865"
     inkscape:current-layer="g4345"
     fit-margin-top="0"
     fit-margin-left="0"
     fit-margin-right="0"
     fit-margin-bottom="0" /><path
     style="fill:none;stroke:#000000;stroke-width:1.13338208;stroke-linecap:round;stroke-linejoin:round;stroke-miterlimit:10"
     inkscape:connector-curvature="0"
     id="path5"
     d="m 598.67672,23.509704 c 0,-8.732707 -7.07798,-15.8050129 -15.805,-15.8050129 -8.72705,0 -15.80503,7.0779739 -15.80503,15.8050129 0,7.90535 5.80291,14.456317 13.37957,15.623678 l 0,0 0,0 c 0.11332,0.01712 0.22101,0.03402 0.33434,0.04534 1.1844,0.328683 2.09111,2.357434 2.09111,4.811208 0,-2.459445 0.90669,-4.482525 2.09107,-4.811208 0.11331,-0.01691 0.22668,-0.02828 0.33435,-0.04534 l 0,0 0,0 c 7.58233,-1.167361 13.37958,-7.718328 13.37958,-15.623678 z"
     class="st0" /><path
     style="fill:#ee7035;fill-opacity:1;stroke:none;stroke-width:1.13338208;stroke-linecap:round;stroke-linejoin:round;stroke-miterlimit:10;stroke-opacity:1"
     inkscape:connector-curvature="0"
     id="path5-9"
     d="m 598.19732,23.410364 c 0,-8.500938 -6.89013,-15.3855432 -15.38553,-15.3855432 -8.49543,0 -15.38556,6.8901222 -15.38556,15.3855432 0,7.695539 5.6489,14.072641 13.02447,15.20902 l 0,0 0,0 c 0.11031,0.01667 0.21515,0.03312 0.32547,0.04414 1.15296,0.31996 2.03561,2.294867 2.03561,4.683517 0,-2.394171 0.88263,-4.363557 2.03557,-4.683517 0.1103,-0.01646 0.22067,-0.02753 0.32548,-0.04414 l 0,0 0,0 c 7.38109,-1.136379 13.02448,-7.513481 13.02448,-15.20902 z"
     class="st0" /><g
     id="g4345"><rect
       y="14.819595"
       x="576.13159"
       height="18.636127"
       width="13.356594"
       id="rect4428"
       style="opacity:1;fill:#000000;fill-opacity:1;fill-rule:nonzero;stroke:none;stroke-width:0.59322971;stroke-miterlimit:4;stroke-dasharray:none;stroke-opacity:1" /><path
       inkscape:connector-curvature="0"
       id="path7"
       d="m 576.82048,14.120796 c -0.58049,0 -1.0585,0.478008 -1.0585,1.058499 l 0,17.758551 c 0,0.580491 0.47801,1.058499 1.0585,1.058499 l 12.10245,0 c 0.58049,0 1.0585,-0.478009 1.0585,-1.058499 l 0,-17.758551 c 0,-0.58049 -0.47801,-1.058499 -1.0585,-1.058499 l -12.10245,0 z m 0,0.827407 12.10245,0 c 0.12918,0 0.23109,0.101924 0.23109,0.231092 l 0,17.758551 c 0,0.129169 -0.10191,0.231092 -0.23109,0.231092 l -12.10245,0 c -0.12917,0 -0.23109,-0.101923 -0.23109,-0.231092 l 0,-17.758551 c 0,-0.129167 0.10192,-0.231092 0.23109,-0.231092 z"
       style="color:#000000;font-style:normal;font-variant:normal;font-weight:normal;font-stretch:normal;font-size:medium;line-height:normal;font-family:sans-serif;text-indent:0;text-align:start;text-decoration:none;text-decoration-line:none;text-decoration-style:solid;text-decoration-color:#000000;letter-spacing:normal;word-spacing:normal;text-transform:none;direction:ltr;block-progression:tb;writing-mode:lr-tb;baseline-shift:baseline;text-anchor:start;white-space:normal;clip-rule:nonzero;display:inline;overflow:visible;visibility:visible;opacity:1;isolation:auto;mix-blend-mode:normal;color-interpolation:sRGB;color-interpolation-filters:linearRGB;solid-color:#000000;solid-opacity:1;fill:#000000;fill-opacity:1;fill-rule:nonzero;stroke:none;stroke-width:1;stroke-linecap:butt;stroke-linejoin:miter;stroke-miterlimit:4;stroke-dasharray:none;stroke-dashoffset:0;stroke-opacity:1;color-rendering:auto;image-rendering:auto;shape-rendering:auto;text-rendering:auto;enable-background:accumulate" /><path
       inkscape:connector-curvature="0"
       id="polyline9"
       d="m 588.56265,12.013172 a 0.53768186,0.53768186 0 0 0 -0.0959,0.01155 l -11.82782,2.510681 a 0.53768186,0.53768186 0 1 0 0.22335,1.05184 l 11.17857,-2.372914 0,1.750231 a 0.53768186,0.53768186 0 1 0 1.07526,0 l 0,-2.413971 a 0.53768186,0.53768186 0 0 0 -0.55349,-0.537418 z"
       style="color:#000000;font-style:normal;font-variant:normal;font-weight:normal;font-stretch:normal;font-size:medium;line-height:normal;font-family:sans-serif;text-indent:0;text-align:start;text-decoration:none;text-decoration-line:none;text-decoration-style:solid;text-decoration-color:#000000;letter-spacing:normal;word-spacing:normal;text-transform:none;direction:ltr;block-progression:tb;writing-mode:lr-tb;baseline-shift:baseline;text-anchor:start;white-space:normal;clip-rule:nonzero;display:inline;overflow:visible;visibility:visible;opacity:1;isolation:auto;mix-blend-mode:normal;color-interpolation:sRGB;color-interpolation-filters:linearRGB;solid-color:#000000;solid-opacity:1;fill:#000000;fill-opacity:1;fill-rule:nonzero;stroke:none;stroke-width:20;stroke-linecap:round;stroke-linejoin:round;stroke-miterlimit:10;stroke-dasharray:none;stroke-dashoffset:0;stroke-opacity:1;color-rendering:auto;image-rendering:auto;shape-rendering:auto;text-rendering:auto;enable-background:accumulate" /><path
       inkscape:connector-curvature="0"
       id="path11"
       d="m 579.13787,17.025028 c -0.58049,0 -1.0585,0.396267 -1.0585,0.877492 l 0,0.779697 c 0,0.481224 0.47801,0.878832 1.0585,0.878832 l 7.48383,0 c 0.58049,0 1.0585,-0.397612 1.0585,-0.878832 l 0,-0.779697 c 0,-0.48122 -0.47801,-0.877492 -1.0585,-0.877492 l -7.48383,0 z m 0,0.685919 7.48383,0 c 0.12918,0 0.23109,0.08449 0.23109,0.191573 l 0,0.779697 c 0,0.107083 -0.10191,0.192914 -0.23109,0.192914 l -7.48383,0 c -0.12917,0 -0.2311,-0.08583 -0.2311,-0.192914 l 0,-0.779697 c 0,-0.107078 0.10193,-0.191573 0.2311,-0.191573 z"
       style="color:#000000;font-style:normal;font-variant:normal;font-weight:normal;font-stretch:normal;font-size:medium;line-height:normal;font-family:sans-serif;text-indent:0;text-align:start;text-decoration:none;text-decoration-line:none;text-decoration-style:solid;text-decoration-color:#000000;letter-spacing:normal;word-spacing:normal;text-transform:none;direction:ltr;block-progression:tb;writing-mode:lr-tb;baseline-shift:baseline;text-anchor:start;white-space:normal;clip-rule:nonzero;display:inline;overflow:visible;visibility:visible;opacity:1;isolation:auto;mix-blend-mode:normal;color-interpolation:sRGB;color-interpolation-filters:linearRGB;solid-color:#000000;solid-opacity:1;fill:#ee7035;fill-opacity:1;fill-rule:nonzero;stroke:none;stroke-width:1;stroke-linecap:butt;stroke-linejoin:miter;stroke-miterlimit:4;stroke-dasharray:none;stroke-dashoffset:0;stroke-opacity:1;color-rendering:auto;image-rendering:auto;shape-rendering:auto;text-rendering:auto;enable-background:accumulate" /><rect
       y="17.555655"
       x="578.7901"
       height="1.7595954"
       width="8.1321831"
       id="rect4490"
       style="opacity:1;fill:#ee7035;fill-opacity:1;fill-rule:nonzero;stroke:none;stroke-width:0.60100001;stroke-miterlimit:4;stroke-dasharray:none;stroke-opacity:1" /></g></svg>