<?xml version="1.0" encoding="UTF-8" standalone="no"?>
<!-- Generator: Adobe Illustrator 16.0.4, SVG Export Plug-In . SVG Version: 6.00 Build 0)  -->

<svg
   xmlns:dc="http://purl.org/dc/elements/1.1/"
   xmlns:cc="http://creativecommons.org/ns#"
   xmlns:rdf="http://www.w3.org/1999/02/22-rdf-syntax-ns#"
   xmlns:svg="http://www.w3.org/2000/svg"
   xmlns="http://www.w3.org/2000/svg"
   xmlns:sodipodi="http://sodipodi.sourceforge.net/DTD/sodipodi-0.dtd"
   xmlns:inkscape="http://www.inkscape.org/namespaces/inkscape"
   version="1.1"
   id="maquette_techonmap_oct_2014.fw-Sprite"
   x="0px"
   y="0px"
   width="32.743412"
   height="36.851929"
   viewBox="566.5 7.138 32.743412 36.851929"
   enable-background="new 566.5 7.138 33 40"
   xml:space="preserve"
   inkscape:version="0.91 r13725"
   sodipodi:docname="education.svg"
   inkscape:export-filename="/home/slauriere/git/techonmap-v2/app/images/markers/education.png"
   inkscape:export-xdpi="236"
   inkscape:export-ydpi="236"><metadata
     id="metadata25"><rdf:RDF><cc:Work
         rdf:about=""><dc:format>image/svg+xml</dc:format><dc:type
           rdf:resource="http://purl.org/dc/dcmitype/StillImage" /><dc:title></dc:title></cc:Work></rdf:RDF></metadata><defs
     id="defs23" /><sodipodi:namedview
     pagecolor="#ffffff"
     bordercolor="#666666"
     borderopacity="1"
     objecttolerance="10"
     gridtolerance="10"
     guidetolerance="10"
     inkscape:pageopacity="0"
     inkscape:pageshadow="2"
     inkscape:window-width="640"
     inkscape:window-height="480"
     id="namedview21"
     showgrid="false"
     inkscape:zoom="11.8"
     inkscape:cx="9.7827139"
     inkscape:cy="15.383865"
     inkscape:current-layer="g3545"
     fit-margin-top="0"
     fit-margin-left="0"
     fit-margin-right="0"
     fit-margin-bottom="0" /><path
     style="fill:none;stroke:#000000;stroke-width:1.13338208;stroke-linecap:round;stroke-linejoin:round;stroke-miterlimit:10"
     inkscape:connector-curvature="0"
     id="path5"
     d="m 598.67672,23.509704 c 0,-8.732707 -7.07798,-15.8050129 -15.805,-15.8050129 -8.72705,0 -15.80503,7.0779739 -15.80503,15.8050129 0,7.90535 5.80291,14.456317 13.37957,15.623678 l 0,0 0,0 c 0.11332,0.01712 0.22101,0.03402 0.33434,0.04534 1.1844,0.328683 2.09111,2.357434 2.09111,4.811208 0,-2.459445 0.90669,-4.482525 2.09107,-4.811208 0.11331,-0.01691 0.22668,-0.02828 0.33435,-0.04534 l 0,0 0,0 c 7.58233,-1.167361 13.37958,-7.718328 13.37958,-15.623678 z"
     class="st0" /><path
     style="fill:#fac15b;fill-opacity:1;stroke:none;stroke-width:1.13338208;stroke-linecap:round;stroke-linejoin:round;stroke-miterlimit:10;stroke-opacity:1"
     inkscape:connector-curvature="0"
     id="path5-9"
     d="m 598.19732,23.410364 c 0,-8.500938 -6.89013,-15.3855432 -15.38553,-15.3855432 -8.49543,0 -15.38556,6.8901222 -15.38556,15.3855432 0,7.695539 5.6489,14.072641 13.02447,15.20902 l 0,0 0,0 c 0.11031,0.01667 0.21515,0.03312 0.32547,0.04414 1.15296,0.31996 2.03561,2.294867 2.03561,4.683517 0,-2.394171 0.88263,-4.363557 2.03557,-4.683517 0.1103,-0.01646 0.22067,-0.02753 0.32548,-0.04414 l 0,0 0,0 c 7.38109,-1.136379 13.02448,-7.513481 13.02448,-15.20902 z"
     class="st0" /><g
     id="g3545"
     transform="matrix(0.8274072,0,0,0.8274072,564.71965,7.819896)"><rect
       y="8.4597998"
       x="13.792447"
       height="22.523525"
       width="16.14271"
       id="rect4428"
       style="opacity:1;fill:#000000;fill-opacity:1;fill-rule:nonzero;stroke:none;stroke-width:0.59322971;stroke-miterlimit:4;stroke-dasharray:none;stroke-opacity:1" /><path
       inkscape:connector-curvature="0"
       id="path7"
       d="m 14.625,7.6152344 c -0.701578,0 -1.279297,0.5777186 -1.279297,1.2792968 l 0,21.4628908 c 0,0.701579 0.577721,1.279297 1.279297,1.279297 l 14.626953,0 c 0.701581,0 1.279297,-0.577719 1.279297,-1.279297 l 0,-21.4628908 c 0,-0.7015774 -0.577715,-1.2792968 -1.279297,-1.2792968 l -14.626953,0 z m 0,1 14.626953,0 c 0.156128,0 0.279297,0.1231851 0.279297,0.2792968 l 0,21.4628908 c 0,0.156114 -0.123167,0.279297 -0.279297,0.279297 l -14.626953,0 c -0.156112,0 -0.279297,-0.123184 -0.279297,-0.279297 l 0,-21.4628908 c 0,-0.1561109 0.123187,-0.2792968 0.279297,-0.2792968 z"
       style="color:#000000;font-style:normal;font-variant:normal;font-weight:normal;font-stretch:normal;font-size:medium;line-height:normal;font-family:sans-serif;text-indent:0;text-align:start;text-decoration:none;text-decoration-line:none;text-decoration-style:solid;text-decoration-color:#000000;letter-spacing:normal;word-spacing:normal;text-transform:none;direction:ltr;block-progression:tb;writing-mode:lr-tb;baseline-shift:baseline;text-anchor:start;white-space:normal;clip-rule:nonzero;display:inline;overflow:visible;visibility:visible;opacity:1;isolation:auto;mix-blend-mode:normal;color-interpolation:sRGB;color-interpolation-filters:linearRGB;solid-color:#000000;solid-opacity:1;fill:#000000;fill-opacity:1;fill-rule:nonzero;stroke:none;stroke-width:1;stroke-linecap:butt;stroke-linejoin:miter;stroke-miterlimit:4;stroke-dasharray:none;stroke-dashoffset:0;stroke-opacity:1;color-rendering:auto;image-rendering:auto;shape-rendering:auto;text-rendering:auto;enable-background:accumulate" /><path
       inkscape:connector-curvature="0"
       id="polyline9"
       d="m 28.816527,5.0679718 a 0.64983948,0.64983948 0 0 0 -0.115868,0.01396 L 14.40562,8.1163277 a 0.64983948,0.64983948 0 1 0 0.269935,1.2712481 l 13.51036,-2.8678915 0,2.1153207 a 0.64983948,0.64983948 0 1 0 1.299549,0 l 0,-2.9175128 A 0.64983948,0.64983948 0 0 0 28.816527,5.0679718 Z"
       style="color:#000000;font-style:normal;font-variant:normal;font-weight:normal;font-stretch:normal;font-size:medium;line-height:normal;font-family:sans-serif;text-indent:0;text-align:start;text-decoration:none;text-decoration-line:none;text-decoration-style:solid;text-decoration-color:#000000;letter-spacing:normal;word-spacing:normal;text-transform:none;direction:ltr;block-progression:tb;writing-mode:lr-tb;baseline-shift:baseline;text-anchor:start;white-space:normal;clip-rule:nonzero;display:inline;overflow:visible;visibility:visible;opacity:1;isolation:auto;mix-blend-mode:normal;color-interpolation:sRGB;color-interpolation-filters:linearRGB;solid-color:#000000;solid-opacity:1;fill:#000000;fill-opacity:1;fill-rule:nonzero;stroke:none;stroke-width:20;stroke-linecap:round;stroke-linejoin:round;stroke-miterlimit:10;stroke-dasharray:none;stroke-dashoffset:0;stroke-opacity:1;color-rendering:auto;image-rendering:auto;shape-rendering:auto;text-rendering:auto;enable-background:accumulate" /><path
       inkscape:connector-curvature="0"
       id="path11"
       d="m 17.425781,11.125274 c -0.701577,0 -1.279297,0.478927 -1.279297,1.060533 l 0,0.942337 c 0,0.581605 0.577719,1.062152 1.279297,1.062152 l 9.044922,0 c 0.701581,0 1.279297,-0.480552 1.279297,-1.062152 l 0,-0.942337 c 0,-0.5816 -0.577716,-1.060533 -1.279297,-1.060533 l -9.044922,0 z m 0,0.828998 9.044922,0 c 0.156126,0 0.279297,0.102113 0.279297,0.231535 l 0,0.942337 c 0,0.12942 -0.123172,0.233155 -0.279297,0.233155 l -9.044922,0 c -0.15611,0 -0.279297,-0.10374 -0.279297,-0.233155 l 0,-0.942337 c 0,-0.129415 0.123186,-0.231535 0.279297,-0.231535 z"
       style="color:#000000;font-style:normal;font-variant:normal;font-weight:normal;font-stretch:normal;font-size:medium;line-height:normal;font-family:sans-serif;text-indent:0;text-align:start;text-decoration:none;text-decoration-line:none;text-decoration-style:solid;text-decoration-color:#000000;letter-spacing:normal;word-spacing:normal;text-transform:none;direction:ltr;block-progression:tb;writing-mode:lr-tb;baseline-shift:baseline;text-anchor:start;white-space:normal;clip-rule:nonzero;display:inline;overflow:visible;visibility:visible;opacity:1;isolation:auto;mix-blend-mode:normal;color-interpolation:sRGB;color-interpolation-filters:linearRGB;solid-color:#000000;solid-opacity:1;fill:#fac15b;fill-opacity:1;fill-rule:nonzero;stroke:none;stroke-width:1;stroke-linecap:butt;stroke-linejoin:miter;stroke-miterlimit:4;stroke-dasharray:none;stroke-dashoffset:0;stroke-opacity:1;color-rendering:auto;image-rendering:auto;shape-rendering:auto;text-rendering:auto;enable-background:accumulate" /><rect
       y="11.766587"
       x="17.005457"
       height="2.1266377"
       width="9.8285141"
       id="rect4490"
       style="opacity:1;fill:#fac15b;fill-opacity:1;fill-rule:nonzero;stroke:none;stroke-width:0.60100001;stroke-miterlimit:4;stroke-dasharray:none;stroke-opacity:1" /></g></svg>