<?xml version="1.0" encoding="UTF-8" standalone="no"?>
<!-- Generator: Adobe Illustrator 16.0.4, SVG Export Plug-In . SVG Version: 6.00 Build 0)  -->

<svg
   xmlns:dc="http://purl.org/dc/elements/1.1/"
   xmlns:cc="http://creativecommons.org/ns#"
   xmlns:rdf="http://www.w3.org/1999/02/22-rdf-syntax-ns#"
   xmlns:svg="http://www.w3.org/2000/svg"
   xmlns="http://www.w3.org/2000/svg"
   xmlns:sodipodi="http://sodipodi.sourceforge.net/DTD/sodipodi-0.dtd"
   xmlns:inkscape="http://www.inkscape.org/namespaces/inkscape"
   version="1.1"
   id="maquette_techonmap_oct_2014.fw-Sprite"
   x="0px"
   y="0px"
   width="32.743412"
   height="36.851929"
   viewBox="566.5 7.138 32.743412 36.851929"
   enable-background="new 566.5 7.138 33 40"
   xml:space="preserve"
   inkscape:version="0.91 r13725"
   sodipodi:docname="investor.svg"
   inkscape:export-filename="/home/slauriere/git/techonmap-v2/app/images/markers/community-new.png"
   inkscape:export-xdpi="236"
   inkscape:export-ydpi="236"><metadata
     id="metadata25"><rdf:RDF><cc:Work
         rdf:about=""><dc:format>image/svg+xml</dc:format><dc:type
           rdf:resource="http://purl.org/dc/dcmitype/StillImage" /><dc:title /></cc:Work></rdf:RDF></metadata><defs
     id="defs23" /><sodipodi:namedview
     pagecolor="#ffffff"
     bordercolor="#666666"
     borderopacity="1"
     objecttolerance="10"
     gridtolerance="10"
     guidetolerance="10"
     inkscape:pageopacity="0"
     inkscape:pageshadow="2"
     inkscape:window-width="640"
     inkscape:window-height="480"
     id="namedview21"
     showgrid="false"
     inkscape:zoom="16.68772"
     inkscape:cx="19.132565"
     inkscape:cy="15.579313"
     inkscape:current-layer="maquette_techonmap_oct_2014.fw-Sprite"
     fit-margin-top="0"
     fit-margin-left="0"
     fit-margin-right="0"
     fit-margin-bottom="0" /><path
     style="fill:none;stroke:#000000;stroke-width:1.13338208;stroke-linecap:round;stroke-linejoin:round;stroke-miterlimit:10"
     inkscape:connector-curvature="0"
     id="path5"
     d="m 598.67672,23.389855 c 0,-8.732707 -7.07798,-15.8050125 -15.805,-15.8050125 -8.72705,0 -15.80503,7.0779735 -15.80503,15.8050125 0,7.90535 5.80291,14.456317 13.37957,15.623678 l 0,0 0,0 c 0.11332,0.01712 0.22101,0.03402 0.33434,0.04534 1.1844,0.328683 2.09111,2.357434 2.09111,4.811208 0,-2.459445 0.90669,-4.482525 2.09107,-4.811208 0.11331,-0.01691 0.22668,-0.02828 0.33435,-0.04534 l 0,0 0,0 c 7.58233,-1.167361 13.37958,-7.718328 13.37958,-15.623678 z"
     class="st0" /><path
     style="fill:#c3d467;fill-opacity:1;stroke:none;stroke-width:1.13338208;stroke-linecap:round;stroke-linejoin:round;stroke-miterlimit:10;stroke-opacity:1"
     inkscape:connector-curvature="0"
     id="path5-9"
     d="m 598.19732,23.410364 c 0,-8.500938 -6.89013,-15.3855432 -15.38553,-15.3855432 -8.49543,0 -15.38556,6.8901222 -15.38556,15.3855432 0,7.695539 5.6489,14.072641 13.02447,15.20902 l 0,0 0,0 c 0.11031,0.01667 0.21515,0.03312 0.32547,0.04414 1.15296,0.31996 2.03561,2.294867 2.03561,4.683517 0,-2.394171 0.88263,-4.363557 2.03557,-4.683517 0.1103,-0.01646 0.22067,-0.02753 0.32548,-0.04414 l 0,0 0,0 c 7.38109,-1.136379 13.02448,-7.513481 13.02448,-15.20902 z"
     class="st0" /><path
     style="opacity:1;fill:#000000;fill-opacity:1;fill-rule:nonzero;stroke:none;stroke-width:0.1;stroke-miterlimit:4;stroke-dasharray:none;stroke-opacity:1"
     d="m 573.34446,21.884144 c 0,2.405618 0,4.811238 0,7.216856 6.32174,0 12.64348,0 18.96523,0 0,-2.405618 0,-4.811238 0,-7.216856 -6.32175,0 -12.64349,0 -18.96523,0 z"
     id="rect7393-6"
     inkscape:connector-curvature="0" /><path
     style="color:#000000;solid-color:#000000"
     d="m 573.67503,17.679424 c 5.96975,0 11.93952,0 17.90928,0 0.61976,-0.07439 1.43604,0.130361 1.42168,0.903955 0,3.202762 0,6.405524 0,9.608286 0.0744,0.619765 -0.13036,1.43604 -0.90395,1.421686 -5.96976,0 -11.93952,0 -17.90928,0 -0.61977,0.07439 -1.43604,-0.130362 -1.42169,-0.903956 0,-3.202761 0,-6.405523 0,-9.608285 -0.0744,-0.619765 0.13036,-1.43604 0.90396,-1.421686 z"
     id="path4183"
     inkscape:connector-curvature="0" /><path
     style="color:#000000;solid-color:#000000;solid-opacity:1"
     d="m 573.67503,18.409432 c -0.0936,-0.003 -0.17694,0.08039 -0.17395,0.173947 0,3.140007 0,6.280013 0,9.42002 0.061,0.282307 -0.15142,0.751452 0.17395,0.879943 5.907,0 11.814,0 17.72101,0 0.28231,-0.06095 0.75145,0.151422 0.87994,-0.173947 0,-3.140006 0,-6.280013 0,-9.42002 -0.061,-0.282307 0.15142,-0.75145 -0.17394,-0.879943 -6.14234,0 -12.28468,0 -18.42701,0 z"
     id="path7"
     inkscape:connector-curvature="0" /><path
     style="opacity:1;fill:#000000;fill-opacity:1;fill-rule:nonzero;stroke:none;stroke-width:0.1;stroke-miterlimit:4;stroke-dasharray:none;stroke-opacity:1"
     d="m 573.38642,18.317672 c 0,0.671336 0,1.342671 0,2.014007 6.32174,0 12.64348,0 18.96523,0 0,-0.671336 0,-1.342671 0,-2.014007 -6.32175,0 -12.64349,0 -18.96523,0 z"
     id="rect7393"
     inkscape:connector-curvature="0" /><path
     style="color:#000000;fill:#c3d467;fill-opacity:1"
     d="m 574.11593,25.274076 c 2.53895,0 5.07791,0 7.61686,0 0,0.393232 0,0.786463 0,1.179695 -2.53895,0 -5.07791,0 -7.61686,0 0,-0.393232 0,-0.786463 0,-1.179695 z"
     id="rect13-9"
     inkscape:connector-curvature="0" /><path
     style="color:#000000;solid-color:#000000;solid-opacity:1;fill:#c3d467;fill-opacity:1"
     d="m 574.13014,23.232412 c 1.95272,0 3.90543,0 5.85814,0 0,0.407888 0,0.815776 0,1.223663 -1.95271,0 -3.90542,0 -5.85814,0 0,-0.407887 0,-0.815775 0,-1.223663 z"
     id="rect13-9-5"
     inkscape:connector-curvature="0" /><path
     style="color:#000000;solid-color:#000000;solid-opacity:1;fill:#c3d467;fill-opacity:1"
     d="m 572.72317,20.264565 c 6.76471,0 13.52943,0 20.29414,0 0,0.583761 0,1.167521 0,1.751281 -6.76471,0 -13.52943,0 -20.29414,0 0,-0.58376 0,-1.16752 0,-1.751281 z"
     id="rect13-9-5-4"
     inkscape:connector-curvature="0" /></svg>