<?xml version="1.0" encoding="utf-8"?>
<!-- Generator: Adobe Illustrator 16.0.4, SVG Export Plug-In . SVG Version: 6.00 Build 0)  -->
<!DOCTYPE svg PUBLIC "-//W3C//DTD SVG 1.1//EN" "http://www.w3.org/Graphics/SVG/1.1/DTD/svg11.dtd">
<svg version="1.1" id="Calque_1" xmlns="http://www.w3.org/2000/svg" xmlns:xlink="http://www.w3.org/1999/xlink" x="0px" y="0px"
	 width="76.063px" height="76.063px" viewBox="0 0 76.063 76.063" enable-background="new 0 0 76.063 76.063" xml:space="preserve">
<g>
	<path fill="#20C9B8" d="M5.025,19.092l7.202,4.167C17.34,14.364,26.894,8.365,37.894,8.337V0.002
		C23.894,0.029,11.58,7.706,5.025,19.092z"/>
	<path fill="#DB564E" d="M5.057,19.092C1.846,24.67,0,31.133,0,38.032c0,6.933,1.864,13.426,5.104,19.022l7.218-4.167
		c-2.531-4.371-3.986-9.442-3.986-14.855c0-5.38,1.438-10.421,3.939-14.773L5.057,19.092z"/>
	<path fill="#1948C4" d="M37.894,76.062v-8.335c-11-0.027-20.479-5.989-25.604-14.839l-7.233,4.167
		C11.623,68.395,23.894,76.035,37.894,76.062z"/>
	<path fill="#648C02" d="M63.704,52.951C58.559,61.786,48.96,67.728,38,67.728c-0.025,0-0.106-0.001-0.106-0.001v8.335
		c0,0,0.081,0.002,0.106,0.002c14.045,0,26.32-7.62,32.906-18.945L63.704,52.951z"/>
	<path fill="#FF992F" d="M70.922,57.119c3.264-5.611,5.142-12.128,5.142-19.087c0-6.925-1.86-13.412-5.094-19.004l-7.218,4.167
		c2.524,4.367,3.976,9.431,3.976,14.837c0,5.44-1.47,10.535-4.023,14.919L70.922,57.119z"/>
	<path fill="#962EAF" d="M38,0c-0.025,0-0.106,0.002-0.106,0.002v8.335c0,0,0.081-0.001,0.106-0.001
		c10.994,0,20.602,5.979,25.736,14.858l7.209-4.167C64.37,7.656,52.079,0,38,0z"/>
	<path fill="#FFFFFF" d="M38.032,67.728c-16.401,0-29.696-13.295-29.696-29.696S21.631,8.336,38.032,8.336
		s29.696,13.295,29.696,29.696S54.433,67.728,38.032,67.728z"/>
</g>
</svg>
