<?xml version="1.0" encoding="utf-8"?>
<!-- Generator: Adobe Illustrator 16.0.4, SVG Export Plug-In . SVG Version: 6.00 Build 0)  -->
<!DOCTYPE svg PUBLIC "-//W3C//DTD SVG 1.1//EN" "http://www.w3.org/Graphics/SVG/1.1/DTD/svg11.dtd">
<svg version="1.1" id="Calque_1" xmlns="http://www.w3.org/2000/svg" xmlns:xlink="http://www.w3.org/1999/xlink" x="0px" y="0px"
	 width="32.377px" height="27.5px" viewBox="0 0 32.377 27.5" enable-background="new 0 0 32.377 27.5" xml:space="preserve">
<g>
	<g>
		<path d="M22.732,19.5c-2.396,0-4.003-1.146-4.479-1.473c-3.66-0.076-6.609-2.818-6.609-6.062c0-3.294,3.038-6.021,6.771-6.021
			c3.734,0,6.773,2.656,6.773,5.95c0,1.719-0.826,3.317-2.279,4.453l0.405,2.189c0.026,0.146-0.012,0.481-0.105,0.595
			c-0.095,0.114-0.233,0.369-0.381,0.369C22.826,19.5,22.733,19.5,22.732,19.5z M18.415,6.896c-3.182,0-5.771,2.231-5.771,4.974
			c0,2.74,2.59,4.97,5.771,4.97c0.111,0,0.221,0.038,0.309,0.105c0.014,0.012,1.334,1.016,3.496,1.159l-0.35-1.894
			c-0.035-0.191,0.043-0.387,0.202-0.499c1.345-0.952,2.116-2.353,2.116-3.842C24.188,9.128,21.599,6.896,18.415,6.896z"/>
	</g>
	<g>
		<path d="M9.648,22.5c-0.033,0-0.066,0-0.1,0c-0.147,0-0.287-0.088-0.381-0.201s-0.132-0.272-0.105-0.418l0.405-2.199
			c-1.453-1.136-2.279-2.749-2.279-4.469c0-2.819,2.176-5.218,5.292-5.832l0.193,0.98c-2.599,0.513-4.485,2.552-4.485,4.85
			c0,1.49,0.771,2.891,2.115,3.842c0.16,0.112,0.238,0.308,0.203,0.499l-0.35,1.894c2.162-0.143,3.482-1.146,3.496-1.158
			c0.088-0.067,0.197-0.105,0.309-0.105c2.082,0,4.012-0.974,5.036-2.542l0.837,0.547c-1.18,1.806-3.355,2.962-5.711,3.012
			C13.647,21.524,12.042,22.5,9.648,22.5z"/>
	</g>
</g>
</svg>
