<?xml version="1.0" encoding="UTF-8" standalone="no"?>
<!-- Generator: Adobe Illustrator 16.0.4, SVG Export Plug-In . SVG Version: 6.00 Build 0)  -->

<svg
   xmlns:dc="http://purl.org/dc/elements/1.1/"
   xmlns:cc="http://creativecommons.org/ns#"
   xmlns:rdf="http://www.w3.org/1999/02/22-rdf-syntax-ns#"
   xmlns:svg="http://www.w3.org/2000/svg"
   xmlns="http://www.w3.org/2000/svg"
   xmlns:sodipodi="http://sodipodi.sourceforge.net/DTD/sodipodi-0.dtd"
   xmlns:inkscape="http://www.inkscape.org/namespaces/inkscape"
   version="1.1"
   id="Calque_1"
   x="0px"
   y="0px"
   width="27.129px"
   height="27.129px"
   viewBox="8.269 4.582 27.129 27.129"
   enable-background="new 8.269 4.582 27.129 27.129"
   xml:space="preserve"
   inkscape:version="0.91 r13725"
   sodipodi:docname="company.svg"><metadata
     id="metadata3329"><rdf:RDF><cc:Work
         rdf:about=""><dc:format>image/svg+xml</dc:format><dc:type
           rdf:resource="http://purl.org/dc/dcmitype/StillImage" /><dc:title /></cc:Work></rdf:RDF></metadata><defs
     id="defs3327" /><sodipodi:namedview
     pagecolor="#ffffff"
     bordercolor="#666666"
     borderopacity="1"
     objecttolerance="10"
     gridtolerance="10"
     guidetolerance="10"
     inkscape:pageopacity="0"
     inkscape:pageshadow="2"
     inkscape:window-width="1871"
     inkscape:window-height="1056"
     id="namedview3325"
     showgrid="false"
     inkscape:zoom="24.604992"
     inkscape:cx="12.221663"
     inkscape:cy="13.212836"
     inkscape:window-x="49"
     inkscape:window-y="24"
     inkscape:window-maximized="1"
     inkscape:current-layer="Calque_1" /><path
     d="m 29.251491,31.136666 -14.626424,0 c -0.428844,0 -0.779725,-0.350879 -0.779725,-0.779725 l 0,-21.4620569 c 0,-0.4288446 0.350881,-0.7797252 0.779725,-0.7797252 l 14.626424,0 c 0.428855,0 0.779735,0.3508806 0.779735,0.7797252 l 0,21.4620569 c 0,0.428846 -0.35088,0.779725 -0.779735,0.779725 z"
     id="path7"
     inkscape:connector-curvature="0" /><polyline
     class="st0"
     points="188.3,264.7 408.3,218 408.3,262.9 "
     id="polyline9"
     transform="matrix(0.06497745,0,0,0.06497745,2.3053464,-8.4475919)"
     style="fill:none;stroke:#000000;stroke-width:20;stroke-linecap:round;stroke-linejoin:round;stroke-miterlimit:10" /><path
     class="st1"
     d="m 26.470461,14.424465 -9.044866,0 c -0.428844,0 -0.779725,-0.350881 -0.779725,-0.779725 l 0,-1.137111 c 0,-0.428845 0.350881,-0.779725 0.779725,-0.779725 l 9.044866,0 c 0.428853,0 0.779725,0.35088 0.779725,0.779725 l 0,1.137111 c 0,0.428844 -0.350872,0.779725 -0.779725,0.779725 z"
     id="path11"
     inkscape:connector-curvature="0"
     style="fill:#ffffff" /></svg>