<?xml version="1.0" encoding="UTF-8" standalone="no"?>
<!-- Generator: Adobe Illustrator 16.0.4, SVG Export Plug-In . SVG Version: 6.00 Build 0)  -->

<svg
   xmlns:dc="http://purl.org/dc/elements/1.1/"
   xmlns:cc="http://creativecommons.org/ns#"
   xmlns:rdf="http://www.w3.org/1999/02/22-rdf-syntax-ns#"
   xmlns:svg="http://www.w3.org/2000/svg"
   xmlns="http://www.w3.org/2000/svg"
   xmlns:sodipodi="http://sodipodi.sourceforge.net/DTD/sodipodi-0.dtd"
   xmlns:inkscape="http://www.inkscape.org/namespaces/inkscape"
   version="1.1"
   id="Calque_1"
   x="0px"
   y="0px"
   width="27.129px"
   height="27.129px"
   viewBox="8.269 4.582 27.129 27.129"
   enable-background="new 8.269 4.582 27.129 27.129"
   xml:space="preserve"
   inkscape:version="0.48.4 r9939"
   sodipodi:docname="company-1.svg"><metadata
     id="metadata3329"><rdf:RDF><cc:Work
         rdf:about=""><dc:format>image/svg+xml</dc:format><dc:type
           rdf:resource="http://purl.org/dc/dcmitype/StillImage" /><dc:title /></cc:Work></rdf:RDF></metadata><defs
     id="defs3327" /><sodipodi:namedview
     pagecolor="#ffffff"
     bordercolor="#666666"
     borderopacity="1"
     objecttolerance="10"
     gridtolerance="10"
     guidetolerance="10"
     inkscape:pageopacity="0"
     inkscape:pageshadow="2"
     inkscape:window-width="983"
     inkscape:window-height="716"
     id="namedview3325"
     showgrid="false"
     inkscape:zoom="12.302496"
     inkscape:cx="10.349579"
     inkscape:cy="6.2396303"
     inkscape:window-x="291"
     inkscape:window-y="104"
     inkscape:window-maximized="0"
     inkscape:current-layer="Calque_1" /><g
     transform="matrix(1.176705,0,0,1.176705,2.966779,1.3530338)"
     id="g6055"><g
       id="g6057"><path
         inkscape:connector-curvature="0"
         d="m 23.542,22.5 h -7 c -0.276,0 -0.5,-0.277 -0.5,-0.555 V 5.554 c 0,-0.162 0.078,-0.314 0.211,-0.408 0.133,-0.093 0.304,-0.118 0.455,-0.063 l 7,2.447 c 0.199,0.07 0.334,0.259 0.334,0.472 v 13.943 c 0,0.278 -0.224,0.555 -0.5,0.555 z m -6.5,-1 h 6 V 8.356 l -6,-2.098 V 21.5 z"
         id="path6059" /></g><g
       id="g6061"><path
         inkscape:connector-curvature="0"
         d="m 21.542,22.5 h -1 c -0.274,0 -0.5,-0.277 -0.5,-0.555 v -3.33 c 0,-0.162 0.08,-0.314 0.213,-0.408 0.131,-0.094 0.302,-0.118 0.455,-0.062 l 1,0.355 c 0.199,0.07 0.332,0.259 0.332,0.471 v 2.978 c 0,0.274 -0.224,0.551 -0.5,0.551 z"
         id="path6063" /></g><g
       id="g6065"><path
         inkscape:connector-curvature="0"
         d="m 16.542,22.5 h -4 c -0.276,0 -0.5,-0.277 -0.5,-0.555 V 8.001 c 0,-0.174 0.09,-0.336 0.239,-0.427 l 4,-2.447 c 0.152,-0.094 0.348,-0.097 0.504,-0.01 0.158,0.089 0.256,0.256 0.256,0.437 v 16.391 c 0.001,0.278 -0.223,0.555 -0.499,0.555 z m -3.5,-1 h 3 V 6.446 l -3,1.836 V 21.5 z"
         id="path6067" /></g><g
       id="g6069"><path
         inkscape:connector-curvature="0"
         d="m 12.542,22.5 h -3 c -0.276,0 -0.5,-0.277 -0.5,-0.555 v -9.438 c 0,-0.171 0.088,-0.33 0.232,-0.422 0.145,-0.091 0.324,-0.104 0.48,-0.03 l 3,1.408 c 0.176,0.082 0.287,0.258 0.287,0.452 v 8.028 c 10e-4,0.28 -0.223,0.557 -0.499,0.557 z m -2.5,-1 h 2 v -7.266 l -2,-0.938 V 21.5 z"
         id="path6071" /></g><g
       id="g6073"><path
         inkscape:connector-curvature="0"
         d="m 9.542,22.5 h -2 c -0.276,0 -0.5,-0.277 -0.5,-0.555 v -8.028 c 0,-0.163 0.079,-0.315 0.212,-0.409 l 2,-1.408 c 0.153,-0.108 0.352,-0.121 0.519,-0.034 0.166,0.086 0.27,0.257 0.27,0.443 v 9.438 C 10.042,22.223 9.818,22.5 9.542,22.5 z m -1.5,-1 h 1 v -8.027 l -1,0.703 V 21.5 z"
         id="path6075" /></g><g
       id="g6077"><path
         inkscape:connector-curvature="0"
         d="m 27.042,22.5 h -22 c -0.276,0 -0.5,-0.225 -0.5,-0.5 0,-0.275 0.224,-0.5 0.5,-0.5 h 22 c 0.276,0 0.5,0.225 0.5,0.5 0,0.275 -0.224,0.5 -0.5,0.5 z"
         id="path6079" /></g><g
       id="g6081"><path
         inkscape:connector-curvature="0"
         d="m 18.975,9.683 c -0.129,0 -0.258,-0.049 -0.354,-0.146 -0.195,-0.195 -0.195,-0.512 0,-0.707 l 1.998,-1.997 c 0.194,-0.195 0.512,-0.195 0.707,0 0.194,0.195 0.194,0.512 0,0.707 l -1.998,1.997 c -0.099,0.097 -0.226,0.146 -0.353,0.146 z"
         id="path6083" /></g><g
       id="g6085"><path
         inkscape:connector-curvature="0"
         d="m 18.441,13.122 c -0.129,0 -0.256,-0.049 -0.354,-0.146 -0.195,-0.195 -0.195,-0.512 0,-0.707 l 4.619,-4.62 c 0.193,-0.195 0.512,-0.195 0.707,0 0.193,0.195 0.193,0.512 0,0.707 l -4.619,4.62 c -0.096,0.097 -0.226,0.146 -0.353,0.146 z"
         id="path6087" /></g></g></svg>