<?xml version="1.0" encoding="utf-8"?>
<!-- Generator: Adobe Illustrator 16.0.4, SVG Export Plug-In . SVG Version: 6.00 Build 0)  -->
<!DOCTYPE svg PUBLIC "-//W3C//DTD SVG 1.1//EN" "http://www.w3.org/Graphics/SVG/1.1/DTD/svg11.dtd">
<svg version="1.1" id="Calque_1" xmlns="http://www.w3.org/2000/svg" xmlns:xlink="http://www.w3.org/1999/xlink" x="0px" y="0px"
	 width="32.376px" height="27.5px" viewBox="0 0 32.376 27.5" enable-background="new 0 0 32.376 27.5" xml:space="preserve">
<g>
	<g>
		<path d="M23.542,22.5h-7c-0.276,0-0.5-0.278-0.5-0.554V5.554c0-0.162,0.078-0.314,0.211-0.408
			c0.133-0.093,0.303-0.118,0.454-0.063l7,2.447c0.2,0.07,0.335,0.259,0.335,0.472v13.944C24.042,22.222,23.818,22.5,23.542,22.5z
			 M17.042,21.5h6V8.356l-6-2.098V21.5z"/>
	</g>
	<g>
		<path d="M21.542,22.5h-1c-0.276,0-0.5-0.278-0.5-0.554v-3.331c0-0.162,0.079-0.314,0.212-0.408
			c0.132-0.094,0.302-0.118,0.456-0.062l1,0.355c0.199,0.07,0.332,0.259,0.332,0.471v2.976C22.042,22.222,21.818,22.5,21.542,22.5z"
			/>
	</g>
	<g>
		<path d="M16.542,22.5h-4c-0.276,0-0.5-0.278-0.5-0.554V8.001c0-0.174,0.09-0.336,0.239-0.427l4-2.447
			c0.153-0.094,0.348-0.097,0.505-0.01c0.158,0.089,0.256,0.256,0.256,0.437v16.392C17.042,22.222,16.818,22.5,16.542,22.5z
			 M13.042,21.5h3V6.446l-3,1.836V21.5z"/>
	</g>
	<g>
		<path d="M12.542,22.5h-3c-0.276,0-0.5-0.278-0.5-0.554v-9.438c0-0.171,0.088-0.33,0.232-0.422c0.145-0.091,0.324-0.104,0.48-0.03
			l3,1.408c0.176,0.082,0.287,0.258,0.287,0.452v8.029C13.042,22.222,12.818,22.5,12.542,22.5z M10.042,21.5h2v-7.266l-2-0.938V21.5
			z"/>
	</g>
	<g>
		<path d="M9.542,22.5h-2c-0.276,0-0.5-0.278-0.5-0.554v-8.029c0-0.163,0.079-0.315,0.212-0.409l2-1.408
			c0.153-0.108,0.352-0.121,0.519-0.034c0.166,0.086,0.27,0.257,0.27,0.443v9.438C10.042,22.222,9.818,22.5,9.542,22.5z M8.042,21.5
			h1v-8.028l-1,0.704V21.5z"/>
	</g>
	<g>
		<path d="M27.042,22.5h-22c-0.276,0-0.5-0.224-0.5-0.5s0.224-0.5,0.5-0.5h22c0.276,0,0.5,0.224,0.5,0.5S27.318,22.5,27.042,22.5z"
			/>
	</g>
	<g>
		<path d="M18.974,9.683c-0.128,0-0.256-0.049-0.354-0.146c-0.195-0.195-0.195-0.512,0-0.707l1.997-1.997
			c0.195-0.195,0.512-0.195,0.707,0s0.195,0.512,0,0.707l-1.997,1.997C19.229,9.634,19.102,9.683,18.974,9.683z"/>
	</g>
	<g>
		<path d="M18.442,13.122c-0.129,0-0.256-0.049-0.354-0.146c-0.195-0.195-0.195-0.512,0-0.707l4.619-4.62
			c0.195-0.195,0.512-0.195,0.707,0s0.195,0.512,0,0.707l-4.619,4.62C18.698,13.073,18.569,13.122,18.442,13.122z"/>
	</g>
</g>
</svg>
