<?xml version="1.0" encoding="UTF-8" standalone="no"?>
<!-- Generator: Adobe Illustrator 16.0.4, SVG Export Plug-In . SVG Version: 6.00 Build 0)  -->

<svg
   xmlns:dc="http://purl.org/dc/elements/1.1/"
   xmlns:cc="http://creativecommons.org/ns#"
   xmlns:rdf="http://www.w3.org/1999/02/22-rdf-syntax-ns#"
   xmlns:svg="http://www.w3.org/2000/svg"
   xmlns="http://www.w3.org/2000/svg"
   xmlns:sodipodi="http://sodipodi.sourceforge.net/DTD/sodipodi-0.dtd"
   xmlns:inkscape="http://www.inkscape.org/namespaces/inkscape"
   version="1.1"
   id="Calque_1"
   x="0px"
   y="0px"
   width="27.129px"
   height="27.129px"
   viewBox="0 0 27.129 27.129"
   enable-background="new 0 0 27.129 27.129"
   xml:space="preserve"
   inkscape:version="0.48.4 r9939"
   sodipodi:docname="Icone21.svg"><metadata
     id="metadata3374"><rdf:RDF><cc:Work
         rdf:about=""><dc:format>image/svg+xml</dc:format><dc:type
           rdf:resource="http://purl.org/dc/dcmitype/StillImage" /><dc:title></dc:title></cc:Work></rdf:RDF></metadata><defs
     id="defs3372" /><sodipodi:namedview
     pagecolor="#ffffff"
     bordercolor="#666666"
     borderopacity="1"
     objecttolerance="10"
     gridtolerance="10"
     guidetolerance="10"
     inkscape:pageopacity="0"
     inkscape:pageshadow="2"
     inkscape:window-width="640"
     inkscape:window-height="480"
     id="namedview3370"
     showgrid="false"
     inkscape:zoom="8.6991781"
     inkscape:cx="13.5645"
     inkscape:cy="13.5645"
     inkscape:window-x="49"
     inkscape:window-y="24"
     inkscape:window-maximized="0"
     inkscape:current-layer="Calque_1" /><path
     d="M 26.859246,24.426896 H 23.365632 V 5.5805989 c 0,-0.2971765 -0.198717,-0.5594732 -0.436702,-0.6585321 L 14.580431,1.5080241 c -0.141601,-0.059993 -0.299861,-0.03209 -0.436702,0.03488 -0.02499,0.012557 -0.06069,0.00977 -0.08448,0.027904 L 9.3352502,4.9848506 C 9.1579517,5.1118133 9.0865563,5.337835 9.0865563,5.5805989 V 12.736555 L 6.325935,11.238116 c -0.080915,-0.04465 -0.1868179,-0.0572 -0.2724924,-0.05581 -0.074965,0 -0.1535001,0.0293 -0.2248954,0.06278 0.036888,-0.01395 0.066636,-0.03767 0.1059031,-0.04604 -0.073775,0.01674 -0.1499303,0.03349 -0.2153761,0.08232 -0.00357,0.0028 -0.00595,0.0084 -0.00952,0.01116 -0.00476,0.0042 -0.010709,0.0028 -0.015469,0.007 L 3.3523174,13.263939 C 3.1940576,13.395088 3.1381313,13.607157 3.1381313,13.834574 V 24.429686 H 0.68094031 c -0.32841875,0 -0.5949615,0.312524 -0.5949615,0.697598 0,0.385074 0.26654275,0.697598 0.5949615,0.697598 H 26.859246 c 0.328419,0 0.594961,-0.312524 0.594961,-0.697598 0,-0.385074 -0.266542,-0.700388 -0.594961,-0.700388 z m -22.5323817,0 V 14.194534 l 1.189923,-0.982217 v 11.214579 h -1.189923 z m 2.379846,0 V 12.966763 l 2.379846,1.308693 v 10.15144 h -2.379846 z m 3.5697687,0 V 5.9712536 L 13.846248,3.4096752 V 24.426896 h -3.569769 z m 10.709307,0 V 20.8831 c 0,-0.295781 -0.196337,-0.558078 -0.433132,-0.657137 l -1.210152,-0.495294 c -0.183248,-0.07813 -0.356977,-0.04325 -0.514046,0.0865 -0.15826,0.131148 -0.223706,0.343218 -0.223706,0.56924 v 4.040485 H 15.034981 V 3.1473785 l 3.619746,1.4998348 -1.800354,2.0872121 c -0.232035,0.272063 -0.241554,0.7143399 -0.0095,0.986403 0.116612,0.1367291 0.264163,0.2036985 0.416473,0.2036985 0.15231,0 0.30224,-0.068365 0.418853,-0.2036985 l 2.184699,-2.5629736 1.314864,0.5399405 -4.976257,5.8347067 c -0.232035,0.272063 -0.232035,0.71434 0,0.986403 0.116612,0.136729 0.267732,0.203699 0.421232,0.203699 0.15112,0 0.342698,-0.06837 0.459311,-0.203699 l 5.09049,-5.9253943 V 24.426896 h -1.188733 z"
     id="path3368"
     inkscape:connector-curvature="0" /></svg>