<?xml version="1.0" encoding="utf-8"?>
<!-- Generator: Adobe Illustrator 16.0.4, SVG Export Plug-In . SVG Version: 6.00 Build 0)  -->
<!DOCTYPE svg PUBLIC "-//W3C//DTD SVG 1.1//EN" "http://www.w3.org/Graphics/SVG/1.1/DTD/svg11.dtd">
<svg version="1.1" id="Calque_1" xmlns="http://www.w3.org/2000/svg" xmlns:xlink="http://www.w3.org/1999/xlink" x="0px" y="0px"
	 width="24px" height="20px" viewBox="10.25 7.75 24 20" enable-background="new 10.25 7.75 24 20" xml:space="preserve">
<g>
	<g>
		<path d="M22.166,21.828c-0.134,0-0.267-0.051-0.368-0.153L10.916,10.792c-0.204-0.204-0.204-0.534,0-0.737
			c0.204-0.203,0.533-0.203,0.737,0l10.881,10.883c0.204,0.203,0.204,0.533,0,0.736C22.433,21.777,22.3,21.828,22.166,21.828z"/>
	</g>
	<g>
		<path d="M22.166,21.828c-0.134,0-0.267-0.051-0.368-0.153c-0.204-0.203-0.204-0.533,0-0.736L32.754,9.982
			c0.203-0.203,0.533-0.203,0.736,0c0.204,0.204,0.204,0.534,0,0.737L22.534,21.675C22.433,21.777,22.3,21.828,22.166,21.828z"/>
	</g>
	<g>
		<path d="M11.073,26.037c-0.128,0-0.256-0.049-0.354-0.146c-0.195-0.195-0.195-0.512,0-0.707l6.268-6.268
			c0.195-0.195,0.512-0.195,0.707,0s0.195,0.512,0,0.707l-6.268,6.268C11.329,25.988,11.201,26.037,11.073,26.037z"/>
	</g>
	<g>
		<path d="M33.258,26.037c-0.128,0-0.256-0.049-0.354-0.146l-6.267-6.268c-0.195-0.195-0.195-0.512,0-0.707s0.512-0.195,0.707,0
			l6.267,6.268c0.195,0.195,0.195,0.512,0,0.707C33.514,25.988,33.386,26.037,33.258,26.037z"/>
	</g>
	<g>
		<path d="M30.75,27.75h-17c-1.93,0-3.5-1.57-3.5-3.5v-13c0-1.93,1.57-3.5,3.5-3.5h17c1.93,0,3.5,1.57,3.5,3.5v13
			C34.25,26.18,32.68,27.75,30.75,27.75z M13.75,8.75c-1.378,0-2.5,1.122-2.5,2.5v13c0,1.379,1.122,2.5,2.5,2.5h17
			c1.379,0,2.5-1.121,2.5-2.5v-13c0-1.378-1.121-2.5-2.5-2.5H13.75z"/>
	</g>
</g>
</svg>
