<?xml version="1.0" encoding="UTF-8" standalone="no"?>
<!-- Generator: Adobe Illustrator 16.0.4, SVG Export Plug-In . SVG Version: 6.00 Build 0)  -->

<svg
   xmlns:dc="http://purl.org/dc/elements/1.1/"
   xmlns:cc="http://creativecommons.org/ns#"
   xmlns:rdf="http://www.w3.org/1999/02/22-rdf-syntax-ns#"
   xmlns:svg="http://www.w3.org/2000/svg"
   xmlns="http://www.w3.org/2000/svg"
   xmlns:sodipodi="http://sodipodi.sourceforge.net/DTD/sodipodi-0.dtd"
   xmlns:inkscape="http://www.inkscape.org/namespaces/inkscape"
   version="1.1"
   id="Calque_1"
   x="0px"
   y="0px"
   width="27.129px"
   height="27.129px"
   viewBox="8.269 4.582 27.129 27.129"
   enable-background="new 8.269 4.582 27.129 27.129"
   xml:space="preserve"
   inkscape:version="0.48.4 r9939"
   sodipodi:docname="investor.svg"><metadata
     id="metadata3329"><rdf:RDF><cc:Work
         rdf:about=""><dc:format>image/svg+xml</dc:format><dc:type
           rdf:resource="http://purl.org/dc/dcmitype/StillImage" /><dc:title></dc:title></cc:Work></rdf:RDF></metadata><defs
     id="defs3327" /><sodipodi:namedview
     pagecolor="#ffffff"
     bordercolor="#666666"
     borderopacity="1"
     objecttolerance="10"
     gridtolerance="10"
     guidetolerance="10"
     inkscape:pageopacity="0"
     inkscape:pageshadow="2"
     inkscape:window-width="983"
     inkscape:window-height="716"
     id="namedview3325"
     showgrid="false"
     inkscape:zoom="12.302496"
     inkscape:cx="10.349579"
     inkscape:cy="6.2396303"
     inkscape:window-x="161"
     inkscape:window-y="124"
     inkscape:window-maximized="0"
     inkscape:current-layer="Calque_1" /><g
     id="g3057"
     transform="matrix(1.5237391,0,0,1.5237391,8.7915594,4.5793125)"><path
       inkscape:connector-curvature="0"
       d="m 5.336,6.008 c -0.195,0.195 -0.195,0.512 0,0.707 0.098,0.098 0.226,0.146 0.354,0.146 0.127,0 0.256,-0.049 0.354,-0.146 1.316,-1.318 3.615,-1.32 4.935,-0.002 0.195,0.194 0.514,0.194 0.707,0 0.195,-0.195 0.195,-0.514 0,-0.707 C 10.838,5.158 9.709,4.693 8.514,4.693 7.312,4.692 6.185,5.16 5.336,6.008 z"
       id="path3059" /><path
       inkscape:connector-curvature="0"
       d="m 13.341,5.053 c 0.195,-0.195 0.195,-0.513 0,-0.707 -1.291,-1.29 -3.006,-2 -4.828,-2 -1.827,0 -3.543,0.711 -4.837,2.002 -0.194,0.195 -0.194,0.513 0,0.707 0.098,0.099 0.226,0.147 0.354,0.147 0.128,0 0.257,-0.049 0.354,-0.146 1.104,-1.103 2.57,-1.709 4.128,-1.709 1.557,0 3.021,0.605 4.123,1.707 0.195,0.194 0.511,0.194 0.706,-0.001 z"
       id="path3061" /><path
       inkscape:connector-curvature="0"
       d="M 2.371,3.545 C 2.498,3.545 2.627,3.496 2.725,3.399 4.27,1.852 6.326,1 8.513,1 10.691,1 12.745,1.85 14.292,3.393 14.49,3.588 14.806,3.588 15,3.391 15.195,3.197 15.195,2.88 15,2.685 13.261,0.954 10.958,0 8.513,0 6.06,0 3.752,0.957 2.017,2.693 c -0.195,0.195 -0.195,0.511 0,0.706 0.097,0.098 0.225,0.146 0.354,0.146 z"
       id="path3063" /><path
       inkscape:connector-curvature="0"
       d="m 16.5,16.848 h -0.936 v -5.055 c 0,-0.162 -0.111,-0.316 -0.246,-0.41 L 11.701,8.906 C 11.617,8.845 11.502,8.847 11.398,8.847 H 6.033 C 6.023,8.847 6.015,8.824 6.006,8.824 5.926,8.828 5.845,8.828 5.771,8.875 L 1.77,11.377 c -0.146,0.092 -0.204,0.244 -0.204,0.416 v 5.055 H 0.5 c -0.275,0 -0.5,0.225 -0.5,0.5 0,0.277 0.225,0.5 0.5,0.5 H 4 7 16.5 c 0.275,0 0.5,-0.223 0.5,-0.5 0,-0.276 -0.225,-0.5 -0.5,-0.5 z m -12,-0.065 v -2 h 2 v 2 h -2 z m 3.064,0.065 V 14.284 C 7.564,14.009 7.276,13.848 7,13.848 H 4 c -0.275,0 -0.436,0.158 -0.436,0.436 v 2.564 h -1 V 12.07 l 3.531,-2.195 3.468,2.193 v 4.779 H 7.564 z m 3,0 v -5.055 c 0,-0.172 -0.121,-0.299 -0.266,-0.391 L 7.757,9.848 h 3.484 l 3.32,2.205 v 4.795 h -3.997 z"
       id="path3065" /></g></svg>