<?xml version="1.0" encoding="UTF-8" standalone="no"?>
<!-- Generator: Adobe Illustrator 16.0.4, SVG Export Plug-In . SVG Version: 6.00 Build 0)  -->

<svg
   xmlns:dc="http://purl.org/dc/elements/1.1/"
   xmlns:cc="http://creativecommons.org/ns#"
   xmlns:rdf="http://www.w3.org/1999/02/22-rdf-syntax-ns#"
   xmlns:svg="http://www.w3.org/2000/svg"
   xmlns="http://www.w3.org/2000/svg"
   xmlns:sodipodi="http://sodipodi.sourceforge.net/DTD/sodipodi-0.dtd"
   xmlns:inkscape="http://www.inkscape.org/namespaces/inkscape"
   version="1.1"
   id="Calque_1"
   x="0px"
   y="0px"
   width="27.129px"
   height="27.129px"
   viewBox="8.269 4.582 27.129 27.129"
   enable-background="new 8.269 4.582 27.129 27.129"
   xml:space="preserve"
   inkscape:version="0.48.4 r9939"
   sodipodi:docname="company-1.svg"><metadata
     id="metadata3329"><rdf:RDF><cc:Work
         rdf:about=""><dc:format>image/svg+xml</dc:format><dc:type
           rdf:resource="http://purl.org/dc/dcmitype/StillImage" /><dc:title></dc:title></cc:Work></rdf:RDF></metadata><defs
     id="defs3327" /><sodipodi:namedview
     pagecolor="#ffffff"
     bordercolor="#666666"
     borderopacity="1"
     objecttolerance="10"
     gridtolerance="10"
     guidetolerance="10"
     inkscape:pageopacity="0"
     inkscape:pageshadow="2"
     inkscape:window-width="983"
     inkscape:window-height="716"
     id="namedview3325"
     showgrid="false"
     inkscape:zoom="12.302496"
     inkscape:cx="10.349579"
     inkscape:cy="6.2396303"
     inkscape:window-x="290"
     inkscape:window-y="103"
     inkscape:window-maximized="0"
     inkscape:current-layer="Calque_1" /><g
     transform="matrix(1.1253133,0,0,1.1253133,3.6675513,1.9149674)"
     id="g6320"><g
       id="g6322"><path
         inkscape:connector-curvature="0"
         d="m 23.188,16.75 h -14 c -0.277,0 -0.5,-0.225 -0.5,-0.5 v -7 c 0,-1.379 1.121,-2.5 2.5,-2.5 h 10 c 1.379,0 2.5,1.121 2.5,2.5 v 7 c 0,0.275 -0.225,0.5 -0.5,0.5 z m -13.5,-1 h 13 v -6.5 c 0,-0.827 -0.674,-1.5 -1.5,-1.5 h -10 c -0.828,0 -1.5,0.673 -1.5,1.5 v 6.5 z"
         id="path6324" /></g><g
       id="g6326"><path
         inkscape:connector-curvature="0"
         d="m 23.938,18.75 h -15.5 c -0.998,0 -1.75,-1.111 -1.75,-1.833 v -0.334 c 0,-0.317 0.141,-0.849 1.082,-0.849 0.096,0 0.201,0.002 0.312,0.007 0.111,0.005 0.23,0.009 0.355,0.009 h 15.5 c 0.123,0 0.242,-0.004 0.354,-0.009 0.112,-0.005 0.215,-0.007 0.312,-0.007 0.94,0 1.082,0.531 1.082,0.849 v 0.334 c 0.003,0.722 -0.747,1.833 -1.747,1.833 z m -16.25,-2 v 0.167 c 0,0.222 0.373,0.833 0.75,0.833 h 15.5 c 0.377,0 0.75,-0.611 0.75,-0.833 V 16.75 c -0.022,0 -0.051,0 -0.082,0 L 24.33,16.749 c -0.123,0.004 -0.254,0.001 -0.392,0.001 h -15.5 c -0.137,0 -0.268,0 -0.393,0 H 7.771 c -0.032,0 -0.059,0 -0.083,0 z"
         id="path6328" /></g><g
       id="g6330"><path
         inkscape:connector-curvature="0"
         d="m 21.188,16.75 h -10 c -0.277,0 -0.5,-0.225 -0.5,-0.5 v -7 c 0,-0.276 0.223,-0.5 0.5,-0.5 h 10 c 0.275,0 0.5,0.224 0.5,0.5 v 7 c 0,0.275 -0.225,0.5 -0.5,0.5 z m -9.5,-1 h 9 v -6 h -9 v 6 z"
         id="path6332" /></g><g
       id="g6334"><path
         inkscape:connector-curvature="0"
         d="m 15.104,12.833 c -0.127,0 -0.256,-0.049 -0.354,-0.146 -0.195,-0.195 -0.195,-0.512 0,-0.707 l 2.584,-2.583 c 0.193,-0.195 0.512,-0.195 0.707,0 0.193,0.195 0.193,0.512 0,0.707 l -2.584,2.583 c -0.098,0.097 -0.225,0.146 -0.353,0.146 z"
         id="path6336" /></g><g
       id="g6338"><path
         inkscape:connector-curvature="0"
         d="m 16.104,14.917 c -0.127,0 -0.256,-0.049 -0.354,-0.146 -0.195,-0.195 -0.195,-0.514 0,-0.709 l 4.625,-4.625 c 0.193,-0.195 0.512,-0.195 0.707,0 0.193,0.195 0.193,0.512 0,0.707 l -4.625,4.625 c -0.098,0.099 -0.225,0.148 -0.353,0.148 z"
         id="path6340" /></g><g
       id="g6342"><path
         inkscape:connector-curvature="0"
         d="m 27.688,20.75 h -23 c -0.277,0 -0.5,-0.225 -0.5,-0.5 0,-0.275 0.223,-0.5 0.5,-0.5 h 23 c 0.275,0 0.5,0.225 0.5,0.5 0,0.275 -0.225,0.5 -0.5,0.5 z"
         id="path6344" /></g></g></svg>