<?xml version="1.0" encoding="utf-8"?>
<!-- Generator: Adobe Illustrator 16.0.4, SVG Export Plug-In . SVG Version: 6.00 Build 0)  -->
<!DOCTYPE svg PUBLIC "-//W3C//DTD SVG 1.1//EN" "http://www.w3.org/Graphics/SVG/1.1/DTD/svg11.dtd">
<svg version="1.1" id="Calque_1" xmlns="http://www.w3.org/2000/svg" xmlns:xlink="http://www.w3.org/1999/xlink" x="0px" y="0px"
	 width="32.376px" height="27.5px" viewBox="0 0 32.376 27.5" enable-background="new 0 0 32.376 27.5" xml:space="preserve">
<g>
	<g>
		<path d="M23.188,16.75h-14c-0.277,0-0.5-0.224-0.5-0.5v-7c0-1.379,1.121-2.5,2.5-2.5h10c1.379,0,2.5,1.121,2.5,2.5v7
			C23.688,16.526,23.464,16.75,23.188,16.75z M9.688,15.75h13v-6.5c0-0.827-0.674-1.5-1.5-1.5h-10c-0.828,0-1.5,0.673-1.5,1.5V15.75
			z"/>
	</g>
	<g>
		<path d="M23.938,18.75h-15.5c-0.998,0-1.75-1.112-1.75-1.833v-0.334c0-0.317,0.141-0.849,1.082-0.849
			c0.096,0,0.201,0.003,0.312,0.007c0.111,0.005,0.23,0.009,0.355,0.009h15.5c0.123,0,0.242-0.004,0.355-0.009
			c0.111-0.004,0.215-0.007,0.312-0.007c0.941,0,1.082,0.531,1.082,0.849v0.334C25.688,17.638,24.937,18.75,23.938,18.75z
			 M7.688,16.75v0.167c0,0.221,0.373,0.833,0.75,0.833h15.5c0.377,0,0.75-0.612,0.75-0.833V16.75c-0.023,0-0.051,0-0.082,0
			l-0.277-0.001c-0.123,0.004-0.254,0.001-0.391,0.001h-15.5c-0.137,0-0.268,0-0.393,0H7.771C7.739,16.75,7.712,16.75,7.688,16.75z"
			/>
	</g>
	<g>
		<path d="M21.188,16.75h-10c-0.277,0-0.5-0.224-0.5-0.5v-7c0-0.276,0.223-0.5,0.5-0.5h10c0.275,0,0.5,0.224,0.5,0.5v7
			C21.688,16.526,21.464,16.75,21.188,16.75z M11.688,15.75h9v-6h-9V15.75z"/>
	</g>
	<g>
		<path d="M15.104,12.833c-0.127,0-0.256-0.049-0.354-0.146c-0.195-0.195-0.195-0.512,0-0.707l2.584-2.583
			c0.195-0.195,0.512-0.195,0.707,0s0.195,0.512,0,0.707l-2.584,2.583C15.36,12.784,15.233,12.833,15.104,12.833z"/>
	</g>
	<g>
		<path d="M16.104,14.917c-0.127,0-0.256-0.049-0.354-0.146c-0.195-0.195-0.195-0.512,0-0.707l4.625-4.625
			c0.195-0.195,0.512-0.195,0.707,0s0.195,0.512,0,0.707l-4.625,4.625C16.36,14.868,16.233,14.917,16.104,14.917z"/>
	</g>
	<g>
		<path d="M27.688,20.75h-23c-0.277,0-0.5-0.224-0.5-0.5s0.223-0.5,0.5-0.5h23c0.275,0,0.5,0.224,0.5,0.5S27.964,20.75,27.688,20.75
			z"/>
	</g>
</g>
</svg>
