<?xml version="1.0" encoding="UTF-8" standalone="no"?>
<!-- Generator: Adobe Illustrator 16.0.4, SVG Export Plug-In . SVG Version: 6.00 Build 0)  -->

<svg
   xmlns:dc="http://purl.org/dc/elements/1.1/"
   xmlns:cc="http://creativecommons.org/ns#"
   xmlns:rdf="http://www.w3.org/1999/02/22-rdf-syntax-ns#"
   xmlns:svg="http://www.w3.org/2000/svg"
   xmlns="http://www.w3.org/2000/svg"
   xmlns:sodipodi="http://sodipodi.sourceforge.net/DTD/sodipodi-0.dtd"
   xmlns:inkscape="http://www.inkscape.org/namespaces/inkscape"
   version="1.1"
   id="Calque_1"
   x="0px"
   y="0px"
   width="27.129px"
   height="27.129px"
   viewBox="8.269 4.582 27.129 27.129"
   enable-background="new 8.269 4.582 27.129 27.129"
   xml:space="preserve"
   inkscape:version="0.48.4 r9939"
   sodipodi:docname="education-1.svg"><metadata
     id="metadata3329"><rdf:RDF><cc:Work
         rdf:about=""><dc:format>image/svg+xml</dc:format><dc:type
           rdf:resource="http://purl.org/dc/dcmitype/StillImage" /><dc:title /></cc:Work></rdf:RDF></metadata><defs
     id="defs3327" /><sodipodi:namedview
     pagecolor="#ffffff"
     bordercolor="#666666"
     borderopacity="1"
     objecttolerance="10"
     gridtolerance="10"
     guidetolerance="10"
     inkscape:pageopacity="0"
     inkscape:pageshadow="2"
     inkscape:window-width="983"
     inkscape:window-height="716"
     id="namedview3325"
     showgrid="false"
     inkscape:zoom="12.302496"
     inkscape:cx="10.349579"
     inkscape:cy="6.2396303"
     inkscape:window-x="561"
     inkscape:window-y="197"
     inkscape:window-maximized="0"
     inkscape:current-layer="Calque_1" /><g
     transform="matrix(1.3495226,0,0,1.3495226,0.07869421,0.07878055)"
     id="g6485"><g
       id="g6487"><path
         inkscape:connector-curvature="0"
         d="M 15.98,19.89 C 12.277,19.89 9.634,18.035 9.523,17.953 9.37,17.843 9.291,17.656 9.32,17.47 l 0.788,-5.094 c 0.022,-0.146 0.108,-0.274 0.234,-0.351 0.126,-0.079 0.278,-0.095 0.419,-0.047 l 5.425,1.824 5.427,-1.824 c 0.141,-0.047 0.293,-0.03 0.42,0.046 0.125,0.077 0.211,0.205 0.233,0.351 l 0.787,5.046 c 0.029,0.194 -0.057,0.389 -0.221,0.496 -0.121,0.081 -3.061,1.973 -6.852,1.973 z m -5.621,-2.588 c 0.714,0.434 2.872,1.588 5.622,1.588 2.865,0 5.25,-1.203 6.035,-1.646 l -0.646,-4.127 -5.021,1.688 c -0.104,0.034 -0.216,0.034 -0.318,0 l -5.022,-1.688 -0.65,4.185 z"
         id="path6489" /></g><g
       id="g6491"><path
         inkscape:connector-curvature="0"
         d="m 16.188,14.831 c -0.055,0 -0.106,-0.01 -0.16,-0.025 l -9.5,-3.195 c -0.203,-0.068 -0.34,-0.259 -0.34,-0.474 0,-0.215 0.137,-0.405 0.34,-0.474 l 9.5,-3.192 c 0.104,-0.035 0.216,-0.035 0.318,0 l 9.5,3.192 c 0.205,0.068 0.342,0.259 0.342,0.474 0,0.215 -0.137,0.405 -0.342,0.474 l -9.5,3.195 c -0.05,0.015 -0.105,0.025 -0.158,0.025 z M 8.257,11.136 16.19,13.803 24.121,11.136 16.19,8.471 8.257,11.136 z"
         id="path6493" /></g><g
       id="g6495"><path
         inkscape:connector-curvature="0"
         d="m 17.954,16.453 c -0.259,0 -0.479,-0.216 -0.498,-0.478 l -0.204,-2.658 -3.006,-1.502 c -0.258,-0.098 -0.389,-0.388 -0.293,-0.646 0.098,-0.259 0.386,-0.391 0.645,-0.295 l 3.305,1.609 c 0.183,0.068 0.31,0.236 0.324,0.431 l 0.228,2.985 c 0.021,0.273 -0.187,0.553 -0.461,0.553 -0.015,10e-4 -0.027,10e-4 -0.04,10e-4 z"
         id="path6497" /></g></g></svg>