<?xml version="1.0" encoding="UTF-8" standalone="no"?>
<!-- Generator: Adobe Illustrator 16.0.4, SVG Export Plug-In . SVG Version: 6.00 Build 0)  -->

<svg
   xmlns:osb="http://www.openswatchbook.org/uri/2009/osb"
   xmlns:dc="http://purl.org/dc/elements/1.1/"
   xmlns:cc="http://creativecommons.org/ns#"
   xmlns:rdf="http://www.w3.org/1999/02/22-rdf-syntax-ns#"
   xmlns:svg="http://www.w3.org/2000/svg"
   xmlns="http://www.w3.org/2000/svg"
   xmlns:sodipodi="http://sodipodi.sourceforge.net/DTD/sodipodi-0.dtd"
   xmlns:inkscape="http://www.inkscape.org/namespaces/inkscape"
   version="1.1"
   id="Calque_1"
   x="0px"
   y="0px"
   width="27.129px"
   height="27.129px"
   viewBox="8.269 4.582 27.129 27.129"
   enable-background="new 8.269 4.582 27.129 27.129"
   xml:space="preserve"
   inkscape:version="0.91 r13725"
   sodipodi:docname="education.svg"><metadata
     id="metadata3329"><rdf:RDF><cc:Work
         rdf:about=""><dc:format>image/svg+xml</dc:format><dc:type
           rdf:resource="http://purl.org/dc/dcmitype/StillImage" /><dc:title /></cc:Work></rdf:RDF></metadata><defs
     id="defs3327"><linearGradient
       id="linearGradient4422"
       osb:paint="solid"><stop
         style="stop-color:#000000;stop-opacity:1;"
         offset="0"
         id="stop4424" /></linearGradient></defs><sodipodi:namedview
     pagecolor="#ffffff"
     bordercolor="#666666"
     borderopacity="1"
     objecttolerance="10"
     gridtolerance="10"
     guidetolerance="10"
     inkscape:pageopacity="0"
     inkscape:pageshadow="2"
     inkscape:window-width="1871"
     inkscape:window-height="1056"
     id="namedview3325"
     showgrid="false"
     inkscape:zoom="17.398357"
     inkscape:cx="-7.9326426"
     inkscape:cy="13.212836"
     inkscape:window-x="49"
     inkscape:window-y="24"
     inkscape:window-maximized="1"
     inkscape:current-layer="g3545" /><g
     id="g3545"
     transform="translate(-0.10497659,-0.20570543)"><g
       id="g3448"
       transform="translate(-0.167537,0.11766189)"><polyline
         transform="matrix(0.06640257,0,0,0.06640257,19.307147,-20.245757)"
         class="st0"
         points="-71.7,435.6 148.3,388.9 148.3,433.8  "
         id="polyline3399"
         style="fill:none;stroke:#000000;stroke-width:20;stroke-linecap:round;stroke-linejoin:round;stroke-miterlimit:10" /><path
         d="m 29.579621,8.0284662 -14.947215,0 c -0.438257,0 -0.796832,0.3585686 -0.796832,0.7968257 l 0,21.9327701 c 0,0.438257 0.358575,0.796832 0.796832,0.796832 l 14.947215,0 c 0.438256,0 0.796832,-0.358575 0.796832,-0.796832 l 0,-21.9327701 c 0,-0.4382571 -0.358576,-0.7968257 -0.796832,-0.7968257 z m -2.045193,5.6508568 c 0,0.438257 -0.358576,0.796832 -0.796833,0.796832 l -9.243241,0 c -0.438257,0 -0.796833,-0.358575 -0.796833,-0.796832 l 0,-1.162045 c 0,-0.438256 0.358576,-0.79683 0.796833,-0.79683 l 9.243241,0 c 0.438257,0 0.796833,0.358574 0.796833,0.79683 l 0,1.162045 z"
         id="path3401"
         inkscape:connector-curvature="0" /></g></g></svg>