<?xml version="1.0" encoding="UTF-8" standalone="no"?>
<!-- Generator: Adobe Illustrator 16.0.4, SVG Export Plug-In . SVG Version: 6.00 Build 0)  -->

<svg
   xmlns:osb="http://www.openswatchbook.org/uri/2009/osb"
   xmlns:dc="http://purl.org/dc/elements/1.1/"
   xmlns:cc="http://creativecommons.org/ns#"
   xmlns:rdf="http://www.w3.org/1999/02/22-rdf-syntax-ns#"
   xmlns:svg="http://www.w3.org/2000/svg"
   xmlns="http://www.w3.org/2000/svg"
   xmlns:sodipodi="http://sodipodi.sourceforge.net/DTD/sodipodi-0.dtd"
   xmlns:inkscape="http://www.inkscape.org/namespaces/inkscape"
   version="1.1"
   id="Calque_1"
   x="0px"
   y="0px"
   width="27.129px"
   height="27.129px"
   viewBox="8.269 4.582 27.129 27.129"
   enable-background="new 8.269 4.582 27.129 27.129"
   xml:space="preserve"
   inkscape:version="0.91 r13725"
   sodipodi:docname="education-save.svg"><metadata
     id="metadata3329"><rdf:RDF><cc:Work
         rdf:about=""><dc:format>image/svg+xml</dc:format><dc:type
           rdf:resource="http://purl.org/dc/dcmitype/StillImage" /><dc:title></dc:title></cc:Work></rdf:RDF></metadata><defs
     id="defs3327"><linearGradient
       id="linearGradient4422"
       osb:paint="solid"><stop
         style="stop-color:#000000;stop-opacity:1;"
         offset="0"
         id="stop4424" /></linearGradient></defs><sodipodi:namedview
     pagecolor="#ffffff"
     bordercolor="#666666"
     borderopacity="1"
     objecttolerance="10"
     gridtolerance="10"
     guidetolerance="10"
     inkscape:pageopacity="0"
     inkscape:pageshadow="2"
     inkscape:window-width="1871"
     inkscape:window-height="1056"
     id="namedview3325"
     showgrid="false"
     inkscape:zoom="17.398357"
     inkscape:cx="-0.86300957"
     inkscape:cy="13.212836"
     inkscape:window-x="49"
     inkscape:window-y="24"
     inkscape:window-maximized="1"
     inkscape:current-layer="g3545" /><g
     id="g3545"
     transform="translate(-0.10497659,-0.20570543)"><path
       inkscape:connector-curvature="0"
       id="path7"
       d="m 14.625,7.6152344 c -0.701578,0 -1.279297,0.5777186 -1.279297,1.2792968 l 0,21.4628908 c 0,0.701579 0.577721,1.279297 1.279297,1.279297 l 14.626953,0 c 0.701581,0 1.279297,-0.577719 1.279297,-1.279297 l 0,-21.4628908 c 0,-0.7015774 -0.577715,-1.2792968 -1.279297,-1.2792968 l -14.626953,0 z m 0,1 14.626953,0 c 0.156128,0 0.279297,0.1231851 0.279297,0.2792968 l 0,21.4628908 c 0,0.156114 -0.123167,0.279297 -0.279297,0.279297 l -14.626953,0 c -0.156112,0 -0.279297,-0.123184 -0.279297,-0.279297 l 0,-21.4628908 c 0,-0.1561109 0.123187,-0.2792968 0.279297,-0.2792968 z"
       style="color:#000000;" /></g></svg>
