<?xml version="1.0" encoding="UTF-8" standalone="no"?>
<!-- Generator: Adobe Illustrator 16.0.4, SVG Export Plug-In . SVG Version: 6.00 Build 0)  -->

<svg
   xmlns:osb="http://www.openswatchbook.org/uri/2009/osb"
   xmlns:dc="http://purl.org/dc/elements/1.1/"
   xmlns:cc="http://creativecommons.org/ns#"
   xmlns:rdf="http://www.w3.org/1999/02/22-rdf-syntax-ns#"
   xmlns:svg="http://www.w3.org/2000/svg"
   xmlns="http://www.w3.org/2000/svg"
   xmlns:sodipodi="http://sodipodi.sourceforge.net/DTD/sodipodi-0.dtd"
   xmlns:inkscape="http://www.inkscape.org/namespaces/inkscape"
   version="1.1"
   id="Calque_1"
   x="0px"
   y="0px"
   width="27.129px"
   height="27.129px"
   viewBox="8.269 4.582 27.129 27.129"
   enable-background="new 8.269 4.582 27.129 27.129"
   xml:space="preserve"
   inkscape:version="0.91 r13725"
   sodipodi:docname="education.svg"><metadata
     id="metadata3329"><rdf:RDF><cc:Work
         rdf:about=""><dc:format>image/svg+xml</dc:format><dc:type
           rdf:resource="http://purl.org/dc/dcmitype/StillImage" /><dc:title /></cc:Work></rdf:RDF></metadata><defs
     id="defs3327"><linearGradient
       id="linearGradient4422"
       osb:paint="solid"><stop
         style="stop-color:#000000;stop-opacity:1;"
         offset="0"
         id="stop4424" /></linearGradient></defs><sodipodi:namedview
     pagecolor="#ffffff"
     bordercolor="#666666"
     borderopacity="1"
     objecttolerance="10"
     gridtolerance="10"
     guidetolerance="10"
     inkscape:pageopacity="0"
     inkscape:pageshadow="2"
     inkscape:window-width="1871"
     inkscape:window-height="1056"
     id="namedview3325"
     showgrid="false"
     inkscape:zoom="17.398357"
     inkscape:cx="-0.86300957"
     inkscape:cy="13.212836"
     inkscape:window-x="49"
     inkscape:window-y="24"
     inkscape:window-maximized="1"
     inkscape:current-layer="g3545" /><g
     id="g3545"
     transform="translate(-0.10497659,-0.20570543)"><g
       id="g6144"><rect
         style="opacity:1;fill:#000000;fill-opacity:1;fill-rule:nonzero;stroke:none;stroke-width:0.59322971;stroke-miterlimit:4;stroke-dasharray:none;stroke-opacity:1"
         id="rect4428"
         width="16.14271"
         height="22.523525"
         x="13.792447"
         y="8.4597998" /><path
         style="color:#000000;font-style:normal;font-variant:normal;font-weight:normal;font-stretch:normal;font-size:medium;line-height:normal;font-family:sans-serif;text-indent:0;text-align:start;text-decoration:none;text-decoration-line:none;text-decoration-style:solid;text-decoration-color:#000000;letter-spacing:normal;word-spacing:normal;text-transform:none;direction:ltr;block-progression:tb;writing-mode:lr-tb;baseline-shift:baseline;text-anchor:start;white-space:normal;clip-rule:nonzero;display:inline;overflow:visible;visibility:visible;opacity:1;isolation:auto;mix-blend-mode:normal;color-interpolation:sRGB;color-interpolation-filters:linearRGB;solid-color:#000000;solid-opacity:1;fill:#000000;fill-opacity:1;fill-rule:nonzero;stroke:none;stroke-width:1;stroke-linecap:butt;stroke-linejoin:miter;stroke-miterlimit:4;stroke-dasharray:none;stroke-dashoffset:0;stroke-opacity:1;color-rendering:auto;image-rendering:auto;shape-rendering:auto;text-rendering:auto;enable-background:accumulate"
         d="m 14.625,7.6152344 c -0.701578,0 -1.279297,0.5777186 -1.279297,1.2792968 l 0,21.4628908 c 0,0.701579 0.577721,1.279297 1.279297,1.279297 l 14.626953,0 c 0.701581,0 1.279297,-0.577719 1.279297,-1.279297 l 0,-21.4628908 c 0,-0.7015774 -0.577715,-1.2792968 -1.279297,-1.2792968 l -14.626953,0 z m 0,1 14.626953,0 c 0.156128,0 0.279297,0.1231851 0.279297,0.2792968 l 0,21.4628908 c 0,0.156114 -0.123167,0.279297 -0.279297,0.279297 l -14.626953,0 c -0.156112,0 -0.279297,-0.123184 -0.279297,-0.279297 l 0,-21.4628908 c 0,-0.1561109 0.123187,-0.2792968 0.279297,-0.2792968 z"
         id="path7"
         inkscape:connector-curvature="0" /><path
         style="color:#000000;font-style:normal;font-variant:normal;font-weight:normal;font-stretch:normal;font-size:medium;line-height:normal;font-family:sans-serif;text-indent:0;text-align:start;text-decoration:none;text-decoration-line:none;text-decoration-style:solid;text-decoration-color:#000000;letter-spacing:normal;word-spacing:normal;text-transform:none;direction:ltr;block-progression:tb;writing-mode:lr-tb;baseline-shift:baseline;text-anchor:start;white-space:normal;clip-rule:nonzero;display:inline;overflow:visible;visibility:visible;opacity:1;isolation:auto;mix-blend-mode:normal;color-interpolation:sRGB;color-interpolation-filters:linearRGB;solid-color:#000000;solid-opacity:1;fill:#000000;fill-opacity:1;fill-rule:nonzero;stroke:none;stroke-width:20;stroke-linecap:round;stroke-linejoin:round;stroke-miterlimit:10;stroke-dasharray:none;stroke-dashoffset:0;stroke-opacity:1;color-rendering:auto;image-rendering:auto;shape-rendering:auto;text-rendering:auto;enable-background:accumulate"
         d="m 28.816527,5.0679718 a 0.64983948,0.64983948 0 0 0 -0.115868,0.01396 L 14.40562,8.1163277 a 0.64983948,0.64983948 0 1 0 0.269935,1.2712481 l 13.51036,-2.8678915 0,2.1153207 a 0.64983948,0.64983948 0 1 0 1.299549,0 l 0,-2.9175128 A 0.64983948,0.64983948 0 0 0 28.816527,5.0679718 Z"
         id="polyline9"
         inkscape:connector-curvature="0" /><path
         style="color:#000000;font-style:normal;font-variant:normal;font-weight:normal;font-stretch:normal;font-size:medium;line-height:normal;font-family:sans-serif;text-indent:0;text-align:start;text-decoration:none;text-decoration-line:none;text-decoration-style:solid;text-decoration-color:#000000;letter-spacing:normal;word-spacing:normal;text-transform:none;direction:ltr;block-progression:tb;writing-mode:lr-tb;baseline-shift:baseline;text-anchor:start;white-space:normal;clip-rule:nonzero;display:inline;overflow:visible;visibility:visible;opacity:1;isolation:auto;mix-blend-mode:normal;color-interpolation:sRGB;color-interpolation-filters:linearRGB;solid-color:#000000;solid-opacity:1;fill:#ffffff;fill-opacity:1;fill-rule:nonzero;stroke:none;stroke-width:1;stroke-linecap:butt;stroke-linejoin:miter;stroke-miterlimit:4;stroke-dasharray:none;stroke-dashoffset:0;stroke-opacity:1;color-rendering:auto;image-rendering:auto;shape-rendering:auto;text-rendering:auto;enable-background:accumulate"
         d="m 17.425781,11.125274 c -0.701577,0 -1.279297,0.478927 -1.279297,1.060533 l 0,0.942337 c 0,0.581605 0.577719,1.062152 1.279297,1.062152 l 9.044922,0 c 0.701581,0 1.279297,-0.480552 1.279297,-1.062152 l 0,-0.942337 c 0,-0.5816 -0.577716,-1.060533 -1.279297,-1.060533 l -9.044922,0 z m 0,0.828998 9.044922,0 c 0.156126,0 0.279297,0.102113 0.279297,0.231535 l 0,0.942337 c 0,0.12942 -0.123172,0.233155 -0.279297,0.233155 l -9.044922,0 c -0.15611,0 -0.279297,-0.10374 -0.279297,-0.233155 l 0,-0.942337 c 0,-0.129415 0.123186,-0.231535 0.279297,-0.231535 z"
         id="path11"
         inkscape:connector-curvature="0" /><rect
         style="opacity:1;fill:#ffffff;fill-opacity:1;fill-rule:nonzero;stroke:none;stroke-width:0.60100001;stroke-miterlimit:4;stroke-dasharray:none;stroke-opacity:1"
         id="rect4490"
         width="9.8285141"
         height="2.1266377"
         x="17.005457"
         y="11.766587" /></g></g></svg>