<?xml version="1.0" encoding="UTF-8" standalone="no"?>
<!-- Generator: Adobe Illustrator 16.0.4, SVG Export Plug-In . SVG Version: 6.00 Build 0)  -->

<svg
   xmlns:dc="http://purl.org/dc/elements/1.1/"
   xmlns:cc="http://creativecommons.org/ns#"
   xmlns:rdf="http://www.w3.org/1999/02/22-rdf-syntax-ns#"
   xmlns:svg="http://www.w3.org/2000/svg"
   xmlns="http://www.w3.org/2000/svg"
   xmlns:sodipodi="http://sodipodi.sourceforge.net/DTD/sodipodi-0.dtd"
   xmlns:inkscape="http://www.inkscape.org/namespaces/inkscape"
   version="1.1"
   id="Calque_1"
   x="0px"
   y="0px"
   width="27.129px"
   height="27.129px"
   viewBox="8.478 4.582 27.129 27.129"
   enable-background="new 8.478 4.582 27.129 27.129"
   xml:space="preserve"
   inkscape:version="0.48.4 r9939"
   sodipodi:docname="export-1.svg"><metadata
     id="metadata5319"><rdf:RDF><cc:Work
         rdf:about=""><dc:format>image/svg+xml</dc:format><dc:type
           rdf:resource="http://purl.org/dc/dcmitype/StillImage" /><dc:title /></cc:Work></rdf:RDF></metadata><defs
     id="defs5317" /><sodipodi:namedview
     pagecolor="#ffffff"
     bordercolor="#666666"
     borderopacity="1"
     objecttolerance="10"
     gridtolerance="10"
     guidetolerance="10"
     inkscape:pageopacity="0"
     inkscape:pageshadow="2"
     inkscape:window-width="1211"
     inkscape:window-height="480"
     id="namedview5315"
     showgrid="false"
     inkscape:zoom="8.6991781"
     inkscape:cx="13.5645"
     inkscape:cy="13.5645"
     inkscape:window-x="165"
     inkscape:window-y="299"
     inkscape:window-maximized="0"
     inkscape:current-layer="Calque_1" /><g
     transform="matrix(0.84025988,0,0,0.84025988,3.5637329,3.5682868)"
     id="g5541"><g
       id="g5543"><path
         inkscape:connector-curvature="0"
         d="m 24.438,20.255 c -0.065,0 -0.132,-0.013 -0.195,-0.04 C 24.042,20.13 23.92,19.924 23.94,19.706 24.504,13.945 28.742,9.697 30.063,8.501 L 27.58,5.573 C 27.454,5.425 27.426,5.217 27.507,5.04 27.589,4.863 27.767,4.75 27.961,4.75 h 8.957 c 0.276,0 0.5,0.224 0.5,0.5 v 9.544 c 0,0.202 -0.122,0.385 -0.309,0.462 -0.185,0.079 -0.401,0.035 -0.545,-0.108 l -2.439,-2.441 c -2.37,-0.172 -7.541,5.292 -9.307,7.372 -0.096,0.114 -0.237,0.176 -0.38,0.176 z M 29.041,5.75 31.145,8.231 c 0.087,0.102 0.129,0.235 0.117,0.369 -0.013,0.134 -0.078,0.257 -0.182,0.342 -0.05,0.041 -4.569,3.792 -5.86,9.177 2.177,-2.372 6.726,-6.863 9.234,-6.376 0.099,0.019 0.188,0.066 0.259,0.137 l 1.705,1.707 V 5.75 h -7.377 z"
         id="path5545" /></g><g
       id="g5547"><path
         inkscape:connector-curvature="0"
         d="m 34.084,30.752 h -24 c -2.09,0 -3.666,-1.368 -3.666,-3.184 V 8.724 c 0,-2.006 1.816,-3.974 3.666,-3.974 h 14.334 c 0.276,0 0.5,0.224 0.5,0.5 0,0.276 -0.224,0.5 -0.5,0.5 H 10.084 c -1.32,0 -2.666,1.501 -2.666,2.974 v 18.844 c 0,1.418 1.374,2.184 2.666,2.184 h 24 c 1.418,0 2.334,-0.857 2.334,-2.184 V 17.75 c 0,-0.276 0.224,-0.5 0.5,-0.5 0.276,0 0.5,0.224 0.5,0.5 v 9.818 c 0,1.905 -1.34,3.184 -3.334,3.184 z"
         id="path5549" /></g></g></svg>