<?xml version="1.0" encoding="utf-8"?>
<!-- Generator: Adobe Illustrator 16.0.4, SVG Export Plug-In . SVG Version: 6.00 Build 0)  -->
<!DOCTYPE svg PUBLIC "-//W3C//DTD SVG 1.1//EN" "http://www.w3.org/Graphics/SVG/1.1/DTD/svg11.dtd">
<svg version="1.1" id="Calque_1" xmlns="http://www.w3.org/2000/svg" xmlns:xlink="http://www.w3.org/1999/xlink" x="0px" y="0px"
	 width="14.307px" height="14.343px" viewBox="4.763 3.578 14.307 14.343" enable-background="new 4.763 3.578 14.307 14.343"
	 xml:space="preserve">
<g>
	<path d="M18.57,17.921h-3.838c-0.276,0-0.5-0.224-0.5-0.5v-6.086c0-0.276,0.224-0.5,0.5-0.5h1.604l0.179-1.372h-1.782
		c-0.276,0-0.5-0.224-0.5-0.5V7.448c0-0.409,0-1.654,1.678-1.654l0.756,0V4.626c-0.337-0.025-0.813-0.048-1.33-0.048
		c-1.621,0-2.551,0.96-2.551,2.636v1.749c0,0.276-0.224,0.5-0.5,0.5h-1.549v1.372h1.549c0.133,0,0.26,0.053,0.354,0.146
		s0.146,0.221,0.146,0.354l-0.002,6.086c0,0.276-0.224,0.5-0.5,0.5h-7.02c-0.276,0-0.5-0.224-0.5-0.5s0.224-0.5,0.5-0.5h6.52
		l0.002-5.086h-1.549c-0.276,0-0.5-0.224-0.5-0.5V8.963c0-0.276,0.224-0.5,0.5-0.5h1.549V7.214c0-2.208,1.394-3.636,3.551-3.636
		c0.945,0,1.704,0.073,1.896,0.098c0.249,0.033,0.435,0.245,0.435,0.496v2.121c0,0.276-0.224,0.5-0.5,0.5L15.91,6.794
		c-0.645,0-0.678,0.168-0.678,0.654v1.015h1.852c0.144,0,0.28,0.062,0.376,0.17c0.095,0.108,0.139,0.252,0.12,0.395l-0.309,2.372
		c-0.032,0.249-0.245,0.436-0.496,0.436h-1.543v5.086h3.338c0.276,0,0.5,0.224,0.5,0.5S18.847,17.921,18.57,17.921z"/>
</g>
</svg>
