<?xml version="1.0" encoding="utf-8"?>
<!-- Generator: Adobe Illustrator 16.0.4, SVG Export Plug-In . SVG Version: 6.00 Build 0)  -->
<!DOCTYPE svg PUBLIC "-//W3C//DTD SVG 1.1//EN" "http://www.w3.org/Graphics/SVG/1.1/DTD/svg11.dtd">
<svg version="1.1" id="Calque_1" xmlns="http://www.w3.org/2000/svg" xmlns:xlink="http://www.w3.org/1999/xlink" x="0px" y="0px"
	 width="27.129px" height="27.129px" viewBox="8.269 4.582 27.129 27.129" enable-background="new 8.269 4.582 27.129 27.129"
	 xml:space="preserve">
<g>
	<g>
		<path d="M23.542,21.75h-4c-0.276,0-0.5-0.224-0.5-0.5v-1.479c0-0.216,0.139-0.407,0.344-0.475l4-1.314
			c0.152-0.05,0.32-0.024,0.449,0.07c0.13,0.095,0.207,0.245,0.207,0.405v2.792C24.042,21.526,23.818,21.75,23.542,21.75z
			 M20.042,20.75h3v-1.602l-3,0.985V20.75z"/>
	</g>
	<g>
		<path d="M21.833,31.711c-7.479,0-13.564-6.085-13.564-13.564S14.354,4.582,21.833,4.582s13.564,6.085,13.564,13.565
			S29.312,31.711,21.833,31.711z M21.833,5.625c-6.904,0-12.521,5.617-12.521,12.522c0,6.904,5.617,12.521,12.521,12.521
			s12.521-5.617,12.521-12.521C34.354,11.242,28.737,5.625,21.833,5.625z"/>
	</g>
	<g>
		<path d="M21.833,27.979c-1.201,0-2.178-0.977-2.178-2.178c0-1.2,0.977-2.177,2.178-2.177s2.178,0.977,2.178,2.177
			C24.011,27.003,23.034,27.979,21.833,27.979z M21.833,24.668c-0.626,0-1.135,0.509-1.135,1.134c0,0.626,0.509,1.135,1.135,1.135
			s1.135-0.509,1.135-1.135C22.968,25.177,22.459,24.668,21.833,24.668z"/>
	</g>
	<g>
		<path d="M23.523,18.979c-0.194,0-0.381-0.109-0.47-0.296c-0.125-0.26-0.015-0.571,0.244-0.696
			c1.279-0.613,2.105-1.923,2.105-3.339c0-2.039-1.658-3.697-3.697-3.697s-3.698,1.659-3.698,3.697c0,0.288-0.233,0.521-0.521,0.521
			s-0.521-0.233-0.521-0.521c0-2.614,2.126-4.74,4.741-4.74c2.613,0,4.74,2.126,4.74,4.74c0,1.814-1.059,3.495-2.697,4.279
			C23.676,18.963,23.6,18.979,23.523,18.979z"/>
	</g>
	<g>
		
			<path fill="none" stroke="#000000" stroke-width="1.0426" stroke-linecap="round" stroke-linejoin="round" stroke-miterlimit="10" d="
			M21.708,22.402"/>
	</g>
</g>
</svg>
