<?xml version="1.0" encoding="UTF-8" standalone="no"?>
<!-- Generator: Adobe Illustrator 16.0.4, SVG Export Plug-In . SVG Version: 6.00 Build 0)  -->

<svg
   xmlns:dc="http://purl.org/dc/elements/1.1/"
   xmlns:cc="http://creativecommons.org/ns#"
   xmlns:rdf="http://www.w3.org/1999/02/22-rdf-syntax-ns#"
   xmlns:svg="http://www.w3.org/2000/svg"
   xmlns="http://www.w3.org/2000/svg"
   xmlns:sodipodi="http://sodipodi.sourceforge.net/DTD/sodipodi-0.dtd"
   xmlns:inkscape="http://www.inkscape.org/namespaces/inkscape"
   version="1.1"
   id="Calque_1"
   x="0px"
   y="0px"
   width="14.042px"
   height="14.042px"
   viewBox="4.875 3.729 14.042 14.042"
   enable-background="new 4.875 3.729 14.042 14.042"
   xml:space="preserve"
   inkscape:version="0.48.4 r9939"
   sodipodi:docname="web.svg"><metadata
     id="metadata3494"><rdf:RDF><cc:Work
         rdf:about=""><dc:format>image/svg+xml</dc:format><dc:type
           rdf:resource="http://purl.org/dc/dcmitype/StillImage" /><dc:title></dc:title></cc:Work></rdf:RDF></metadata><defs
     id="defs3492" /><sodipodi:namedview
     pagecolor="#ffffff"
     bordercolor="#666666"
     borderopacity="1"
     objecttolerance="10"
     gridtolerance="10"
     guidetolerance="10"
     inkscape:pageopacity="0"
     inkscape:pageshadow="2"
     inkscape:window-width="1391"
     inkscape:window-height="876"
     id="namedview3490"
     showgrid="false"
     inkscape:zoom="16.806723"
     inkscape:cx="-3.451"
     inkscape:cy="11.781"
     inkscape:window-x="49"
     inkscape:window-y="24"
     inkscape:window-maximized="1"
     inkscape:current-layer="Calque_1" /><g
     id="g3651"
     transform="matrix(0.43103125,0,0,0.43103125,4.9995,3.913)"
     style="fill:#000000;fill-opacity:1"><path
       style="fill:#000000;fill-opacity:1"
       inkscape:connector-curvature="0"
       d="m 16.425,18.415 c -0.897,-0.634 -2.609,-2.176 -2.609,-3.083 0,-1.062 0.303,-1.586 1.902,-2.835 1.638,-1.281 2.799,-3.38 2.799,-5.476 C 18.517,4.529 17.405,3 15.321,1 h 3.144 l 2.218,-1 c 0,0 -7.434,0 -9.913,0 -4.445,0 -8.626,3.362 -8.626,7.261 0,3.986 3.029,7.201 7.551,7.201 0.314,0 0.619,-0.008 0.919,-0.028 -0.294,0.56 -0.503,1.192 -0.503,1.849 0,1.108 0.596,2.006 1.348,2.74 -0.567,0 -1.118,0.016 -1.717,0.016 C 4.235,19.038 0,22.543 0,26.179 0,29.758 4.645,32 10.148,32 c 6.276,0 9.741,-3.562 9.741,-7.142 0.001,-2.871 -0.847,-4.589 -3.464,-6.443 z M 11.129,13.448 C 8.574,13.372 6.148,10.591 5.707,7.239 5.267,3.884 6.979,1.317 9.531,1.393 c 2.554,0.078 4.981,2.768 5.423,6.122 0.441,3.355 -1.273,6.009 -3.825,5.933 z m -1.001,16.967 c -3.805,0 -6.553,-2.407 -6.553,-5.301 0,-2.834 3.408,-5.195 7.214,-5.154 0.888,0.01 1.715,0.152 2.465,0.395 2.066,1.438 3.548,2.25 3.968,3.885 0.076,0.332 0.121,0.675 0.121,1.023 0,2.892 -1.865,5.152 -7.215,5.152 z"
       id="path3653" /><polygon
       style="fill:#000000;fill-opacity:1"
       points="32,14 27,14 27,9 25,9 25,14 20,14 20,16 25,16 25,21 27,21 27,16 32,16 "
       id="polygon3655" /></g><g
     id="g3657"
     transform="matrix(0.43103125,0,0,0.43103125,4.9995,3.913)" /><g
     id="g3659"
     transform="matrix(0.43103125,0,0,0.43103125,4.9995,3.913)" /><g
     id="g3661"
     transform="matrix(0.43103125,0,0,0.43103125,4.9995,3.913)" /><g
     id="g3663"
     transform="matrix(0.43103125,0,0,0.43103125,4.9995,3.913)" /><g
     id="g3665"
     transform="matrix(0.43103125,0,0,0.43103125,4.9995,3.913)" /><g
     id="g3667"
     transform="matrix(0.43103125,0,0,0.43103125,4.9995,3.913)" /></svg>