<?xml version="1.0" encoding="UTF-8" standalone="no"?>
<!-- Generator: Adobe Illustrator 16.0.4, SVG Export Plug-In . SVG Version: 6.00 Build 0)  -->

<svg
   xmlns:dc="http://purl.org/dc/elements/1.1/"
   xmlns:cc="http://creativecommons.org/ns#"
   xmlns:rdf="http://www.w3.org/1999/02/22-rdf-syntax-ns#"
   xmlns:svg="http://www.w3.org/2000/svg"
   xmlns="http://www.w3.org/2000/svg"
   xmlns:sodipodi="http://sodipodi.sourceforge.net/DTD/sodipodi-0.dtd"
   xmlns:inkscape="http://www.inkscape.org/namespaces/inkscape"
   version="1.1"
   id="Calque_1"
   x="0px"
   y="0px"
   width="27.129px"
   height="27.129px"
   viewBox="8.478 4.582 27.129 27.129"
   enable-background="new 8.478 4.582 27.129 27.129"
   xml:space="preserve"
   inkscape:version="0.48.4 r9939"
   sodipodi:docname="export-1.svg"><metadata
     id="metadata5319"><rdf:RDF><cc:Work
         rdf:about=""><dc:format>image/svg+xml</dc:format><dc:type
           rdf:resource="http://purl.org/dc/dcmitype/StillImage" /><dc:title></dc:title></cc:Work></rdf:RDF></metadata><defs
     id="defs5317" /><sodipodi:namedview
     pagecolor="#ffffff"
     bordercolor="#666666"
     borderopacity="1"
     objecttolerance="10"
     gridtolerance="10"
     guidetolerance="10"
     inkscape:pageopacity="0"
     inkscape:pageshadow="2"
     inkscape:window-width="1211"
     inkscape:window-height="480"
     id="namedview5315"
     showgrid="false"
     inkscape:zoom="12.302496"
     inkscape:cx="15.887666"
     inkscape:cy="20.288402"
     inkscape:window-x="229"
     inkscape:window-y="307"
     inkscape:window-maximized="0"
     inkscape:current-layer="Calque_1" /><g
     transform="matrix(1.0439401,0,0,1.0439401,-0.97500057,-0.7085795)"
     id="g5751"><g
       id="g5753"><path
         inkscape:connector-curvature="0"
         d="m 22.042,22.068 c -2.162,0 -3.922,-1.76 -3.922,-3.922 0,-2.163 1.76,-3.922 3.922,-3.922 2.162,0 3.922,1.76 3.922,3.922 0,2.163 -1.76,3.922 -3.922,3.922 z m 0,-6.844 c -1.611,0 -2.922,1.311 -2.922,2.922 0,1.611 1.311,2.922 2.922,2.922 1.611,0 2.922,-1.311 2.922,-2.922 0,-1.611 -1.311,-2.922 -2.922,-2.922 z"
         id="path5755" /></g><g
       id="g5757"><path
         inkscape:connector-curvature="0"
         d="m 22.042,31.068 c -7.125,0 -12.922,-5.797 -12.922,-12.922 0,-7.125 5.797,-12.922 12.922,-12.922 7.125,0 12.922,5.797 12.922,12.922 0,7.125 -5.797,12.922 -12.922,12.922 z m 0,-24.844 c -6.574,0 -11.922,5.348 -11.922,11.922 0,6.574 5.348,11.922 11.922,11.922 6.574,0 11.922,-5.348 11.922,-11.922 0,-6.574 -5.348,-11.922 -11.922,-11.922 z"
         id="path5759" /></g><g
       id="g5761"><path
         inkscape:connector-curvature="0"
         d="m 22.042,26.77 c -4.755,0 -8.623,-3.868 -8.623,-8.623 0,-4.755 3.868,-8.624 8.623,-8.624 4.755,0 8.623,3.869 8.623,8.624 0,4.755 -3.868,8.623 -8.623,8.623 z m 0,-16.247 c -4.203,0 -7.623,3.42 -7.623,7.624 0,4.203 3.42,7.623 7.623,7.623 4.203,0 7.623,-3.42 7.623,-7.623 0,-4.204 -3.42,-7.624 -7.623,-7.624 z"
         id="path5763" /></g></g></svg>