<?xml version="1.0" encoding="utf-8"?>
<!-- Generator: Adobe Illustrator 16.0.4, SVG Export Plug-In . SVG Version: 6.00 Build 0)  -->
<!DOCTYPE svg PUBLIC "-//W3C//DTD SVG 1.1//EN" "http://www.w3.org/Graphics/SVG/1.1/DTD/svg11.dtd">
<svg version="1.1" id="Calque_1" xmlns="http://www.w3.org/2000/svg" xmlns:xlink="http://www.w3.org/1999/xlink" x="0px" y="0px"
	 width="16px" height="19.421px" viewBox="8.188 4.04 16 19.421" enable-background="new 8.188 4.04 16 19.421"
	 xml:space="preserve">
<g>
	<path d="M16.188,23.461c-0.18,0-0.344-0.096-0.434-0.25l-2.062-3.572c-3.216-1.056-5.417-4.006-5.501-7.404
		c-0.107-4.41,3.393-8.085,7.803-8.193l0.196-0.002c4.377,0,7.89,3.429,7.996,7.805c0.084,3.52-2.166,6.693-5.5,7.789l-2.065,3.578
		C16.532,23.365,16.366,23.461,16.188,23.461z M16.189,5.039l-0.174,0.002C12.159,5.136,9.096,8.352,9.19,12.21
		c0.074,3.032,2.076,5.657,4.98,6.53c0.123,0.035,0.227,0.117,0.289,0.229l1.729,2.992l1.73-2.997
		c0.062-0.11,0.166-0.192,0.287-0.229c3.01-0.903,5.057-3.729,4.979-6.865C23.092,8.039,20.021,5.039,16.189,5.039z"/>
</g>
</svg>
