<?xml version="1.0" encoding="UTF-8" standalone="no"?>
<!-- Generator: Adobe Illustrator 16.0.4, SVG Export Plug-In . SVG Version: 6.00 Build 0)  -->

<svg
   xmlns:dc="http://purl.org/dc/elements/1.1/"
   xmlns:cc="http://creativecommons.org/ns#"
   xmlns:rdf="http://www.w3.org/1999/02/22-rdf-syntax-ns#"
   xmlns:svg="http://www.w3.org/2000/svg"
   xmlns="http://www.w3.org/2000/svg"
   xmlns:sodipodi="http://sodipodi.sourceforge.net/DTD/sodipodi-0.dtd"
   xmlns:inkscape="http://www.inkscape.org/namespaces/inkscape"
   version="1.1"
   id="Calque_1"
   x="0px"
   y="0px"
   width="27.129px"
   height="27.129px"
   viewBox="8.269 4.582 27.129 27.129"
   enable-background="new 8.269 4.582 27.129 27.129"
   xml:space="preserve"
   inkscape:version="0.91 r13725"
   sodipodi:docname="incubator.svg"><metadata
     id="metadata3329"><rdf:RDF><cc:Work
         rdf:about=""><dc:format>image/svg+xml</dc:format><dc:type
           rdf:resource="http://purl.org/dc/dcmitype/StillImage" /><dc:title></dc:title></cc:Work></rdf:RDF></metadata><defs
     id="defs3327" /><sodipodi:namedview
     pagecolor="#ffffff"
     bordercolor="#666666"
     borderopacity="1"
     objecttolerance="10"
     gridtolerance="10"
     guidetolerance="10"
     inkscape:pageopacity="0"
     inkscape:pageshadow="2"
     inkscape:window-width="1871"
     inkscape:window-height="1056"
     id="namedview3325"
     showgrid="false"
     inkscape:zoom="24.604992"
     inkscape:cx="6.003413"
     inkscape:cy="13.212836"
     inkscape:window-x="49"
     inkscape:window-y="24"
     inkscape:window-maximized="1"
     inkscape:current-layer="Calque_1" /><g
     id="g4153"
     transform="matrix(0.05305871,0,0,0.05305871,5.5027833,-4.1708539)"><path
       id="path7"
       d="m 542.9,506.8 -267,0 c -6.6,0 -12,-5.4 -12,-12 l 0,-141.6 c 0,-6.6 5.4,-12 12,-12 l 267,0 c 6.6,0 12,5.4 12,12 l 0,141.6 c 0,6.6 -5.4,12 -12,12 z"
       inkscape:connector-curvature="0" /><path
       id="path9"
       d="m 347.1,460.1 -267,0 c -6.6,0 -12,-5.4 -12,-12 l 0,-134.5 c 0,-6.6 5.4,-12 12,-12 l 267,0 c 6.6,0 12,5.4 12,12 l 0,134.5 c 0,6.6 -5.4,12 -12,12 z"
       class="st1"
       inkscape:connector-curvature="0"
       style="fill:#ffffff" /><path
       id="path11"
       d="m 341.8,454.8 -267,0 c -6.6,0 -12,-5.4 -12,-12 l 0,-134.6 c 0,-6.6 5.4,-12 12,-12 l 267,0 c 6.6,0 12,5.4 12,12 l 0,134.5 c 0,6.7 -5.4,12.1 -12,12.1 z"
       inkscape:connector-curvature="0" /><line
       id="line13"
       y2="482.60001"
       x2="114"
       y1="430.5"
       x1="93.199997"
       class="st2"
       style="stroke:#000000;stroke-width:20;stroke-linecap:round;stroke-miterlimit:10" /><line
       id="line15"
       y2="482.60001"
       x2="114"
       y1="430.5"
       x1="134.7"
       class="st2"
       style="stroke:#000000;stroke-width:20;stroke-linecap:round;stroke-miterlimit:10" /><line
       id="line17"
       y2="534.90002"
       x2="514.20001"
       y1="482.89999"
       x1="493.5"
       class="st2"
       style="stroke:#000000;stroke-width:20;stroke-linecap:round;stroke-miterlimit:10" /><line
       id="line19"
       y2="534.90002"
       x2="514.20001"
       y1="482.89999"
       x1="534.90002"
       class="st2"
       style="stroke:#000000;stroke-width:20;stroke-linecap:round;stroke-miterlimit:10" /></g></svg>