<?xml version="1.0" encoding="UTF-8" standalone="no"?>
<!-- Generator: Adobe Illustrator 16.0.4, SVG Export Plug-In . SVG Version: 6.00 Build 0)  -->

<svg
   xmlns:osb="http://www.openswatchbook.org/uri/2009/osb"
   xmlns:dc="http://purl.org/dc/elements/1.1/"
   xmlns:cc="http://creativecommons.org/ns#"
   xmlns:rdf="http://www.w3.org/1999/02/22-rdf-syntax-ns#"
   xmlns:svg="http://www.w3.org/2000/svg"
   xmlns="http://www.w3.org/2000/svg"
   xmlns:sodipodi="http://sodipodi.sourceforge.net/DTD/sodipodi-0.dtd"
   xmlns:inkscape="http://www.inkscape.org/namespaces/inkscape"
   version="1.1"
   id="Calque_1"
   x="0px"
   y="0px"
   width="27.129px"
   height="27.129px"
   viewBox="8.269 4.582 27.129 27.129"
   enable-background="new 8.269 4.582 27.129 27.129"
   xml:space="preserve"
   inkscape:version="0.91 r13725"
   sodipodi:docname="incubator.svg"><metadata
     id="metadata3329"><rdf:RDF><cc:Work
         rdf:about=""><dc:format>image/svg+xml</dc:format><dc:type
           rdf:resource="http://purl.org/dc/dcmitype/StillImage" /><dc:title /></cc:Work></rdf:RDF></metadata><defs
     id="defs3327"><linearGradient
       id="linearGradient5795"
       osb:paint="solid"><stop
         style="stop-color:#ffffff;stop-opacity:1;"
         offset="0"
         id="stop5797" /></linearGradient></defs><sodipodi:namedview
     pagecolor="#ffffff"
     bordercolor="#666666"
     borderopacity="1"
     objecttolerance="10"
     gridtolerance="10"
     guidetolerance="10"
     inkscape:pageopacity="0"
     inkscape:pageshadow="2"
     inkscape:window-width="1871"
     inkscape:window-height="1056"
     id="namedview3325"
     showgrid="false"
     inkscape:zoom="24.604992"
     inkscape:cx="3.5648834"
     inkscape:cy="13.212836"
     inkscape:window-x="49"
     inkscape:window-y="24"
     inkscape:window-maximized="1"
     inkscape:current-layer="Calque_1"
     inkscape:snap-page="true" /><g
     id="g3549"
     transform="translate(-0.27353964,0.30796326)"><path
       inkscape:connector-curvature="0"
       id="path3481"
       d="m 23.371167,11.841321 -13.322969,0 c -0.6334068,0 -1.1487189,0.515312 -1.1487189,1.148718 l 0,6.215955 c 0,0.633403 0.5153121,1.148715 1.1487189,1.148715 l 0.665609,0 c 0.20398,0 0.391852,0.123461 0.467002,0.316705 l 0,0 c 0.166404,0.42406 0.767602,0.42406 0.934004,0 l 0,0 c 0.07515,-0.193244 0.263023,-0.316705 0.467001,-0.316705 l 11.293931,0 c 0.354274,0 0.644141,-0.289864 0.644141,-0.649509 l 0,-6.720531 c 0,-0.628036 -0.515316,-1.143348 -1.148719,-1.143348 z" /><path
       inkscape:connector-curvature="0"
       id="path3483"
       d="m 34.198094,14.256846 -8.921343,0 c -0.263025,0 -0.472372,0.214715 -0.472372,0.472371 l 0,4.788111 c 0,0.6173 -0.504575,1.11651 -1.116509,1.11651 l -3.521301,0 c -0.263025,0 -0.472369,0.214715 -0.472369,0.472369 l 0,0.912533 c 0,0.617302 0.504573,1.116509 1.116509,1.116509 l 11.395918,0 c 0.193241,0 0.37038,0.118094 0.440161,0.3006 l 0.04294,0.101987 c 0.161038,0.397221 0.724661,0.397221 0.880328,0 l 0.04294,-0.101987 c 0.06979,-0.182506 0.246922,-0.3006 0.440164,-0.3006 l 0.144931,0 c 0.617301,0 1.116509,-0.504575 1.116509,-1.116509 l 0,-6.645382 c 0,-0.617302 -0.504575,-1.116512 -1.116509,-1.116512 z" /></g></svg>