<?xml version="1.0" encoding="UTF-8" standalone="no"?>
<!-- Generator: Adobe Illustrator 16.0.4, SVG Export Plug-In . SVG Version: 6.00 Build 0)  -->

<svg
   xmlns:dc="http://purl.org/dc/elements/1.1/"
   xmlns:cc="http://creativecommons.org/ns#"
   xmlns:rdf="http://www.w3.org/1999/02/22-rdf-syntax-ns#"
   xmlns:svg="http://www.w3.org/2000/svg"
   xmlns="http://www.w3.org/2000/svg"
   xmlns:sodipodi="http://sodipodi.sourceforge.net/DTD/sodipodi-0.dtd"
   xmlns:inkscape="http://www.inkscape.org/namespaces/inkscape"
   version="1.1"
   id="Calque_1"
   x="0px"
   y="0px"
   width="27.129px"
   height="27.129px"
   viewBox="8.269 4.582 27.129 27.129"
   enable-background="new 8.269 4.582 27.129 27.129"
   xml:space="preserve"
   inkscape:version="0.48.4 r9939"
   sodipodi:docname="incubator-1.svg"><metadata
     id="metadata3329"><rdf:RDF><cc:Work
         rdf:about=""><dc:format>image/svg+xml</dc:format><dc:type
           rdf:resource="http://purl.org/dc/dcmitype/StillImage" /><dc:title></dc:title></cc:Work></rdf:RDF></metadata><defs
     id="defs3327" /><sodipodi:namedview
     pagecolor="#ffffff"
     bordercolor="#666666"
     borderopacity="1"
     objecttolerance="10"
     gridtolerance="10"
     guidetolerance="10"
     inkscape:pageopacity="0"
     inkscape:pageshadow="2"
     inkscape:window-width="983"
     inkscape:window-height="716"
     id="namedview3325"
     showgrid="false"
     inkscape:zoom="12.302496"
     inkscape:cx="10.349579"
     inkscape:cy="6.2396303"
     inkscape:window-x="566"
     inkscape:window-y="176"
     inkscape:window-maximized="0"
     inkscape:current-layer="Calque_1" /><g
     transform="matrix(1.2533218,0,0,1.2533218,1.6296682,0.92971832)"
     id="g7403"><g
       id="g7405"><g
         id="g7407"><path
           inkscape:connector-curvature="0"
           d="m 16.452,3.136 c -0.162,-0.1 -0.365,-0.1 -0.527,0 -0.204,0.127 -5.033,3.204 -5.033,11.257 0,0.885 0.08,1.688 0.24,2.385 0.035,0.16 0.15,0.293 0.303,0.354 0.365,0.146 1.562,0.75 1.637,2.455 0.008,0.174 0.104,0.331 0.256,0.415 0.48,0.268 1.037,0.454 1.652,0.553 0.271,0.041 0.528,-0.143 0.574,-0.414 0.043,-0.271 -0.144,-0.529 -0.416,-0.574 -0.4,-0.062 -0.767,-0.17 -1.091,-0.317 -0.168,-1.515 -1.082,-2.479 -1.992,-2.933 -0.109,-0.568 -0.164,-1.215 -0.164,-1.922 0,-6.408 3.324,-9.459 4.297,-10.215 0.974,0.756 4.297,3.809 4.297,10.215 0,0.707 -0.057,1.354 -0.164,1.922 -0.909,0.451 -1.823,1.418 -1.991,2.933 -0.347,0.16 -0.735,0.271 -1.183,0.334 -0.008,0.001 -0.016,0.007 -0.021,0.008 0,0.468 0,0.703 0,0.972 0.031,0.006 0.061,0.018 0.094,0.018 0.023,0 0.047,-0.002 0.072,-0.005 0.66,-0.097 1.252,-0.287 1.758,-0.569 0.15,-0.085 0.248,-0.24 0.256,-0.415 0.074,-1.705 1.271,-2.312 1.637,-2.455 0.152,-0.061 0.267,-0.192 0.304,-0.354 0.157,-0.697 0.239,-1.5 0.239,-2.386 C 21.484,6.34 16.657,3.263 16.452,3.136 z"
           id="path7409" /></g><g
         id="g7411"><path
           inkscape:connector-curvature="0"
           d="m 23.229,23.438 h -0.727 c -0.129,0 -0.254,-0.051 -0.348,-0.141 -1.008,-0.977 -3.652,-3.186 -3.68,-3.208 -0.113,-0.095 -0.181,-0.235 -0.181,-0.384 0,-2.273 1.584,-3.368 2.422,-3.63 0.119,-0.036 0.252,-0.029 0.367,0.026 4.758,2.289 2.619,7 2.597,7.047 -0.079,0.178 -0.257,0.29 -0.45,0.29 z m -0.525,-1 h 0.187 c 0.323,-0.914 1.018,-3.736 -2.045,-5.336 -0.419,0.193 -1.449,0.83 -1.541,2.377 0.593,0.5 2.451,2.067 3.399,2.959 z"
           id="path7413" /></g><g
         id="g7415"><path
           inkscape:connector-curvature="0"
           d="M 9.872,23.438 H 9.147 c -0.193,0 -0.369,-0.11 -0.451,-0.287 -0.023,-0.047 -2.162,-4.76 2.596,-7.047 0.115,-0.057 0.246,-0.062 0.365,-0.026 0.838,0.262 2.422,1.354 2.422,3.63 0,0.146 -0.063,0.289 -0.181,0.384 -0.024,0.021 -2.669,2.232 -3.68,3.208 -0.09,0.089 -0.215,0.138 -0.346,0.138 z m -0.387,-1 h 0.188 c 0.947,-0.893 2.803,-2.459 3.4,-2.959 -0.094,-1.547 -1.121,-2.182 -1.541,-2.377 -3.076,1.606 -2.375,4.425 -2.047,5.336 z"
           id="path7417" /></g><g
         id="g7419"><g
           id="g7421"><path
             inkscape:connector-curvature="0"
             d="m 23.229,23.438 h -0.727 c -0.129,0 -0.254,-0.051 -0.348,-0.141 -1.01,-0.977 -3.654,-3.212 -3.682,-3.234 -0.111,-0.095 -0.179,-0.232 -0.179,-0.381 0,-2.279 1.592,-3.341 2.435,-3.584 0.117,-0.033 0.244,-0.022 0.354,0.03 4.758,2.289 2.617,6.976 2.597,7.022 -0.079,0.177 -0.259,0.288 -0.45,0.288 z m -0.525,-1 h 0.187 c 0.323,-0.908 1.018,-3.717 -2.052,-5.312 -0.412,0.184 -1.442,0.789 -1.534,2.331 0.591,0.503 2.451,2.087 3.399,2.981 z"
             id="path7423" /></g><g
           id="g7425"><path
             inkscape:connector-curvature="0"
             d="M 9.872,23.438 H 9.147 c -0.193,0 -0.369,-0.109 -0.451,-0.287 -0.023,-0.047 -2.164,-4.731 2.596,-7.021 0.111,-0.055 0.236,-0.063 0.355,-0.028 0.842,0.241 2.432,1.303 2.432,3.582 0,0.146 -0.063,0.287 -0.177,0.383 -0.026,0.021 -2.673,2.258 -3.684,3.232 -0.09,0.09 -0.215,0.139 -0.346,0.139 z m -0.387,-1 h 0.188 c 0.947,-0.895 2.807,-2.479 3.4,-2.981 -0.092,-1.541 -1.121,-2.146 -1.535,-2.331 -3.082,1.603 -2.381,4.405 -2.053,5.312 z"
             id="path7427" /></g></g></g><g
       id="g7429"><path
         inkscape:connector-curvature="0"
         d="m 16.188,13.377 c -1.104,0 -2,-0.897 -2,-2.001 0,-1.104 0.896,-2.001 2,-2.001 1.104,0 2,0.897 2,2.001 0,1.104 -0.896,2.001 -2,2.001 z m 0,-3.002 c -0.551,0 -1,0.449 -1,1.001 0,0.552 0.449,1.001 1,1.001 0.552,0 1,-0.449 1,-1.001 0,-0.552 -0.449,-1.001 -1,-1.001 z"
         id="path7431" /></g><g
       id="g7433"><path
         inkscape:connector-curvature="0"
         d="m 16.188,9.938 c -0.276,0 -0.5,-0.224 -0.5,-0.5 v -5 c 0,-0.276 0.224,-0.5 0.5,-0.5 0.275,0 0.5,0.224 0.5,0.5 v 5 c 0,0.277 -0.224,0.5 -0.5,0.5 z"
         id="path7435" /></g><g
       id="g7437"><path
         inkscape:connector-curvature="0"
         d="m 16.188,16.938 c -0.276,0 -0.5,-0.224 -0.5,-0.5 v -3 c 0,-0.275 0.224,-0.5 0.5,-0.5 0.275,0 0.5,0.224 0.5,0.5 v 3 c 0,0.277 -0.224,0.5 -0.5,0.5 z"
         id="path7439" /></g><g
       id="g7441"><path
         inkscape:connector-curvature="0"
         d="m 17.688,23.021 c 0,0.783 -0.635,1.416 -1.418,1.416 h -0.164 c -0.782,0 -1.418,-0.633 -1.418,-1.416 v -5.166 c 0,-0.782 0.636,-1.418 1.418,-1.418 h 0.164 c 0.783,0 1.418,0.636 1.418,1.418 v 5.166 z m -1.99,-5.583 c -0.229,0 -0.011,0.188 -0.011,0.418 v 5.166 c 0,0.229 -0.219,0.416 0.011,0.416 h 0.166 c 0.229,0 0.823,-0.188 0.823,-0.416 v -5.166 c 0,-0.229 -0.594,-0.418 -0.823,-0.418 h -0.166 z"
         id="path7443" /></g></g></svg>