<?xml version="1.0" encoding="utf-8"?>
<!-- Generator: Adobe Illustrator 16.0.4, SVG Export Plug-In . SVG Version: 6.00 Build 0)  -->
<!DOCTYPE svg PUBLIC "-//W3C//DTD SVG 1.1//EN" "http://www.w3.org/Graphics/SVG/1.1/DTD/svg11.dtd">
<svg version="1.1" id="Calque_1" xmlns="http://www.w3.org/2000/svg" xmlns:xlink="http://www.w3.org/1999/xlink" x="0px" y="0px"
	 width="32.376px" height="27.5px" viewBox="0 0 32.376 27.5" enable-background="new 0 0 32.376 27.5" xml:space="preserve">
<g>
	<g>
		<g>
			<path d="M16.452,3.136c-0.162-0.1-0.365-0.1-0.527,0c-0.205,0.127-5.033,3.204-5.033,11.257c0,0.884,0.08,1.687,0.24,2.385
				c0.035,0.16,0.15,0.293,0.303,0.354c0.365,0.145,1.562,0.75,1.637,2.455c0.008,0.174,0.104,0.331,0.256,0.415
				c0.48,0.268,1.037,0.454,1.652,0.553c0.271,0.041,0.529-0.143,0.574-0.415c0.043-0.272-0.143-0.529-0.416-0.573
				c-0.4-0.063-0.766-0.171-1.09-0.319c-0.168-1.514-1.082-2.479-1.992-2.932c-0.109-0.569-0.164-1.214-0.164-1.922
				c0-6.407,3.324-9.46,4.297-10.216c0.973,0.756,4.297,3.809,4.297,10.216c0,0.708-0.057,1.353-0.164,1.922
				c-0.91,0.452-1.824,1.418-1.992,2.932c-0.346,0.16-0.736,0.27-1.182,0.334c-0.008,0.001-0.014,0.007-0.021,0.008
				c0,0.467,0,0.703,0,0.971c0.031,0.006,0.061,0.017,0.094,0.017c0.023,0,0.047-0.002,0.072-0.005
				c0.66-0.096,1.252-0.287,1.758-0.569c0.15-0.085,0.248-0.241,0.256-0.415c0.074-1.705,1.271-2.311,1.637-2.455
				c0.152-0.061,0.266-0.193,0.303-0.354c0.158-0.698,0.24-1.501,0.24-2.385C21.485,6.34,16.657,3.263,16.452,3.136z"/>
		</g>
		<g>
			<path d="M23.228,23.438h-0.725c-0.129,0-0.254-0.051-0.348-0.141c-1.008-0.976-3.652-3.186-3.68-3.208
				c-0.113-0.095-0.18-0.235-0.18-0.384c0-2.273,1.584-3.368,2.422-3.63c0.119-0.036,0.252-0.029,0.367,0.027
				c4.758,2.288,2.619,7,2.596,7.047C23.599,23.326,23.423,23.438,23.228,23.438z M22.704,22.438h0.186
				c0.324-0.914,1.016-3.738-2.045-5.337c-0.418,0.194-1.449,0.83-1.541,2.377C19.899,19.979,21.757,21.546,22.704,22.438z"/>
		</g>
		<g>
			<path d="M9.872,23.438H9.147c-0.193,0-0.369-0.112-0.451-0.288c-0.023-0.047-2.162-4.759,2.596-7.047
				c0.115-0.056,0.246-0.062,0.365-0.027c0.838,0.262,2.422,1.356,2.422,3.63c0,0.148-0.064,0.289-0.18,0.384
				c-0.025,0.022-2.67,2.232-3.68,3.208C10.128,23.388,10.003,23.438,9.872,23.438z M9.485,22.438h0.188
				c0.947-0.893,2.803-2.459,3.4-2.96c-0.094-1.546-1.121-2.181-1.541-2.377C8.456,18.708,9.157,21.527,9.485,22.438z"/>
		</g>
		<g>
			<g>
				<path d="M23.228,23.438h-0.725c-0.129,0-0.254-0.051-0.348-0.141c-1.01-0.977-3.654-3.212-3.682-3.234
					c-0.111-0.095-0.178-0.234-0.178-0.382c0-2.279,1.592-3.34,2.434-3.583c0.117-0.034,0.244-0.024,0.355,0.03
					c4.758,2.289,2.617,6.976,2.596,7.022C23.599,23.327,23.421,23.438,23.228,23.438z M22.704,22.438h0.186
					c0.324-0.909,1.016-3.718-2.051-5.314c-0.412,0.182-1.443,0.789-1.535,2.331C19.897,19.96,21.757,21.544,22.704,22.438z"/>
			</g>
			<g>
				<path d="M9.872,23.438H9.147c-0.193,0-0.369-0.111-0.451-0.287c-0.023-0.047-2.164-4.733,2.596-7.022
					c0.111-0.055,0.236-0.064,0.355-0.03c0.842,0.243,2.432,1.304,2.432,3.583c0,0.147-0.064,0.287-0.176,0.382
					c-0.027,0.022-2.674,2.258-3.684,3.234C10.128,23.388,10.003,23.438,9.872,23.438z M9.485,22.438h0.188
					c0.947-0.895,2.807-2.479,3.4-2.983c-0.092-1.541-1.121-2.147-1.535-2.331C8.456,18.729,9.157,21.531,9.485,22.438z"/>
			</g>
		</g>
	</g>
	<g>
		<path d="M16.188,13.377c-1.104,0-2-0.897-2-2.001s0.896-2.001,2-2.001s2,0.897,2,2.001S17.292,13.377,16.188,13.377z
			 M16.188,10.375c-0.551,0-1,0.449-1,1.001s0.449,1.001,1,1.001s1-0.449,1-1.001S16.739,10.375,16.188,10.375z"/>
	</g>
	<g>
		<path d="M16.188,9.938c-0.277,0-0.5-0.224-0.5-0.5v-5c0-0.276,0.223-0.5,0.5-0.5c0.275,0,0.5,0.224,0.5,0.5v5
			C16.688,9.715,16.464,9.938,16.188,9.938z"/>
	</g>
	<g>
		<path d="M16.188,16.938c-0.277,0-0.5-0.224-0.5-0.5v-3c0-0.276,0.223-0.5,0.5-0.5c0.275,0,0.5,0.224,0.5,0.5v3
			C16.688,16.715,16.464,16.938,16.188,16.938z"/>
	</g>
	<g>
		<path d="M17.688,23.021c0,0.783-0.635,1.417-1.418,1.417h-0.164c-0.783,0-1.418-0.634-1.418-1.417v-5.166
			c0-0.782,0.635-1.417,1.418-1.417h0.164c0.783,0,1.418,0.635,1.418,1.417V23.021z M15.698,17.438c-0.229,0-0.01,0.188-0.01,0.417
			v5.166c0,0.229-0.219,0.417,0.01,0.417h0.166c0.23,0,0.824-0.188,0.824-0.417v-5.166c0-0.229-0.594-0.417-0.824-0.417H15.698z"/>
	</g>
</g>
</svg>
