<?xml version="1.0" encoding="utf-8"?>
<!-- Generator: Adobe Illustrator 16.0.0, SVG Export Plug-In . SVG Version: 6.00 Build 0)  -->
<!DOCTYPE svg PUBLIC "-//W3C//DTD SVG 1.1//EN" "http://www.w3.org/Graphics/SVG/1.1/DTD/svg11.dtd">
<svg version="1.1"
	 id="Calque_1" xmlns:sodipodi="http://sodipodi.sourceforge.net/DTD/sodipodi-0.dtd" xmlns:rdf="http://www.w3.org/1999/02/22-rdf-syntax-ns#" xmlns:inkscape="http://www.inkscape.org/namespaces/inkscape" xmlns:svg="http://www.w3.org/2000/svg" xmlns:dc="http://purl.org/dc/elements/1.1/" xmlns:cc="http://creativecommons.org/ns#" sodipodi:docname="incubator-1.svg" inkscape:version="0.48.4 r9939"
	 xmlns="http://www.w3.org/2000/svg" xmlns:xlink="http://www.w3.org/1999/xlink" x="0px" y="0px" width="27.129px"
	 height="27.129px" viewBox="0 0 27.129 27.129" enable-background="new 0 0 27.129 27.129" xml:space="preserve">
<sodipodi:namedview  inkscape:window-y="176" inkscape:window-x="566" inkscape:zoom="12.302496" gridtolerance="10" inkscape:cy="6.2396303" objecttolerance="10" borderopacity="1" inkscape:cx="10.349579" pagecolor="#ffffff" showgrid="false" guidetolerance="10" bordercolor="#666666" id="namedview3325" inkscape:window-height="716" inkscape:window-width="983" inkscape:pageshadow="2" inkscape:pageopacity="0" inkscape:current-layer="Calque_1" inkscape:window-maximized="0">
	</sodipodi:namedview>
<path d="M20.015,16.688c0.114-0.709,0.191-1.468,0.191-2.311C20.204,4.279,14.153,0.422,13.897,0.263
	c-0.203-0.125-0.458-0.125-0.661,0C12.98,0.422,6.929,4.279,6.929,14.371c0,0.844,0.077,1.605,0.193,2.317
	c-2.717,1.435-3.499,3.529-3.566,5.303c-0.074,1.839,0.605,3.327,0.62,3.356c0.103,0.223,0.324,0.359,0.565,0.359H5.65
	c0.164,0,0.321-0.061,0.433-0.172c1.108-1.069,3.782-3.322,4.457-3.89c0.358,0.151,0.739,0.272,1.147,0.359v3.181
	c0,0.98,0.797,1.773,1.776,1.773h0.206c0.98,0,1.777-0.793,1.777-1.773v-3.179c0.409-0.088,0.792-0.208,1.15-0.358
	c0.631,0.528,2.919,2.456,4.143,3.596c0.109,0.102,0.213,0.199,0.304,0.287c0.118,0.113,0.274,0.176,0.437,0.176h0.911
	c0.239,0,0.465-0.139,0.563-0.359c0.011-0.025,0.532-1.169,0.613-2.686C23.671,20.773,23.08,18.311,20.015,16.688z M13.565,11.845
	c-0.689,0-1.253-0.563-1.253-1.255s0.563-1.254,1.253-1.254c0.691,0,1.254,0.563,1.254,1.254S14.258,11.845,13.565,11.845z
	 M5.165,24.455c-0.154-0.427-0.373-1.188-0.385-2.079c-0.018-1.468,0.539-3.287,2.894-4.542c0.5,0.213,1.815,0.962,1.968,2.901
	c-0.759,0.643-3.063,2.604-4.242,3.72H5.165z M10.882,20.459c-0.003-0.025-0.01-0.048-0.013-0.073
	c-0.144-1.303-0.707-2.241-1.363-2.872c-0.377-0.37-0.774-0.648-1.133-0.828c-0.125-0.69-0.192-1.464-0.192-2.312
	c0-6.966,3.132-10.762,4.759-12.266v6.055c0,0.003,0.002,0.006,0.002,0.009c-1.08,0.279-1.882,1.252-1.882,2.419
	c0,1.178,0.816,2.16,1.911,2.429c-0.013,0.051-0.031,0.101-0.031,0.155v3.759c0,0.029,0.013,0.055,0.017,0.083
	c-0.731,0.22-1.27,0.892-1.27,1.694v2.021C11.402,20.658,11.129,20.57,10.882,20.459z M14.191,25.186
	c0,0.287-0.235,0.521-0.522,0.521h-0.207c-0.289,0-0.523-0.234-0.523-0.521v-6.475c0-0.287,0.236-0.523,0.523-0.523h0.207
	c0.287,0,0.522,0.236,0.522,0.523V25.186z M14.176,17.016c0.004-0.027,0.017-0.053,0.017-0.082v-3.759
	c0-0.055-0.018-0.104-0.031-0.155c1.096-0.269,1.912-1.251,1.912-2.429c0-1.167-0.802-2.14-1.883-2.419
	c0-0.003,0.002-0.006,0.002-0.009V2.107c1.628,1.504,4.759,5.303,4.759,12.266c0,0.847-0.069,1.618-0.191,2.308
	c-0.373,0.186-0.788,0.479-1.18,0.872c-0.65,0.642-1.2,1.59-1.328,2.899c0,0.003-0.001,0.005-0.001,0.007
	c-0.248,0.114-0.52,0.203-0.805,0.278v-2.026C15.446,17.908,14.908,17.235,14.176,17.016z M21.732,24.455
	c-1.18-1.112-3.479-3.072-4.239-3.719c0.154-1.942,1.479-2.692,1.974-2.897c2.34,1.247,2.895,3.065,2.879,4.534
	c-0.012,0.892-0.228,1.653-0.379,2.082H21.732z"/>
</svg>
