<?xml version="1.0" encoding="utf-8"?>
<!-- Generator: Adobe Illustrator 16.0.4, SVG Export Plug-In . SVG Version: 6.00 Build 0)  -->
<!DOCTYPE svg PUBLIC "-//W3C//DTD SVG 1.1//EN" "http://www.w3.org/Graphics/SVG/1.1/DTD/svg11.dtd">
<svg version="1.1" id="Calque_1" xmlns="http://www.w3.org/2000/svg" xmlns:xlink="http://www.w3.org/1999/xlink" x="0px" y="0px"
	 width="27.129px" height="27.129px" viewBox="8.478 4.582 27.129 27.129" enable-background="new 8.478 4.582 27.129 27.129"
	 xml:space="preserve">
<g>
	<g>
		<path d="M22.042,31.711c-7.479,0-13.564-6.085-13.564-13.564S14.562,4.582,22.042,4.582s13.564,6.085,13.564,13.565
			S29.521,31.711,22.042,31.711z M22.042,5.625c-6.904,0-12.521,5.617-12.521,12.522c0,6.904,5.617,12.521,12.521,12.521
			s12.521-5.617,12.521-12.521C34.563,11.242,28.946,5.625,22.042,5.625z"/>
	</g>
	<g>
		<path d="M23.251,26.75h-4c-0.276,0-0.5-0.224-0.5-0.5v-10c0-0.276,0.224-0.5,0.5-0.5h4c0.276,0,0.5,0.224,0.5,0.5v10
			C23.751,26.526,23.527,26.75,23.251,26.75z M19.751,25.75h3v-9h-3V25.75z"/>
	</g>
	<g>
		<path d="M22.042,13.979c-1.201,0-2.178-0.977-2.178-2.178c0-1.2,0.977-2.177,2.178-2.177s2.178,0.977,2.178,2.177
			C24.22,13.002,23.243,13.979,22.042,13.979z M22.042,10.667c-0.626,0-1.135,0.509-1.135,1.134c0,0.626,0.509,1.135,1.135,1.135
			s1.135-0.509,1.135-1.135C23.177,11.176,22.668,10.667,22.042,10.667z"/>
	</g>
	<g>
		<path d="M24.751,26.75h-7c-0.276,0-0.5-0.224-0.5-0.5s0.224-0.5,0.5-0.5h7c0.276,0,0.5,0.224,0.5,0.5S25.027,26.75,24.751,26.75z"
			/>
	</g>
	<g>
		<path d="M21.751,16.75h-4c-0.276,0-0.5-0.224-0.5-0.5s0.224-0.5,0.5-0.5h4c0.276,0,0.5,0.224,0.5,0.5S22.027,16.75,21.751,16.75z"
			/>
	</g>
</g>
</svg>
