<?xml version="1.0" encoding="utf-8"?>
<!-- Generator: Adobe Illustrator 16.0.4, SVG Export Plug-In . SVG Version: 6.00 Build 0)  -->
<!DOCTYPE svg PUBLIC "-//W3C//DTD SVG 1.1//EN" "http://www.w3.org/Graphics/SVG/1.1/DTD/svg11.dtd">
<svg version="1.1" id="Calque_1" xmlns="http://www.w3.org/2000/svg" xmlns:xlink="http://www.w3.org/1999/xlink" x="0px" y="0px"
	 width="32.375px" height="27.5px" viewBox="0 0 32.375 27.5" enable-background="new 0 0 32.375 27.5" xml:space="preserve">
<g>
	<g>
		<path d="M19.313,7.265c-1.064,0-1.884,1.859-2.021,2.771c-0.061,0.401,0.079,0.723,0.429,0.931
			c1.227,0.731,4.385,3.244,4.385,5.515c0,4.641-4.564,4.783-6.057,4.783h-0.062c-3.92,0-5.906-1.732-5.906-4.842
			c0-2.271,3.145-4.711,4.355-5.429c0.285-0.169,0.469-0.507,0.488-0.839c0.096-1.545-0.811-2.175-1.609-2.853L13.11,7.265h2.943
			h3.094 M20.263,6.265h-4.209h-4.096c0,0-0.41,0.817,0.475,1.581c0.887,0.762,1.566,1.139,1.494,2.287c0,0-4.846,2.979-4.846,6.329
			c0,5.198,4.746,5.803,6.906,5.803c0.021,0,0.045,0,0.066,0c2.125,0,7.027-0.571,7.027-5.822c0-3.349-4.902-6.335-4.902-6.335
			c0.1-0.662,0.723-1.461,1.607-2.223C20.673,7.122,20.263,6.265,20.263,6.265L20.263,6.265z"/>
	</g>
	<g>
		<path d="M18.741,10.265h-5c-0.275,0-0.5-0.224-0.5-0.5s0.225-0.5,0.5-0.5h5c0.277,0,0.5,0.224,0.5,0.5
			S19.019,10.265,18.741,10.265z"/>
	</g>
	<g>
		<path d="M15.327,14.815c-0.057,0-0.113-0.01-0.17-0.03c-0.26-0.094-0.393-0.38-0.299-0.64l1.424-3.935
			c0.094-0.261,0.381-0.394,0.639-0.3c0.26,0.094,0.395,0.38,0.301,0.64l-1.424,3.935C15.724,14.689,15.532,14.815,15.327,14.815z"
			/>
	</g>
	<g>
		<path d="M18.177,14.815c-0.205,0-0.396-0.126-0.471-0.33l-1.424-3.935c-0.094-0.26,0.039-0.546,0.299-0.64
			c0.262-0.093,0.547,0.04,0.641,0.3l1.424,3.935c0.094,0.26-0.039,0.546-0.299,0.64C18.29,14.805,18.233,14.815,18.177,14.815z"/>
	</g>
</g>
</svg>
