<?xml version="1.0" encoding="UTF-8" standalone="no"?>
<!-- Generator: Adobe Illustrator 16.0.4, SVG Export Plug-In . SVG Version: 6.00 Build 0)  -->

<svg
   xmlns:dc="http://purl.org/dc/elements/1.1/"
   xmlns:cc="http://creativecommons.org/ns#"
   xmlns:rdf="http://www.w3.org/1999/02/22-rdf-syntax-ns#"
   xmlns:svg="http://www.w3.org/2000/svg"
   xmlns="http://www.w3.org/2000/svg"
   xmlns:sodipodi="http://sodipodi.sourceforge.net/DTD/sodipodi-0.dtd"
   xmlns:inkscape="http://www.inkscape.org/namespaces/inkscape"
   version="1.1"
   id="Calque_1"
   x="0px"
   y="0px"
   width="27.129px"
   height="27.129px"
   viewBox="8.269 4.582 27.129 27.129"
   enable-background="new 8.269 4.582 27.129 27.129"
   xml:space="preserve"
   inkscape:version="0.48.4 r9939"
   sodipodi:docname="investor.svg"><metadata
     id="metadata3329"><rdf:RDF><cc:Work
         rdf:about=""><dc:format>image/svg+xml</dc:format><dc:type
           rdf:resource="http://purl.org/dc/dcmitype/StillImage" /><dc:title /></cc:Work></rdf:RDF></metadata><defs
     id="defs3327" /><sodipodi:namedview
     pagecolor="#ffffff"
     bordercolor="#666666"
     borderopacity="1"
     objecttolerance="10"
     gridtolerance="10"
     guidetolerance="10"
     inkscape:pageopacity="0"
     inkscape:pageshadow="2"
     inkscape:window-width="983"
     inkscape:window-height="716"
     id="namedview3325"
     showgrid="false"
     inkscape:zoom="12.302496"
     inkscape:cx="10.349579"
     inkscape:cy="6.2396303"
     inkscape:window-x="161"
     inkscape:window-y="124"
     inkscape:window-maximized="0"
     inkscape:current-layer="Calque_1" /><g
     transform="matrix(1.6756087,0,0,1.6756087,-4.9248508,-5.7264345)"
     id="g7006"><g
       id="g7008"><path
         inkscape:connector-curvature="0"
         d="m 19.312,7.265 c -1.063,0 -1.883,1.859 -2.021,2.771 -0.062,0.401 0.079,0.723 0.43,0.931 1.228,0.731 4.385,3.244 4.385,5.516 0,4.642 -4.563,4.783 -6.058,4.783 h -0.062 c -3.92,0 -5.906,-1.731 -5.906,-4.843 0,-2.271 3.145,-4.711 4.355,-5.429 0.285,-0.169 0.469,-0.507 0.487,-0.839 C 15.019,8.61 14.11,7.98 13.314,7.302 L 13.109,7.265 h 2.943 3.094 m 1.118,-1 h -4.209 -4.096 c 0,0 -0.41,0.817 0.475,1.581 0.886,0.762 1.566,1.139 1.494,2.287 0,0 -4.846,2.979 -4.846,6.329 0,5.198 4.746,5.804 6.906,5.804 0.021,0 0.045,0 0.066,0 2.125,0 7.026,-0.572 7.026,-5.822 0,-3.35 -4.901,-6.334 -4.901,-6.334 0.1,-0.662 0.723,-1.461 1.606,-2.223 0.888,-0.765 0.479,-1.622 0.479,-1.622 l 0,0 z"
         id="path7010" /></g><g
       id="g7012"><path
         inkscape:connector-curvature="0"
         d="m 18.741,10.265 h -5 c -0.275,0 -0.5,-0.224 -0.5,-0.5 0,-0.276 0.225,-0.5 0.5,-0.5 h 5 c 0.276,0 0.5,0.224 0.5,0.5 0,0.276 -0.221,0.5 -0.5,0.5 z"
         id="path7014" /></g><g
       id="g7016"><path
         inkscape:connector-curvature="0"
         d="m 15.327,14.814 c -0.058,0 -0.113,-0.01 -0.17,-0.029 -0.261,-0.094 -0.394,-0.381 -0.3,-0.641 l 1.425,-3.935 c 0.094,-0.261 0.381,-0.394 0.639,-0.3 0.261,0.094 0.396,0.38 0.302,0.64 l -1.425,3.935 c -0.073,0.205 -0.266,0.33 -0.471,0.33 z"
         id="path7018" /></g><g
       id="g7020"><path
         inkscape:connector-curvature="0"
         d="m 18.177,14.814 c -0.204,0 -0.396,-0.125 -0.471,-0.33 l -1.424,-3.936 c -0.095,-0.26 0.038,-0.546 0.299,-0.64 0.262,-0.093 0.547,0.04 0.642,0.3 l 1.424,3.936 c 0.095,0.258 -0.039,0.545 -0.299,0.64 -0.058,0.021 -0.116,0.03 -0.171,0.03 z"
         id="path7022" /></g></g></svg>