<?xml version="1.0" encoding="UTF-8" standalone="no"?>
<!-- Generator: Adobe Illustrator 16.0.4, SVG Export Plug-In . SVG Version: 6.00 Build 0)  -->

<svg
   xmlns:dc="http://purl.org/dc/elements/1.1/"
   xmlns:cc="http://creativecommons.org/ns#"
   xmlns:rdf="http://www.w3.org/1999/02/22-rdf-syntax-ns#"
   xmlns:svg="http://www.w3.org/2000/svg"
   xmlns="http://www.w3.org/2000/svg"
   xmlns:sodipodi="http://sodipodi.sourceforge.net/DTD/sodipodi-0.dtd"
   xmlns:inkscape="http://www.inkscape.org/namespaces/inkscape"
   version="1.1"
   id="Calque_1"
   x="0px"
   y="0px"
   width="27.129px"
   height="27.129px"
   viewBox="8.269 4.582 27.129 27.129"
   enable-background="new 8.269 4.582 27.129 27.129"
   xml:space="preserve"
   inkscape:version="0.91 r13725"
   sodipodi:docname="investor.svg"><metadata
     id="metadata3329"><rdf:RDF><cc:Work
         rdf:about=""><dc:format>image/svg+xml</dc:format><dc:type
           rdf:resource="http://purl.org/dc/dcmitype/StillImage" /><dc:title /></cc:Work></rdf:RDF></metadata><defs
     id="defs3327" /><sodipodi:namedview
     pagecolor="#ffffff"
     bordercolor="#666666"
     borderopacity="1"
     objecttolerance="10"
     gridtolerance="10"
     guidetolerance="10"
     inkscape:pageopacity="0"
     inkscape:pageshadow="2"
     inkscape:window-width="1871"
     inkscape:window-height="1056"
     id="namedview3325"
     showgrid="false"
     inkscape:zoom="34.796714"
     inkscape:cx="11.257911"
     inkscape:cy="13.024497"
     inkscape:window-x="49"
     inkscape:window-y="24"
     inkscape:window-maximized="1"
     inkscape:current-layer="Calque_1"
     showguides="false" /><g
     id="g3437"><path
       inkscape:connector-curvature="0"
       id="rect7393-6"
       d="m 9.1658468,15.801625 c 0,3.200962 0,6.401925 0,9.602887 8.4118312,0 16.8236632,0 25.2354942,0 0,-3.200962 0,-6.401925 0,-9.602887 -8.411831,0 -16.823663,0 -25.2354942,0 z"
       style="opacity:1;fill:#000000;fill-opacity:1;fill-rule:nonzero;stroke:none;stroke-width:0.1;stroke-miterlimit:4;stroke-dasharray:none;stroke-opacity:1" /><path
       inkscape:connector-curvature="0"
       id="path4183"
       d="m 9.6057059,10.206745 c 7.9434761,0 15.8869531,0 23.8304291,0 0.824671,-0.09899 1.910822,0.173461 1.891722,1.20282 0,4.261656 0,8.523312 0,12.784968 0.09899,0.824671 -0.173461,1.910822 -1.20282,1.891722 -7.943476,0 -15.886953,0 -23.830429,0 -0.8246707,0.09899 -1.9108218,-0.173461 -1.8917228,-1.20282 0,-4.261656 0,-8.523312 0,-12.784968 -0.09899,-0.824671 0.1734608,-1.910822 1.2028207,-1.891722 z"
       style="color:#000000;solid-color:#000000;" /><path
       inkscape:connector-curvature="0"
       id="path7"
       d="m 9.6057059,11.178107 c -0.1244876,-0.004 -0.2354275,0.106971 -0.2314575,0.231458 0,4.178153 0,8.356305 0,12.534458 0.081101,0.375643 -0.2014852,0.999896 0.2314575,1.170869 7.8599731,0 15.7199461,0 23.5799191,0 0.375643,-0.0811 0.999896,0.201485 1.170869,-0.231457 0,-4.178153 0,-8.356305 0,-12.534458 -0.0811,-0.375644 0.201484,-0.999894 -0.231457,-1.17087 -8.17311,0 -16.346221,0 -24.5193311,0 z"
       style="color:#000000;solid-color:#000000;solid-opacity:1;" /><path
       inkscape:connector-curvature="0"
       id="rect7393"
       d="m 9.2216778,11.05601 c 0,0.893292 0,1.786584 0,2.679876 8.4118312,0 16.8236632,0 25.2354942,0 0,-0.893292 0,-1.786584 0,-2.679876 -8.411831,0 -16.823663,0 -25.2354942,0 z"
       style="opacity:1;fill:#000000;fill-opacity:1;fill-rule:nonzero;stroke:none;stroke-width:0.1;stroke-miterlimit:4;stroke-dasharray:none;stroke-opacity:1" /><path
       inkscape:connector-curvature="0"
       id="rect13-9"
       d="m 10.192383,20.312333 c 3.378379,0 6.756757,0 10.135136,0 0,0.523242 0,1.046483 0,1.569725 -3.378379,0 -6.756757,0 -10.135136,0 0,-0.523242 0,-1.046483 0,-1.569725 z"
       style="color:#000000;fill:#ffffff;fill-opacity:1;" /><path
       inkscape:connector-curvature="0"
       id="rect13-9-5"
       d="m 10.211296,17.595657 c 2.598315,0 5.19663,0 7.794945,0 0,0.542743 0,1.085486 0,1.628229 -2.598315,0 -5.19663,0 -7.794945,0 0,-0.542743 0,-1.085486 0,-1.628229 z"
       style="color:#000000;solid-color:#000000;solid-opacity:1;fill:#ffffff;fill-opacity:1;" /><path
       inkscape:connector-curvature="0"
       id="rect13-9-5-4"
       d="m 8.3391426,13.646583 c 8.9918614,0 17.9837234,0 26.9755854,0 0,0.776763 0,1.553525 0,2.330288 -8.991862,0 -17.983724,0 -26.9755854,0 0,-0.776763 0,-1.553525 0,-2.330288 z"
       style="color:#000000;solid-color:#000000;solid-opacity:1;fill:#ffffff;fill-opacity:1;" /></g></svg>
