<?xml version="1.0" encoding="UTF-8" standalone="no"?>
<!-- Generator: Adobe Illustrator 16.0.4, SVG Export Plug-In . SVG Version: 6.00 Build 0)  -->

<svg
   xmlns:dc="http://purl.org/dc/elements/1.1/"
   xmlns:cc="http://creativecommons.org/ns#"
   xmlns:rdf="http://www.w3.org/1999/02/22-rdf-syntax-ns#"
   xmlns:svg="http://www.w3.org/2000/svg"
   xmlns="http://www.w3.org/2000/svg"
   xmlns:sodipodi="http://sodipodi.sourceforge.net/DTD/sodipodi-0.dtd"
   xmlns:inkscape="http://www.inkscape.org/namespaces/inkscape"
   version="1.1"
   id="Calque_1"
   x="0px"
   y="0px"
   width="27.129px"
   height="27.129px"
   viewBox="8.269 4.582 27.129 27.129"
   enable-background="new 8.269 4.582 27.129 27.129"
   xml:space="preserve"
   inkscape:version="0.91 r13725"
   sodipodi:docname="investor.svg"><metadata
     id="metadata3329"><rdf:RDF><cc:Work
         rdf:about=""><dc:format>image/svg+xml</dc:format><dc:type
           rdf:resource="http://purl.org/dc/dcmitype/StillImage" /><dc:title /></cc:Work></rdf:RDF></metadata><defs
     id="defs3327" /><sodipodi:namedview
     pagecolor="#ffffff"
     bordercolor="#666666"
     borderopacity="1"
     objecttolerance="10"
     gridtolerance="10"
     guidetolerance="10"
     inkscape:pageopacity="0"
     inkscape:pageshadow="2"
     inkscape:window-width="1871"
     inkscape:window-height="1056"
     id="namedview3325"
     showgrid="false"
     inkscape:zoom="34.796714"
     inkscape:cx="7.7230945"
     inkscape:cy="14.174031"
     inkscape:window-x="49"
     inkscape:window-y="24"
     inkscape:window-maximized="1"
     inkscape:current-layer="Calque_1"
     showguides="false" /><g
     id="g3650"
     transform="matrix(0.06132809,0,0,0.06132809,8.4639763,2.0386768)"><path
       id="path3632"
       d="m 435.2,151.1 c 0,-6.6 -5.4,-12 -12,-12 l -410.4,0 c -6.6,0 -12,5.4 -12,12 l 0,38.8 434.4,0 0,-38.8 z"
       inkscape:connector-curvature="0" /><path
       id="path3634"
       d="m 0.8,225.8 0,148.4 c 0,6.6 5.4,12 12,12 l 410.4,0 c 6.6,0 12,-5.4 12,-12 l 0,-148.4 -434.4,0 z m 56.4,35.6 101.6,0 0,29.6 -101.6,0 0,-29.6 z m 144.8,101.7 -144.8,0 0,-29.6 144.8,0 0,29.6 z"
       inkscape:connector-curvature="0" /></g></svg>