<?xml version="1.0" encoding="utf-8"?>
<!-- Generator: Adobe Illustrator 16.0.4, SVG Export Plug-In . SVG Version: 6.00 Build 0)  -->
<!DOCTYPE svg PUBLIC "-//W3C//DTD SVG 1.1//EN" "http://www.w3.org/Graphics/SVG/1.1/DTD/svg11.dtd">
<svg version="1.1" id="Calque_1" xmlns="http://www.w3.org/2000/svg" xmlns:xlink="http://www.w3.org/1999/xlink" x="0px" y="0px"
	 width="23.833px" height="21.5px" viewBox="0 0 23.833 21.5" enable-background="new 0 0 23.833 21.5" xml:space="preserve">
<g>
	<g>
		<path fill="none" stroke="#000000" stroke-linecap="round" stroke-linejoin="round" stroke-miterlimit="10" d="M8.451,17.013
			H5.849V8.646h2.603V17.013z M7.15,7.504c-0.836,0-1.508-0.677-1.508-1.51c0-0.832,0.672-1.508,1.508-1.508
			c0.831,0,1.506,0.676,1.506,1.508C8.656,6.828,7.981,7.504,7.15,7.504z M18.19,17.013H15.59v-4.07
			c0-0.969-0.016-2.217-1.351-2.217c-1.354,0-1.56,1.057-1.56,2.149v4.138h-2.597V8.646h2.492v1.145h0.036
			c0.347-0.657,1.194-1.352,2.459-1.352c2.634,0,3.12,1.732,3.12,3.986V17.013z"/>
	</g>
</g>
</svg>
