<?xml version="1.0" encoding="utf-8"?>
<!-- Generator: Adobe Illustrator 16.0.4, SVG Export Plug-In . SVG Version: 6.00 Build 0)  -->
<!DOCTYPE svg PUBLIC "-//W3C//DTD SVG 1.1//EN" "http://www.w3.org/Graphics/SVG/1.1/DTD/svg11.dtd">
<svg version="1.1" id="Calque_1" xmlns="http://www.w3.org/2000/svg" xmlns:xlink="http://www.w3.org/1999/xlink" x="0px" y="0px"
	 width="13.583px" height="13.583px" viewBox="5.083 3.958 13.583 13.583" enable-background="new 5.083 3.958 13.583 13.583"
	 xml:space="preserve">
<g>
	<g>
		<g>
			<path d="M18.189,17.514H15.59c-0.276,0-0.5-0.224-0.5-0.5v-4.07c0-1.349-0.183-1.717-0.852-1.717c-0.688,0-1.06,0.263-1.06,1.649
				v4.139c0,0.276-0.224,0.5-0.5,0.5h-2.597c-0.276,0-0.5-0.224-0.5-0.5V8.646c0-0.276,0.224-0.5,0.5-0.5h2.493
				c0.243,0,0.446,0.174,0.491,0.404c0.503-0.358,1.173-0.611,2.003-0.611c3.209,0,3.62,2.397,3.62,4.486v4.589
				C18.689,17.29,18.465,17.514,18.189,17.514z M16.09,16.514h1.599v-4.089c0-2.574-0.686-3.486-2.62-3.486
				c-1.064,0-1.752,0.585-2.017,1.086c-0.087,0.164-0.257,0.266-0.442,0.266c-0.276,0-0.535-0.224-0.535-0.5V9.146h-1.493v7.368
				h1.597v-3.639c0-0.655,0-2.649,2.06-2.649c1.852,0,1.852,1.835,1.852,2.717V16.514z M8.452,17.514H5.849
				c-0.276,0-0.5-0.224-0.5-0.5V8.646c0-0.276,0.224-0.5,0.5-0.5h2.603c0.276,0,0.5,0.224,0.5,0.5v8.368
				C8.952,17.29,8.729,17.514,8.452,17.514z M6.349,16.514h1.603V9.146H6.349V16.514z M7.15,8.004c-1.107,0-2.008-0.901-2.008-2.01
				c0-1.107,0.901-2.008,2.008-2.008c1.106,0,2.006,0.901,2.006,2.008C9.156,7.103,8.256,8.004,7.15,8.004z M7.15,4.986
				c-0.556,0-1.008,0.452-1.008,1.008c0,0.557,0.452,1.01,1.008,1.01c0.555,0,1.006-0.453,1.006-1.01
				C8.156,5.438,7.705,4.986,7.15,4.986z"/>
		</g>
	</g>
</g>
</svg>
