<?xml version="1.0" encoding="UTF-8" standalone="no"?>
<!-- Generator: Adobe Illustrator 16.0.4, SVG Export Plug-In . SVG Version: 6.00 Build 0)  -->

<svg
   xmlns:dc="http://purl.org/dc/elements/1.1/"
   xmlns:cc="http://creativecommons.org/ns#"
   xmlns:rdf="http://www.w3.org/1999/02/22-rdf-syntax-ns#"
   xmlns:svg="http://www.w3.org/2000/svg"
   xmlns="http://www.w3.org/2000/svg"
   xmlns:sodipodi="http://sodipodi.sourceforge.net/DTD/sodipodi-0.dtd"
   xmlns:inkscape="http://www.inkscape.org/namespaces/inkscape"
   version="1.1"
   id="Calque_1"
   x="0px"
   y="0px"
   width="27.129px"
   height="27.129px"
   viewBox="8.478 4.582 27.129 27.129"
   enable-background="new 8.478 4.582 27.129 27.129"
   xml:space="preserve"
   inkscape:version="0.48.4 r9939"
   sodipodi:docname="list-1.svg"><metadata
     id="metadata3231"><rdf:RDF><cc:Work
         rdf:about=""><dc:format>image/svg+xml</dc:format><dc:type
           rdf:resource="http://purl.org/dc/dcmitype/StillImage" /><dc:title></dc:title></cc:Work></rdf:RDF></metadata><defs
     id="defs3229" /><sodipodi:namedview
     pagecolor="#ffffff"
     bordercolor="#666666"
     borderopacity="1"
     objecttolerance="10"
     gridtolerance="10"
     guidetolerance="10"
     inkscape:pageopacity="0"
     inkscape:pageshadow="2"
     inkscape:window-width="1391"
     inkscape:window-height="876"
     id="namedview3227"
     showgrid="false"
     inkscape:zoom="8.6991781"
     inkscape:cx="13.5645"
     inkscape:cy="13.5645"
     inkscape:window-x="49"
     inkscape:window-y="24"
     inkscape:window-maximized="1"
     inkscape:current-layer="Calque_1" /><g
     transform="matrix(1.2619868,0,0,1.2619868,-5.454243,-4.2778255)"
     id="g3099"><g
       id="g3101"><g
         id="g3103"><g
           id="g3105"><path
             inkscape:connector-curvature="0"
             d="m 32.084,8.75 h -10 c -0.276,0 -0.5,-0.224 -0.5,-0.5 0,-0.276 0.224,-0.5 0.5,-0.5 h 10 c 0.276,0 0.5,0.224 0.5,0.5 0,0.276 -0.224,0.5 -0.5,0.5 z"
             id="path3107" /></g><g
           id="g3109"><path
             inkscape:connector-curvature="0"
             d="m 32.084,11.75 h -10 c -0.276,0 -0.5,-0.224 -0.5,-0.5 0,-0.276 0.224,-0.5 0.5,-0.5 h 10 c 0.276,0 0.5,0.224 0.5,0.5 0,0.276 -0.224,0.5 -0.5,0.5 z"
             id="path3111" /></g><g
           id="g3113"><path
             inkscape:connector-curvature="0"
             d="m 26.084,15.75 h -4 c -0.276,0 -0.5,-0.224 -0.5,-0.5 0,-0.276 0.224,-0.5 0.5,-0.5 h 4 c 0.276,0 0.5,0.224 0.5,0.5 0,0.276 -0.224,0.5 -0.5,0.5 z"
             id="path3115" /></g><g
           id="g3117"><path
             inkscape:connector-curvature="0"
             d="m 19.584,15.75 h -8 c -0.276,0 -0.5,-0.224 -0.5,-0.5 v -7 c 0,-0.276 0.224,-0.5 0.5,-0.5 h 8 c 0.276,0 0.5,0.224 0.5,0.5 v 7 c 0,0.276 -0.224,0.5 -0.5,0.5 z m -7.5,-1 h 7 v -6 h -7 v 6 z"
             id="path3119" /></g></g></g><g
       id="g3121"><g
         id="g3123"><g
           id="g3125"><path
             inkscape:connector-curvature="0"
             d="m 32.084,20.75 h -10 c -0.276,0 -0.5,-0.224 -0.5,-0.5 0,-0.276 0.224,-0.5 0.5,-0.5 h 10 c 0.276,0 0.5,0.224 0.5,0.5 0,0.276 -0.224,0.5 -0.5,0.5 z"
             id="path3127" /></g><g
           id="g3129"><path
             inkscape:connector-curvature="0"
             d="m 32.084,24.75 h -10 c -0.276,0 -0.5,-0.224 -0.5,-0.5 0,-0.276 0.224,-0.5 0.5,-0.5 h 10 c 0.276,0 0.5,0.224 0.5,0.5 0,0.276 -0.224,0.5 -0.5,0.5 z"
             id="path3131" /></g><g
           id="g3133"><path
             inkscape:connector-curvature="0"
             d="m 26.084,27.75 h -4 c -0.276,0 -0.5,-0.224 -0.5,-0.5 0,-0.276 0.224,-0.5 0.5,-0.5 h 4 c 0.276,0 0.5,0.224 0.5,0.5 0,0.276 -0.224,0.5 -0.5,0.5 z"
             id="path3135" /></g><g
           id="g3137"><path
             inkscape:connector-curvature="0"
             d="m 19.584,27.75 h -8 c -0.276,0 -0.5,-0.224 -0.5,-0.5 v -7 c 0,-0.276 0.224,-0.5 0.5,-0.5 h 8 c 0.276,0 0.5,0.224 0.5,0.5 v 7 c 0,0.276 -0.224,0.5 -0.5,0.5 z m -7.5,-1 h 7 v -6 h -7 v 6 z"
             id="path3139" /></g></g></g></g></svg>