<?xml version="1.0" encoding="UTF-8" standalone="no"?>
<!-- Generator: Adobe Illustrator 16.0.4, SVG Export Plug-In . SVG Version: 6.00 Build 0)  -->

<svg
   xmlns:dc="http://purl.org/dc/elements/1.1/"
   xmlns:cc="http://creativecommons.org/ns#"
   xmlns:rdf="http://www.w3.org/1999/02/22-rdf-syntax-ns#"
   xmlns:svg="http://www.w3.org/2000/svg"
   xmlns="http://www.w3.org/2000/svg"
   xmlns:sodipodi="http://sodipodi.sourceforge.net/DTD/sodipodi-0.dtd"
   xmlns:inkscape="http://www.inkscape.org/namespaces/inkscape"
   version="1.1"
   id="Calque_1"
   x="0px"
   y="0px"
   width="27.129px"
   height="27.129px"
   viewBox="8.478 4.582 27.129 27.129"
   enable-background="new 8.478 4.582 27.129 27.129"
   xml:space="preserve"
   inkscape:version="0.48.4 r9939"
   sodipodi:docname="map-1.svg"><metadata
     id="metadata3231"><rdf:RDF><cc:Work
         rdf:about=""><dc:format>image/svg+xml</dc:format><dc:type
           rdf:resource="http://purl.org/dc/dcmitype/StillImage" /><dc:title></dc:title></cc:Work></rdf:RDF></metadata><defs
     id="defs3229" /><sodipodi:namedview
     pagecolor="#ffffff"
     bordercolor="#666666"
     borderopacity="1"
     objecttolerance="10"
     gridtolerance="10"
     guidetolerance="10"
     inkscape:pageopacity="0"
     inkscape:pageshadow="2"
     inkscape:window-width="1391"
     inkscape:window-height="876"
     id="namedview3227"
     showgrid="false"
     inkscape:zoom="8.6991781"
     inkscape:cx="13.5645"
     inkscape:cy="13.5645"
     inkscape:window-x="49"
     inkscape:window-y="24"
     inkscape:window-maximized="1"
     inkscape:current-layer="Calque_1" /><g
     transform="matrix(1.2848406,0,0,1.2848406,-6.2764179,-5.1684143)"
     id="g3374"><path
       inkscape:connector-curvature="0"
       d="m 12.042,28.639 c -0.099,0 -0.198,-0.029 -0.282,-0.087 -0.137,-0.093 -0.218,-0.248 -0.218,-0.413 V 10.763 c 0,-0.206 0.126,-0.391 0.318,-0.466 l 6.667,-2.609 c 0.26,-0.101 0.548,0.026 0.648,0.284 0.101,0.257 -0.026,0.547 -0.283,0.648 l -6.35,2.485 v 16.302 l 5.984,-2.343 c 0.26,-0.1 0.548,0.025 0.648,0.283 0.1,0.258 -0.026,0.548 -0.283,0.648 l -6.667,2.609 c -0.058,0.023 -0.12,0.035 -0.182,0.035 z"
       id="path3376" /><path
       inkscape:connector-curvature="0"
       d="m 25.375,28.639 c -0.062,0 -0.123,-0.012 -0.183,-0.034 L 18.526,25.996 C 18.335,25.921 18.209,25.736 18.209,25.53 V 8.154 c 0,-0.165 0.082,-0.32 0.218,-0.413 0.137,-0.093 0.309,-0.113 0.465,-0.053 l 6.666,2.609 c 0.191,0.075 0.317,0.26 0.317,0.466 v 17.375 c 0,0.165 -0.082,0.32 -0.218,0.413 -0.085,0.058 -0.182,0.088 -0.282,0.088 z m -6.166,-3.451 5.666,2.218 V 11.104 L 19.209,8.886 v 16.302 z"
       id="path3378" /><path
       inkscape:connector-curvature="0"
       d="m 25.375,28.639 c -0.199,0 -0.389,-0.12 -0.466,-0.317 -0.101,-0.258 0.026,-0.548 0.283,-0.648 l 6.35,-2.484 V 8.886 l -5.984,2.343 c -0.261,0.102 -0.548,-0.026 -0.648,-0.284 -0.101,-0.257 0.026,-0.547 0.283,-0.648 L 31.86,7.688 c 0.155,-0.061 0.327,-0.04 0.465,0.053 0.136,0.093 0.218,0.248 0.218,0.413 v 17.375 c 0,0.206 -0.126,0.391 -0.317,0.466 l -6.667,2.609 c -0.062,0.024 -0.123,0.035 -0.184,0.035 z"
       id="path3380" /></g></svg>