<?xml version="1.0" encoding="utf-8"?>
<!-- Generator: Adobe Illustrator 16.0.4, SVG Export Plug-In . SVG Version: 6.00 Build 0)  -->
<!DOCTYPE svg PUBLIC "-//W3C//DTD SVG 1.1//EN" "http://www.w3.org/Graphics/SVG/1.1/DTD/svg11.dtd">
<svg version="1.1" id="Calque_1" xmlns="http://www.w3.org/2000/svg" xmlns:xlink="http://www.w3.org/1999/xlink" x="0px" y="0px"
	 width="32.376px" height="27.5px" viewBox="0 0 32.376 27.5" enable-background="new 0 0 32.376 27.5" xml:space="preserve">
<g>
	<g>
		<path d="M24.541,11.061c-0.008,0-0.014-0.001-0.02,0H7.855c-0.229,0-0.428-0.154-0.484-0.375s0.041-0.452,0.24-0.562l8.334-4.621
			c0.15-0.084,0.334-0.084,0.484,0l8.262,4.582c0.203,0.064,0.35,0.253,0.35,0.477C25.041,10.837,24.816,11.061,24.541,11.061z
			 M9.787,10.061h12.801l-6.4-3.55L9.787,10.061z"/>
	</g>
	<g>
		<path d="M10.188,19.561c-0.275,0-0.5-0.224-0.5-0.5v-8c0-0.276,0.225-0.5,0.5-0.5c0.277,0,0.5,0.224,0.5,0.5v8
			C10.688,19.337,10.465,19.561,10.188,19.561z"/>
	</g>
	<g>
		<path d="M23.688,20.061h-15c-0.275,0-0.5-0.224-0.5-0.5s0.225-0.5,0.5-0.5h15c0.277,0,0.5,0.224,0.5,0.5
			S23.965,20.061,23.688,20.061z"/>
	</g>
	<g>
		<path d="M24.688,22.061h-17c-0.275,0-0.5-0.224-0.5-0.5s0.225-0.5,0.5-0.5h17c0.277,0,0.5,0.224,0.5,0.5
			S24.965,22.061,24.688,22.061z"/>
	</g>
	<g>
		<path d="M13.188,19.561c-0.275,0-0.5-0.224-0.5-0.5v-8c0-0.276,0.225-0.5,0.5-0.5c0.277,0,0.5,0.224,0.5,0.5v8
			C13.688,19.337,13.465,19.561,13.188,19.561z"/>
	</g>
	<g>
		<path d="M16.188,19.561c-0.275,0-0.5-0.224-0.5-0.5v-8c0-0.276,0.225-0.5,0.5-0.5c0.277,0,0.5,0.224,0.5,0.5v8
			C16.688,19.337,16.465,19.561,16.188,19.561z"/>
	</g>
	<g>
		<path d="M19.188,19.561c-0.275,0-0.5-0.224-0.5-0.5v-8c0-0.276,0.225-0.5,0.5-0.5c0.277,0,0.5,0.224,0.5,0.5v8
			C19.688,19.337,19.465,19.561,19.188,19.561z"/>
	</g>
	<g>
		<path d="M22.188,19.561c-0.275,0-0.5-0.224-0.5-0.5v-8c0-0.276,0.225-0.5,0.5-0.5c0.277,0,0.5,0.224,0.5,0.5v8
			C22.688,19.337,22.465,19.561,22.188,19.561z"/>
	</g>
</g>
</svg>
