<?xml version="1.0" encoding="UTF-8" standalone="no"?>
<!-- Generator: Adobe Illustrator 16.0.4, SVG Export Plug-In . SVG Version: 6.00 Build 0)  -->

<svg
   xmlns:dc="http://purl.org/dc/elements/1.1/"
   xmlns:cc="http://creativecommons.org/ns#"
   xmlns:rdf="http://www.w3.org/1999/02/22-rdf-syntax-ns#"
   xmlns:svg="http://www.w3.org/2000/svg"
   xmlns="http://www.w3.org/2000/svg"
   xmlns:sodipodi="http://sodipodi.sourceforge.net/DTD/sodipodi-0.dtd"
   xmlns:inkscape="http://www.inkscape.org/namespaces/inkscape"
   version="1.1"
   id="Calque_1"
   x="0px"
   y="0px"
   width="27.129px"
   height="27.129px"
   viewBox="8.269 4.582 27.129 27.129"
   enable-background="new 8.269 4.582 27.129 27.129"
   xml:space="preserve"
   inkscape:version="0.48.4 r9939"
   sodipodi:docname="incubator-1.svg"><metadata
     id="metadata3329"><rdf:RDF><cc:Work
         rdf:about=""><dc:format>image/svg+xml</dc:format><dc:type
           rdf:resource="http://purl.org/dc/dcmitype/StillImage" /><dc:title></dc:title></cc:Work></rdf:RDF></metadata><defs
     id="defs3327" /><sodipodi:namedview
     pagecolor="#ffffff"
     bordercolor="#666666"
     borderopacity="1"
     objecttolerance="10"
     gridtolerance="10"
     guidetolerance="10"
     inkscape:pageopacity="0"
     inkscape:pageshadow="2"
     inkscape:window-width="983"
     inkscape:window-height="716"
     id="namedview3325"
     showgrid="false"
     inkscape:zoom="12.302496"
     inkscape:cx="10.349579"
     inkscape:cy="6.2396303"
     inkscape:window-x="566"
     inkscape:window-y="176"
     inkscape:window-maximized="0"
     inkscape:current-layer="Calque_1" /><g
     transform="matrix(1.3725432,0,0,1.3725432,-0.517585,-1.2171263)"
     id="g7171"><g
       id="g7173"><path
         inkscape:connector-curvature="0"
         d="m 24.542,11.061 c -0.008,0 -0.015,-10e-4 -0.021,0 H 7.855 c -0.229,0 -0.428,-0.154 -0.484,-0.375 -0.056,-0.221 0.041,-0.452 0.24,-0.562 l 8.334,-4.621 c 0.15,-0.084 0.334,-0.084 0.484,0 l 8.262,4.582 c 0.203,0.064 0.351,0.253 0.351,0.477 0,0.275 -0.226,0.499 -0.5,0.499 z m -14.755,-1 h 12.801 l -6.4,-3.55 -6.401,3.55 z"
         id="path7175" /></g><g
       id="g7177"><path
         inkscape:connector-curvature="0"
         d="m 10.188,19.561 c -0.275,0 -0.5,-0.224 -0.5,-0.5 v -8 c 0,-0.276 0.225,-0.5 0.5,-0.5 0.277,0 0.5,0.224 0.5,0.5 v 8 c 0,0.276 -0.223,0.5 -0.5,0.5 z"
         id="path7179" /></g><g
       id="g7181"><path
         inkscape:connector-curvature="0"
         d="m 23.688,20.061 h -15 c -0.275,0 -0.5,-0.224 -0.5,-0.5 0,-0.274 0.225,-0.5 0.5,-0.5 h 15 c 0.277,0 0.5,0.226 0.5,0.5 0,0.276 -0.223,0.5 -0.5,0.5 z"
         id="path7183" /></g><g
       id="g7185"><path
         inkscape:connector-curvature="0"
         d="m 24.688,22.061 h -17 c -0.275,0 -0.5,-0.224 -0.5,-0.5 0,-0.274 0.225,-0.5 0.5,-0.5 h 17 c 0.277,0 0.5,0.226 0.5,0.5 0,0.276 -0.223,0.5 -0.5,0.5 z"
         id="path7187" /></g><g
       id="g7189"><path
         inkscape:connector-curvature="0"
         d="m 13.188,19.561 c -0.274,0 -0.5,-0.224 -0.5,-0.5 v -8 c 0,-0.276 0.225,-0.5 0.5,-0.5 0.277,0 0.5,0.224 0.5,0.5 v 8 c 0,0.276 -0.223,0.5 -0.5,0.5 z"
         id="path7191" /></g><g
       id="g7193"><path
         inkscape:connector-curvature="0"
         d="m 16.188,19.561 c -0.274,0 -0.5,-0.224 -0.5,-0.5 v -8 c 0,-0.276 0.226,-0.5 0.5,-0.5 0.277,0 0.5,0.224 0.5,0.5 v 8 c 0,0.276 -0.223,0.5 -0.5,0.5 z"
         id="path7195" /></g><g
       id="g7197"><path
         inkscape:connector-curvature="0"
         d="m 19.188,19.561 c -0.274,0 -0.5,-0.224 -0.5,-0.5 v -8 c 0,-0.276 0.226,-0.5 0.5,-0.5 0.277,0 0.5,0.224 0.5,0.5 v 8 c 0,0.276 -0.223,0.5 -0.5,0.5 z"
         id="path7199" /></g><g
       id="g7201"><path
         inkscape:connector-curvature="0"
         d="m 22.188,19.561 c -0.274,0 -0.5,-0.224 -0.5,-0.5 v -8 c 0,-0.276 0.226,-0.5 0.5,-0.5 0.277,0 0.5,0.224 0.5,0.5 v 8 c 0,0.276 -0.223,0.5 -0.5,0.5 z"
         id="path7203" /></g></g></svg>