<?xml version="1.0" encoding="utf-8"?>
<!-- Generator: Adobe Illustrator 16.0.4, SVG Export Plug-In . SVG Version: 6.00 Build 0)  -->
<!DOCTYPE svg PUBLIC "-//W3C//DTD SVG 1.1//EN" "http://www.w3.org/Graphics/SVG/1.1/DTD/svg11.dtd">
<svg version="1.1" id="Calque_1" xmlns="http://www.w3.org/2000/svg" xmlns:xlink="http://www.w3.org/1999/xlink" x="0px" y="0px"
	 width="40px" height="40px" viewBox="0 0 40 40" enable-background="new 0 0 40 40" xml:space="preserve">
<rect fill="#A4CFEE" width="40" height="40"/>
<path fill="#1D2028" d="M0.625,6.375"/>
<polygon fill="#7CB0D1" points="20,30.143 5.858,26 20,21.857 34.142,26 "/>
<path fill="#363A4C" d="M28,26c0,0-3.375,2-8,2c-4.5,0-8-2-8-2l1-8h14L28,26z"/>
<polygon fill="#1D2028" points="12.642,20.867 20,25.125 28,20.438 28,18 13,18 "/>
<polygon fill="#3F425B" points="20,22.143 5.858,18 20,13.858 34.142,18 "/>
<polygon fill="#3F425B" points="20,22.143 5.858,18 20,13.858 34.142,18 "/>
<ellipse fill="#DBB849" cx="20" cy="17.656" rx="1.062" ry="0.344"/>
<polygon fill="#DBB849" points="20.729,17.406 29.628,19.322 27.015,20.088 19.188,17.875 "/>
<ellipse fill="#1D2028" cx="20" cy="17.656" rx="0.581" ry="0.188"/>
<polygon fill="#BF9D40" points="27.015,20.088 27,25 29.628,23.869 29.628,19.322 "/>
</svg>
