<?xml version="1.0" encoding="UTF-8" standalone="no"?>
<!-- Generator: Adobe Illustrator 16.0.4, SVG Export Plug-In . SVG Version: 6.00 Build 0)  -->

<svg
   xmlns:dc="http://purl.org/dc/elements/1.1/"
   xmlns:cc="http://creativecommons.org/ns#"
   xmlns:rdf="http://www.w3.org/1999/02/22-rdf-syntax-ns#"
   xmlns:svg="http://www.w3.org/2000/svg"
   xmlns="http://www.w3.org/2000/svg"
   xmlns:sodipodi="http://sodipodi.sourceforge.net/DTD/sodipodi-0.dtd"
   xmlns:inkscape="http://www.inkscape.org/namespaces/inkscape"
   version="1.1"
   id="Calque_1"
   x="0px"
   y="0px"
   width="27.129px"
   height="27.129px"
   viewBox="8.478 4.582 27.129 27.129"
   enable-background="new 8.478 4.582 27.129 27.129"
   xml:space="preserve"
   inkscape:version="0.48.4 r9939"
   sodipodi:docname="search-mobile-1.svg"><metadata
     id="metadata3231"><rdf:RDF><cc:Work
         rdf:about=""><dc:format>image/svg+xml</dc:format><dc:type
           rdf:resource="http://purl.org/dc/dcmitype/StillImage" /><dc:title></dc:title></cc:Work></rdf:RDF></metadata><defs
     id="defs3229" /><sodipodi:namedview
     pagecolor="#ffffff"
     bordercolor="#666666"
     borderopacity="1"
     objecttolerance="10"
     gridtolerance="10"
     guidetolerance="10"
     inkscape:pageopacity="0"
     inkscape:pageshadow="2"
     inkscape:window-width="1391"
     inkscape:window-height="876"
     id="namedview3227"
     showgrid="false"
     inkscape:zoom="8.6991781"
     inkscape:cx="13.5645"
     inkscape:cy="13.5645"
     inkscape:window-x="49"
     inkscape:window-y="24"
     inkscape:window-maximized="1"
     inkscape:current-layer="Calque_1" /><g
     transform="matrix(1.2979783,0,0,1.2979783,-6.4520833,-5.4053154)"
     id="g3503"><g
       id="g3505"><path
         inkscape:connector-curvature="0"
         d="m 18.919,22.316 c -4.021,0 -7.293,-3.271 -7.293,-7.293 0,-4.022 3.272,-7.294 7.293,-7.294 4.021,0 7.293,3.272 7.293,7.294 0,4.022 -3.272,7.293 -7.293,7.293 z m 0,-13.738 c -3.554,0 -6.445,2.891 -6.445,6.445 0,3.554 2.891,6.445 6.445,6.445 3.554,0 6.445,-2.892 6.445,-6.445 0,-3.554 -2.891,-6.445 -6.445,-6.445 z"
         id="path3507" /></g><g
       id="g3509"><path
         inkscape:connector-curvature="0"
         d="m 24.566,22.467 c -0.108,0 -0.217,-0.041 -0.3,-0.124 l -1.529,-1.529 c -0.08,-0.079 -0.124,-0.188 -0.124,-0.3 0,-0.112 0.045,-0.221 0.124,-0.3 l 1.371,-1.369 c 0.166,-0.166 0.434,-0.166 0.6,0 l 1.528,1.529 c 0.08,0.079 0.124,0.188 0.124,0.3 0,0.112 -0.044,0.221 -0.124,0.3 l -1.37,1.369 c -0.083,0.083 -0.191,0.124 -0.3,0.124 z m -0.929,-1.953 0.93,0.93 0.771,-0.77 -0.929,-0.93 -0.772,0.77 z"
         id="path3511" /></g><g
       id="g3513"><path
         inkscape:connector-curvature="0"
         d="m 29.404,28.561 c -0.108,0 -0.217,-0.041 -0.3,-0.124 l -5.463,-5.465 c -0.166,-0.166 -0.166,-0.435 0,-0.6 l 2.627,-2.627 c 0.166,-0.166 0.434,-0.166 0.6,0 l 5.465,5.465 c 0.08,0.079 0.124,0.188 0.124,0.3 0,0.112 -0.044,0.221 -0.124,0.3 l -2.629,2.627 c -0.083,0.083 -0.191,0.124 -0.3,0.124 z m -4.863,-5.889 4.863,4.865 2.029,-2.027 -4.865,-4.865 -2.027,2.027 z"
         id="path3515" /></g></g></svg>