<?xml version="1.0" encoding="UTF-8" standalone="no"?>
<!-- Generator: Adobe Illustrator 16.0.4, SVG Export Plug-In . SVG Version: 6.00 Build 0)  -->

<svg
   xmlns:dc="http://purl.org/dc/elements/1.1/"
   xmlns:cc="http://creativecommons.org/ns#"
   xmlns:rdf="http://www.w3.org/1999/02/22-rdf-syntax-ns#"
   xmlns:svg="http://www.w3.org/2000/svg"
   xmlns="http://www.w3.org/2000/svg"
   xmlns:sodipodi="http://sodipodi.sourceforge.net/DTD/sodipodi-0.dtd"
   xmlns:inkscape="http://www.inkscape.org/namespaces/inkscape"
   version="1.1"
   id="Calque_1"
   x="0px"
   y="0px"
   width="27.129px"
   height="27.129px"
   viewBox="8.478 4.582 27.129 27.129"
   enable-background="new 8.478 4.582 27.129 27.129"
   xml:space="preserve"
   inkscape:version="0.48.4 r9939"
   sodipodi:docname="sync-1.svg"><metadata
     id="metadata3231"><rdf:RDF><cc:Work
         rdf:about=""><dc:format>image/svg+xml</dc:format><dc:type
           rdf:resource="http://purl.org/dc/dcmitype/StillImage" /><dc:title /></cc:Work></rdf:RDF></metadata><defs
     id="defs3229" /><sodipodi:namedview
     pagecolor="#ffffff"
     bordercolor="#666666"
     borderopacity="1"
     objecttolerance="10"
     gridtolerance="10"
     guidetolerance="10"
     inkscape:pageopacity="0"
     inkscape:pageshadow="2"
     inkscape:window-width="1391"
     inkscape:window-height="876"
     id="namedview3227"
     showgrid="false"
     inkscape:zoom="8.6991781"
     inkscape:cx="13.5645"
     inkscape:cy="13.5645"
     inkscape:window-x="49"
     inkscape:window-y="24"
     inkscape:window-maximized="1"
     inkscape:current-layer="Calque_1" /><g
     transform="matrix(0.94756512,0,0,0.94756512,0.86190164,1.0211785)"
     id="g3717"><g
       id="g3719"><path
         inkscape:connector-curvature="0"
         d="M 8.542,32.191 C 8.443,32.191 8.344,32.162 8.26,32.104 8.123,32.011 8.042,31.856 8.042,31.691 V 8.136 c 0,-0.205 0.125,-0.389 0.315,-0.465 l 8.9,-3.537 c 0.255,-0.101 0.547,0.023 0.649,0.28 0.102,0.256 -0.023,0.547 -0.28,0.649 L 9.042,8.475 v 22.483 l 8.343,-3.27 c 0.256,-0.1 0.547,0.025 0.648,0.283 0.101,0.257 -0.025,0.548 -0.283,0.648 l -9.026,3.537 c -0.058,0.024 -0.12,0.035 -0.182,0.035 z"
         id="path3721" /></g><g
       id="g3723"><path
         inkscape:connector-curvature="0"
         d="m 19.479,29.037 c -0.032,0 -0.065,-0.003 -0.098,-0.01 L 17.444,28.644 C 17.21,28.598 17.041,28.392 17.041,28.154 V 4.599 c 0,-0.166 0.082,-0.32 0.218,-0.413 0.137,-0.094 0.31,-0.113 0.465,-0.052 l 9,3.537 c 0.191,0.075 0.317,0.26 0.317,0.465 v 7.614 c 0,0.276 -0.224,0.5 -0.5,0.5 -0.276,0 -0.5,-0.224 -0.5,-0.5 V 8.477 l -8,-3.144 v 22.41 l 1.533,0.304 c 0.271,0.054 0.447,0.316 0.394,0.587 -0.046,0.238 -0.255,0.403 -0.489,0.403 z"
         id="path3725" /></g><g
       id="g3727"><path
         inkscape:connector-curvature="0"
         d="m 34.542,16.25 c -0.276,0 -0.5,-0.224 -0.5,-0.5 V 5.31 L 25.938,8.221 C 25.678,8.315 25.391,8.179 25.298,7.919 25.205,7.659 25.34,7.373 25.6,7.279 l 8.772,-3.151 c 0.153,-0.054 0.323,-0.032 0.457,0.062 0.133,0.094 0.212,0.247 0.212,0.409 V 15.75 c 0.001,0.276 -0.223,0.5 -0.499,0.5 z"
         id="path3729" /></g><g
       id="g3731"><g
         id="g3733"><path
           inkscape:connector-curvature="0"
           d="m 36.042,18.75 h -7 c -0.276,0 -0.5,-0.224 -0.5,-0.5 0,-0.276 0.224,-0.5 0.5,-0.5 h 7 c 0.276,0 0.5,0.224 0.5,0.5 0,0.276 -0.224,0.5 -0.5,0.5 z"
           id="path3735" /></g><g
         id="g3737"><path
           inkscape:connector-curvature="0"
           d="m 36.042,20.75 h -7 c -0.276,0 -0.5,-0.224 -0.5,-0.5 0,-0.276 0.224,-0.5 0.5,-0.5 h 7 c 0.276,0 0.5,0.224 0.5,0.5 0,0.276 -0.224,0.5 -0.5,0.5 z"
           id="path3739" /></g><g
         id="g3741"><path
           inkscape:connector-curvature="0"
           d="m 33.042,22.75 h -4 c -0.276,0 -0.5,-0.224 -0.5,-0.5 0,-0.276 0.224,-0.5 0.5,-0.5 h 4 c 0.276,0 0.5,0.224 0.5,0.5 0,0.276 -0.224,0.5 -0.5,0.5 z"
           id="path3743" /></g><g
         id="g3745"><path
           inkscape:connector-curvature="0"
           d="m 26.542,22.75 h -4 c -0.276,0 -0.5,-0.224 -0.5,-0.5 v -4 c 0,-0.276 0.224,-0.5 0.5,-0.5 h 4 c 0.276,0 0.5,0.224 0.5,0.5 v 4 c 0,0.276 -0.224,0.5 -0.5,0.5 z m -3.5,-1 h 3 v -3 h -3 v 3 z"
           id="path3747" /></g></g><g
       id="g3749"><g
         id="g3751"><path
           inkscape:connector-curvature="0"
           d="m 36.042,25.75 h -7 c -0.276,0 -0.5,-0.224 -0.5,-0.5 0,-0.276 0.224,-0.5 0.5,-0.5 h 7 c 0.276,0 0.5,0.224 0.5,0.5 0,0.276 -0.224,0.5 -0.5,0.5 z"
           id="path3753" /></g><g
         id="g3755"><path
           inkscape:connector-curvature="0"
           d="m 36.042,27.75 h -7 c -0.276,0 -0.5,-0.224 -0.5,-0.5 0,-0.276 0.224,-0.5 0.5,-0.5 h 7 c 0.276,0 0.5,0.224 0.5,0.5 0,0.276 -0.224,0.5 -0.5,0.5 z"
           id="path3757" /></g><g
         id="g3759"><path
           inkscape:connector-curvature="0"
           d="m 33.042,29.75 h -4 c -0.276,0 -0.5,-0.224 -0.5,-0.5 0,-0.276 0.224,-0.5 0.5,-0.5 h 4 c 0.276,0 0.5,0.224 0.5,0.5 0,0.276 -0.224,0.5 -0.5,0.5 z"
           id="path3761" /></g><g
         id="g3763"><path
           inkscape:connector-curvature="0"
           d="m 26.542,29.75 h -4 c -0.276,0 -0.5,-0.224 -0.5,-0.5 v -4 c 0,-0.276 0.224,-0.5 0.5,-0.5 h 4 c 0.276,0 0.5,0.224 0.5,0.5 v 4 c 0,0.276 -0.224,0.5 -0.5,0.5 z m -3.5,-1 h 3 v -3 h -3 v 3 z"
           id="path3765" /></g></g></g></svg>