<?xml version="1.0" encoding="UTF-8" standalone="no"?>
<!-- Generator: Adobe Illustrator 16.0.4, SVG Export Plug-In . SVG Version: 6.00 Build 0)  -->

<svg
   xmlns:dc="http://purl.org/dc/elements/1.1/"
   xmlns:cc="http://creativecommons.org/ns#"
   xmlns:rdf="http://www.w3.org/1999/02/22-rdf-syntax-ns#"
   xmlns:svg="http://www.w3.org/2000/svg"
   xmlns="http://www.w3.org/2000/svg"
   xmlns:sodipodi="http://sodipodi.sourceforge.net/DTD/sodipodi-0.dtd"
   xmlns:inkscape="http://www.inkscape.org/namespaces/inkscape"
   version="1.1"
   id="Calque_1"
   x="0px"
   y="0px"
   width="14.307px"
   height="14.343px"
   viewBox="4.763 3.578 14.307 14.343"
   enable-background="new 4.763 3.578 14.307 14.343"
   xml:space="preserve"
   inkscape:version="0.48.4 r9939"
   sodipodi:docname="twitter-1.svg"><metadata
     id="metadata3288"><rdf:RDF><cc:Work
         rdf:about=""><dc:format>image/svg+xml</dc:format><dc:type
           rdf:resource="http://purl.org/dc/dcmitype/StillImage" /><dc:title /></cc:Work></rdf:RDF></metadata><defs
     id="defs3286" /><sodipodi:namedview
     pagecolor="#ffffff"
     bordercolor="#666666"
     borderopacity="1"
     objecttolerance="10"
     gridtolerance="10"
     guidetolerance="10"
     inkscape:pageopacity="0"
     inkscape:pageshadow="2"
     inkscape:window-width="640"
     inkscape:window-height="480"
     id="namedview3284"
     showgrid="false"
     inkscape:zoom="16.454019"
     inkscape:cx="7.1535001"
     inkscape:cy="7.1715002"
     inkscape:window-x="189"
     inkscape:window-y="78"
     inkscape:window-maximized="0"
     inkscape:current-layer="Calque_1" /><path
     inkscape:connector-curvature="0"
     d="m 9.4270282,16.499219 c -1.5059999,0 -2.9759999,-0.419 -4.2489999,-1.21 -0.198,-0.124 -0.285,-0.368 -0.208,-0.589 0.077,-0.22 0.299,-0.358 0.528,-0.333 0.803,0.088 1.655,-0.017 2.403,-0.322 -0.759,-0.315 -1.321,-0.886 -1.567,-1.634 -0.055,-0.169 -0.017,-0.354 0.101,-0.487 0.028,-0.032 0.061,-0.061 0.095,-0.084 -0.665,-0.561 -1.078,-1.388001 -1.078,-2.2900008 0,-0.176 0.093,-0.354 0.244,-0.444 0.074,-0.044 0.157,-0.071 0.24,-0.077 -0.153,-0.424 -0.233,-0.92 -0.233,-1.475 0,-0.5349999 0.145,-1.0619999 0.42,-1.5229999 0.083,-0.14 0.228,-0.23 0.389,-0.243 0.167,-0.011 0.319,0.053 0.423,0.177 1.242,1.478 2.6459999,2.3439999 4.1789997,2.5799999 0,-0.005 0,-0.011 0,-0.016 0,-1.6659999 1.391,-3.0209999 3.1,-3.0209999 0.729,0 1.415,0.241 1.966,0.684 0.217,-0.127 0.413,-0.252 0.604,-0.374 0.209,-0.133 0.413,-0.262 0.628,-0.387 0.194,-0.112 0.44,-0.081 0.601,0.077 0.16,0.158 0.195,0.403 0.086,0.6 -0.18,0.323 -0.37,0.627 -0.561,0.933 -0.021,0.033 -0.041,0.065 -0.062,0.098 0.267,0.023 0.53,0.052 0.778,0.079 l 0.226,0.024 c 0.224,0.023 0.404,0.194 0.44,0.4159999 0.037,0.223 -0.08,0.441 -0.285,0.536 l -0.439,0.2 c -0.308,0.14 -0.552,0.25 -0.872,0.407 v 0.007 c -10e-4,3.7870008 -2.955,7.6910008 -7.8969998,7.6910008 z m -1.9389999,-1.27 c 0.626,0.179 1.278,0.271 1.9379999,0.271 4.3159998,0 6.8959998,-3.396 6.8959998,-6.6800008 l -0.008,-0.314 c -0.004,-0.171 0.079,-0.331 0.218,-0.425 -0.146,-0.025 -0.274,-0.115 -0.349,-0.246 -0.085,-0.154 -0.084,-0.3419999 0.003,-0.4949999 0.009,-0.015 0.018,-0.031 0.026,-0.046 -0.167,0.037 -0.342,-0.016 -0.463,-0.142 -0.4,-0.416 -0.945,-0.644 -1.536,-0.644 -1.158,0 -2.1,0.907 -2.1,2.0209999 0,0.158 0.018,0.312 0.053,0.457 0.037,0.153 0,0.315 -0.1,0.437 -0.1,0.122 -0.246,0.191 -0.41,0.181 -1.8159998,-0.089 -3.4699997,-0.887 -4.9259997,-2.3769999 -0.018,0.107 -0.027,0.216 -0.027,0.3269999 0,0.424 0.068,1.454 0.697,1.861 0.188,0.122 0.272,0.354 0.206,0.569 -0.067,0.2139998 -0.239,0.3509998 -0.493,0.3509998 -0.174,-0.005 -0.347,-0.025 -0.517,-0.059 0.255,0.636001 0.825,1.119001 1.537,1.260001 0.196,0.038 0.35,0.189 0.392,0.384 0.042,0.195 -0.036,0.396 -0.198,0.513 -0.247,0.177 -0.465,0.249 -0.651,0.295 0.426,0.413 1.065,0.582 1.625,0.592 0.2129999,0.004 0.3999999,0.142 0.4659999,0.345 0.066,0.202 -0.003,0.425 -0.172,0.554 -0.6339999,0.482 -1.3469999,0.821 -2.1069999,1.01 z"
     id="path3222" /></svg>