<?xml version="1.0" encoding="utf-8"?>
<!-- Generator: Adobe Illustrator 16.0.4, SVG Export Plug-In . SVG Version: 6.00 Build 0)  -->
<!DOCTYPE svg PUBLIC "-//W3C//DTD SVG 1.1//EN" "http://www.w3.org/Graphics/SVG/1.1/DTD/svg11.dtd">
<svg version="1.1" id="Calque_1" xmlns="http://www.w3.org/2000/svg" xmlns:xlink="http://www.w3.org/1999/xlink" x="0px" y="0px"
	 width="23.833px" height="21.5px" viewBox="0 0 23.833 21.5" enable-background="new 0 0 23.833 21.5" xml:space="preserve">
<path fill="none" stroke="#000000" stroke-linecap="round" stroke-linejoin="round" stroke-miterlimit="10" d="M18.409,7.557
	c-0.564-0.059-1.217-0.137-1.807-0.15c0.344-0.601,0.709-1.129,1.041-1.725c-0.504,0.291-0.941,0.613-1.551,0.941
	c-0.475-0.492-1.148-0.797-1.896-0.797c-1.436,0-2.6,1.129-2.6,2.521c0,0.197,0.023,0.391,0.068,0.576
	c-2.16-0.105-3.848-1.293-5.129-2.818C6.312,6.479,6.185,6.91,6.185,7.373c0,0.875,0.229,1.83,0.926,2.281
	C6.685,9.641,6.284,9.529,5.933,9.34v0.029c0,1.225,0.896,2.242,2.086,2.477c-0.275,0.197-0.486,0.211-0.738,0.275
	c-0.164,0.039-0.332-0.016-0.49-0.047c0.33,1.004,1.346,1.545,2.484,1.564c-0.891,0.678-2.012,1.082-3.229,1.082
	c-0.211,0-0.418-0.014-0.621-0.037c1.152,0.717,2.516,1.135,3.984,1.135c4.781,0,7.396-3.846,7.396-7.18l-0.008-0.326
	C17.438,7.991,17.747,7.861,18.409,7.557z"/>
</svg>
