<?xml version="1.0" encoding="utf-8"?>
<!-- Generator: Adobe Illustrator 16.0.4, SVG Export Plug-In . SVG Version: 6.00 Build 0)  -->
<!DOCTYPE svg PUBLIC "-//W3C//DTD SVG 1.1//EN" "http://www.w3.org/Graphics/SVG/1.1/DTD/svg11.dtd">
<svg version="1.1" id="Calque_1" xmlns="http://www.w3.org/2000/svg" xmlns:xlink="http://www.w3.org/1999/xlink" x="0px" y="0px"
	 width="13.215px" height="14.107px" viewBox="5.308 3.697 13.215 14.107" enable-background="new 5.308 3.697 13.215 14.107"
	 xml:space="preserve">
<g>
	<g>
		<g>
			<path d="M10.84,17.805c-3.05,0-5.532-2.482-5.532-5.533c0-3.05,2.481-5.531,5.532-5.531c0.376,0,0.751,0.038,1.115,0.112
				c0.271,0.055,0.445,0.319,0.39,0.59c-0.056,0.271-0.319,0.443-0.59,0.39C11.458,7.771,11.149,7.74,10.84,7.74
				c-2.499,0-4.532,2.033-4.532,4.531c0,2.5,2.033,4.533,4.532,4.533c2.499,0,4.532-2.033,4.532-4.533
				c0-0.272-0.023-0.542-0.07-0.803c-0.049-0.271,0.132-0.531,0.404-0.58c0.265-0.048,0.531,0.132,0.58,0.404
				c0.057,0.318,0.086,0.647,0.086,0.979C16.372,15.322,13.89,17.805,10.84,17.805z"/>
		</g>
	</g>
	<g>
		<path d="M10.732,15.977c-0.142,0-0.283-0.06-0.381-0.176c-0.179-0.211-0.153-0.526,0.057-0.705
			c1.823-1.55,2.814-3.285,2.945-5.157c0.21-3.01-1.87-5.387-1.891-5.411c-0.184-0.206-0.165-0.522,0.042-0.706
			c0.206-0.184,0.522-0.167,0.706,0.042c0.098,0.109,2.38,2.719,2.141,6.144c-0.149,2.15-1.259,4.119-3.294,5.85
			C10.962,15.938,10.847,15.977,10.732,15.977z"/>
	</g>
	<g>
		<path d="M15.227,10.117c-0.382,0-0.795-0.036-1.239-0.11c-0.21-0.034-0.375-0.198-0.411-0.407
			c-0.037-0.209,0.063-0.419,0.249-0.523c0.498-0.278,1.857-1.18,2.158-2.008c0.094-0.259,0.38-0.393,0.641-0.299
			c0.26,0.094,0.394,0.381,0.299,0.641c-0.236,0.65-0.817,1.245-1.374,1.696c0.701-0.05,1.215-0.275,1.534-0.672
			c0.629-0.783,0.473-2.181,0.224-3.174c-0.312,0.322-0.736,0.659-1.267,0.849c-2.171,0.632-1.831,1.904-1.815,1.958
			c0.076,0.265-0.077,0.542-0.342,0.619c-0.27,0.075-0.542-0.077-0.619-0.342c-0.007-0.022-0.62-2.287,2.468-3.185
			c0.81-0.292,1.318-1.192,1.323-1.202c0.093-0.17,0.275-0.27,0.469-0.26c0.193,0.011,0.363,0.133,0.435,0.313
			c0.054,0.135,1.302,3.311-0.096,5.051C17.298,9.764,16.415,10.117,15.227,10.117z"/>
	</g>
</g>
</svg>
