<?xml version="1.0" encoding="utf-8"?>
<!-- Generator: Adobe Illustrator 16.0.4, SVG Export Plug-In . SVG Version: 6.00 Build 0)  -->
<!DOCTYPE svg PUBLIC "-//W3C//DTD SVG 1.1//EN" "http://www.w3.org/Graphics/SVG/1.1/DTD/svg11.dtd">
<svg version="1.1" id="Calque_1" xmlns="http://www.w3.org/2000/svg" xmlns:xlink="http://www.w3.org/1999/xlink" x="0px" y="0px"
	 width="23.833px" height="21.5px" viewBox="0 0 23.833 21.5" enable-background="new 0 0 23.833 21.5" xml:space="preserve">
<g>
	<g>
		<path fill="none" stroke="#000000" stroke-linecap="round" stroke-linejoin="round" stroke-miterlimit="10" d="M15.793,11.381
			c0.052,0.289,0.079,0.587,0.079,0.891c0,2.779-2.253,5.032-5.032,5.032s-5.032-2.253-5.032-5.032c0-2.777,2.253-5.032,5.032-5.032
			c0.348,0,0.687,0.035,1.015,0.102"/>
	</g>
	<path fill="none" stroke="#000000" stroke-linecap="round" stroke-linejoin="round" stroke-miterlimit="10" d="M11.836,4.196
		c0,0,5.237,5.89-1.104,11.281"/>
	<path fill="none" stroke="#000000" stroke-linecap="round" stroke-linejoin="round" stroke-miterlimit="10" d="M13.745,8.206
		c0,0-0.518-1.798,2.127-2.567c1.04-0.374,1.623-1.442,1.623-1.442s2.521,6.298-3.426,5.317c0,0,1.953-1.086,2.385-2.274"/>
</g>
</svg>
