<?xml version="1.0" encoding="utf-8"?>
<!-- Generator: Adobe Illustrator 16.0.4, SVG Export Plug-In . SVG Version: 6.00 Build 0)  -->
<!DOCTYPE svg PUBLIC "-//W3C//DTD SVG 1.1//EN" "http://www.w3.org/Graphics/SVG/1.1/DTD/svg11.dtd">
<svg version="1.1" id="Calque_1" xmlns="http://www.w3.org/2000/svg" xmlns:xlink="http://www.w3.org/1999/xlink" x="0px" y="0px"
	 width="23.833px" height="21.5px" viewBox="0 0 23.833 21.5" enable-background="new 0 0 23.833 21.5" xml:space="preserve">
<g>
	
		<circle fill="none" stroke="#000000" stroke-linecap="round" stroke-linejoin="round" stroke-miterlimit="10" cx="11.917" cy="10.75" r="6.5"/>
	<path fill="none" stroke="#000000" stroke-linecap="round" stroke-linejoin="round" stroke-miterlimit="10" d="M17.315,7.126
		c-1.168,0.494-3.15,0.819-5.398,0.819c-2.242,0-4.223-0.325-5.389-0.816"/>
	<path fill="none" stroke="#000000" stroke-linecap="round" stroke-linejoin="round" stroke-miterlimit="10" d="M17.312,14.373
		c-1.166-0.493-3.148-0.816-5.395-0.816c-2.242,0-4.223,0.323-5.389,0.814"/>
	<path fill="none" stroke="#000000" stroke-linecap="round" stroke-linejoin="round" stroke-miterlimit="10" d="M11.909,17.25
		c1.877,0,3.391-2.91,3.391-6.5c0-3.588-1.514-6.5-3.391-6.5c-1.871,0-3.389,2.912-3.389,6.5C8.521,14.34,10.038,17.25,11.909,17.25
		z"/>
	
		<line fill="none" stroke="#000000" stroke-linecap="round" stroke-linejoin="round" stroke-miterlimit="10" x1="5.417" y1="10.75" x2="18.405" y2="10.75"/>
	
		<line fill="none" stroke="#000000" stroke-linecap="round" stroke-linejoin="round" stroke-miterlimit="10" x1="11.909" y1="4.257" x2="11.909" y2="17.243"/>
</g>
</svg>
