<?xml version="1.0" encoding="UTF-8" standalone="no"?>
<!-- Created with Inkscape (http://www.inkscape.org/) -->

<svg
   xmlns:dc="http://purl.org/dc/elements/1.1/"
   xmlns:cc="http://creativecommons.org/ns#"
   xmlns:rdf="http://www.w3.org/1999/02/22-rdf-syntax-ns#"
   xmlns:svg="http://www.w3.org/2000/svg"
   xmlns="http://www.w3.org/2000/svg"
   version="1.1"
   width="32"
   height="32"
   viewBox="0 0 32 32"
   id="Calque_1"
   xml:space="preserve"><metadata
     id="metadata3624"><rdf:RDF><cc:Work
         rdf:about=""><dc:format>image/svg+xml</dc:format><dc:type
           rdf:resource="http://purl.org/dc/dcmitype/StillImage" /><dc:title></dc:title></cc:Work></rdf:RDF></metadata><defs
     id="defs3622" /><g
     transform="matrix(1.0434556,0,0,1.0735853,-0.89015456,1.2383366)"
     id="g3594"><g
       id="g3596"><path
         d="m 16.232,22.133 c -0.604,0 -1.303,-0.244 -2.01,-0.95 L 7.284,14.244 C 7.175,14.137 7.113,13.987 7.113,13.833 c 0,-0.154 0.062,-0.299 0.171,-0.407 l 6.065,-6.067 c 0.227,-0.228 0.598,-0.228 0.823,0 l 2.121,2.121 c 0.228,0.228 0.228,0.597 0,0.822 -0.228,0.225 -0.59,0.226 -0.817,0 l -1.715,-1.712 -5.246,5.243 6.529,6.53 c 1.11,1.106 1.917,0.372 2.004,0.284 l 3.886,-3.888 c 0.227,-0.228 0.592,-0.228 0.819,0 0.227,0.228 0.228,0.595 0,0.82 l -3.886,3.888 c -0.316,0.316 -0.906,0.666 -1.635,0.666 z"
         id="path3598" /></g><g
       id="g3600"><path
         d="m 21.042,18.053 c -0.153,0 -0.304,-0.06 -0.411,-0.168 L 16.794,14.05 16.145,14.7 c -0.626,0.623 -1.717,0.623 -2.34,0 l -0.302,-0.307 c -0.647,-0.642 -0.647,-1.688 0,-2.338 l 4.699,-4.698 c 0.226,-0.228 0.597,-0.228 0.823,0 l 6.065,6.067 c 0.228,0.225 0.228,0.591 0,0.818 l -3.638,3.642 c -0.109,0.109 -0.256,0.169 -0.41,0.169 z m -4.248,-5.408 c 0.154,0 0.303,0.062 0.413,0.174 l 3.835,3.836 2.817,-2.822 -5.246,-5.243 -4.29,4.29 c -0.191,0.189 -0.191,0.501 0,0.695 l 0.303,0.301 c 0.188,0.19 0.512,0.19 0.697,-10e-4 l 1.06,-1.056 c 0.107,-0.113 0.259,-0.174 0.411,-0.174 z"
         id="path3602" /></g><g
       id="g3604"><path
         d="m 19.523,18.965 c -0.147,0 -0.295,-0.059 -0.408,-0.172 l -1.819,-1.82 c -0.228,-0.226 -0.228,-0.593 0,-0.82 0.228,-0.227 0.59,-0.228 0.817,0 l 1.821,1.821 c 0.228,0.228 0.228,0.593 0,0.819 -0.114,0.113 -0.26,0.172 -0.411,0.172 z"
         id="path3606" /></g><g
       id="g3608"><path
         d="m 17.702,20.784 c -0.147,0 -0.293,-0.058 -0.406,-0.172 l -1.819,-1.819 c -0.228,-0.227 -0.228,-0.592 0,-0.819 0.228,-0.227 0.59,-0.228 0.817,0 l 1.819,1.819 c 0.228,0.228 0.228,0.593 0,0.819 -0.113,0.115 -0.26,0.172 -0.411,0.172 z"
         id="path3610" /></g><g
       id="g3612"><path
         d="m 25.288,15.019 c -0.153,0 -0.304,-0.06 -0.41,-0.167 L 18.202,8.177 C 18.094,8.07 18.034,7.921 18.034,7.766 c 0,-0.153 0.06,-0.3 0.168,-0.408 l 1.82,-1.82 c 0.228,-0.227 0.598,-0.227 0.824,0 l 6.67,6.674 c 0.228,0.225 0.228,0.592 0,0.819 l -1.818,1.821 c -0.108,0.107 -0.256,0.167 -0.41,0.167 z m -5.854,-7.253 5.854,5.854 0.998,-1.003 -5.851,-5.85 -1.001,0.999 z"
         id="path3614" /></g><g
       id="g3616"><path
         d="m 7.088,15.019 0,0 c -0.154,0 -0.303,-0.06 -0.412,-0.167 L 4.856,13.03 c -0.226,-0.228 -0.226,-0.595 0,-0.819 l 6.672,-6.674 c 0.227,-0.227 0.597,-0.227 0.824,0 l 1.82,1.82 c 0.108,0.108 0.168,0.255 0.168,0.408 0,0.155 -0.06,0.304 -0.168,0.411 L 7.496,14.851 C 7.39,14.959 7.241,15.019 7.088,15.019 z M 6.09,12.617 7.088,13.62 12.942,7.766 11.94,6.768 6.09,12.617 z"
         id="path3618" /></g></g></svg>