<?xml version="1.0" encoding="UTF-8" standalone="no"?>
<!-- Created with Inkscape (http://www.inkscape.org/) -->

<svg
   xmlns:dc="http://purl.org/dc/elements/1.1/"
   xmlns:cc="http://creativecommons.org/ns#"
   xmlns:rdf="http://www.w3.org/1999/02/22-rdf-syntax-ns#"
   xmlns:svg="http://www.w3.org/2000/svg"
   xmlns="http://www.w3.org/2000/svg"
   version="1.1"
   width="32"
   height="32"
   viewBox="0 0 32 32"
   id="Calque_1"
   xml:space="preserve"><metadata
     id="metadata9631"><rdf:RDF><cc:Work
         rdf:about=""><dc:format>image/svg+xml</dc:format><dc:type
           rdf:resource="http://purl.org/dc/dcmitype/StillImage" /><dc:title></dc:title></cc:Work></rdf:RDF></metadata><defs
     id="defs9629" /><g
     transform="matrix(0.8,0,0,0.8,0,6.4)"
     id="g11511"><rect
       width="40"
       height="40"
       x="0"
       y="-8"
       id="rect9577"
       style="fill:#ed7d66" /><path
       d="m 23.479,5.792 c 0,0 -4.479,-1.02 -11.479,1.143 l -0.579,8.25 1.304,1.019 c 0.532,1.753 2.656,2.816 2.717,2.816 0.094,0 3.559,1.189 3.559,1.189 0,0 1.436,0.369 1.881,-0.999 0,0 1.661,0.599 2.286,-0.626 0,0 1.583,0.708 2.583,-0.949 0,0 1.545,0.443 1.617,-1.221 L 23.479,5.792 z"
       id="path9579"
       style="fill:#eac9a9" /><path
       d="m 20.798,16.612 c -0.143,-0.127 -0.32,-0.188 -0.502,-0.194 l 0.078,-0.087 c 0.398,-0.449 0.358,-1.136 -0.091,-1.535 l -0.405,-0.361 c -0.387,-0.343 -0.947,-0.358 -1.352,-0.071 0.182,-0.428 0.104,-0.918 -0.233,-1.219 l -0.394,-0.35 c -0.372,-0.33 -0.934,-0.321 -1.354,-0.015 0.244,-0.411 0.172,-0.95 -0.199,-1.279 l -0.38,-0.338 c -0.42,-0.373 -1.152,-0.336 -1.525,0.084 L 12,13.893 v 0.675 l 2.072,0.322 c 0.532,1.753 1.309,4.208 1.369,4.208 0.094,0 2.714,1.109 3.199,1.302 l 2.485,-2.227 c 0.324,-0.364 0.314,-0.944 -0.026,-1.247 l -0.301,-0.314 z"
       id="path9581"
       style="fill:#7c6959" /><path
       d="m 16.757,8.652 c 0,0 1.699,2.926 6.66,0.933 L 25.782,13.804 29,15.782 24.713,7.74 16.757,8.652 z"
       id="path9583"
       style="fill:#7c6959" /><path
       d="m 27.039,17.355 c 0,0 -2.055,-1.092 -2.68,-3.074 C 23.85,12.667 23.728,10.424 24.13,9.904 l 1.061,0.564 1.848,6.887 z"
       id="path9585"
       style="fill:#7c6959" /><polygon
       points="27.279,25.136 27.039,25.355 26.729,24.203 27.367,24.598 "
       transform="translate(0,-8)"
       id="polygon9587"
       style="fill:#7c6959" /><path
       d="M 16.757,8.652 C 18.115,8.079 23.818,5.535 23.818,5.535 L 28.906,7.094 28.525,15.967 23.5,9.033 c -0.001,0 -4.835,2.736 -6.743,-0.381 z"
       id="path9589"
       style="fill:#f7d5ad" /><ellipse
       cx="27.785"
       cy="20.167"
       rx="3.484"
       ry="5.237"
       transform="matrix(0.9833,-0.1819,0.1819,0.9833,-3.2047,-2.6097)"
       id="ellipse9591"
       style="fill:#f7d5ad" /><path
       d="m 20.597,16.887 c 0.341,0.303 0.354,0.844 0.031,1.208 l -2.637,2.967 c -0.323,0.364 -0.862,0.414 -1.203,0.11 l -0.31,-0.274 c -0.341,-0.303 -0.354,-0.844 -0.03,-1.208 l 2.637,-2.966 c 0.324,-0.364 0.862,-0.414 1.204,-0.111 l 0.308,0.274 z"
       id="path9593"
       style="fill:#f7d5ad" /><path
       d="m 17.784,13.145 c 0.435,0.387 0.443,1.088 0.019,1.565 l -3.462,3.894 c -0.424,0.478 -1.12,0.552 -1.556,0.165 l -0.394,-0.35 c -0.436,-0.388 -0.443,-1.088 -0.02,-1.565 l 3.462,-3.894 c 0.425,-0.478 1.121,-0.552 1.557,-0.165 l 0.394,0.35 z"
       id="path9595"
       style="fill:#f7d5ad" /><path
       d="m 19.774,14.796 c 0.449,0.399 0.489,1.086 0.091,1.535 l -3.249,3.654 c -0.398,0.448 -1.086,0.488 -1.534,0.09 l -0.406,-0.36 c -0.449,-0.399 -0.488,-1.086 -0.09,-1.535 l 3.249,-3.654 c 0.398,-0.448 1.085,-0.489 1.534,-0.091 l 0.405,0.361 z"
       id="path9597"
       style="fill:#f7d5ad" /><rect
       width="4"
       height="12"
       x="28"
       y="6"
       id="rect9599"
       style="fill:#ffffff" /><circle
       cx="30.496"
       cy="24.983999"
       r="0.509"
       transform="translate(0,-8)"
       id="circle9601"
       style="fill:#605e5d" /><rect
       width="8"
       height="14"
       x="32"
       y="5"
       id="rect9603"
       style="fill:#2d333d" /><path
       d="m 17.6,9.102 c 0,0 1.903,0.106 2.751,-0.608 0,0 0.239,-1.002 -0.557,-1.171 l -2.568,1.129 c 0,-10e-4 0.248,0.511 0.374,0.65 z"
       id="path9605"
       style="fill:#f9f8ed" /><path
       d="m 17.026,13.236 c -0.324,-0.288 -0.89,-0.182 -1.263,0.238 l -0.406,0.457 c 0.178,0.655 0.777,1.14 1.497,1.14 0.045,0 0.087,-0.009 0.13,-0.013 l 0.247,-0.277 c 0.374,-0.421 0.413,-0.995 0.089,-1.283 l -0.294,-0.262 z"
       id="path9607"
       style="fill:#f9f8ed" /><path
       d="m 19.062,14.763 c -0.323,-0.287 -0.889,-0.182 -1.263,0.238 l -0.406,0.457 c 0.178,0.655 0.778,1.14 1.497,1.14 0.045,0 0.087,-0.009 0.131,-0.013 l 0.247,-0.277 c 0.373,-0.421 0.412,-0.995 0.089,-1.283 l -0.295,-0.262 z"
       id="path9609"
       style="fill:#f9f8ed" /><path
       d="m 19.946,16.992 c -0.249,-0.222 -0.685,-0.14 -0.971,0.184 l -0.312,0.351 c 0.137,0.503 0.598,0.876 1.151,0.876 0.033,0 0.065,-0.008 0.1,-0.01 l 0.189,-0.214 c 0.287,-0.323 0.317,-0.765 0.068,-0.986 l -0.225,-0.201 z"
       id="path9611"
       style="fill:#f9f8ed" /><polygon
       points="13.45,14.52 11.5,22.417 12,14.935 "
       transform="translate(0,-8)"
       id="polygon9613"
       style="fill:#7c6959" /><polygon
       points="27.367,14.623 28,14.816 28,20.547 "
       transform="translate(0,-8)"
       id="polygon9615"
       style="fill:#7c6959" /><rect
       width="11.704008"
       height="3.156002"
       x="-15.961219"
       y="9.4772873"
       transform="matrix(0.08239995,-0.99659934,0.99659934,0.08239995,0,0)"
       id="rect9617"
       style="fill:#ffffff" /><circle
       cx="9.9989996"
       cy="23.694"
       r="0.509"
       transform="translate(0,-8)"
       id="circle9619"
       style="fill:#605e5d" /><polygon
       points="0,24.476 8.088,25.194 9.136,12.517 0,11.563 "
       transform="translate(0,-8)"
       id="polygon9621"
       style="fill:#161616" /><path
       d="m 15.837,11.501 c 0.421,0.373 0.458,1.017 0.085,1.437 l -3.043,3.423 c -0.373,0.42 -1.017,0.458 -1.437,0.085 l -0.38,-0.338 C 10.642,15.734 10.604,15.09 10.977,14.67 l 3.043,-3.423 c 0.373,-0.42 1.017,-0.457 1.437,-0.084 l 0.38,0.338 z"
       id="path9623"
       style="fill:#f7d5ad" /><path
       d="m 14.991,11.71 c -0.324,-0.288 -0.89,-0.182 -1.263,0.238 l -0.406,0.457 c 0.178,0.654 0.777,1.14 1.497,1.14 0.045,0 0.087,-0.01 0.13,-0.013 l 0.247,-0.278 c 0.373,-0.42 0.413,-0.994 0.089,-1.282 L 14.991,11.71 z"
       id="path9625"
       style="fill:#f9f8ed" /></g></svg>