<?xml version="1.0" encoding="UTF-8" standalone="no"?>
<!-- Created with Inkscape (http://www.inkscape.org/) -->

<svg
   xmlns:dc="http://purl.org/dc/elements/1.1/"
   xmlns:cc="http://creativecommons.org/ns#"
   xmlns:rdf="http://www.w3.org/1999/02/22-rdf-syntax-ns#"
   xmlns:svg="http://www.w3.org/2000/svg"
   xmlns="http://www.w3.org/2000/svg"
   version="1.1"
   width="32"
   height="32"
   viewBox="0 0 32 32"
   id="Calque_1"
   xml:space="preserve"><metadata
     id="metadata9660"><rdf:RDF><cc:Work
         rdf:about=""><dc:format>image/svg+xml</dc:format><dc:type
           rdf:resource="http://purl.org/dc/dcmitype/StillImage" /><dc:title></dc:title></cc:Work></rdf:RDF></metadata><defs
     id="defs9658" /><g
     transform="matrix(0.8,0,0,0.8,0,6.4)"
     id="g11445"><rect
       width="40"
       height="40"
       x="0"
       y="-8"
       id="rect9634"
       style="fill:#54c692" /><path
       d="m 35.304,6.771 c 0,-4.495 -4.178,-8.139 -9.331,-8.139 -5.154,0 -9.331,3.645 -9.331,8.139 0,4.496 4.177,8.14 9.331,8.14 0,0 2.481,1.95 6.555,1.904 l -1.873,-4.429 1.187,0.709 c 2.11,-1.492 3.462,-3.769 3.462,-6.324 z"
       id="path9636"
       style="fill:#ffffff" /><path
       d="m 14.925,6.771 c 0,-1.387 0.329,-2.706 0.917,-3.903 -0.338,-0.032 -0.68,-0.052 -1.027,-0.052 -5.154,0 -9.331,3.644 -9.331,8.14 0,2.555 1.352,4.831 3.462,6.324 L 10.133,16.571 8.26,21 c 4.073,0.046 6.555,-1.904 6.555,-1.904 2.98,0 5.629,-1.224 7.336,-3.121 -4.213,-1.386 -7.226,-4.986 -7.226,-9.204 z"
       id="path9638"
       style="fill:#ffffff" /><line
       style="fill:none;stroke:#a4cfee;stroke-linecap:round;stroke-linejoin:round;stroke-miterlimit:10"
       id="line9640"
       y2="4.5"
       x2="27"
       y1="4.5"
       x1="21"
       stroke-miterlimit="10" /><line
       style="fill:none;stroke:#a4cfee;stroke-linecap:round;stroke-linejoin:round;stroke-miterlimit:10"
       id="line9642"
       y2="9.5"
       x2="14"
       y1="9.5"
       x1="10"
       stroke-miterlimit="10" /><line
       style="fill:none;stroke:#a4cfee;stroke-linecap:round;stroke-linejoin:round;stroke-miterlimit:10"
       id="line9644"
       y2="13.5"
       x2="14"
       y1="13.5"
       x1="10"
       stroke-miterlimit="10" /><line
       style="fill:none;stroke:#a4cfee;stroke-linecap:round;stroke-linejoin:round;stroke-miterlimit:10"
       id="line9646"
       y2="6.5"
       x2="32"
       y1="6.5"
       x1="21"
       stroke-miterlimit="10" /><line
       style="fill:none;stroke:#a4cfee;stroke-linecap:round;stroke-linejoin:round;stroke-miterlimit:10"
       id="line9648"
       y2="11.5"
       x2="14"
       y1="11.5"
       x1="8"
       stroke-miterlimit="10" /><line
       style="fill:none;stroke:#a4cfee;stroke-linecap:round;stroke-linejoin:round;stroke-miterlimit:10"
       id="line9650"
       y2="8.5"
       x2="32"
       y1="8.5"
       x1="21"
       stroke-miterlimit="10" /><ellipse
       cx="13.817"
       cy="32"
       rx="8.3330002"
       ry="0.5"
       transform="translate(0,-8)"
       id="ellipse9652"
       style="fill:#41966d" /><ellipse
       cx="27.15"
       cy="34"
       rx="8.3330002"
       ry="0.5"
       transform="translate(0,-8)"
       id="ellipse9654"
       style="fill:#41966d" /></g></svg>