<?xml version="1.0" encoding="UTF-8" standalone="no"?>
<!-- Created with Inkscape (http://www.inkscape.org/) -->

<svg
   xmlns:dc="http://purl.org/dc/elements/1.1/"
   xmlns:cc="http://creativecommons.org/ns#"
   xmlns:rdf="http://www.w3.org/1999/02/22-rdf-syntax-ns#"
   xmlns:svg="http://www.w3.org/2000/svg"
   xmlns="http://www.w3.org/2000/svg"
   version="1.1"
   width="32"
   height="32"
   viewBox="0 0 32 32"
   id="Calque_1"
   xml:space="preserve"><metadata
     id="metadata9693"><rdf:RDF><cc:Work
         rdf:about=""><dc:format>image/svg+xml</dc:format><dc:type
           rdf:resource="http://purl.org/dc/dcmitype/StillImage" /><dc:title></dc:title></cc:Work></rdf:RDF></metadata><defs
     id="defs9691" /><g
     transform="matrix(0.8,0,0,0.8,0,6.4)"
     id="g11477"><rect
       width="40"
       height="40"
       x="0"
       y="-8"
       id="rect9663"
       style="fill:#b5d378" /><polygon
       points="21,36 21,3 34,8 34,36 "
       transform="translate(0,-8)"
       id="polygon9665"
       style="fill:#a4cfee" /><polygon
       points="26,36 26,29.692 29,30.417 29,36 "
       transform="translate(0,-8)"
       id="polygon9667"
       style="fill:#4c5060" /><polygon
       points="12,36 12,8 21,3 21,36 "
       transform="translate(0,-8)"
       id="polygon9669"
       style="fill:#7ca9bf" /><polygon
       points="21,27.809 34,15 34,8 21,20.235 "
       transform="translate(0,-8)"
       id="polygon9671"
       style="fill:#d4edfc" /><polygon
       points="32.551,7.442 31.027,6.856 21,16.294 21,18.824 "
       transform="translate(0,-8)"
       id="polygon9673"
       style="fill:#d4edfc" /><rect
       width="40"
       height="4"
       x="0"
       y="28"
       id="rect9675"
       style="fill:#ada1a1" /><line
       style="fill:none;stroke:#844e39;stroke-linecap:round;stroke-miterlimit:10"
       id="line9677"
       y2="29"
       x2="7.5"
       y1="22"
       x1="7.5"
       stroke-miterlimit="10" /><path
       d="m 10.834,21.524 c 0,1.966 -1.567,3.56 -3.5,3.56 -1.934,0 -3.5,-1.594 -3.5,-3.56 0,-1.965 3.5,-8.44 3.5,-8.44 0,0 3.5,6.476 3.5,8.44 z"
       id="path9679"
       style="fill:#398762" /><path
       d="m 10.834,21.524 c 0,1.966 -1.567,3.56 -3.5,3.56 -1.934,0 -3.5,-1.594 -3.5,-3.56 0,-1.965 3.5,-8.44 3.5,-8.44 0,0 3.5,6.476 3.5,8.44 z"
       id="path9681"
       style="fill:#54af6c" /><path
       d="m 3.5,21.524 c 0,1.966 1.5,3.56 3.5,3.56 v -12 c 0,0 -3.5,6.476 -3.5,8.44 z"
       id="path9683"
       style="fill:#398762" /><polygon
       points="20.979,8.354 21,6 12,15 12,17.127 "
       transform="translate(0,-8)"
       id="polygon9685"
       style="fill:#89b9cc" /><polygon
       points="20.979,14.354 21,10 12,19 12,23.127 "
       transform="translate(0,-8)"
       id="polygon9687"
       style="fill:#89b9cc" /></g></svg>