<?xml version="1.0" encoding="UTF-8" standalone="no"?>
<!-- Created with Inkscape (http://www.inkscape.org/) -->

<svg
   xmlns:dc="http://purl.org/dc/elements/1.1/"
   xmlns:cc="http://creativecommons.org/ns#"
   xmlns:rdf="http://www.w3.org/1999/02/22-rdf-syntax-ns#"
   xmlns:svg="http://www.w3.org/2000/svg"
   xmlns="http://www.w3.org/2000/svg"
   xmlns:xlink="http://www.w3.org/1999/xlink"
   version="1.1"
   width="32"
   height="32"
   viewBox="0 0 32 32"
   id="Calque_1"
   xml:space="preserve"><metadata
     id="metadata9748"><rdf:RDF><cc:Work
         rdf:about=""><dc:format>image/svg+xml</dc:format><dc:type
           rdf:resource="http://purl.org/dc/dcmitype/StillImage" /><dc:title></dc:title></cc:Work></rdf:RDF></metadata><defs
     id="defs9746" /><g
     transform="matrix(0.8,0,0,0.8,0,6.4)"
     id="g11398"><rect
       width="40"
       height="40"
       x="0"
       y="-8"
       id="rect9696"
       style="fill:#efdb8b" /><rect
       width="40"
       height="3"
       x="0"
       y="29"
       id="rect9698"
       style="fill:#6d563a" /><g
       transform="translate(0,-8)"
       id="g9700"><defs
         id="defs9702"><rect
           width="40"
           height="40"
           x="0"
           y="0"
           id="SVGID_3_" /></defs><clipPath
         id="SVGID_2_"><use
           id="use9706"
           style="overflow:visible"
           x="0"
           y="0"
           width="40"
           height="40"
           xlink:href="#SVGID_3_" /></clipPath><g
         clip-path="url(#SVGID_2_)"
         id="g9708"><rect
           width="28"
           height="21"
           x="10"
           y="13"
           id="rect9710"
           style="fill:#30302e" /><path
           d="M 41,35.489 C 41,36.336 40.146,37 39.298,37 H 8.702 C 7.854,37 7,36.336 7,35.489 V 34 h 34 v 1.489 z"
           id="path9712"
           style="fill:#a0a0a0" /><rect
           width="26"
           height="17"
           x="11"
           y="14"
           id="rect9714"
           style="fill:#3887be" /><polygon
           points="17.984,31 23.775,31 37,17.691 37,14 35.958,14 "
           id="polygon9716"
           style="fill:#a4cfee" /><polygon
           points="32.106,14 14.133,31 15.56,31 33.415,14 "
           id="polygon9718"
           style="fill:#a4cfee" /><rect
           width="10"
           height="1"
           x="19"
           y="34"
           id="rect9720"
           style="fill:#bebebf" /></g></g><g
       transform="translate(0,-8)"
       id="g9722"><defs
         id="defs9724"><rect
           width="40"
           height="40"
           x="0"
           y="0"
           id="SVGID_5_" /></defs><clipPath
         id="SVGID_4_"><use
           id="use9728"
           style="overflow:visible"
           x="0"
           y="0"
           width="40"
           height="40"
           xlink:href="#SVGID_5_" /></clipPath><g
         clip-path="url(#SVGID_4_)"
         id="g9730"><polygon
           points="-1,37 -2,23 7,23 6,37 "
           id="polygon9732"
           style="fill:#ffffff" /><rect
           width="11"
           height="1"
           x="-3"
           y="22"
           id="rect9734"
           style="fill:#ffffff" /><polygon
           points="-2,22 -1,20 6,20 7,22 "
           id="polygon9736"
           style="fill:#ffffff" /><polygon
           points="-1,20 2,20 2,22 3,22 3,37 -1,37 -2,23 -3,23 -3,22 -2,22 "
           id="polygon9738"
           style="fill:#ebf2ee" /><circle
           cx="2.5"
           cy="29.25"
           r="2.9170001"
           id="circle9740"
           style="fill:#54c692" /><polygon
           points="7,23 -1.835,25.31 -2,23 "
           id="polygon9742"
           style="fill:#ebf2ee" /></g></g></g></svg>