<?xml version="1.0" encoding="UTF-8" standalone="no"?>
<!-- Created with Inkscape (http://www.inkscape.org/) -->

<svg
   xmlns:dc="http://purl.org/dc/elements/1.1/"
   xmlns:cc="http://creativecommons.org/ns#"
   xmlns:rdf="http://www.w3.org/1999/02/22-rdf-syntax-ns#"
   xmlns:svg="http://www.w3.org/2000/svg"
   xmlns="http://www.w3.org/2000/svg"
   version="1.1"
   width="32"
   height="32"
   viewBox="0 0 32 32"
   id="Calque_1"
   xml:space="preserve"><metadata
     id="metadata10673"><rdf:RDF><cc:Work
         rdf:about=""><dc:format>image/svg+xml</dc:format><dc:type
           rdf:resource="http://purl.org/dc/dcmitype/StillImage" /><dc:title></dc:title></cc:Work></rdf:RDF></metadata><defs
     id="defs10671" /><g
     transform="matrix(0.58181818,0,0,0.58181818,0,13.381818)"
     id="g11314"><rect
       width="55"
       height="55"
       x="0"
       y="-23"
       id="rect10665"
       style="fill:#254368" /><path
       d="m 17.85,-2.27 h 4.137 v -1.876 -1.837 -0.309 c 0,-1.772 0.043,-4.508 1.332,-6.198 1.355,-1.792 3.212,-3.01 6.415,-3.01 5.219,0 7.416,0.742 7.416,0.742 l -1.031,6.13 c 0,0 -1.723,-0.499 -3.336,-0.499 -1.607,0 -3.049,0.575 -3.049,2.183 v 0.653 2.146 1.876 H 36.33 L 35.869,3.712 H 29.734 V 24.5 H 21.986 V 3.712 H 17.85 V -2.27 l 0,0 z"
       id="path10667"
       style="fill:#ffffff" /></g></svg>