<?xml version="1.0" encoding="UTF-8" standalone="no"?>
<!-- Created with Inkscape (http://www.inkscape.org/) -->

<svg
   xmlns:dc="http://purl.org/dc/elements/1.1/"
   xmlns:cc="http://creativecommons.org/ns#"
   xmlns:rdf="http://www.w3.org/1999/02/22-rdf-syntax-ns#"
   xmlns:svg="http://www.w3.org/2000/svg"
   xmlns="http://www.w3.org/2000/svg"
   xmlns:xlink="http://www.w3.org/1999/xlink"
   version="1.1"
   width="32"
   height="32"
   viewBox="0 0 32 32"
   id="Calque_1"
   xml:space="preserve"><metadata
     id="metadata10746"><rdf:RDF><cc:Work
         rdf:about=""><dc:format>image/svg+xml</dc:format><dc:type
           rdf:resource="http://purl.org/dc/dcmitype/StillImage" /><dc:title></dc:title></cc:Work></rdf:RDF></metadata><defs
     id="defs10744" /><g
     transform="matrix(0.8,0,0,0.8,0,6.4)"
     id="g11212"><g
       transform="translate(0,-8)"
       id="g10676"><path
         d="m 0,0 c 13.333333,0 26.666667,0 40,0 0,13.333333 0,26.666667 0,40 C 26.666667,40 13.333333,40 0,40 0,26.666667 0,13.333333 0,0 z"
         id="rect10678"
         style="fill:#396099" /></g><path
       d="m 18,17 c 1.333333,0 2.666667,0 4,0 0,2 0,4 0,6 -1.333333,0 -2.666667,0 -4,0 0,-2 0,-4 0,-6 z"
       id="rect10680"
       style="fill:#ffffff" /><path
       d="m 25.353,10.298 c -0.04139,2.674934 -0.26199,6.008374 -2.801611,7.540025 -2.382418,1.238956 -5.936324,0.572267 -6.99008,-2.128546 C 14.182789,12.240582 14.588675,8.3631055 15.141002,4.7606577 15.846777,1.1735265 17.262005,-2.4721785 20,-5 c 4.079782,3.8811431 5.327906,9.867621 5.353,15.298 z"
       id="path10682"
       style="fill:#c7d3cd" /><path
       d="m 20,0.11 c 1.378039,-0.04502847 4.288621,-0.04525369 2.523179,-1.891837 -0.864435,-1.2088515 -2.28403,-4.4675711 -3.579304,-2.130038 -0.750699,1.2094359 -3.547881,3.94707239 -0.64425,3.884375 C 18.861428,0.06444307 19.430743,0.11002504 20,0.11 z"
       id="path10684"
       style="fill:#ee6565" /><path
       d="M 25.353,10.298 C 25.337436,4.9273665 24.111753,-0.85255438 20.230012,-4.7983477 19.746363,-5.0847797 20.11523,-3.4900526 20,-2.9635324 20,4.1639784 20,11.291489 20,18.419 22.289179,18.594229 24.34726,16.890821 24.825071,14.682663 25.243196,13.262531 25.348455,11.771472 25.353,10.298 z"
       id="path10686"
       style="fill:#ebf2ee" /><path
       d="M 22.465,5.477 C 22.580107,7.587927 19.668082,8.793427 18.256982,7.220018 16.683573,5.808919 17.889073,2.896893 20,3.012 c 1.325302,-0.028222 2.493085,1.138791 2.465,2.465 z"
       id="circle10688"
       style="fill:#949b97" /><path
       d="M 21.849,5.477 C 21.854129,8.643768 16.688033,7.078208 18.46678,4.443207 19.401498,2.933043 21.918154,3.701 21.849,5.477 z"
       id="circle10690"
       style="fill:#ffffff" /><path
       d="m 20,-5 c 0,1.7033333 0,3.4066667 0,5.11 1.378039,-0.04502847 4.288621,-0.04525369 2.523179,-1.891837 C 21.836557,-2.961079 21.033544,-4.0984486 20,-5 z"
       id="path10692"
       style="fill:#ee8a65" /><path
       d="m 22.295,17.959 c 1.89325,-0.870261 2.607407,-3.020979 2.878,-4.943 -1.806338,0.934116 -2.849259,2.94815 -2.878,4.943 z"
       id="path10694"
       style="fill:#949b97" /><path
       d="m 22.911,17.616 c 1.811394,0.938706 3.389964,2.460245 4.139,4.384 1.654595,0.314611 1.084917,-2.337191 1.318125,-3.34975 0.0072,-2.243275 -1.186385,-4.454465 -3.146125,-5.57425 -1.631245,0.849072 -2.339144,2.78875 -2.311,4.54 z"
       id="path10696"
       style="fill:#c7d3cd" /><path
       d="m 25.222,12.951 c 3.039743,1.693383 3.738067,5.681457 2.722686,8.781828 -0.775101,0.743587 0.178668,-2.005358 -0.105888,-2.63658 -0.01482,-2.250356 -0.9387,-4.779011 -3.159798,-5.704248 0.171012,-0.158631 0.350035,-0.30955 0.543,-0.441 z"
       id="path10698"
       style="fill:#ebf2ee" /><path
       d="m 17.705,17.959 c -1.89325,-0.870261 -2.607407,-3.020979 -2.878,-4.943 1.807958,0.93643 2.84793,2.945429 2.878,4.943 z"
       id="path10700"
       style="fill:#949b97" /><path
       d="M 17.089,17.616 C 15.277606,18.554706 13.699036,20.076245 12.95,22 11.295405,22.314611 11.865083,19.662809 11.631875,18.65025 11.624704,16.406975 12.81826,14.195785 14.778,13.076 c 1.631245,0.849072 2.339144,2.78875 2.311,4.54 z"
       id="path10702"
       style="fill:#c7d3cd" /><path
       d="m 14.778,12.951 c -3.039743,1.693383 -3.738067,5.681457 -2.722686,8.781828 0.775101,0.743587 -0.178668,-2.005358 0.105888,-2.63658 0.01482,-2.250356 0.9387,-4.779011 3.159798,-5.704248 -0.171012,-0.158631 -0.350035,-0.30955 -0.543,-0.441 z"
       id="path10704"
       style="fill:#ebf2ee" /><g
       transform="translate(0,-8)"
       id="g10706"><defs
         id="defs10708"><rect
           width="40"
           height="40"
           x="0"
           y="0"
           id="SVGID_1_" /></defs><clipPath
         id="SVGID_2_"><use
           id="use10712"
           style="overflow:visible"
           x="0"
           y="0"
           width="40"
           height="40"
           xlink:href="#SVGID_1_" /></clipPath><path
         d="m 26.758,40 c -2.270333,-3.363333 -4.540667,-6.726667 -6.811,-10.09 -1.816333,3.363333 -3.632667,6.726667 -5.449,10.09 4.086667,0 8.173333,0 12.26,0 z"
         clip-path="url(#SVGID_2_)"
         id="polygon10714"
         style="fill:#ffffff" /><path
         d="m 22.712,32.073 c 0.123904,2.362622 -3.012536,3.843894 -4.757562,2.245449 -1.888098,-1.40066 -1.059796,-4.737274 1.264181,-5.092371 1.743028,-0.405572 3.539658,1.057206 3.493381,2.846922 z"
         clip-path="url(#SVGID_2_)"
         id="path10716"
         style="fill:#ffffff" /><path
         d="m 19.309999,35.139 c 0.108527,2.086538 -2.662089,3.393072 -4.203122,1.982365 -1.766458,-1.302721 -0.821176,-4.431892 1.371457,-4.538102 1.464824,-0.189854 2.871108,1.079318 2.831665,2.555737 z"
         clip-path="url(#SVGID_2_)"
         id="circle10718"
         style="fill:#ffffff" /><path
         d="m 16.586,39.226002 c 0.108569,2.08735 -2.663125,3.394392 -4.204759,1.983137 -1.767145,-1.303229 -0.821495,-4.433618 1.371991,-4.539869 1.465394,-0.189927 2.872226,1.079738 2.832768,2.556732 z"
         clip-path="url(#SVGID_2_)"
         id="circle10720"
         style="fill:#ffffff" /><path
         d="m 12.5,39.226002 c 0.10857,2.08735 -2.6631249,3.394392 -4.2047583,1.983137 C 6.5280961,39.90591 7.4737468,36.775521 9.6672327,36.66927 11.132627,36.479343 12.539459,37.749008 12.5,39.226002 z"
         clip-path="url(#SVGID_2_)"
         id="circle10722"
         style="fill:#ffffff" /><path
         d="m 26.121,36.5 c 0.108527,2.086538 -2.662089,3.393072 -4.203123,1.982365 -1.766458,-1.302721 -0.821175,-4.431892 1.371458,-4.538102 C 24.754159,33.754409 26.160443,35.023581 26.121,36.5 z"
         clip-path="url(#SVGID_2_)"
         id="circle10724"
         style="fill:#ffffff" /><path
         d="m 28.848,40.588001 c 0.108569,2.087351 -2.663125,3.394393 -4.204759,1.983137 -1.767145,-1.303228 -0.821495,-4.433617 1.371991,-4.539868 1.465395,-0.189928 2.872226,1.079737 2.832768,2.556731 z"
         clip-path="url(#SVGID_2_)"
         id="circle10726"
         style="fill:#ffffff" /><path
         d="m 32.934,40.588001 c 0.10857,2.087351 -2.663125,3.394393 -4.204758,1.983137 -1.767146,-1.303228 -0.821495,-4.433617 1.371991,-4.539868 1.465394,-0.189928 2.872226,1.079737 2.832767,2.556731 z"
         clip-path="url(#SVGID_2_)"
         id="circle10728"
         style="fill:#ffffff" /><path
         d="m 23.732,33.606998 c 0.0038,2.35324 -3.835138,1.189865 -2.513343,-0.768216 0.694593,-1.122209 2.564731,-0.551537 2.513343,0.768216 z"
         clip-path="url(#SVGID_2_)"
         id="circle10730"
         style="fill:#ffffff" /><path
         d="m 27.485,37.861 c 0.0034,2.068932 -3.371794,1.046111 -2.209692,-0.675404 0.610675,-0.98663 2.254872,-0.484903 2.209692,0.675404 z"
         clip-path="url(#SVGID_2_)"
         id="circle10732"
         style="fill:#ffffff" /><path
         d="m 29.597,39.226002 c 0.0054,3.353451 -5.46521,1.6956 -3.581604,-1.094737 0.98982,-1.599189 3.654834,-0.78596 3.581604,1.094737 z"
         clip-path="url(#SVGID_2_)"
         id="circle10734"
         style="fill:#ffffff" /><path
         d="m 20,37.5 c -0.70562,1.33138 -1.249809,-0.484766 -1,-1.244508 0.0263,-2.982032 -0.05254,-5.97458 0.03931,-8.950054 1.026918,-0.961042 1.046606,0.867131 0.960687,1.552207 0,2.880785 0,5.76157 0,8.642355 z"
         clip-path="url(#SVGID_2_)"
         id="path10736"
         style="fill:#396099" /><path
         d="m 22,46.5 c -0.70562,1.33138 -1.249809,-0.484766 -1,-1.244508 0.02638,-3.64869 -0.05265,-7.307924 0.03931,-10.950054 1.026918,-0.961042 1.046606,0.867131 0.960687,1.552207 0,3.547452 0,7.094903 0,10.642355 z"
         clip-path="url(#SVGID_2_)"
         id="path10738"
         style="fill:#396099" /><path
         d="m 18,48.5 c -0.70562,1.33138 -1.249809,-0.484766 -1,-1.244508 0.02638,-3.64869 -0.05265,-7.307924 0.03931,-10.950054 1.026918,-0.961042 1.046606,0.867131 0.960687,1.552207 0,3.547452 0,7.094903 0,10.642355 z"
         clip-path="url(#SVGID_2_)"
         id="path10740"
         style="fill:#396099" /></g></g></svg>