<?xml version="1.0" encoding="UTF-8" standalone="no"?>
<!-- Created with Inkscape (http://www.inkscape.org/) -->

<svg
   xmlns:dc="http://purl.org/dc/elements/1.1/"
   xmlns:cc="http://creativecommons.org/ns#"
   xmlns:rdf="http://www.w3.org/1999/02/22-rdf-syntax-ns#"
   xmlns:svg="http://www.w3.org/2000/svg"
   xmlns="http://www.w3.org/2000/svg"
   version="1.1"
   width="32"
   height="32"
   viewBox="0 0 32 32"
   id="Calque_1"
   xml:space="preserve"><metadata
     id="metadata10783"><rdf:RDF><cc:Work
         rdf:about=""><dc:format>image/svg+xml</dc:format><dc:type
           rdf:resource="http://purl.org/dc/dcmitype/StillImage" /><dc:title></dc:title></cc:Work></rdf:RDF></metadata><defs
     id="defs10781" /><g
     transform="matrix(0.8,0,0,0.8,0,6.4)"
     id="g11161"><path
       d="m 0,-8 c 13.333333,0 26.666667,0 40,0 0,13.3333333 0,26.666667 0,40 C 26.666667,32 13.333333,32 0,32 0,18.666667 0,5.3333333 0,-8 z"
       id="rect10749"
       style="fill:#8f5faf" /><path
       d="m 31.364001,24.187 c -1.530418,1.17523 -3.817926,0.919339 -5.6874,1.211914 -5.276069,0.278383 -10.633127,0.378138 -15.8439311,-0.606256 -2.7498729,-0.756362 1.1907131,-1.637761 2.2000531,-1.593486 5.775801,-0.576849 11.644318,-0.616723 17.397317,0.206752 0.624648,0.188434 1.576805,0.160572 1.933961,0.781076 z"
       id="ellipse10751"
       style="fill:#67477f" /><path
       d="M 23.433,4.803 C 23.777587,2.7003388 26.203671,1.9402596 26.907369,0.06801758 27.404404,-1.3473557 25.938765,-0.96368043 25.106944,-1 21.193962,-1 17.280981,-1 13.368,-1 12.627799,1.1217782 15.357554,1.9103036 16.218869,3.4265469 17.564772,5.556637 14.427562,6.1440153 13.367172,7.5041111 10.756308,9.7887582 8.2414682,12.987574 8.7664,16.678879 c 0.1302927,3.290443 2.295289,6.381858 5.443915,7.436901 3.708059,1.280403 7.899221,1.245465 11.601408,-0.03928 3.160204,-1.066367 5.366061,-4.151871 5.501271,-7.466242 C 31.852451,12.602808 28.947836,9.246102 26.118075,6.8157082 25.264707,6.0919503 24.373374,5.4102802 23.433,4.803 z"
       id="path10753"
       style="fill:#dbbd79" /><path
       d="M 17.224,5.352 C 17.04523,5.7279278 16.076183,6.9305097 16.407446,6.7729283 16.970297,6.3729522 17.533149,5.9729761 18.096,5.573 c 0.15227,0.3856229 0.285483,1.9192278 0.449924,1.5717455 0.29722,-0.482428 0.0458,-1.8536422 0.852206,-1.5111988 C 19.787908,6.1454505 20.074653,6.7974729 20.425,7.363 20.526049,6.7741768 19.839126,5.6950556 20.671215,5.5611062 21.926727,4.9470225 20.641807,7.9080001 21.964,8.402 23.937959,10.516194 21.559735,3.9603584 23.926326,6.2570862 25.209843,6.7008016 24.721871,9.8936351 26.334,8.616 26.267768,6.2419797 23.894531,5.2429152 21.838057,5.1685996 20.308001,4.9652962 18.758131,5.292221 17.224,5.352 z"
       id="path10755"
       style="fill:#998358" /><path
       d="M 17.797,4.803 C 17.272333,3.961667 16.747667,3.120333 16.223,2.279 c 1.034333,0.841333 2.068667,1.682667 3.103,2.524 0.111333,-0.841333 0.222667,-1.682667 0.334,-2.524 0.270667,0.933 0.541333,1.866 0.812,2.799 0.732,-0.933 1.464,-1.866 2.196,-2.799 -0.190667,0.886667 -0.381333,1.773333 -0.572,2.66 C 20.663,4.893667 19.23,4.848333 17.797,4.803 z"
       id="polygon10757"
       style="fill:#998358" /><path
       d="m 24.037,4.803 c -2.546678,0.8147588 -5.33974,0.6541532 -7.902,0"
       id="path10759"
       style="fill:none;stroke:#4c3d1e;stroke-linecap:round;stroke-miterlimit:10" /><path
       d="m 16.135,3.566 c 2.376931,0.9090471 4.926441,1.3652725 7.47,1.373 -1.276866,1.31049 -1.029077,3.4124701 0,4.79"
       id="path10761"
       style="fill:none;stroke:#4c3d1e;stroke-linecap:round;stroke-linejoin:round;stroke-miterlimit:10" /><path
       d="M 26.632,8.868 C 26.44604,7.1788767 25.570078,5.0465581 23.605,4.939"
       id="path10763"
       style="fill:none;stroke:#4c3d1e;stroke-linecap:round;stroke-linejoin:round;stroke-miterlimit:10" /><path
       d="m 23.456,21.202 c -2.359284,1.368949 -5.920676,0.0089 -6.269,-2.832 -0.851609,0.429484 -1.2563,-0.712052 -0.667726,-0.977 1.063167,0.121633 0.332922,-0.885579 -0.226274,-0.758137 -0.493794,-1.322541 1.05159,-0.392442 1.082922,-1.399691 0.776912,-2.425501 3.820592,-3.38839 6.025078,-2.337172 -0.241304,0.881342 -0.178513,2.154073 -1.467531,1.267328 -1.007631,-0.692793 -3.589299,1.638773 -1.895646,1.605672 0.914725,0 1.829451,0 2.744177,0 0.256245,0.959035 -0.28539,1.12019 -1.131371,0.977 -0.832876,0 -1.665753,0 -2.498629,0 -0.344704,1.135386 1.161582,0.467709 1.796193,0.646 0.540187,0.146507 1.670419,-0.297031 1.833807,0.226274 0.329346,1.032136 -0.688738,0.716843 -1.357645,0.750726 -0.697785,0 -1.39557,0 -2.093355,0 0.210008,2.021496 2.875853,1.619726 3.842857,1.527155 0.09405,0.434615 0.188095,0.86923 0.282143,1.303845 z"
       id="path10765"
       style="fill:#4c3d1e" /><path
       d="M 18.323,2.249 C 17.877,1.166 17.431,0.083 16.985,-1 15.797633,-1.258152 16.35319,-0.5908795 16.823124,0.0309309 17.323083,0.7702873 17.823041,1.5096436 18.323,2.249 z"
       id="polygon10767"
       style="fill:#998358" /><path
       d="M 20.615,2.249 C 20.933333,1.166 21.251667,0.083 21.57,-1 20.566255,-1.3112094 20.645592,-0.5072042 20.673626,0.2439763 20.654084,0.9123176 20.634542,1.5806588 20.615,2.249 z"
       id="polygon10769"
       style="fill:#998358" /><path
       d="M 23.605,2.773 C 24.232333,1.5153333 24.859667,0.2576667 25.487,-1 24.585259,-1.2392281 24.267726,-0.7426915 24.226575,0.1019284 24.019383,0.9922856 23.812192,1.8826428 23.605,2.773 z"
       id="polygon10771"
       style="fill:#998358" /><path
       d="M 13.06,17.68 C 14.255694,16.098442 11.566161,17.58286 13.01245,18.356266 14.353285,18.570448 12.816626,18.212345 13.06,17.68 z"
       id="path10773"
       style="fill:#998358" /><path
       d="M 10.768,16.533 C 11.963598,14.952177 9.2750729,16.43703 10.72145,17.210109 12.061186,17.423036 10.522636,17.065407 10.768,16.533 z"
       id="path10775"
       style="fill:#998358" /><path
       d="M 11.914,19.972 C 13.109403,18.390082 10.421139,19.87606 11.86745,20.649953 13.207165,20.862305 11.669088,20.503946 11.914,19.972 z"
       id="path10777"
       style="fill:#998358" /></g></svg>