<?xml version="1.0" encoding="UTF-8" standalone="no"?>
<!-- Created with Inkscape (http://www.inkscape.org/) -->

<svg
   xmlns:dc="http://purl.org/dc/elements/1.1/"
   xmlns:cc="http://creativecommons.org/ns#"
   xmlns:rdf="http://www.w3.org/1999/02/22-rdf-syntax-ns#"
   xmlns:svg="http://www.w3.org/2000/svg"
   xmlns="http://www.w3.org/2000/svg"
   version="1.1"
   width="32"
   height="32"
   viewBox="0 0 32 32"
   id="Calque_1"
   xml:space="preserve"><metadata
     id="metadata10903"><rdf:RDF><cc:Work
         rdf:about=""><dc:format>image/svg+xml</dc:format><dc:type
           rdf:resource="http://purl.org/dc/dcmitype/StillImage" /><dc:title></dc:title></cc:Work></rdf:RDF></metadata><defs
     id="defs10901" /><g
     transform="matrix(0.8,0,0,0.8,0,6.4)"
     id="g11066"><rect
       width="40"
       height="40"
       x="0"
       y="-8"
       id="rect10801"
       style="fill:#ee6565" /><rect
       width="22"
       height="20"
       x="9"
       y="5"
       id="rect10803"
       style="fill:#b54d4d" /><rect
       width="3"
       height="20"
       x="8"
       y="5"
       id="rect10805"
       style="fill:#f7eded" /><rect
       width="3"
       height="20"
       x="14"
       y="5"
       id="rect10807"
       style="fill:#f7eded" /><path
       d="M 14,5 V 7.208 C 14.553,7.208 15,7 15,6 h 1 c 0,1 0.447,1.208 1,1.208 V 5 h -3 z"
       id="path10809"
       style="fill:#c6b9b9" /><path
       d="M 8,5 V 7.208 C 8.553,7.208 9,7 9,6 h 1 c 0,1 0.447,1.208 1,1.208 V 5 H 8 z"
       id="path10811"
       style="fill:#c6b9b9" /><rect
       width="3"
       height="20"
       x="23"
       y="5"
       id="rect10813"
       style="fill:#f7eded" /><path
       d="M 23,5 V 7.208 C 23.553,7.208 24,7 24,6 h 1 c 0,1 0.447,1.208 1,1.208 V 5 h -3 z"
       id="path10815"
       style="fill:#c6b9b9" /><rect
       width="3"
       height="20"
       x="29"
       y="5"
       id="rect10817"
       style="fill:#f7eded" /><path
       d="M 29,5 V 7.208 C 29.553,7.208 30,7 30,6 h 1 c 0,1 0.447,1.208 1,1.208 V 5 h -3 z"
       id="path10819"
       style="fill:#c6b9b9" /><circle
       cx="8"
       cy="14"
       r="1"
       transform="translate(0,-8)"
       id="circle10821"
       style="fill:#e2d0d0" /><circle
       cx="11"
       cy="14"
       r="1"
       transform="translate(0,-8)"
       id="circle10823"
       style="fill:#e2d0d0" /><circle
       cx="14"
       cy="14"
       r="1"
       transform="translate(0,-8)"
       id="circle10825"
       style="fill:#e2d0d0" /><circle
       cx="17"
       cy="14"
       r="1"
       transform="translate(0,-8)"
       id="circle10827"
       style="fill:#e2d0d0" /><circle
       cx="22.937"
       cy="14"
       r="1"
       transform="translate(0,-8)"
       id="circle10829"
       style="fill:#e2d0d0" /><circle
       cx="26"
       cy="14"
       r="1"
       transform="translate(0,-8)"
       id="circle10831"
       style="fill:#e2d0d0" /><path
       d="m 32,5 h -3 c -0.553,0 -1,0.448 -1,1 0,0.552 0.447,1 1,1 0.553,0 1,-0.448 1,-1 h 1 c 0,0.552 0.447,1 1,1 0.553,0 1,-0.448 1,-1 0,-0.552 -0.447,-1 -1,-1 z"
       id="path10833"
       style="fill:#e2d0d0" /><circle
       cx="29"
       cy="14"
       r="0.396"
       transform="translate(0,-8)"
       id="circle10835"
       style="fill:#c6b9b9" /><circle
       cx="32"
       cy="14"
       r="0.396"
       transform="translate(0,-8)"
       id="circle10837"
       style="fill:#c6b9b9" /><rect
       width="32"
       height="1"
       x="4"
       y="27"
       id="rect10839"
       style="fill:#f7eded" /><rect
       width="30"
       height="1"
       x="5"
       y="26"
       id="rect10841"
       style="fill:#c6b9b9" /><rect
       width="28"
       height="1"
       x="6"
       y="25"
       id="rect10843"
       style="fill:#e2d0d0" /><rect
       width="3"
       height="1"
       x="8"
       y="5"
       id="rect10845"
       style="fill:#e2d0d0" /><rect
       width="3"
       height="1"
       x="14"
       y="5"
       id="rect10847"
       style="fill:#e2d0d0" /><rect
       width="3"
       height="1"
       x="23"
       y="5"
       id="rect10849"
       style="fill:#e2d0d0" /><circle
       cx="8"
       cy="14"
       r="0.396"
       transform="translate(0,-8)"
       id="circle10851"
       style="fill:#c6b9b9" /><circle
       cx="11"
       cy="14"
       r="0.396"
       transform="translate(0,-8)"
       id="circle10853"
       style="fill:#c6b9b9" /><circle
       cx="14.062"
       cy="14"
       r="0.396"
       transform="translate(0,-8)"
       id="circle10855"
       style="fill:#c6b9b9" /><circle
       cx="16.938"
       cy="14"
       r="0.396"
       transform="translate(0,-8)"
       id="circle10857"
       style="fill:#c6b9b9" /><circle
       cx="22.937"
       cy="14"
       r="0.396"
       transform="translate(0,-8)"
       id="circle10859"
       style="fill:#c6b9b9" /><circle
       cx="26"
       cy="14"
       r="0.396"
       transform="translate(0,-8)"
       id="circle10861"
       style="fill:#c6b9b9" /><rect
       width="28"
       height="1"
       x="6"
       y="4"
       id="rect10863"
       style="fill:#c6b9b9" /><polygon
       points="5,12 5,10.656 20,3.399 35,10.656 35,12 "
       transform="translate(0,-8)"
       id="polygon10865"
       style="fill:#f7eded" /><polygon
       points="8,11 8,10.05 20,5.336 32,10.05 32,11 "
       transform="translate(0,-8)"
       id="polygon10867"
       style="fill:#e2d0d0" /><polyline
       transform="translate(0,-8)"
       style="fill:#c6b9b9"
       id="polyline10869"
       points="8,10.025 20,6.083 32,10.05 32,10 20,5.336 8,10.05 " /><rect
       width="5"
       height="2"
       x="7"
       y="23"
       id="rect10871"
       style="fill:#f7eded" /><rect
       width="5"
       height="2"
       x="13"
       y="23"
       id="rect10873"
       style="fill:#f7eded" /><rect
       width="5"
       height="2"
       x="22"
       y="23"
       id="rect10875"
       style="fill:#f7eded" /><rect
       width="5"
       height="2"
       x="28"
       y="23"
       id="rect10877"
       style="fill:#f7eded" /><polygon
       points="7,33 12,32 12,33 "
       transform="translate(0,-8)"
       id="polygon10879"
       style="fill:#c6b9b9" /><polygon
       points="13,33 18,32 18,33 "
       transform="translate(0,-8)"
       id="polygon10881"
       style="fill:#c6b9b9" /><polygon
       points="22,33 27,32 27,33 "
       transform="translate(0,-8)"
       id="polygon10883"
       style="fill:#c6b9b9" /><polygon
       points="28,33 33,32 33,33 "
       transform="translate(0,-8)"
       id="polygon10885"
       style="fill:#c6b9b9" /><polygon
       points="8,31 11,31 11,30 "
       transform="translate(0,-8)"
       id="polygon10887"
       style="fill:#e2d0d0" /><polygon
       points="14,31 17,31 17,30 "
       transform="translate(0,-8)"
       id="polygon10889"
       style="fill:#e2d0d0" /><polygon
       points="23,31 26,31 26,30 "
       transform="translate(0,-8)"
       id="polygon10891"
       style="fill:#e2d0d0" /><polygon
       points="29,31 32,31 32,30 "
       transform="translate(0,-8)"
       id="polygon10893"
       style="fill:#e2d0d0" /><circle
       cx="5"
       cy="11.087"
       r="0.91299999"
       transform="translate(0,-8)"
       id="circle10895"
       style="fill:#f7eded" /><circle
       cx="35"
       cy="11.087"
       r="0.91299999"
       transform="translate(0,-8)"
       id="circle10897"
       style="fill:#f7eded" /></g></svg>