<?xml version="1.0" encoding="UTF-8" standalone="no"?>
<!-- Created with Inkscape (http://www.inkscape.org/) -->

<svg
   xmlns:dc="http://purl.org/dc/elements/1.1/"
   xmlns:cc="http://creativecommons.org/ns#"
   xmlns:rdf="http://www.w3.org/1999/02/22-rdf-syntax-ns#"
   xmlns:svg="http://www.w3.org/2000/svg"
   xmlns="http://www.w3.org/2000/svg"
   version="1.1"
   width="32"
   height="32"
   viewBox="0 0 32 32"
   id="Calque_1"
   xml:space="preserve"><metadata
     id="metadata10932"><rdf:RDF><cc:Work
         rdf:about=""><dc:format>image/svg+xml</dc:format><dc:type
           rdf:resource="http://purl.org/dc/dcmitype/StillImage" /><dc:title></dc:title></cc:Work></rdf:RDF></metadata><defs
     id="defs10930" /><g
     transform="matrix(0.8,0,0,0.8,0,6.4)"
     id="g11034"><rect
       width="40"
       height="40"
       x="0"
       y="-8"
       id="rect10906"
       style="fill:#a4cfee" /><path
       d="M 0.625,-1.625"
       id="path10908"
       style="fill:#1d2028" /><polygon
       points="5.858,26 20,21.857 34.142,26 20,30.143 "
       transform="translate(0,-8)"
       id="polygon10910"
       style="fill:#7cb0d1" /><path
       d="m 28,18 c 0,0 -3.375,2 -8,2 -4.5,0 -8,-2 -8,-2 l 1,-8 h 14 l 1,8 z"
       id="path10912"
       style="fill:#363a4c" /><polygon
       points="13,18 12.642,20.867 20,25.125 28,20.438 28,18 "
       transform="translate(0,-8)"
       id="polygon10914"
       style="fill:#1d2028" /><polygon
       points="5.858,18 20,13.858 34.142,18 20,22.143 "
       transform="translate(0,-8)"
       id="polygon10916"
       style="fill:#3f425b" /><polygon
       points="5.858,18 20,13.858 34.142,18 20,22.143 "
       transform="translate(0,-8)"
       id="polygon10918"
       style="fill:#3f425b" /><ellipse
       cx="20"
       cy="17.656"
       rx="1.062"
       ry="0.34400001"
       transform="translate(0,-8)"
       id="ellipse10920"
       style="fill:#dbb849" /><polygon
       points="29.628,19.322 27.015,20.088 19.188,17.875 20.729,17.406 "
       transform="translate(0,-8)"
       id="polygon10922"
       style="fill:#dbb849" /><ellipse
       cx="20"
       cy="17.656"
       rx="0.58099997"
       ry="0.18799999"
       transform="translate(0,-8)"
       id="ellipse10924"
       style="fill:#1d2028" /><polygon
       points="27,25 29.628,23.869 29.628,19.322 27.015,20.088 "
       transform="translate(0,-8)"
       id="polygon10926"
       style="fill:#bf9d40" /></g></svg>