<?xml version="1.0" encoding="UTF-8" standalone="no"?>
<!-- Created with Inkscape (http://www.inkscape.org/) -->

<svg
   xmlns:dc="http://purl.org/dc/elements/1.1/"
   xmlns:cc="http://creativecommons.org/ns#"
   xmlns:rdf="http://www.w3.org/1999/02/22-rdf-syntax-ns#"
   xmlns:svg="http://www.w3.org/2000/svg"
   xmlns="http://www.w3.org/2000/svg"
   version="1.1"
   width="32"
   height="32"
   viewBox="0 0 32 32"
   id="Calque_1"
   xml:space="preserve"><metadata
     id="metadata10943"><rdf:RDF><cc:Work
         rdf:about=""><dc:format>image/svg+xml</dc:format><dc:type
           rdf:resource="http://purl.org/dc/dcmitype/StillImage" /><dc:title></dc:title></cc:Work></rdf:RDF></metadata><defs
     id="defs10941" /><g
     transform="matrix(0.58181818,0,0,0.58181818,0,13.381818)"
     id="g11011"><rect
       width="55"
       height="55"
       x="0"
       y="-23"
       id="rect10935"
       style="fill:#317a93" /><path
       d="m 46.5,-7.287 c -1.398,0.621 -2.9,1.039 -4.478,1.228 1.608,-0.965 2.846,-2.493 3.428,-4.312 -1.507,0.893 -3.175,1.543 -4.95,1.892 -1.422,-1.517 -3.448,-2.462 -5.691,-2.462 -4.305,0 -7.795,3.491 -7.795,7.796 0,0.61 0.067,1.204 0.201,1.777 -6.48,-0.326 -12.225,-3.431 -16.069,-8.148 -0.672,1.152 -1.056,2.492 -1.056,3.923 0,2.703 1.377,5.089 3.469,6.489 -1.277,-0.041 -2.48,-0.393 -3.531,-0.974 -0.002,0.028 -0.002,0.061 -0.002,0.096 0,3.777 2.688,6.929 6.255,7.644 -0.653,0.18 -1.343,0.275 -2.054,0.275 -0.502,0 -0.991,-0.05 -1.467,-0.14 0.992,3.096 3.871,5.35 7.282,5.413 -2.668,2.09 -6.03,3.338 -9.683,3.338 -0.629,0 -1.25,-0.036 -1.859,-0.11 3.449,2.212 7.549,3.504 11.951,3.504 14.34,0 22.182,-11.881 22.182,-22.185 0,-0.337 -0.008,-0.673 -0.023,-1.007 1.523,-1.097 2.845,-2.47 3.89,-4.037 z"
       id="path10937"
       style="fill:#ffffff" /></g></svg>