<?xml version="1.0" encoding="utf-8"?>
<!-- Generator: Adobe Illustrator 19.1.0, SVG Export Plug-In . SVG Version: 6.00 Build 0)  -->
<svg version="1.1" id="Calque_1" xmlns="http://www.w3.org/2000/svg" xmlns:xlink="http://www.w3.org/1999/xlink" x="0px" y="0px"
	 viewBox="0 0 612 792" style="enable-background:new 0 0 612 792;" xml:space="preserve">
<style type="text/css">
	.st0{fill:none;stroke:#000000;stroke-width:20;stroke-linecap:round;stroke-linejoin:round;stroke-miterlimit:10;}
	.st1{fill:none;}
	.st2{font-family:'OCRAStd';}
	.st3{font-size:265px;}
</style>
<path class="st0" d="M584.9,402.2c0-154.1-124.9-278.9-278.9-278.9S27.1,248.2,27.1,402.2c0,139.5,102.4,255.1,236.1,275.7l0,0l0,0
	c2,0.3,3.9,0.6,5.9,0.8c20.9,5.8,36.9,41.6,36.9,84.9c0-43.4,16-79.1,36.9-84.9c2-0.3,4-0.5,5.9-0.8l0,0l0,0
	C482.6,657.3,584.9,541.7,584.9,402.2z"/>
<rect x="105.5" y="321.1" class="st1" width="411.8" height="323.5"/>
<text transform="matrix(1 0 0 1 105.5228 516.3635)" class="st2 st3">83</text>
</svg>
