<?xml version="1.0" encoding="UTF-8" standalone="no"?>
<!-- Created with Inkscape (http://www.inkscape.org/) -->

<svg
   xmlns:dc="http://purl.org/dc/elements/1.1/"
   xmlns:cc="http://creativecommons.org/ns#"
   xmlns:rdf="http://www.w3.org/1999/02/22-rdf-syntax-ns#"
   xmlns:svg="http://www.w3.org/2000/svg"
   xmlns="http://www.w3.org/2000/svg"
   xmlns:sodipodi="http://sodipodi.sourceforge.net/DTD/sodipodi-0.dtd"
   xmlns:inkscape="http://www.inkscape.org/namespaces/inkscape"
   width="48mm"
   height="48mm"
   viewBox="0 0 170.07874 170.07874"
   id="svg4719"
   version="1.1"
   inkscape:version="0.91 r13725"
   sodipodi:docname="83.svg">
  <defs
     id="defs4721" />
  <sodipodi:namedview
     id="base"
     pagecolor="#ffffff"
     bordercolor="#666666"
     borderopacity="1.0"
     inkscape:pageopacity="0.0"
     inkscape:pageshadow="2"
     inkscape:zoom="2.8"
     inkscape:cx="15.822571"
     inkscape:cy="47.405018"
     inkscape:document-units="px"
     inkscape:current-layer="g5303"
     showgrid="false"
     inkscape:window-width="1871"
     inkscape:window-height="1056"
     inkscape:window-x="49"
     inkscape:window-y="24"
     inkscape:window-maximized="1" />
  <metadata
     id="metadata4724">
    <rdf:RDF>
      <cc:Work
         rdf:about="">
        <dc:format>image/svg+xml</dc:format>
        <dc:type
           rdf:resource="http://purl.org/dc/dcmitype/StillImage" />
        <dc:title></dc:title>
      </cc:Work>
    </rdf:RDF>
  </metadata>
  <g
     inkscape:label="Layer 1"
     inkscape:groupmode="layer"
     id="layer1"
     transform="translate(0,-882.28346)">
    <g
       id="g5303">
      <path
         style="fill:none;stroke:#000000;stroke-width:5.09514618;stroke-linecap:round;stroke-linejoin:round;stroke-miterlimit:10"
         inkscape:connector-curvature="0"
         id="path5"
         d="m 156.09118,956.83198 c 0,-39.25809 -31.81919,-71.05181 -71.051814,-71.05181 -39.232643,0 -71.051804,31.8192 -71.051804,71.05181 0,35.53869 26.087145,64.98872 60.148179,70.23662 l 0,0 0,0 c 0.509523,0.077 0.993578,0.1529 1.503063,0.2038 5.324451,1.4776 9.400562,10.5979 9.400562,21.6289 0,-11.0565 4.076118,-20.1513 9.400532,-21.6289 0.509522,-0.076 1.019045,-0.1272 1.503062,-0.2038 l 0,0 0,0 c 34.08655,-5.2479 60.14822,-34.69793 60.14822,-70.23662 z"
         class="st0" />
      <rect
         style="fill:none"
         id="rect7"
         height="82.413986"
         width="104.90906"
         class="st1"
         y="936.17126"
         x="33.960564" />
      <text
         style="font-size:67.51068878px;font-family:OCRAStd"
         y="983.89764"
         x="41.740891"
         id="text9"
         class="st2 st3">83</text>
    </g>
  </g>
</svg>
